G75*
%MOIN*%
%OFA0B0*%
%FSLAX25Y25*%
%IPPOS*%
%LPD*%
%AMOC8*
5,1,8,0,0,1.08239X$1,22.5*
%
%ADD10R,0.04331X0.03937*%
%ADD11C,0.07400*%
%ADD12C,0.01181*%
%ADD13C,0.13000*%
%ADD14R,0.03700X0.03000*%
%ADD15R,0.03000X0.03700*%
%ADD16OC8,0.05600*%
%ADD17R,0.07124X0.07124*%
%ADD18OC8,0.06600*%
%ADD19R,0.04300X0.05900*%
%ADD20R,0.07900X0.04300*%
%ADD21R,0.07900X0.05900*%
%ADD22R,0.04300X0.04300*%
%ADD23R,0.03150X0.03150*%
%ADD24C,0.03200*%
%ADD25C,0.01600*%
%ADD26C,0.04362*%
%ADD27C,0.02400*%
%ADD28R,0.04362X0.04362*%
D10*
X0042954Y0160800D03*
X0049646Y0160800D03*
X0049646Y0167300D03*
X0042954Y0167300D03*
X0042954Y0174300D03*
X0049646Y0174300D03*
X0049646Y0180800D03*
X0042954Y0180800D03*
X0042954Y0187300D03*
X0049646Y0187300D03*
D11*
X0015457Y0017300D03*
X0035143Y0017300D03*
X0092800Y0011800D03*
X0109300Y0025800D03*
X0117300Y0011800D03*
X0109300Y0085800D03*
X0071800Y0187300D03*
X0074300Y0206800D03*
X0071300Y0225800D03*
X0014300Y0206800D03*
X0011300Y0225800D03*
X0011800Y0187300D03*
D12*
X0275922Y0169375D02*
X0278678Y0169375D01*
X0275922Y0169375D02*
X0275922Y0172131D01*
X0278678Y0172131D01*
X0278678Y0169375D01*
X0278678Y0170555D02*
X0275922Y0170555D01*
X0275922Y0171735D02*
X0278678Y0171735D01*
X0278678Y0162469D02*
X0275922Y0162469D01*
X0275922Y0165225D01*
X0278678Y0165225D01*
X0278678Y0162469D01*
X0278678Y0163649D02*
X0275922Y0163649D01*
X0275922Y0164829D02*
X0278678Y0164829D01*
D13*
X0079300Y0018300D03*
X0053800Y0018300D03*
D14*
X0223800Y0039000D03*
X0223800Y0045600D03*
X0236300Y0045600D03*
X0236300Y0039000D03*
X0284300Y0164000D03*
X0284300Y0170600D03*
D15*
X0252100Y0023300D03*
X0245500Y0023300D03*
D16*
X0152300Y0091800D03*
X0162300Y0101800D03*
X0152300Y0111800D03*
D17*
X0106800Y0097050D03*
X0106800Y0130550D03*
X0084300Y0162800D03*
X0014300Y0162800D03*
X0014300Y0142800D03*
X0014300Y0082800D03*
X0014300Y0042800D03*
X0084300Y0042800D03*
X0084300Y0062800D03*
D18*
X0261300Y0206800D03*
X0271300Y0206800D03*
X0281300Y0206800D03*
X0281300Y0216800D03*
X0271300Y0216800D03*
X0261300Y0216800D03*
D19*
X0026000Y0214300D03*
X0026000Y0201300D03*
D20*
X0027800Y0207800D03*
D21*
X0033400Y0201300D03*
X0033400Y0214300D03*
D22*
X0035300Y0207800D03*
D23*
X0223800Y0033253D03*
X0223800Y0027347D03*
X0236300Y0027347D03*
X0236300Y0033253D03*
D24*
X0236300Y0039000D01*
X0223800Y0039000D02*
X0223800Y0033253D01*
X0223800Y0027347D02*
X0224300Y0022300D01*
X0236300Y0019800D02*
X0236300Y0027347D01*
X0243800Y0023300D02*
X0245500Y0023300D01*
X0243800Y0023300D02*
X0244300Y0018300D01*
X0104800Y0063300D02*
X0084300Y0042800D01*
X0104800Y0063300D02*
X0104800Y0085300D01*
X0042954Y0160800D02*
X0024954Y0142800D01*
X0014300Y0142800D01*
X0042300Y0159146D02*
X0042954Y0160800D01*
X0042954Y0167300D01*
X0042954Y0174300D01*
X0042954Y0180800D01*
X0042954Y0187300D01*
X0035300Y0194954D01*
X0035300Y0207800D01*
X0035800Y0204700D01*
X0033400Y0201300D01*
X0035300Y0207800D02*
X0035300Y0213400D01*
X0033400Y0214300D01*
X0026000Y0214300D02*
X0025800Y0214500D01*
X0025800Y0221800D01*
X0021800Y0225800D01*
X0011300Y0225800D01*
X0008800Y0213800D02*
X0016800Y0213800D01*
X0022300Y0208300D01*
X0022300Y0207800D01*
X0027800Y0207800D01*
X0026000Y0201300D02*
X0019800Y0201300D01*
X0014300Y0206800D01*
X0008800Y0213800D02*
X0006300Y0211300D01*
X0006300Y0192300D01*
X0011800Y0187300D01*
X0014300Y0082800D02*
X0015800Y0082800D01*
X0014300Y0042800D02*
X0014800Y0042300D01*
D25*
X0136800Y0041763D02*
X0220384Y0041763D01*
X0219950Y0041328D02*
X0219950Y0036672D01*
X0220200Y0036422D01*
X0220200Y0032537D01*
X0220225Y0032476D01*
X0220225Y0030850D01*
X0220775Y0030300D01*
X0220225Y0029750D01*
X0220225Y0027963D01*
X0220147Y0027705D01*
X0220225Y0026915D01*
X0220225Y0025416D01*
X0220119Y0025310D01*
X0220119Y0019290D01*
X0221290Y0018119D01*
X0227310Y0018119D01*
X0228481Y0019290D01*
X0228481Y0025310D01*
X0227525Y0026266D01*
X0227375Y0027779D01*
X0227375Y0029750D01*
X0226825Y0030300D01*
X0227375Y0030850D01*
X0227375Y0032476D01*
X0227400Y0032537D01*
X0227400Y0036422D01*
X0227650Y0036672D01*
X0227650Y0041328D01*
X0226479Y0042500D01*
X0226755Y0042660D01*
X0227090Y0042995D01*
X0227327Y0043405D01*
X0227450Y0043863D01*
X0227450Y0045600D01*
X0227450Y0047337D01*
X0227327Y0047795D01*
X0227090Y0048205D01*
X0226755Y0048540D01*
X0226345Y0048777D01*
X0225887Y0048900D01*
X0223800Y0048900D01*
X0223800Y0045600D01*
X0223800Y0045600D01*
X0227450Y0045600D01*
X0223800Y0045600D01*
X0223800Y0045600D01*
X0223800Y0045600D01*
X0220150Y0045600D01*
X0220150Y0047337D01*
X0220273Y0047795D01*
X0220510Y0048205D01*
X0220845Y0048540D01*
X0221255Y0048777D01*
X0221713Y0048900D01*
X0223800Y0048900D01*
X0223800Y0045600D01*
X0220150Y0045600D01*
X0220150Y0043863D01*
X0220273Y0043405D01*
X0220510Y0042995D01*
X0220845Y0042660D01*
X0221121Y0042500D01*
X0219950Y0041328D01*
X0219950Y0040164D02*
X0136800Y0040164D01*
X0136800Y0038566D02*
X0219950Y0038566D01*
X0219950Y0036967D02*
X0136800Y0036967D01*
X0136800Y0035369D02*
X0220200Y0035369D01*
X0220200Y0033770D02*
X0136800Y0033770D01*
X0136800Y0032172D02*
X0220225Y0032172D01*
X0220502Y0030573D02*
X0136800Y0030573D01*
X0136800Y0028975D02*
X0220225Y0028975D01*
X0220180Y0027376D02*
X0136800Y0027376D01*
X0136800Y0025778D02*
X0220225Y0025778D01*
X0220119Y0024179D02*
X0136800Y0024179D01*
X0136800Y0022581D02*
X0220119Y0022581D01*
X0220119Y0020982D02*
X0136800Y0020982D01*
X0136800Y0019384D02*
X0220119Y0019384D01*
X0228481Y0019384D02*
X0232119Y0019384D01*
X0232119Y0020982D02*
X0228481Y0020982D01*
X0228481Y0022581D02*
X0232119Y0022581D01*
X0232119Y0022810D02*
X0232119Y0016790D01*
X0233290Y0015619D01*
X0239310Y0015619D01*
X0240119Y0016428D01*
X0240119Y0015290D01*
X0241290Y0014119D01*
X0247310Y0014119D01*
X0248481Y0015290D01*
X0248481Y0020103D01*
X0249000Y0020621D01*
X0249160Y0020345D01*
X0249495Y0020010D01*
X0249905Y0019773D01*
X0250363Y0019650D01*
X0252100Y0019650D01*
X0253837Y0019650D01*
X0254295Y0019773D01*
X0254705Y0020010D01*
X0255040Y0020345D01*
X0255277Y0020755D01*
X0255400Y0021213D01*
X0255400Y0023300D01*
X0255400Y0025387D01*
X0255277Y0025845D01*
X0255040Y0026255D01*
X0254705Y0026590D01*
X0254295Y0026827D01*
X0253837Y0026950D01*
X0252100Y0026950D01*
X0252100Y0023300D01*
X0252100Y0023300D01*
X0255400Y0023300D01*
X0252100Y0023300D01*
X0252100Y0023300D01*
X0252100Y0026950D01*
X0250363Y0026950D01*
X0249905Y0026827D01*
X0249495Y0026590D01*
X0249160Y0026255D01*
X0249000Y0025979D01*
X0247828Y0027150D01*
X0243172Y0027150D01*
X0242844Y0026822D01*
X0242729Y0026811D01*
X0242256Y0026557D01*
X0241761Y0026352D01*
X0241630Y0026221D01*
X0241467Y0026134D01*
X0241127Y0025719D01*
X0240748Y0025339D01*
X0240677Y0025168D01*
X0240560Y0025025D01*
X0240405Y0024512D01*
X0240200Y0024016D01*
X0240200Y0023831D01*
X0240147Y0023654D01*
X0240200Y0023120D01*
X0240200Y0023091D01*
X0239900Y0023391D01*
X0239900Y0028063D01*
X0239875Y0028124D01*
X0239875Y0029750D01*
X0239325Y0030300D01*
X0239875Y0030850D01*
X0239875Y0032476D01*
X0239900Y0032537D01*
X0239900Y0036422D01*
X0240150Y0036672D01*
X0240150Y0041328D01*
X0238979Y0042500D01*
X0239255Y0042660D01*
X0239590Y0042995D01*
X0239827Y0043405D01*
X0239950Y0043863D01*
X0239950Y0045600D01*
X0239950Y0047337D01*
X0239827Y0047795D01*
X0239590Y0048205D01*
X0239255Y0048540D01*
X0238845Y0048777D01*
X0238387Y0048900D01*
X0236300Y0048900D01*
X0236300Y0045600D01*
X0236300Y0045600D01*
X0239950Y0045600D01*
X0236300Y0045600D01*
X0236300Y0045600D01*
X0236300Y0045600D01*
X0232650Y0045600D01*
X0232650Y0047337D01*
X0232773Y0047795D01*
X0233010Y0048205D01*
X0233345Y0048540D01*
X0233755Y0048777D01*
X0234213Y0048900D01*
X0236300Y0048900D01*
X0236300Y0045600D01*
X0232650Y0045600D01*
X0232650Y0043863D01*
X0232773Y0043405D01*
X0233010Y0042995D01*
X0233345Y0042660D01*
X0233621Y0042500D01*
X0232450Y0041328D01*
X0232450Y0036672D01*
X0232700Y0036422D01*
X0232700Y0032537D01*
X0232725Y0032476D01*
X0232725Y0030850D01*
X0233275Y0030300D01*
X0232725Y0029750D01*
X0232725Y0028124D01*
X0232700Y0028063D01*
X0232700Y0023391D01*
X0232119Y0022810D01*
X0232700Y0024179D02*
X0228481Y0024179D01*
X0228013Y0025778D02*
X0232700Y0025778D01*
X0232700Y0027376D02*
X0227415Y0027376D01*
X0227375Y0028975D02*
X0232725Y0028975D01*
X0233002Y0030573D02*
X0227098Y0030573D01*
X0227375Y0032172D02*
X0232725Y0032172D01*
X0232700Y0033770D02*
X0227400Y0033770D01*
X0227400Y0035369D02*
X0232700Y0035369D01*
X0232450Y0036967D02*
X0227650Y0036967D01*
X0227650Y0038566D02*
X0232450Y0038566D01*
X0232450Y0040164D02*
X0227650Y0040164D01*
X0227216Y0041763D02*
X0232884Y0041763D01*
X0232798Y0043361D02*
X0227302Y0043361D01*
X0227450Y0044960D02*
X0232650Y0044960D01*
X0232650Y0046558D02*
X0227450Y0046558D01*
X0227118Y0048157D02*
X0232982Y0048157D01*
X0236300Y0048157D02*
X0236300Y0048157D01*
X0236300Y0046558D02*
X0236300Y0046558D01*
X0239618Y0048157D02*
X0262300Y0048157D01*
X0262300Y0049755D02*
X0136800Y0049755D01*
X0136800Y0048157D02*
X0220482Y0048157D01*
X0220150Y0046558D02*
X0136800Y0046558D01*
X0136800Y0044960D02*
X0220150Y0044960D01*
X0220298Y0043361D02*
X0136800Y0043361D01*
X0136800Y0051354D02*
X0262300Y0051354D01*
X0262300Y0052952D02*
X0136800Y0052952D01*
X0136800Y0054551D02*
X0262300Y0054551D01*
X0262300Y0056149D02*
X0136800Y0056149D01*
X0136800Y0057748D02*
X0262300Y0057748D01*
X0262300Y0059346D02*
X0136800Y0059346D01*
X0136800Y0060945D02*
X0262300Y0060945D01*
X0262300Y0062543D02*
X0136800Y0062543D01*
X0136800Y0064142D02*
X0262300Y0064142D01*
X0262300Y0065740D02*
X0136800Y0065740D01*
X0136800Y0067339D02*
X0262300Y0067339D01*
X0262300Y0068800D02*
X0262300Y0003800D01*
X0136800Y0003800D01*
X0136800Y0139000D01*
X0171140Y0139000D01*
X0173040Y0137100D01*
X0151913Y0137100D01*
X0151168Y0137845D01*
X0149632Y0138481D01*
X0147968Y0138481D01*
X0146432Y0137845D01*
X0145255Y0136668D01*
X0144619Y0135132D01*
X0144619Y0133468D01*
X0145255Y0131932D01*
X0146432Y0130755D01*
X0147968Y0130119D01*
X0149632Y0130119D01*
X0151168Y0130755D01*
X0151913Y0131500D01*
X0173640Y0131500D01*
X0174926Y0130214D01*
X0175714Y0129426D01*
X0176743Y0129000D01*
X0226822Y0129000D01*
X0226896Y0128974D01*
X0227376Y0129000D01*
X0227857Y0129000D01*
X0227930Y0129030D01*
X0228009Y0129034D01*
X0228442Y0129242D01*
X0228886Y0129426D01*
X0228942Y0129482D01*
X0229013Y0129516D01*
X0229334Y0129874D01*
X0229674Y0130214D01*
X0229704Y0130287D01*
X0242334Y0144374D01*
X0242674Y0144714D01*
X0242704Y0144787D01*
X0242757Y0144846D01*
X0242916Y0145299D01*
X0243100Y0145743D01*
X0243100Y0145822D01*
X0243126Y0145896D01*
X0243100Y0146376D01*
X0243100Y0174479D01*
X0243968Y0174119D01*
X0245632Y0174119D01*
X0247168Y0174755D01*
X0248345Y0175932D01*
X0248981Y0177468D01*
X0248981Y0179132D01*
X0248345Y0180668D01*
X0247690Y0181323D01*
X0248562Y0210969D01*
X0256000Y0217263D01*
X0256000Y0214605D01*
X0258805Y0211800D01*
X0256000Y0208995D01*
X0256000Y0204605D01*
X0256246Y0204358D01*
X0251634Y0197594D01*
X0251426Y0197386D01*
X0251324Y0197139D01*
X0251173Y0196917D01*
X0251113Y0196629D01*
X0251000Y0196357D01*
X0251000Y0196089D01*
X0250945Y0195827D01*
X0251000Y0195537D01*
X0251000Y0169913D01*
X0250255Y0169168D01*
X0249619Y0167632D01*
X0249619Y0165968D01*
X0250255Y0164432D01*
X0251432Y0163255D01*
X0252968Y0162619D01*
X0254632Y0162619D01*
X0256168Y0163255D01*
X0257345Y0164432D01*
X0257981Y0165968D01*
X0257981Y0166428D01*
X0258790Y0165619D01*
X0264810Y0165619D01*
X0265981Y0166790D01*
X0265981Y0167500D01*
X0274133Y0167500D01*
X0274333Y0167300D01*
X0273726Y0166693D01*
X0273331Y0165740D01*
X0273331Y0161954D01*
X0273726Y0161002D01*
X0274455Y0160273D01*
X0275407Y0159879D01*
X0279193Y0159879D01*
X0280145Y0160273D01*
X0280874Y0161002D01*
X0280924Y0161122D01*
X0280998Y0161123D01*
X0281622Y0160500D01*
X0286978Y0160500D01*
X0288150Y0161672D01*
X0288150Y0166328D01*
X0286979Y0167500D01*
X0287255Y0167660D01*
X0287590Y0167995D01*
X0287827Y0168405D01*
X0287950Y0168863D01*
X0287950Y0170600D01*
X0287950Y0172337D01*
X0287827Y0172795D01*
X0287590Y0173205D01*
X0287255Y0173540D01*
X0286845Y0173777D01*
X0286387Y0173900D01*
X0284300Y0173900D01*
X0284300Y0170600D01*
X0284300Y0170600D01*
X0287950Y0170600D01*
X0284300Y0170600D01*
X0284300Y0170600D01*
X0284300Y0173900D01*
X0282213Y0173900D01*
X0281755Y0173777D01*
X0281345Y0173540D01*
X0281029Y0173224D01*
X0280874Y0173598D01*
X0280500Y0173972D01*
X0280500Y0200747D01*
X0280502Y0201377D01*
X0280500Y0201383D01*
X0280500Y0201389D01*
X0280454Y0201500D01*
X0283495Y0201500D01*
X0286600Y0204605D01*
X0286600Y0208995D01*
X0283654Y0211941D01*
X0286400Y0214688D01*
X0286400Y0216787D01*
X0281313Y0216787D01*
X0281313Y0216812D01*
X0286400Y0216812D01*
X0286400Y0218912D01*
X0283412Y0221900D01*
X0281313Y0221900D01*
X0281313Y0216813D01*
X0281287Y0216813D01*
X0281287Y0221900D01*
X0279188Y0221900D01*
X0276441Y0219154D01*
X0273495Y0222100D01*
X0270960Y0222100D01*
X0267386Y0225674D01*
X0266357Y0226100D01*
X0258916Y0226100D01*
X0258477Y0226137D01*
X0258363Y0226100D01*
X0258243Y0226100D01*
X0257836Y0225931D01*
X0257417Y0225797D01*
X0257325Y0225720D01*
X0257214Y0225674D01*
X0256902Y0225362D01*
X0244357Y0214747D01*
X0244284Y0214719D01*
X0243934Y0214389D01*
X0243566Y0214078D01*
X0243531Y0214009D01*
X0243474Y0213955D01*
X0243277Y0213516D01*
X0243056Y0213088D01*
X0243049Y0213010D01*
X0243018Y0212939D01*
X0243003Y0212457D01*
X0242963Y0211977D01*
X0242987Y0211903D01*
X0242219Y0185794D01*
X0242168Y0185845D01*
X0240632Y0186481D01*
X0238968Y0186481D01*
X0237432Y0185845D01*
X0236255Y0184668D01*
X0235619Y0183132D01*
X0235619Y0181468D01*
X0236255Y0179932D01*
X0236612Y0179575D01*
X0235632Y0179981D01*
X0233968Y0179981D01*
X0232432Y0179345D01*
X0231255Y0178168D01*
X0230619Y0176632D01*
X0230619Y0174968D01*
X0231255Y0173432D01*
X0232432Y0172255D01*
X0233968Y0171619D01*
X0235000Y0171619D01*
X0235000Y0148895D01*
X0232600Y0146295D01*
X0232600Y0158187D01*
X0233345Y0158932D01*
X0233981Y0160468D01*
X0233981Y0162132D01*
X0233345Y0163668D01*
X0232168Y0164845D01*
X0230632Y0165481D01*
X0228968Y0165481D01*
X0227432Y0164845D01*
X0226255Y0163668D01*
X0225619Y0162132D01*
X0225619Y0160468D01*
X0226255Y0158932D01*
X0227000Y0158187D01*
X0227000Y0144960D01*
X0222140Y0140100D01*
X0182410Y0140100D01*
X0174761Y0147299D01*
X0174412Y0147656D01*
X0174357Y0147680D01*
X0174313Y0147721D01*
X0173847Y0147898D01*
X0173387Y0148094D01*
X0173328Y0148094D01*
X0173272Y0148116D01*
X0172773Y0148100D01*
X0128380Y0148583D01*
X0128345Y0148668D01*
X0127168Y0149845D01*
X0125632Y0150481D01*
X0123968Y0150481D01*
X0122432Y0149845D01*
X0121255Y0148668D01*
X0120619Y0147132D01*
X0120619Y0146800D01*
X0034045Y0146800D01*
X0042799Y0155554D01*
X0043075Y0155559D01*
X0044389Y0156128D01*
X0045069Y0156831D01*
X0045947Y0156831D01*
X0046459Y0157343D01*
X0046786Y0157154D01*
X0047244Y0157031D01*
X0049462Y0157031D01*
X0049462Y0160616D01*
X0049831Y0160616D01*
X0049831Y0160984D01*
X0053612Y0160984D01*
X0053612Y0163005D01*
X0053489Y0163463D01*
X0053252Y0163874D01*
X0053076Y0164050D01*
X0053252Y0164226D01*
X0053489Y0164637D01*
X0053612Y0165095D01*
X0053612Y0167116D01*
X0049831Y0167116D01*
X0049831Y0167484D01*
X0053612Y0167484D01*
X0053612Y0169505D01*
X0053489Y0169963D01*
X0053252Y0170374D01*
X0052917Y0170709D01*
X0052759Y0170800D01*
X0052917Y0170891D01*
X0053252Y0171226D01*
X0053489Y0171637D01*
X0053612Y0172095D01*
X0053612Y0174116D01*
X0049831Y0174116D01*
X0049831Y0174484D01*
X0053612Y0174484D01*
X0053612Y0176505D01*
X0053489Y0176963D01*
X0053252Y0177374D01*
X0053076Y0177550D01*
X0053252Y0177726D01*
X0053489Y0178137D01*
X0053612Y0178595D01*
X0053612Y0180616D01*
X0049831Y0180616D01*
X0049831Y0180984D01*
X0053612Y0180984D01*
X0053612Y0183005D01*
X0053489Y0183463D01*
X0053252Y0183874D01*
X0053076Y0184050D01*
X0053252Y0184226D01*
X0053489Y0184637D01*
X0053612Y0185095D01*
X0053612Y0187116D01*
X0049831Y0187116D01*
X0049831Y0187484D01*
X0053612Y0187484D01*
X0053612Y0189505D01*
X0053489Y0189963D01*
X0053252Y0190374D01*
X0052917Y0190709D01*
X0052507Y0190946D01*
X0052049Y0191068D01*
X0049831Y0191068D01*
X0049831Y0187484D01*
X0049462Y0187484D01*
X0049462Y0191068D01*
X0047244Y0191068D01*
X0046786Y0190946D01*
X0046459Y0190757D01*
X0045947Y0191268D01*
X0044076Y0191268D01*
X0038900Y0196445D01*
X0038900Y0197072D01*
X0039350Y0197522D01*
X0039350Y0204068D01*
X0039468Y0204566D01*
X0039465Y0204586D01*
X0039469Y0204606D01*
X0039435Y0204806D01*
X0039450Y0204822D01*
X0039450Y0210778D01*
X0039350Y0210878D01*
X0039350Y0218078D01*
X0038178Y0219250D01*
X0029400Y0219250D01*
X0029400Y0222516D01*
X0028852Y0223839D01*
X0027839Y0224852D01*
X0023839Y0228852D01*
X0022516Y0229400D01*
X0015761Y0229400D01*
X0014529Y0230632D01*
X0012434Y0231500D01*
X0010166Y0231500D01*
X0008071Y0230632D01*
X0006468Y0229029D01*
X0005600Y0226934D01*
X0005600Y0224666D01*
X0006468Y0222571D01*
X0008071Y0220968D01*
X0010166Y0220100D01*
X0012434Y0220100D01*
X0014529Y0220968D01*
X0015761Y0222200D01*
X0020309Y0222200D01*
X0022200Y0220309D01*
X0022200Y0218428D01*
X0021850Y0218078D01*
X0021850Y0213841D01*
X0018839Y0216852D01*
X0017516Y0217400D01*
X0008084Y0217400D01*
X0006761Y0216852D01*
X0005748Y0215839D01*
X0004300Y0214391D01*
X0004300Y0235761D01*
X0076800Y0235761D01*
X0076800Y0227417D01*
X0076132Y0229029D01*
X0074529Y0230632D01*
X0072434Y0231500D01*
X0070166Y0231500D01*
X0068071Y0230632D01*
X0066468Y0229029D01*
X0065600Y0226934D01*
X0065600Y0224666D01*
X0066468Y0222571D01*
X0068071Y0220968D01*
X0070166Y0220100D01*
X0072434Y0220100D01*
X0074529Y0220968D01*
X0076132Y0222571D01*
X0076800Y0224183D01*
X0076800Y0218800D01*
X0132800Y0218800D01*
X0132800Y0235761D01*
X0294001Y0235761D01*
X0294001Y0068800D01*
X0262300Y0068800D01*
X0262300Y0046558D02*
X0239950Y0046558D01*
X0239950Y0044960D02*
X0262300Y0044960D01*
X0262300Y0043361D02*
X0239802Y0043361D01*
X0239716Y0041763D02*
X0262300Y0041763D01*
X0262300Y0040164D02*
X0240150Y0040164D01*
X0240150Y0038566D02*
X0262300Y0038566D01*
X0262300Y0036967D02*
X0240150Y0036967D01*
X0239900Y0035369D02*
X0262300Y0035369D01*
X0262300Y0033770D02*
X0239900Y0033770D01*
X0239875Y0032172D02*
X0262300Y0032172D01*
X0262300Y0030573D02*
X0239598Y0030573D01*
X0239875Y0028975D02*
X0262300Y0028975D01*
X0262300Y0027376D02*
X0239900Y0027376D01*
X0239900Y0025778D02*
X0241176Y0025778D01*
X0240268Y0024179D02*
X0239900Y0024179D01*
X0248481Y0019384D02*
X0262300Y0019384D01*
X0262300Y0020982D02*
X0255338Y0020982D01*
X0255400Y0022581D02*
X0262300Y0022581D01*
X0262300Y0024179D02*
X0255400Y0024179D01*
X0255295Y0025778D02*
X0262300Y0025778D01*
X0262300Y0017785D02*
X0248481Y0017785D01*
X0248481Y0016187D02*
X0262300Y0016187D01*
X0262300Y0014588D02*
X0247779Y0014588D01*
X0252100Y0019650D02*
X0252100Y0023300D01*
X0252100Y0019650D01*
X0252100Y0020982D02*
X0252100Y0020982D01*
X0252100Y0022581D02*
X0252100Y0022581D01*
X0252100Y0023300D02*
X0252100Y0023300D01*
X0252100Y0024179D02*
X0252100Y0024179D01*
X0252100Y0025778D02*
X0252100Y0025778D01*
X0240119Y0016187D02*
X0239877Y0016187D01*
X0240821Y0014588D02*
X0136800Y0014588D01*
X0136800Y0012990D02*
X0262300Y0012990D01*
X0262300Y0011391D02*
X0136800Y0011391D01*
X0136800Y0009793D02*
X0262300Y0009793D01*
X0262300Y0008194D02*
X0136800Y0008194D01*
X0136800Y0006596D02*
X0262300Y0006596D01*
X0262300Y0004997D02*
X0136800Y0004997D01*
X0136800Y0016187D02*
X0232723Y0016187D01*
X0232119Y0017785D02*
X0136800Y0017785D01*
X0136800Y0068937D02*
X0152699Y0068937D01*
X0151932Y0069255D02*
X0153468Y0068619D01*
X0155132Y0068619D01*
X0156668Y0069255D01*
X0157161Y0069748D01*
X0158290Y0068619D01*
X0164310Y0068619D01*
X0165291Y0069600D01*
X0166437Y0069600D01*
X0167613Y0070087D01*
X0173081Y0075556D01*
X0176506Y0075441D01*
X0176557Y0075420D01*
X0177141Y0075420D01*
X0177724Y0075401D01*
X0177775Y0075420D01*
X0183767Y0075420D01*
X0184432Y0074755D01*
X0185968Y0074119D01*
X0187632Y0074119D01*
X0189168Y0074755D01*
X0190345Y0075932D01*
X0190981Y0077468D01*
X0190981Y0079132D01*
X0190345Y0080668D01*
X0189168Y0081845D01*
X0187632Y0082481D01*
X0185968Y0082481D01*
X0184432Y0081845D01*
X0184407Y0081820D01*
X0180500Y0081820D01*
X0180500Y0087309D01*
X0181481Y0088290D01*
X0181481Y0094310D01*
X0180310Y0095481D01*
X0177507Y0095481D01*
X0180013Y0097987D01*
X0180500Y0099163D01*
X0180500Y0101587D01*
X0180845Y0101932D01*
X0181481Y0103468D01*
X0181481Y0105132D01*
X0180845Y0106668D01*
X0179668Y0107845D01*
X0178132Y0108481D01*
X0176468Y0108481D01*
X0174932Y0107845D01*
X0173755Y0106668D01*
X0173119Y0105132D01*
X0173119Y0103468D01*
X0173755Y0101932D01*
X0174100Y0101587D01*
X0174100Y0101125D01*
X0152487Y0079513D01*
X0151587Y0078613D01*
X0151100Y0077437D01*
X0151100Y0075513D01*
X0150755Y0075168D01*
X0150119Y0073632D01*
X0150119Y0071968D01*
X0150755Y0070432D01*
X0151932Y0069255D01*
X0150712Y0070536D02*
X0136800Y0070536D01*
X0136800Y0072134D02*
X0150119Y0072134D01*
X0150161Y0073733D02*
X0136800Y0073733D01*
X0136800Y0075332D02*
X0150919Y0075332D01*
X0151100Y0076930D02*
X0136800Y0076930D01*
X0136800Y0078529D02*
X0151552Y0078529D01*
X0153102Y0080127D02*
X0136800Y0080127D01*
X0136800Y0081726D02*
X0154700Y0081726D01*
X0156299Y0083324D02*
X0136800Y0083324D01*
X0136800Y0084923D02*
X0157897Y0084923D01*
X0159496Y0086521D02*
X0136800Y0086521D01*
X0136800Y0088120D02*
X0149192Y0088120D01*
X0150312Y0087000D02*
X0147500Y0089812D01*
X0147500Y0093788D01*
X0150312Y0096600D01*
X0154288Y0096600D01*
X0157100Y0093788D01*
X0157100Y0089812D01*
X0154288Y0087000D01*
X0150312Y0087000D01*
X0147594Y0089718D02*
X0136800Y0089718D01*
X0136800Y0091317D02*
X0147500Y0091317D01*
X0147500Y0092915D02*
X0136800Y0092915D01*
X0136800Y0094514D02*
X0148225Y0094514D01*
X0149824Y0096112D02*
X0136800Y0096112D01*
X0136800Y0097711D02*
X0159601Y0097711D01*
X0160312Y0097000D02*
X0164288Y0097000D01*
X0167100Y0099812D01*
X0167100Y0103788D01*
X0164288Y0106600D01*
X0160312Y0106600D01*
X0157500Y0103788D01*
X0157500Y0099812D01*
X0160312Y0097000D01*
X0158003Y0099309D02*
X0136800Y0099309D01*
X0136800Y0100908D02*
X0157500Y0100908D01*
X0157500Y0102506D02*
X0136800Y0102506D01*
X0136800Y0104105D02*
X0157817Y0104105D01*
X0159415Y0105703D02*
X0136800Y0105703D01*
X0136800Y0107302D02*
X0150293Y0107302D01*
X0150395Y0107200D02*
X0152300Y0107200D01*
X0154205Y0107200D01*
X0156900Y0109895D01*
X0156900Y0111800D01*
X0156900Y0113705D01*
X0154205Y0116400D01*
X0152300Y0116400D01*
X0152300Y0111800D01*
X0156900Y0111800D01*
X0152300Y0111800D01*
X0152300Y0111800D01*
X0152300Y0111800D01*
X0152300Y0107200D01*
X0152300Y0111800D01*
X0152300Y0111800D01*
X0152300Y0111800D01*
X0147700Y0111800D01*
X0147700Y0113705D01*
X0150395Y0116400D01*
X0152300Y0116400D01*
X0152300Y0111800D01*
X0147700Y0111800D01*
X0147700Y0109895D01*
X0150395Y0107200D01*
X0152300Y0107302D02*
X0152300Y0107302D01*
X0152300Y0108900D02*
X0152300Y0108900D01*
X0152300Y0110499D02*
X0152300Y0110499D01*
X0152300Y0112097D02*
X0152300Y0112097D01*
X0152300Y0113696D02*
X0152300Y0113696D01*
X0152300Y0115294D02*
X0152300Y0115294D01*
X0155311Y0115294D02*
X0294001Y0115294D01*
X0294001Y0113696D02*
X0156900Y0113696D01*
X0156900Y0112097D02*
X0294001Y0112097D01*
X0294001Y0110499D02*
X0156900Y0110499D01*
X0155906Y0108900D02*
X0294001Y0108900D01*
X0294001Y0107302D02*
X0180211Y0107302D01*
X0181244Y0105703D02*
X0294001Y0105703D01*
X0294001Y0104105D02*
X0181481Y0104105D01*
X0181083Y0102506D02*
X0294001Y0102506D01*
X0294001Y0100908D02*
X0180500Y0100908D01*
X0180500Y0099309D02*
X0294001Y0099309D01*
X0294001Y0097711D02*
X0179736Y0097711D01*
X0178138Y0096112D02*
X0294001Y0096112D01*
X0294001Y0094514D02*
X0181277Y0094514D01*
X0181481Y0092915D02*
X0294001Y0092915D01*
X0294001Y0091317D02*
X0181481Y0091317D01*
X0181481Y0089718D02*
X0294001Y0089718D01*
X0294001Y0088120D02*
X0181310Y0088120D01*
X0180500Y0086521D02*
X0294001Y0086521D01*
X0294001Y0084923D02*
X0180500Y0084923D01*
X0180500Y0083324D02*
X0294001Y0083324D01*
X0294001Y0081726D02*
X0189287Y0081726D01*
X0190569Y0080127D02*
X0294001Y0080127D01*
X0294001Y0078529D02*
X0190981Y0078529D01*
X0190758Y0076930D02*
X0294001Y0076930D01*
X0294001Y0075332D02*
X0189744Y0075332D01*
X0183855Y0075332D02*
X0172857Y0075332D01*
X0171258Y0073733D02*
X0294001Y0073733D01*
X0294001Y0072134D02*
X0169660Y0072134D01*
X0168061Y0070536D02*
X0294001Y0070536D01*
X0294001Y0068937D02*
X0164628Y0068937D01*
X0157972Y0068937D02*
X0155901Y0068937D01*
X0155408Y0088120D02*
X0161094Y0088120D01*
X0162693Y0089718D02*
X0157006Y0089718D01*
X0157100Y0091317D02*
X0164291Y0091317D01*
X0165890Y0092915D02*
X0157100Y0092915D01*
X0156375Y0094514D02*
X0167488Y0094514D01*
X0169087Y0096112D02*
X0154776Y0096112D01*
X0164999Y0097711D02*
X0170685Y0097711D01*
X0172284Y0099309D02*
X0166597Y0099309D01*
X0167100Y0100908D02*
X0173882Y0100908D01*
X0173517Y0102506D02*
X0167100Y0102506D01*
X0166783Y0104105D02*
X0173119Y0104105D01*
X0173356Y0105703D02*
X0165185Y0105703D01*
X0174389Y0107302D02*
X0154307Y0107302D01*
X0148694Y0108900D02*
X0136800Y0108900D01*
X0136800Y0110499D02*
X0147700Y0110499D01*
X0147700Y0112097D02*
X0136800Y0112097D01*
X0136800Y0113696D02*
X0147700Y0113696D01*
X0149289Y0115294D02*
X0136800Y0115294D01*
X0136800Y0116893D02*
X0294001Y0116893D01*
X0294001Y0118491D02*
X0136800Y0118491D01*
X0136800Y0120090D02*
X0294001Y0120090D01*
X0294001Y0121688D02*
X0136800Y0121688D01*
X0136800Y0123287D02*
X0294001Y0123287D01*
X0294001Y0124885D02*
X0136800Y0124885D01*
X0136800Y0126484D02*
X0294001Y0126484D01*
X0294001Y0128082D02*
X0136800Y0128082D01*
X0136800Y0129681D02*
X0175459Y0129681D01*
X0173861Y0131279D02*
X0151692Y0131279D01*
X0148800Y0134300D02*
X0174800Y0134300D01*
X0177300Y0131800D01*
X0227300Y0131800D01*
X0240300Y0146300D01*
X0240300Y0175300D01*
X0239800Y0182300D01*
X0244800Y0178300D02*
X0245800Y0212300D01*
X0258800Y0223300D01*
X0265800Y0223300D01*
X0271300Y0217800D01*
X0271300Y0216800D01*
X0274799Y0220796D02*
X0278084Y0220796D01*
X0276485Y0219198D02*
X0276398Y0219198D01*
X0281287Y0219198D02*
X0281313Y0219198D01*
X0281287Y0220796D02*
X0281313Y0220796D01*
X0281287Y0217599D02*
X0281313Y0217599D01*
X0284516Y0220796D02*
X0294001Y0220796D01*
X0294001Y0219198D02*
X0286115Y0219198D01*
X0286400Y0217599D02*
X0294001Y0217599D01*
X0294001Y0216001D02*
X0286400Y0216001D01*
X0286114Y0214402D02*
X0294001Y0214402D01*
X0294001Y0212803D02*
X0284516Y0212803D01*
X0284390Y0211205D02*
X0294001Y0211205D01*
X0294001Y0209606D02*
X0285989Y0209606D01*
X0286600Y0208008D02*
X0294001Y0208008D01*
X0294001Y0206409D02*
X0286600Y0206409D01*
X0286600Y0204811D02*
X0294001Y0204811D01*
X0294001Y0203212D02*
X0285208Y0203212D01*
X0283609Y0201614D02*
X0294001Y0201614D01*
X0294001Y0200015D02*
X0280500Y0200015D01*
X0280500Y0198417D02*
X0294001Y0198417D01*
X0294001Y0196818D02*
X0280500Y0196818D01*
X0280500Y0195220D02*
X0294001Y0195220D01*
X0294001Y0193621D02*
X0280500Y0193621D01*
X0280500Y0192023D02*
X0294001Y0192023D01*
X0294001Y0190424D02*
X0280500Y0190424D01*
X0280500Y0188826D02*
X0294001Y0188826D01*
X0294001Y0187227D02*
X0280500Y0187227D01*
X0280500Y0185629D02*
X0294001Y0185629D01*
X0294001Y0184030D02*
X0280500Y0184030D01*
X0280500Y0182432D02*
X0294001Y0182432D01*
X0294001Y0180833D02*
X0280500Y0180833D01*
X0280500Y0179235D02*
X0294001Y0179235D01*
X0294001Y0177636D02*
X0280500Y0177636D01*
X0280500Y0176038D02*
X0294001Y0176038D01*
X0294001Y0174439D02*
X0280500Y0174439D01*
X0284300Y0172841D02*
X0284300Y0172841D01*
X0284300Y0171242D02*
X0284300Y0171242D01*
X0287950Y0171242D02*
X0294001Y0171242D01*
X0294001Y0169644D02*
X0287950Y0169644D01*
X0287619Y0168045D02*
X0294001Y0168045D01*
X0294001Y0166447D02*
X0288032Y0166447D01*
X0288150Y0164848D02*
X0294001Y0164848D01*
X0294001Y0163250D02*
X0288150Y0163250D01*
X0288130Y0161651D02*
X0294001Y0161651D01*
X0294001Y0160053D02*
X0279613Y0160053D01*
X0277647Y0163847D02*
X0284300Y0164000D01*
X0277647Y0163847D02*
X0277300Y0163847D01*
X0273331Y0163250D02*
X0256154Y0163250D01*
X0257517Y0164848D02*
X0273331Y0164848D01*
X0273624Y0166447D02*
X0265637Y0166447D01*
X0264800Y0170300D02*
X0261800Y0169800D01*
X0264800Y0170300D02*
X0277253Y0170300D01*
X0277300Y0170753D01*
X0273520Y0173100D02*
X0265691Y0173100D01*
X0264810Y0173981D01*
X0258790Y0173981D01*
X0257619Y0172810D01*
X0257619Y0168506D01*
X0257345Y0169168D01*
X0256600Y0169913D01*
X0256600Y0194936D01*
X0261075Y0201500D01*
X0263495Y0201500D01*
X0266300Y0204305D01*
X0269105Y0201500D01*
X0272051Y0201500D01*
X0274100Y0199435D01*
X0274100Y0173972D01*
X0273726Y0173598D01*
X0273520Y0173100D01*
X0274100Y0174439D02*
X0256600Y0174439D01*
X0256600Y0172841D02*
X0257650Y0172841D01*
X0257619Y0171242D02*
X0256600Y0171242D01*
X0256869Y0169644D02*
X0257619Y0169644D01*
X0253800Y0166800D02*
X0253800Y0195800D01*
X0261300Y0206800D01*
X0258210Y0211205D02*
X0248841Y0211205D01*
X0248522Y0209606D02*
X0256611Y0209606D01*
X0256000Y0208008D02*
X0248475Y0208008D01*
X0248428Y0206409D02*
X0256000Y0206409D01*
X0256000Y0204811D02*
X0248381Y0204811D01*
X0248334Y0203212D02*
X0255465Y0203212D01*
X0254375Y0201614D02*
X0248287Y0201614D01*
X0248240Y0200015D02*
X0253285Y0200015D01*
X0252195Y0198417D02*
X0248193Y0198417D01*
X0248146Y0196818D02*
X0251152Y0196818D01*
X0251000Y0195220D02*
X0248099Y0195220D01*
X0248052Y0193621D02*
X0251000Y0193621D01*
X0251000Y0192023D02*
X0248005Y0192023D01*
X0247958Y0190424D02*
X0251000Y0190424D01*
X0251000Y0188826D02*
X0247911Y0188826D01*
X0247864Y0187227D02*
X0251000Y0187227D01*
X0251000Y0185629D02*
X0247817Y0185629D01*
X0247770Y0184030D02*
X0251000Y0184030D01*
X0251000Y0182432D02*
X0247723Y0182432D01*
X0248180Y0180833D02*
X0251000Y0180833D01*
X0251000Y0179235D02*
X0248938Y0179235D01*
X0248981Y0177636D02*
X0251000Y0177636D01*
X0251000Y0176038D02*
X0248389Y0176038D01*
X0246405Y0174439D02*
X0251000Y0174439D01*
X0251000Y0172841D02*
X0243100Y0172841D01*
X0243100Y0174439D02*
X0243195Y0174439D01*
X0243100Y0171242D02*
X0251000Y0171242D01*
X0250731Y0169644D02*
X0243100Y0169644D01*
X0243100Y0168045D02*
X0249790Y0168045D01*
X0249619Y0166447D02*
X0243100Y0166447D01*
X0243100Y0164848D02*
X0250083Y0164848D01*
X0251446Y0163250D02*
X0243100Y0163250D01*
X0243100Y0161651D02*
X0273457Y0161651D01*
X0274987Y0160053D02*
X0243100Y0160053D01*
X0243100Y0158454D02*
X0294001Y0158454D01*
X0294001Y0156856D02*
X0243100Y0156856D01*
X0243100Y0155257D02*
X0294001Y0155257D01*
X0294001Y0153659D02*
X0243100Y0153659D01*
X0243100Y0152060D02*
X0294001Y0152060D01*
X0294001Y0150462D02*
X0243100Y0150462D01*
X0243100Y0148863D02*
X0294001Y0148863D01*
X0294001Y0147265D02*
X0243100Y0147265D01*
X0243068Y0145666D02*
X0294001Y0145666D01*
X0294001Y0144068D02*
X0242059Y0144068D01*
X0240626Y0142469D02*
X0294001Y0142469D01*
X0294001Y0140870D02*
X0239193Y0140870D01*
X0237760Y0139272D02*
X0294001Y0139272D01*
X0294001Y0137673D02*
X0236326Y0137673D01*
X0234893Y0136075D02*
X0294001Y0136075D01*
X0294001Y0134476D02*
X0233460Y0134476D01*
X0232027Y0132878D02*
X0294001Y0132878D01*
X0294001Y0131279D02*
X0230594Y0131279D01*
X0229161Y0129681D02*
X0294001Y0129681D01*
X0294001Y0172841D02*
X0287801Y0172841D01*
X0274100Y0176038D02*
X0256600Y0176038D01*
X0256600Y0177636D02*
X0274100Y0177636D01*
X0274100Y0179235D02*
X0256600Y0179235D01*
X0256600Y0180833D02*
X0274100Y0180833D01*
X0274100Y0182432D02*
X0256600Y0182432D01*
X0256600Y0184030D02*
X0274100Y0184030D01*
X0274100Y0185629D02*
X0256600Y0185629D01*
X0256600Y0187227D02*
X0274100Y0187227D01*
X0274100Y0188826D02*
X0256600Y0188826D01*
X0256600Y0190424D02*
X0274100Y0190424D01*
X0274100Y0192023D02*
X0256600Y0192023D01*
X0256600Y0193621D02*
X0274100Y0193621D01*
X0274100Y0195220D02*
X0256793Y0195220D01*
X0257883Y0196818D02*
X0274100Y0196818D01*
X0274100Y0198417D02*
X0258973Y0198417D01*
X0260063Y0200015D02*
X0273524Y0200015D01*
X0268991Y0201614D02*
X0263609Y0201614D01*
X0265208Y0203212D02*
X0267392Y0203212D01*
X0257801Y0212803D02*
X0250730Y0212803D01*
X0252619Y0214402D02*
X0256203Y0214402D01*
X0256000Y0216001D02*
X0254508Y0216001D01*
X0251506Y0220796D02*
X0196600Y0220796D01*
X0196600Y0219198D02*
X0249617Y0219198D01*
X0247728Y0217599D02*
X0196600Y0217599D01*
X0196600Y0216001D02*
X0245839Y0216001D01*
X0243948Y0214402D02*
X0196600Y0214402D01*
X0196600Y0212803D02*
X0243014Y0212803D01*
X0242967Y0211205D02*
X0196600Y0211205D01*
X0196600Y0209606D02*
X0242920Y0209606D01*
X0242873Y0208008D02*
X0196600Y0208008D01*
X0196600Y0206409D02*
X0242826Y0206409D01*
X0242779Y0204811D02*
X0196600Y0204811D01*
X0196600Y0203212D02*
X0242732Y0203212D01*
X0242685Y0201614D02*
X0196600Y0201614D01*
X0196600Y0200015D02*
X0209602Y0200015D01*
X0209932Y0200345D02*
X0209187Y0199600D01*
X0206743Y0199600D01*
X0205714Y0199174D01*
X0204926Y0198386D01*
X0196470Y0189930D01*
X0196600Y0190243D01*
X0196600Y0226357D01*
X0196174Y0227386D01*
X0194674Y0228886D01*
X0193886Y0229674D01*
X0192857Y0230100D01*
X0174743Y0230100D01*
X0173714Y0229674D01*
X0172926Y0228886D01*
X0172758Y0228480D01*
X0172432Y0228345D01*
X0171255Y0227168D01*
X0170619Y0225632D01*
X0170619Y0223968D01*
X0170638Y0223921D01*
X0167386Y0227174D01*
X0166357Y0227600D01*
X0153873Y0227600D01*
X0153845Y0227668D01*
X0152668Y0228845D01*
X0151132Y0229481D01*
X0149468Y0229481D01*
X0147932Y0228845D01*
X0146755Y0227668D01*
X0146119Y0226132D01*
X0146119Y0224468D01*
X0146755Y0222932D01*
X0147932Y0221755D01*
X0149468Y0221119D01*
X0151132Y0221119D01*
X0152668Y0221755D01*
X0152913Y0222000D01*
X0164640Y0222000D01*
X0169926Y0216714D01*
X0170714Y0215926D01*
X0171743Y0215500D01*
X0174040Y0215500D01*
X0147214Y0188674D01*
X0146426Y0187886D01*
X0146000Y0186857D01*
X0146000Y0174913D01*
X0145255Y0174168D01*
X0144816Y0173108D01*
X0144633Y0177129D01*
X0144981Y0177968D01*
X0144981Y0179632D01*
X0144345Y0181168D01*
X0143168Y0182345D01*
X0141632Y0182981D01*
X0139968Y0182981D01*
X0138432Y0182345D01*
X0137255Y0181168D01*
X0136619Y0179632D01*
X0136619Y0177968D01*
X0137255Y0176432D01*
X0138432Y0175255D01*
X0139126Y0174968D01*
X0139483Y0167109D01*
X0139428Y0167109D01*
X0138668Y0167868D01*
X0137132Y0168505D01*
X0135468Y0168505D01*
X0133932Y0167868D01*
X0132755Y0166692D01*
X0132119Y0165155D01*
X0132119Y0163492D01*
X0132755Y0161955D01*
X0133932Y0160779D01*
X0135468Y0160143D01*
X0137132Y0160143D01*
X0138668Y0160779D01*
X0139398Y0161509D01*
X0140713Y0161503D01*
X0140719Y0161500D01*
X0141270Y0161500D01*
X0141820Y0161497D01*
X0141826Y0161500D01*
X0178257Y0161500D01*
X0178270Y0161495D01*
X0178814Y0161500D01*
X0179357Y0161500D01*
X0179370Y0161505D01*
X0179384Y0161505D01*
X0179884Y0161718D01*
X0180386Y0161926D01*
X0180396Y0161936D01*
X0180409Y0161941D01*
X0180789Y0162329D01*
X0181174Y0162714D01*
X0181179Y0162727D01*
X0206141Y0188169D01*
X0207468Y0187619D01*
X0209132Y0187619D01*
X0210668Y0188255D01*
X0211845Y0189432D01*
X0212481Y0190968D01*
X0212481Y0192619D01*
X0213132Y0192619D01*
X0214668Y0193255D01*
X0215845Y0194432D01*
X0216481Y0195968D01*
X0216481Y0197632D01*
X0215845Y0199168D01*
X0214668Y0200345D01*
X0213132Y0200981D01*
X0211468Y0200981D01*
X0209932Y0200345D01*
X0214998Y0200015D02*
X0242637Y0200015D01*
X0242590Y0198417D02*
X0216156Y0198417D01*
X0216481Y0196818D02*
X0242543Y0196818D01*
X0242496Y0195220D02*
X0216171Y0195220D01*
X0215034Y0193621D02*
X0242449Y0193621D01*
X0242402Y0192023D02*
X0212481Y0192023D01*
X0212256Y0190424D02*
X0242355Y0190424D01*
X0242308Y0188826D02*
X0211239Y0188826D01*
X0208300Y0191800D02*
X0204800Y0190800D01*
X0178800Y0164300D01*
X0141276Y0164300D01*
X0136300Y0164324D01*
X0134359Y0168045D02*
X0089008Y0168045D01*
X0088691Y0168362D02*
X0089862Y0167191D01*
X0089862Y0158409D01*
X0088691Y0157238D01*
X0079909Y0157238D01*
X0078738Y0158409D01*
X0078738Y0167191D01*
X0079909Y0168362D01*
X0088691Y0168362D01*
X0089862Y0166447D02*
X0132654Y0166447D01*
X0132119Y0164848D02*
X0089862Y0164848D01*
X0089862Y0163250D02*
X0132219Y0163250D01*
X0133060Y0161651D02*
X0089862Y0161651D01*
X0089862Y0160053D02*
X0225791Y0160053D01*
X0225619Y0161651D02*
X0179726Y0161651D01*
X0181692Y0163250D02*
X0226082Y0163250D01*
X0227440Y0164848D02*
X0183260Y0164848D01*
X0184829Y0166447D02*
X0235000Y0166447D01*
X0235000Y0168045D02*
X0186397Y0168045D01*
X0187965Y0169644D02*
X0235000Y0169644D01*
X0235000Y0171242D02*
X0189534Y0171242D01*
X0191102Y0172841D02*
X0231846Y0172841D01*
X0230838Y0174439D02*
X0192671Y0174439D01*
X0194239Y0176038D02*
X0230619Y0176038D01*
X0231035Y0177636D02*
X0195807Y0177636D01*
X0197376Y0179235D02*
X0232322Y0179235D01*
X0235882Y0180833D02*
X0198944Y0180833D01*
X0200512Y0182432D02*
X0235619Y0182432D01*
X0235991Y0184030D02*
X0202081Y0184030D01*
X0203649Y0185629D02*
X0237216Y0185629D01*
X0242261Y0187227D02*
X0205217Y0187227D01*
X0198563Y0192023D02*
X0196600Y0192023D01*
X0196600Y0193621D02*
X0200162Y0193621D01*
X0201760Y0195220D02*
X0196600Y0195220D01*
X0196600Y0196818D02*
X0203359Y0196818D01*
X0204957Y0198417D02*
X0196600Y0198417D01*
X0196600Y0190424D02*
X0196965Y0190424D01*
X0193800Y0190800D02*
X0193800Y0225800D01*
X0192300Y0227300D01*
X0175300Y0227300D01*
X0175300Y0225300D01*
X0174800Y0224800D01*
X0171277Y0227190D02*
X0167347Y0227190D01*
X0168968Y0225592D02*
X0170619Y0225592D01*
X0170567Y0223993D02*
X0170619Y0223993D01*
X0165800Y0224800D02*
X0172300Y0218300D01*
X0175300Y0218300D01*
X0181300Y0224300D01*
X0188800Y0224300D01*
X0189300Y0224800D01*
X0189300Y0191800D01*
X0188300Y0190800D01*
X0180800Y0190800D01*
X0172800Y0182800D01*
X0172800Y0176300D01*
X0172300Y0175800D01*
X0168119Y0176038D02*
X0161728Y0176038D01*
X0163226Y0174439D02*
X0168338Y0174439D01*
X0168119Y0174968D02*
X0168686Y0173600D01*
X0164013Y0173600D01*
X0159481Y0178434D01*
X0159481Y0179632D01*
X0158845Y0181168D01*
X0158100Y0181913D01*
X0158100Y0182640D01*
X0168960Y0193500D01*
X0180002Y0193500D01*
X0179214Y0193174D01*
X0171214Y0185174D01*
X0170426Y0184386D01*
X0170000Y0183357D01*
X0170000Y0179373D01*
X0169932Y0179345D01*
X0168755Y0178168D01*
X0168119Y0176632D01*
X0168119Y0174968D01*
X0168535Y0177636D02*
X0160229Y0177636D01*
X0159481Y0179235D02*
X0169822Y0179235D01*
X0170000Y0180833D02*
X0158983Y0180833D01*
X0158100Y0182432D02*
X0170000Y0182432D01*
X0170279Y0184030D02*
X0159490Y0184030D01*
X0161089Y0185629D02*
X0171669Y0185629D01*
X0173268Y0187227D02*
X0162687Y0187227D01*
X0164286Y0188826D02*
X0174866Y0188826D01*
X0176465Y0190424D02*
X0165884Y0190424D01*
X0167483Y0192023D02*
X0178063Y0192023D01*
X0184800Y0196300D02*
X0167800Y0196300D01*
X0155300Y0183800D01*
X0155300Y0178800D01*
X0162800Y0170800D01*
X0176800Y0170800D01*
X0176800Y0178800D01*
X0182800Y0177800D02*
X0188300Y0185300D01*
X0193800Y0190800D01*
X0186500Y0200121D02*
X0185632Y0200481D01*
X0183968Y0200481D01*
X0182432Y0199845D01*
X0181687Y0199100D01*
X0169743Y0199100D01*
X0178475Y0208000D01*
X0182187Y0208000D01*
X0182932Y0207255D01*
X0184468Y0206619D01*
X0186132Y0206619D01*
X0186500Y0206771D01*
X0186500Y0200121D01*
X0186500Y0201614D02*
X0172210Y0201614D01*
X0173778Y0203212D02*
X0186500Y0203212D01*
X0186500Y0204811D02*
X0175347Y0204811D01*
X0176915Y0206409D02*
X0186500Y0206409D01*
X0185300Y0210800D02*
X0177300Y0210800D01*
X0151300Y0184300D01*
X0151300Y0176800D01*
X0154800Y0172800D01*
X0154800Y0170800D01*
X0148800Y0171800D02*
X0148800Y0186300D01*
X0182800Y0220300D01*
X0184300Y0220300D01*
X0196600Y0222395D02*
X0253395Y0222395D01*
X0255284Y0223993D02*
X0196600Y0223993D01*
X0196600Y0225592D02*
X0257132Y0225592D01*
X0267468Y0225592D02*
X0294001Y0225592D01*
X0294001Y0227190D02*
X0196255Y0227190D01*
X0194771Y0228789D02*
X0294001Y0228789D01*
X0294001Y0230387D02*
X0132800Y0230387D01*
X0132800Y0228789D02*
X0147876Y0228789D01*
X0146557Y0227190D02*
X0132800Y0227190D01*
X0132800Y0225592D02*
X0146119Y0225592D01*
X0146316Y0223993D02*
X0132800Y0223993D01*
X0132800Y0222395D02*
X0147292Y0222395D01*
X0150300Y0224800D02*
X0165800Y0224800D01*
X0165844Y0220796D02*
X0132800Y0220796D01*
X0132800Y0219198D02*
X0167443Y0219198D01*
X0169041Y0217599D02*
X0039350Y0217599D01*
X0039350Y0216001D02*
X0170640Y0216001D01*
X0169926Y0216714D02*
X0169926Y0216714D01*
X0172942Y0214402D02*
X0039350Y0214402D01*
X0039350Y0212803D02*
X0171344Y0212803D01*
X0169745Y0211205D02*
X0077956Y0211205D01*
X0077529Y0211632D02*
X0079132Y0210029D01*
X0080000Y0207934D01*
X0080000Y0205666D01*
X0079132Y0203571D01*
X0077529Y0201968D01*
X0075434Y0201100D01*
X0073166Y0201100D01*
X0071071Y0201968D01*
X0069468Y0203571D01*
X0068600Y0205666D01*
X0068600Y0207934D01*
X0069468Y0210029D01*
X0071071Y0211632D01*
X0073166Y0212500D01*
X0075434Y0212500D01*
X0077529Y0211632D01*
X0079307Y0209606D02*
X0168147Y0209606D01*
X0166548Y0208008D02*
X0079969Y0208008D01*
X0080000Y0206409D02*
X0164950Y0206409D01*
X0163351Y0204811D02*
X0079646Y0204811D01*
X0078773Y0203212D02*
X0161753Y0203212D01*
X0160154Y0201614D02*
X0076675Y0201614D01*
X0071925Y0201614D02*
X0039350Y0201614D01*
X0039350Y0203212D02*
X0069827Y0203212D01*
X0068954Y0204811D02*
X0039439Y0204811D01*
X0039450Y0206409D02*
X0068600Y0206409D01*
X0068631Y0208008D02*
X0039450Y0208008D01*
X0039450Y0209606D02*
X0069293Y0209606D01*
X0070644Y0211205D02*
X0039350Y0211205D01*
X0038231Y0219198D02*
X0076800Y0219198D01*
X0076800Y0220796D02*
X0074114Y0220796D01*
X0075956Y0222395D02*
X0076800Y0222395D01*
X0076800Y0223993D02*
X0076721Y0223993D01*
X0076800Y0228789D02*
X0076232Y0228789D01*
X0076800Y0230387D02*
X0074774Y0230387D01*
X0076800Y0231986D02*
X0004300Y0231986D01*
X0004300Y0233584D02*
X0076800Y0233584D01*
X0076800Y0235183D02*
X0004300Y0235183D01*
X0004300Y0230387D02*
X0007826Y0230387D01*
X0006368Y0228789D02*
X0004300Y0228789D01*
X0004300Y0227190D02*
X0005706Y0227190D01*
X0005600Y0225592D02*
X0004300Y0225592D01*
X0004300Y0223993D02*
X0005879Y0223993D01*
X0006644Y0222395D02*
X0004300Y0222395D01*
X0004300Y0220796D02*
X0008486Y0220796D01*
X0004300Y0219198D02*
X0022200Y0219198D01*
X0021850Y0217599D02*
X0004300Y0217599D01*
X0004300Y0216001D02*
X0005909Y0216001D01*
X0005748Y0215839D02*
X0005748Y0215839D01*
X0004311Y0214402D02*
X0004300Y0214402D01*
X0014114Y0220796D02*
X0021713Y0220796D01*
X0021850Y0216001D02*
X0019691Y0216001D01*
X0021289Y0214402D02*
X0021850Y0214402D01*
X0029400Y0220796D02*
X0068486Y0220796D01*
X0066644Y0222395D02*
X0029400Y0222395D01*
X0028698Y0223993D02*
X0065879Y0223993D01*
X0065600Y0225592D02*
X0027100Y0225592D01*
X0025501Y0227190D02*
X0065706Y0227190D01*
X0066368Y0228789D02*
X0023903Y0228789D01*
X0014774Y0230387D02*
X0067826Y0230387D01*
X0039350Y0200015D02*
X0158556Y0200015D01*
X0156957Y0198417D02*
X0039350Y0198417D01*
X0038900Y0196818D02*
X0155359Y0196818D01*
X0153760Y0195220D02*
X0040125Y0195220D01*
X0041723Y0193621D02*
X0152162Y0193621D01*
X0150563Y0192023D02*
X0075138Y0192023D01*
X0075029Y0192132D02*
X0076632Y0190529D01*
X0077500Y0188434D01*
X0077500Y0186166D01*
X0076632Y0184071D01*
X0075029Y0182468D01*
X0072934Y0181600D01*
X0070666Y0181600D01*
X0068571Y0182468D01*
X0066968Y0184071D01*
X0066100Y0186166D01*
X0066100Y0188434D01*
X0066968Y0190529D01*
X0068571Y0192132D01*
X0070666Y0193000D01*
X0072934Y0193000D01*
X0075029Y0192132D01*
X0076675Y0190424D02*
X0148965Y0190424D01*
X0147366Y0188826D02*
X0077338Y0188826D01*
X0077500Y0187227D02*
X0146153Y0187227D01*
X0146000Y0185629D02*
X0077277Y0185629D01*
X0076591Y0184030D02*
X0146000Y0184030D01*
X0146000Y0182432D02*
X0142958Y0182432D01*
X0144483Y0180833D02*
X0146000Y0180833D01*
X0146000Y0179235D02*
X0144981Y0179235D01*
X0144844Y0177636D02*
X0146000Y0177636D01*
X0146000Y0176038D02*
X0144683Y0176038D01*
X0144756Y0174439D02*
X0145526Y0174439D01*
X0141800Y0177800D02*
X0140800Y0178800D01*
X0141800Y0177800D02*
X0142300Y0166800D01*
X0177300Y0166800D01*
X0207300Y0196800D01*
X0212300Y0196800D01*
X0234800Y0175800D02*
X0237800Y0175300D01*
X0237800Y0147800D01*
X0225800Y0134800D01*
X0180300Y0134300D01*
X0176300Y0137800D01*
X0172300Y0141800D01*
X0129300Y0141800D01*
X0126800Y0145800D02*
X0172800Y0145300D01*
X0181300Y0137300D01*
X0223300Y0137300D01*
X0229800Y0143800D01*
X0229800Y0161300D01*
X0233518Y0163250D02*
X0235000Y0163250D01*
X0235000Y0164848D02*
X0232160Y0164848D01*
X0233981Y0161651D02*
X0235000Y0161651D01*
X0235000Y0160053D02*
X0233809Y0160053D01*
X0232867Y0158454D02*
X0235000Y0158454D01*
X0235000Y0156856D02*
X0232600Y0156856D01*
X0232600Y0155257D02*
X0235000Y0155257D01*
X0235000Y0153659D02*
X0232600Y0153659D01*
X0232600Y0152060D02*
X0235000Y0152060D01*
X0235000Y0150462D02*
X0232600Y0150462D01*
X0232600Y0148863D02*
X0234971Y0148863D01*
X0233495Y0147265D02*
X0232600Y0147265D01*
X0227000Y0147265D02*
X0174798Y0147265D01*
X0176496Y0145666D02*
X0227000Y0145666D01*
X0226108Y0144068D02*
X0178195Y0144068D01*
X0179893Y0142469D02*
X0224509Y0142469D01*
X0222911Y0140870D02*
X0181592Y0140870D01*
X0172467Y0137673D02*
X0151339Y0137673D01*
X0146260Y0137673D02*
X0136800Y0137673D01*
X0136800Y0136075D02*
X0145010Y0136075D01*
X0144619Y0134476D02*
X0136800Y0134476D01*
X0136800Y0132878D02*
X0144863Y0132878D01*
X0145908Y0131279D02*
X0136800Y0131279D01*
X0126800Y0145800D02*
X0124800Y0146300D01*
X0120674Y0147265D02*
X0034509Y0147265D01*
X0036108Y0148863D02*
X0121450Y0148863D01*
X0123921Y0150462D02*
X0037706Y0150462D01*
X0039305Y0152060D02*
X0227000Y0152060D01*
X0227000Y0150462D02*
X0125679Y0150462D01*
X0128150Y0148863D02*
X0227000Y0148863D01*
X0227000Y0153659D02*
X0040903Y0153659D01*
X0042502Y0155257D02*
X0227000Y0155257D01*
X0227000Y0156856D02*
X0045971Y0156856D01*
X0049462Y0158454D02*
X0049831Y0158454D01*
X0049831Y0157031D02*
X0052049Y0157031D01*
X0052507Y0157154D01*
X0052917Y0157391D01*
X0053252Y0157726D01*
X0053489Y0158137D01*
X0053612Y0158595D01*
X0053612Y0160616D01*
X0049831Y0160616D01*
X0049831Y0157031D01*
X0049831Y0160053D02*
X0049462Y0160053D01*
X0049462Y0160984D02*
X0049462Y0167116D01*
X0049831Y0167116D01*
X0049831Y0163531D01*
X0049831Y0160984D01*
X0049462Y0160984D01*
X0049462Y0161651D02*
X0049831Y0161651D01*
X0049831Y0163250D02*
X0049462Y0163250D01*
X0049462Y0164848D02*
X0049831Y0164848D01*
X0049831Y0166447D02*
X0049462Y0166447D01*
X0049462Y0167484D02*
X0049462Y0171068D01*
X0049462Y0174116D01*
X0049831Y0174116D01*
X0049831Y0167484D01*
X0049462Y0167484D01*
X0049462Y0168045D02*
X0049831Y0168045D01*
X0049831Y0169644D02*
X0049462Y0169644D01*
X0049462Y0171242D02*
X0049831Y0171242D01*
X0049831Y0172841D02*
X0049462Y0172841D01*
X0049831Y0174439D02*
X0139150Y0174439D01*
X0139223Y0172841D02*
X0053612Y0172841D01*
X0053261Y0171242D02*
X0139295Y0171242D01*
X0139368Y0169644D02*
X0053575Y0169644D01*
X0053612Y0168045D02*
X0079592Y0168045D01*
X0078738Y0166447D02*
X0053612Y0166447D01*
X0053546Y0164848D02*
X0078738Y0164848D01*
X0078738Y0163250D02*
X0053546Y0163250D01*
X0053612Y0161651D02*
X0078738Y0161651D01*
X0078738Y0160053D02*
X0053612Y0160053D01*
X0053574Y0158454D02*
X0078738Y0158454D01*
X0089862Y0158454D02*
X0226733Y0158454D01*
X0182844Y0200015D02*
X0170641Y0200015D01*
X0150300Y0224800D02*
X0150300Y0225300D01*
X0152724Y0228789D02*
X0172886Y0228789D01*
X0132800Y0231986D02*
X0294001Y0231986D01*
X0294001Y0233584D02*
X0132800Y0233584D01*
X0132800Y0235183D02*
X0294001Y0235183D01*
X0294001Y0223993D02*
X0269067Y0223993D01*
X0270665Y0222395D02*
X0294001Y0222395D01*
X0138642Y0182432D02*
X0074942Y0182432D01*
X0068658Y0182432D02*
X0053612Y0182432D01*
X0053096Y0184030D02*
X0067009Y0184030D01*
X0066323Y0185629D02*
X0053612Y0185629D01*
X0053612Y0188826D02*
X0066262Y0188826D01*
X0066100Y0187227D02*
X0049831Y0187227D01*
X0049831Y0187116D02*
X0049831Y0183531D01*
X0049831Y0180984D01*
X0049462Y0180984D01*
X0049462Y0187116D01*
X0049831Y0187116D01*
X0049831Y0185629D02*
X0049462Y0185629D01*
X0049462Y0184030D02*
X0049831Y0184030D01*
X0049831Y0182432D02*
X0049462Y0182432D01*
X0049831Y0180833D02*
X0137117Y0180833D01*
X0136619Y0179235D02*
X0053612Y0179235D01*
X0053162Y0177636D02*
X0136756Y0177636D01*
X0137649Y0176038D02*
X0053612Y0176038D01*
X0049831Y0176038D02*
X0049462Y0176038D01*
X0049462Y0174484D02*
X0049462Y0178068D01*
X0049462Y0180616D01*
X0049831Y0180616D01*
X0049831Y0174484D01*
X0049462Y0174484D01*
X0049462Y0177636D02*
X0049831Y0177636D01*
X0049831Y0179235D02*
X0049462Y0179235D01*
X0039241Y0177550D02*
X0038788Y0177097D01*
X0038788Y0171503D01*
X0039354Y0170938D01*
X0039354Y0170662D01*
X0038788Y0170097D01*
X0038788Y0164503D01*
X0039241Y0164050D01*
X0038788Y0163597D01*
X0038788Y0161726D01*
X0023862Y0146800D01*
X0019862Y0146800D01*
X0019862Y0147191D01*
X0018691Y0148362D01*
X0009909Y0148362D01*
X0008738Y0147191D01*
X0008738Y0146800D01*
X0004300Y0146800D01*
X0004300Y0189232D01*
X0004343Y0189214D01*
X0006100Y0187617D01*
X0006100Y0186166D01*
X0006968Y0184071D01*
X0008571Y0182468D01*
X0010666Y0181600D01*
X0012934Y0181600D01*
X0015029Y0182468D01*
X0016632Y0184071D01*
X0017500Y0186166D01*
X0017500Y0188434D01*
X0016632Y0190529D01*
X0015029Y0192132D01*
X0012934Y0193000D01*
X0010882Y0193000D01*
X0009900Y0193893D01*
X0009900Y0203139D01*
X0011071Y0201968D01*
X0013166Y0201100D01*
X0014909Y0201100D01*
X0017761Y0198248D01*
X0019084Y0197700D01*
X0021850Y0197700D01*
X0021850Y0197522D01*
X0023022Y0196350D01*
X0031700Y0196350D01*
X0031700Y0194237D01*
X0032248Y0192914D01*
X0038788Y0186374D01*
X0038788Y0184503D01*
X0039241Y0184050D01*
X0038788Y0183597D01*
X0038788Y0178003D01*
X0039241Y0177550D01*
X0039155Y0177636D02*
X0004300Y0177636D01*
X0004300Y0176038D02*
X0038788Y0176038D01*
X0038788Y0174439D02*
X0004300Y0174439D01*
X0004300Y0172841D02*
X0038788Y0172841D01*
X0039049Y0171242D02*
X0004300Y0171242D01*
X0004300Y0169644D02*
X0038788Y0169644D01*
X0038788Y0168045D02*
X0018536Y0168045D01*
X0018557Y0168040D02*
X0018099Y0168162D01*
X0014681Y0168162D01*
X0014681Y0163181D01*
X0013919Y0163181D01*
X0013919Y0168162D01*
X0010501Y0168162D01*
X0010043Y0168040D01*
X0009633Y0167803D01*
X0009297Y0167467D01*
X0009060Y0167057D01*
X0008938Y0166599D01*
X0008938Y0163181D01*
X0013919Y0163181D01*
X0013919Y0162419D01*
X0014681Y0162419D01*
X0014681Y0163181D01*
X0019662Y0163181D01*
X0019662Y0166599D01*
X0019540Y0167057D01*
X0019303Y0167467D01*
X0018967Y0167803D01*
X0018557Y0168040D01*
X0019662Y0166447D02*
X0038788Y0166447D01*
X0038788Y0164848D02*
X0019662Y0164848D01*
X0019662Y0163250D02*
X0038788Y0163250D01*
X0038714Y0161651D02*
X0019662Y0161651D01*
X0019662Y0162419D02*
X0014681Y0162419D01*
X0014681Y0157438D01*
X0018099Y0157438D01*
X0018557Y0157560D01*
X0018967Y0157797D01*
X0019303Y0158133D01*
X0019540Y0158543D01*
X0019662Y0159001D01*
X0019662Y0162419D01*
X0019662Y0160053D02*
X0037115Y0160053D01*
X0035516Y0158454D02*
X0019488Y0158454D01*
X0014681Y0158454D02*
X0013919Y0158454D01*
X0013919Y0157438D02*
X0013919Y0162419D01*
X0008938Y0162419D01*
X0008938Y0159001D01*
X0009060Y0158543D01*
X0009297Y0158133D01*
X0009633Y0157797D01*
X0010043Y0157560D01*
X0010501Y0157438D01*
X0013919Y0157438D01*
X0013919Y0160053D02*
X0014681Y0160053D01*
X0014681Y0161651D02*
X0013919Y0161651D01*
X0013919Y0163250D02*
X0014681Y0163250D01*
X0014681Y0164848D02*
X0013919Y0164848D01*
X0013919Y0166447D02*
X0014681Y0166447D01*
X0014681Y0168045D02*
X0013919Y0168045D01*
X0010064Y0168045D02*
X0004300Y0168045D01*
X0004300Y0166447D02*
X0008938Y0166447D01*
X0008938Y0164848D02*
X0004300Y0164848D01*
X0004300Y0163250D02*
X0008938Y0163250D01*
X0008938Y0161651D02*
X0004300Y0161651D01*
X0004300Y0160053D02*
X0008938Y0160053D01*
X0009112Y0158454D02*
X0004300Y0158454D01*
X0004300Y0156856D02*
X0033918Y0156856D01*
X0032319Y0155257D02*
X0004300Y0155257D01*
X0004300Y0153659D02*
X0030721Y0153659D01*
X0029122Y0152060D02*
X0004300Y0152060D01*
X0004300Y0150462D02*
X0027524Y0150462D01*
X0025925Y0148863D02*
X0004300Y0148863D01*
X0004300Y0147265D02*
X0008812Y0147265D01*
X0019788Y0147265D02*
X0024327Y0147265D01*
X0038788Y0179235D02*
X0004300Y0179235D01*
X0004300Y0180833D02*
X0038788Y0180833D01*
X0038788Y0182432D02*
X0014942Y0182432D01*
X0016591Y0184030D02*
X0039222Y0184030D01*
X0038788Y0185629D02*
X0017277Y0185629D01*
X0017500Y0187227D02*
X0037935Y0187227D01*
X0036337Y0188826D02*
X0017338Y0188826D01*
X0016675Y0190424D02*
X0034738Y0190424D01*
X0033140Y0192023D02*
X0015138Y0192023D01*
X0010198Y0193621D02*
X0031955Y0193621D01*
X0031700Y0195220D02*
X0009900Y0195220D01*
X0009900Y0196818D02*
X0022553Y0196818D01*
X0017592Y0198417D02*
X0009900Y0198417D01*
X0009900Y0200015D02*
X0015993Y0200015D01*
X0011925Y0201614D02*
X0009900Y0201614D01*
X0004770Y0188826D02*
X0004300Y0188826D01*
X0004300Y0187227D02*
X0006100Y0187227D01*
X0006323Y0185629D02*
X0004300Y0185629D01*
X0004300Y0184030D02*
X0007009Y0184030D01*
X0008658Y0182432D02*
X0004300Y0182432D01*
X0043322Y0192023D02*
X0068462Y0192023D01*
X0066925Y0190424D02*
X0053202Y0190424D01*
X0049831Y0190424D02*
X0049462Y0190424D01*
X0049462Y0188826D02*
X0049831Y0188826D01*
X0138241Y0168045D02*
X0139441Y0168045D01*
X0223800Y0048157D02*
X0223800Y0048157D01*
X0223800Y0046558D02*
X0223800Y0046558D01*
D26*
X0207300Y0041800D03*
X0186800Y0078300D03*
X0177300Y0104300D03*
X0176300Y0113800D03*
X0192300Y0106800D03*
X0192300Y0121800D03*
X0222300Y0106800D03*
X0222300Y0091800D03*
X0255300Y0068800D03*
X0252300Y0046800D03*
X0162300Y0026800D03*
X0162300Y0016800D03*
X0147300Y0016800D03*
X0147300Y0026800D03*
X0154300Y0072800D03*
X0142300Y0101800D03*
X0148800Y0134300D03*
X0129300Y0141800D03*
X0124800Y0146300D03*
X0133800Y0156300D03*
X0136300Y0164324D03*
X0131800Y0173300D03*
X0140800Y0178800D03*
X0148800Y0171800D03*
X0154800Y0170800D03*
X0155300Y0178800D03*
X0169300Y0191800D03*
X0176800Y0178800D03*
X0172300Y0175800D03*
X0182800Y0177800D03*
X0184800Y0196300D03*
X0184300Y0203800D03*
X0185300Y0210800D03*
X0184300Y0220300D03*
X0174800Y0224800D03*
X0150300Y0225300D03*
X0141300Y0224300D03*
X0125300Y0213300D03*
X0117300Y0213300D03*
X0110300Y0213300D03*
X0100300Y0198300D03*
X0090800Y0184300D03*
X0097800Y0170800D03*
X0092300Y0151800D03*
X0072300Y0151800D03*
X0073300Y0168300D03*
X0047300Y0151800D03*
X0032300Y0166800D03*
X0047300Y0206800D03*
X0058300Y0228300D03*
X0073300Y0233300D03*
X0125300Y0189800D03*
X0140300Y0207800D03*
X0156800Y0160300D03*
X0152800Y0150300D03*
X0195300Y0158300D03*
X0223800Y0150300D03*
X0229800Y0161300D03*
X0234800Y0175800D03*
X0239800Y0182300D03*
X0244800Y0178300D03*
X0253800Y0166800D03*
X0262300Y0151800D03*
X0277300Y0136800D03*
X0287300Y0151800D03*
X0270300Y0179300D03*
X0287300Y0181800D03*
X0240800Y0208300D03*
X0235300Y0192300D03*
X0212300Y0196800D03*
X0208300Y0191800D03*
X0211800Y0210800D03*
X0202300Y0226800D03*
X0251800Y0131800D03*
X0242300Y0126800D03*
D27*
X0277300Y0170753D02*
X0277300Y0200753D01*
X0271300Y0206800D01*
X0177300Y0104300D02*
X0177300Y0099800D01*
X0154300Y0076800D01*
X0154300Y0072800D01*
X0161300Y0072800D02*
X0165800Y0072800D01*
X0171800Y0078800D01*
X0177194Y0078620D01*
X0186480Y0078620D01*
X0186800Y0078300D01*
X0177300Y0078726D02*
X0177194Y0078620D01*
X0177300Y0078726D02*
X0177300Y0091300D01*
X0109300Y0094550D02*
X0109300Y0085800D01*
X0104800Y0085300D01*
X0109300Y0094550D02*
X0106800Y0097050D01*
X0084300Y0113800D02*
X0084300Y0062800D01*
X0084300Y0061800D01*
X0072300Y0049800D01*
X0072300Y0036800D01*
X0053800Y0018300D01*
X0035143Y0017300D02*
X0035143Y0063457D01*
X0015800Y0082800D01*
X0014800Y0042300D02*
X0015457Y0041643D01*
X0015457Y0017300D01*
X0079300Y0018300D02*
X0085800Y0011800D01*
X0092800Y0011800D01*
X0109300Y0025800D02*
X0117300Y0012800D01*
X0117300Y0011800D01*
X0085800Y0042800D02*
X0084300Y0042800D01*
X0084300Y0113800D02*
X0101050Y0130550D01*
X0106800Y0130550D01*
D28*
X0161300Y0072800D03*
X0177300Y0091300D03*
X0224300Y0022300D03*
X0236300Y0019800D03*
X0244300Y0018300D03*
X0261800Y0169800D03*
M02*
