G75*
%MOIN*%
%OFA0B0*%
%FSLAX25Y25*%
%IPPOS*%
%LPD*%
%AMOC8*
5,1,8,0,0,1.08239X$1,22.5*
%
%ADD10R,0.05131X0.04737*%
%ADD11C,0.08200*%
%ADD12C,0.01421*%
%ADD13C,0.13800*%
%ADD14R,0.04500X0.03800*%
%ADD15R,0.03800X0.04500*%
%ADD16OC8,0.06400*%
%ADD17R,0.07924X0.07924*%
%ADD18OC8,0.07400*%
%ADD19R,0.05100X0.06700*%
%ADD20R,0.08700X0.05100*%
%ADD21R,0.08700X0.06700*%
%ADD22R,0.05100X0.05100*%
%ADD23R,0.03950X0.03950*%
D10*
X0042954Y0160800D03*
X0049646Y0160800D03*
X0049646Y0167300D03*
X0042954Y0167300D03*
X0042954Y0174300D03*
X0049646Y0174300D03*
X0049646Y0180800D03*
X0042954Y0180800D03*
X0042954Y0187300D03*
X0049646Y0187300D03*
D11*
X0015457Y0017300D03*
X0035143Y0017300D03*
X0092800Y0011800D03*
X0109300Y0025800D03*
X0117300Y0011800D03*
X0109300Y0085800D03*
X0071800Y0187300D03*
X0074300Y0206800D03*
X0071300Y0225800D03*
X0014300Y0206800D03*
X0011300Y0225800D03*
X0011800Y0187300D03*
D12*
X0275642Y0169095D02*
X0278958Y0169095D01*
X0275642Y0169095D02*
X0275642Y0172411D01*
X0278958Y0172411D01*
X0278958Y0169095D01*
X0278958Y0170515D02*
X0275642Y0170515D01*
X0275642Y0171935D02*
X0278958Y0171935D01*
X0278958Y0162189D02*
X0275642Y0162189D01*
X0275642Y0165505D01*
X0278958Y0165505D01*
X0278958Y0162189D01*
X0278958Y0163609D02*
X0275642Y0163609D01*
X0275642Y0165029D02*
X0278958Y0165029D01*
D13*
X0079300Y0018300D03*
X0053800Y0018300D03*
D14*
X0223800Y0039000D03*
X0223800Y0045600D03*
X0236300Y0045600D03*
X0236300Y0039000D03*
X0284300Y0164000D03*
X0284300Y0170600D03*
D15*
X0252100Y0023300D03*
X0245500Y0023300D03*
D16*
X0152300Y0091800D03*
X0162300Y0101800D03*
X0152300Y0111800D03*
D17*
X0106800Y0097050D03*
X0106800Y0130550D03*
X0084300Y0162800D03*
X0014300Y0162800D03*
X0014300Y0142800D03*
X0014300Y0082800D03*
X0014300Y0042800D03*
X0084300Y0042800D03*
X0084300Y0062800D03*
D18*
X0261300Y0206800D03*
X0271300Y0206800D03*
X0281300Y0206800D03*
X0281300Y0216800D03*
X0271300Y0216800D03*
X0261300Y0216800D03*
D19*
X0026000Y0214300D03*
X0026000Y0201300D03*
D20*
X0027800Y0207800D03*
D21*
X0033400Y0201300D03*
X0033400Y0214300D03*
D22*
X0035300Y0207800D03*
D23*
X0223800Y0033253D03*
X0223800Y0027347D03*
X0236300Y0027347D03*
X0236300Y0033253D03*
M02*
