G75*
%MOIN*%
%OFA0B0*%
%FSLAX24Y24*%
%IPPOS*%
%LPD*%
%AMOC8*
5,1,8,0,0,1.08239X$1,22.5*
%
%ADD10C,0.0820*%
%ADD11C,0.0720*%
%ADD12R,0.0792X0.0792*%
%ADD13OC8,0.0740*%
%ADD14R,0.1480X0.1480*%
%ADD15C,0.0720*%
%ADD16C,0.0516*%
D10*
X007660Y004650D03*
X011660Y006650D03*
X013660Y006650D03*
X013660Y004650D03*
X002160Y012150D03*
X002160Y013150D03*
X002160Y014150D03*
X002160Y015150D03*
X002160Y016150D03*
X002160Y017150D03*
X002160Y018150D03*
X002160Y019150D03*
X002160Y020150D03*
X009160Y021150D03*
X012160Y021150D03*
X023660Y016650D03*
X023660Y015650D03*
X026160Y014650D03*
X028160Y013150D03*
X030160Y013150D03*
X024160Y017650D03*
X024160Y018650D03*
X026160Y020650D03*
X028160Y019150D03*
X030160Y019150D03*
D11*
X002160Y010650D03*
X002160Y009650D03*
X002160Y008650D03*
D12*
X015160Y007825D03*
X017660Y008150D03*
X021660Y008150D03*
X027660Y008150D03*
X029660Y008150D03*
X029660Y001150D03*
X019660Y001150D03*
X017660Y001150D03*
X015160Y004475D03*
D13*
X007160Y020950D03*
X006160Y020950D03*
X006160Y021950D03*
X007160Y021950D03*
X005160Y021950D03*
X005160Y020950D03*
D14*
X001925Y001650D03*
X004925Y001650D03*
X012390Y001650D03*
X015395Y001650D03*
D15*
X015160Y010455D02*
X015160Y011095D01*
X014160Y011095D02*
X014160Y010455D01*
X016160Y010455D02*
X016160Y011095D01*
D16*
X015260Y012350D03*
X017160Y014150D03*
X018660Y015650D03*
X017160Y017650D03*
X014960Y018650D03*
X013960Y018650D03*
X013785Y019275D03*
X012260Y019550D03*
X010660Y019650D03*
X009860Y018850D03*
X008460Y020350D03*
X007660Y018950D03*
X006660Y017650D03*
X005660Y018400D03*
X004160Y017150D03*
X003160Y015150D03*
X004360Y013050D03*
X006860Y015050D03*
X008660Y013400D03*
X008060Y012650D03*
X009560Y014350D03*
X010660Y013400D03*
X010660Y012650D03*
X010160Y012150D03*
X011460Y013150D03*
X012010Y014400D03*
X011960Y016150D03*
X010910Y016213D03*
X011160Y017150D03*
X014410Y021088D03*
X015160Y021525D03*
X013360Y021250D03*
X013160Y022650D03*
X011260Y021850D03*
X009660Y022650D03*
X004260Y020250D03*
X002160Y022650D03*
X009060Y010850D03*
X008660Y008050D03*
X006160Y008150D03*
X003660Y008150D03*
X018160Y020150D03*
X019660Y018650D03*
X021910Y016900D03*
X023660Y013650D03*
X021660Y012150D03*
X021660Y010150D03*
X019160Y010150D03*
X026160Y007150D03*
X030160Y009650D03*
X029660Y011650D03*
X030160Y015650D03*
X026160Y017150D03*
X026160Y018650D03*
X026960Y020250D03*
X028960Y020250D03*
X030160Y023150D03*
X023660Y020450D03*
X022460Y022750D03*
X019460Y022950D03*
M02*
