G75*
%MOIN*%
%OFA0B0*%
%FSLAX25Y25*%
%IPPOS*%
%LPD*%
%AMOC8*
5,1,8,0,0,1.08239X$1,22.5*
%
%ADD10C,0.01200*%
%ADD11C,0.00800*%
%ADD12C,0.00500*%
%ADD13C,0.00200*%
%ADD14C,0.00400*%
%ADD15R,0.00886X0.00984*%
D10*
X0041300Y0158300D02*
X0051300Y0158300D01*
X0051300Y0163300D02*
X0041300Y0163300D01*
X0041300Y0164800D02*
X0051300Y0164800D01*
X0051300Y0169800D02*
X0041300Y0169800D01*
X0041300Y0171800D02*
X0051300Y0171800D01*
X0051300Y0176800D02*
X0041300Y0176800D01*
X0041300Y0178300D02*
X0051300Y0178300D01*
X0051300Y0183300D02*
X0041300Y0183300D01*
X0041300Y0184800D02*
X0051300Y0184800D01*
X0051300Y0189800D02*
X0041300Y0189800D01*
X0221900Y0043300D02*
X0221900Y0041300D01*
X0225700Y0041300D02*
X0225700Y0043300D01*
X0234400Y0043300D02*
X0234400Y0041300D01*
X0238200Y0041300D02*
X0238200Y0043300D01*
X0247800Y0025200D02*
X0249800Y0025200D01*
X0249800Y0021400D02*
X0247800Y0021400D01*
X0282400Y0166300D02*
X0282400Y0168300D01*
X0286200Y0168300D02*
X0286200Y0166300D01*
D11*
X0020812Y0017300D02*
X0020812Y0014300D01*
X0029788Y0014300D01*
X0029788Y0017300D01*
X0030788Y0017300D01*
X0029788Y0017300D02*
X0029788Y0020300D01*
X0020812Y0020300D01*
X0020812Y0017300D01*
X0019812Y0017300D01*
X0275489Y0166631D02*
X0277300Y0166631D01*
X0278220Y0167851D01*
X0279111Y0166631D02*
X0277300Y0166631D01*
X0277200Y0166691D02*
X0276440Y0167851D01*
D12*
X0134300Y0101800D02*
X0134305Y0102242D01*
X0134322Y0102683D01*
X0134349Y0103124D01*
X0134387Y0103564D01*
X0134435Y0104003D01*
X0134495Y0104441D01*
X0134565Y0104877D01*
X0134646Y0105312D01*
X0134737Y0105744D01*
X0134839Y0106174D01*
X0134952Y0106601D01*
X0135075Y0107025D01*
X0135208Y0107446D01*
X0135352Y0107864D01*
X0135506Y0108278D01*
X0135670Y0108688D01*
X0135844Y0109094D01*
X0136028Y0109496D01*
X0136222Y0109893D01*
X0136425Y0110285D01*
X0136638Y0110672D01*
X0136861Y0111054D01*
X0137093Y0111430D01*
X0137334Y0111800D01*
X0137583Y0112165D01*
X0137842Y0112523D01*
X0138110Y0112874D01*
X0138386Y0113219D01*
X0138670Y0113557D01*
X0138963Y0113888D01*
X0139264Y0114212D01*
X0139572Y0114528D01*
X0139888Y0114836D01*
X0140212Y0115137D01*
X0140543Y0115430D01*
X0140881Y0115714D01*
X0141226Y0115990D01*
X0141577Y0116258D01*
X0141935Y0116517D01*
X0142300Y0116766D01*
X0142670Y0117007D01*
X0143046Y0117239D01*
X0143428Y0117462D01*
X0143815Y0117675D01*
X0144207Y0117878D01*
X0144604Y0118072D01*
X0145006Y0118256D01*
X0145412Y0118430D01*
X0145822Y0118594D01*
X0146236Y0118748D01*
X0146654Y0118892D01*
X0147075Y0119025D01*
X0147499Y0119148D01*
X0147926Y0119261D01*
X0148356Y0119363D01*
X0148788Y0119454D01*
X0149223Y0119535D01*
X0149659Y0119605D01*
X0150097Y0119665D01*
X0150536Y0119713D01*
X0150976Y0119751D01*
X0151417Y0119778D01*
X0151858Y0119795D01*
X0152300Y0119800D01*
X0152742Y0119795D01*
X0153183Y0119778D01*
X0153624Y0119751D01*
X0154064Y0119713D01*
X0154503Y0119665D01*
X0154941Y0119605D01*
X0155377Y0119535D01*
X0155812Y0119454D01*
X0156244Y0119363D01*
X0156674Y0119261D01*
X0157101Y0119148D01*
X0157525Y0119025D01*
X0157946Y0118892D01*
X0158364Y0118748D01*
X0158778Y0118594D01*
X0159188Y0118430D01*
X0159594Y0118256D01*
X0159996Y0118072D01*
X0160393Y0117878D01*
X0160785Y0117675D01*
X0161172Y0117462D01*
X0161554Y0117239D01*
X0161930Y0117007D01*
X0162300Y0116766D01*
X0162665Y0116517D01*
X0163023Y0116258D01*
X0163374Y0115990D01*
X0163719Y0115714D01*
X0164057Y0115430D01*
X0164388Y0115137D01*
X0164712Y0114836D01*
X0165028Y0114528D01*
X0165336Y0114212D01*
X0165637Y0113888D01*
X0165930Y0113557D01*
X0166214Y0113219D01*
X0166490Y0112874D01*
X0166758Y0112523D01*
X0167017Y0112165D01*
X0167266Y0111800D01*
X0167507Y0111430D01*
X0167739Y0111054D01*
X0167962Y0110672D01*
X0168175Y0110285D01*
X0168378Y0109893D01*
X0168572Y0109496D01*
X0168756Y0109094D01*
X0168930Y0108688D01*
X0169094Y0108278D01*
X0169248Y0107864D01*
X0169392Y0107446D01*
X0169525Y0107025D01*
X0169648Y0106601D01*
X0169761Y0106174D01*
X0169863Y0105744D01*
X0169954Y0105312D01*
X0170035Y0104877D01*
X0170105Y0104441D01*
X0170165Y0104003D01*
X0170213Y0103564D01*
X0170251Y0103124D01*
X0170278Y0102683D01*
X0170295Y0102242D01*
X0170300Y0101800D01*
X0170295Y0101358D01*
X0170278Y0100917D01*
X0170251Y0100476D01*
X0170213Y0100036D01*
X0170165Y0099597D01*
X0170105Y0099159D01*
X0170035Y0098723D01*
X0169954Y0098288D01*
X0169863Y0097856D01*
X0169761Y0097426D01*
X0169648Y0096999D01*
X0169525Y0096575D01*
X0169392Y0096154D01*
X0169248Y0095736D01*
X0169094Y0095322D01*
X0168930Y0094912D01*
X0168756Y0094506D01*
X0168572Y0094104D01*
X0168378Y0093707D01*
X0168175Y0093315D01*
X0167962Y0092928D01*
X0167739Y0092546D01*
X0167507Y0092170D01*
X0167266Y0091800D01*
X0167017Y0091435D01*
X0166758Y0091077D01*
X0166490Y0090726D01*
X0166214Y0090381D01*
X0165930Y0090043D01*
X0165637Y0089712D01*
X0165336Y0089388D01*
X0165028Y0089072D01*
X0164712Y0088764D01*
X0164388Y0088463D01*
X0164057Y0088170D01*
X0163719Y0087886D01*
X0163374Y0087610D01*
X0163023Y0087342D01*
X0162665Y0087083D01*
X0162300Y0086834D01*
X0161930Y0086593D01*
X0161554Y0086361D01*
X0161172Y0086138D01*
X0160785Y0085925D01*
X0160393Y0085722D01*
X0159996Y0085528D01*
X0159594Y0085344D01*
X0159188Y0085170D01*
X0158778Y0085006D01*
X0158364Y0084852D01*
X0157946Y0084708D01*
X0157525Y0084575D01*
X0157101Y0084452D01*
X0156674Y0084339D01*
X0156244Y0084237D01*
X0155812Y0084146D01*
X0155377Y0084065D01*
X0154941Y0083995D01*
X0154503Y0083935D01*
X0154064Y0083887D01*
X0153624Y0083849D01*
X0153183Y0083822D01*
X0152742Y0083805D01*
X0152300Y0083800D01*
X0151858Y0083805D01*
X0151417Y0083822D01*
X0150976Y0083849D01*
X0150536Y0083887D01*
X0150097Y0083935D01*
X0149659Y0083995D01*
X0149223Y0084065D01*
X0148788Y0084146D01*
X0148356Y0084237D01*
X0147926Y0084339D01*
X0147499Y0084452D01*
X0147075Y0084575D01*
X0146654Y0084708D01*
X0146236Y0084852D01*
X0145822Y0085006D01*
X0145412Y0085170D01*
X0145006Y0085344D01*
X0144604Y0085528D01*
X0144207Y0085722D01*
X0143815Y0085925D01*
X0143428Y0086138D01*
X0143046Y0086361D01*
X0142670Y0086593D01*
X0142300Y0086834D01*
X0141935Y0087083D01*
X0141577Y0087342D01*
X0141226Y0087610D01*
X0140881Y0087886D01*
X0140543Y0088170D01*
X0140212Y0088463D01*
X0139888Y0088764D01*
X0139572Y0089072D01*
X0139264Y0089388D01*
X0138963Y0089712D01*
X0138670Y0090043D01*
X0138386Y0090381D01*
X0138110Y0090726D01*
X0137842Y0091077D01*
X0137583Y0091435D01*
X0137334Y0091800D01*
X0137093Y0092170D01*
X0136861Y0092546D01*
X0136638Y0092928D01*
X0136425Y0093315D01*
X0136222Y0093707D01*
X0136028Y0094104D01*
X0135844Y0094506D01*
X0135670Y0094912D01*
X0135506Y0095322D01*
X0135352Y0095736D01*
X0135208Y0096154D01*
X0135075Y0096575D01*
X0134952Y0096999D01*
X0134839Y0097426D01*
X0134737Y0097856D01*
X0134646Y0098288D01*
X0134565Y0098723D01*
X0134495Y0099159D01*
X0134435Y0099597D01*
X0134387Y0100036D01*
X0134349Y0100476D01*
X0134322Y0100917D01*
X0134305Y0101358D01*
X0134300Y0101800D01*
X0138500Y0113600D02*
X0136400Y0115700D01*
X0138500Y0117800D01*
X0140600Y0115700D01*
X0038800Y0197800D02*
X0038800Y0217800D01*
X0022800Y0217800D01*
X0022800Y0197800D01*
X0038800Y0197800D01*
D13*
X0137100Y0101800D02*
X0137105Y0102173D01*
X0137118Y0102546D01*
X0137141Y0102918D01*
X0137173Y0103290D01*
X0137214Y0103661D01*
X0137265Y0104030D01*
X0137324Y0104399D01*
X0137392Y0104765D01*
X0137469Y0105130D01*
X0137556Y0105493D01*
X0137651Y0105854D01*
X0137755Y0106212D01*
X0137867Y0106568D01*
X0137989Y0106921D01*
X0138119Y0107270D01*
X0138257Y0107617D01*
X0138404Y0107960D01*
X0138559Y0108299D01*
X0138723Y0108634D01*
X0138895Y0108965D01*
X0139075Y0109292D01*
X0139263Y0109614D01*
X0139458Y0109932D01*
X0139662Y0110245D01*
X0139873Y0110552D01*
X0140091Y0110855D01*
X0140317Y0111152D01*
X0140550Y0111443D01*
X0140790Y0111728D01*
X0141038Y0112008D01*
X0141291Y0112281D01*
X0141552Y0112548D01*
X0141819Y0112809D01*
X0142092Y0113062D01*
X0142372Y0113310D01*
X0142657Y0113550D01*
X0142948Y0113783D01*
X0143245Y0114009D01*
X0143548Y0114227D01*
X0143855Y0114438D01*
X0144168Y0114642D01*
X0144486Y0114837D01*
X0144808Y0115025D01*
X0145135Y0115205D01*
X0145466Y0115377D01*
X0145801Y0115541D01*
X0146140Y0115696D01*
X0146483Y0115843D01*
X0146830Y0115981D01*
X0147179Y0116111D01*
X0147532Y0116233D01*
X0147888Y0116345D01*
X0148246Y0116449D01*
X0148607Y0116544D01*
X0148970Y0116631D01*
X0149335Y0116708D01*
X0149701Y0116776D01*
X0150070Y0116835D01*
X0150439Y0116886D01*
X0150810Y0116927D01*
X0151182Y0116959D01*
X0151554Y0116982D01*
X0151927Y0116995D01*
X0152300Y0117000D01*
X0152673Y0116995D01*
X0153046Y0116982D01*
X0153418Y0116959D01*
X0153790Y0116927D01*
X0154161Y0116886D01*
X0154530Y0116835D01*
X0154899Y0116776D01*
X0155265Y0116708D01*
X0155630Y0116631D01*
X0155993Y0116544D01*
X0156354Y0116449D01*
X0156712Y0116345D01*
X0157068Y0116233D01*
X0157421Y0116111D01*
X0157770Y0115981D01*
X0158117Y0115843D01*
X0158460Y0115696D01*
X0158799Y0115541D01*
X0159134Y0115377D01*
X0159465Y0115205D01*
X0159792Y0115025D01*
X0160114Y0114837D01*
X0160432Y0114642D01*
X0160745Y0114438D01*
X0161052Y0114227D01*
X0161355Y0114009D01*
X0161652Y0113783D01*
X0161943Y0113550D01*
X0162228Y0113310D01*
X0162508Y0113062D01*
X0162781Y0112809D01*
X0163048Y0112548D01*
X0163309Y0112281D01*
X0163562Y0112008D01*
X0163810Y0111728D01*
X0164050Y0111443D01*
X0164283Y0111152D01*
X0164509Y0110855D01*
X0164727Y0110552D01*
X0164938Y0110245D01*
X0165142Y0109932D01*
X0165337Y0109614D01*
X0165525Y0109292D01*
X0165705Y0108965D01*
X0165877Y0108634D01*
X0166041Y0108299D01*
X0166196Y0107960D01*
X0166343Y0107617D01*
X0166481Y0107270D01*
X0166611Y0106921D01*
X0166733Y0106568D01*
X0166845Y0106212D01*
X0166949Y0105854D01*
X0167044Y0105493D01*
X0167131Y0105130D01*
X0167208Y0104765D01*
X0167276Y0104399D01*
X0167335Y0104030D01*
X0167386Y0103661D01*
X0167427Y0103290D01*
X0167459Y0102918D01*
X0167482Y0102546D01*
X0167495Y0102173D01*
X0167500Y0101800D01*
X0167495Y0101427D01*
X0167482Y0101054D01*
X0167459Y0100682D01*
X0167427Y0100310D01*
X0167386Y0099939D01*
X0167335Y0099570D01*
X0167276Y0099201D01*
X0167208Y0098835D01*
X0167131Y0098470D01*
X0167044Y0098107D01*
X0166949Y0097746D01*
X0166845Y0097388D01*
X0166733Y0097032D01*
X0166611Y0096679D01*
X0166481Y0096330D01*
X0166343Y0095983D01*
X0166196Y0095640D01*
X0166041Y0095301D01*
X0165877Y0094966D01*
X0165705Y0094635D01*
X0165525Y0094308D01*
X0165337Y0093986D01*
X0165142Y0093668D01*
X0164938Y0093355D01*
X0164727Y0093048D01*
X0164509Y0092745D01*
X0164283Y0092448D01*
X0164050Y0092157D01*
X0163810Y0091872D01*
X0163562Y0091592D01*
X0163309Y0091319D01*
X0163048Y0091052D01*
X0162781Y0090791D01*
X0162508Y0090538D01*
X0162228Y0090290D01*
X0161943Y0090050D01*
X0161652Y0089817D01*
X0161355Y0089591D01*
X0161052Y0089373D01*
X0160745Y0089162D01*
X0160432Y0088958D01*
X0160114Y0088763D01*
X0159792Y0088575D01*
X0159465Y0088395D01*
X0159134Y0088223D01*
X0158799Y0088059D01*
X0158460Y0087904D01*
X0158117Y0087757D01*
X0157770Y0087619D01*
X0157421Y0087489D01*
X0157068Y0087367D01*
X0156712Y0087255D01*
X0156354Y0087151D01*
X0155993Y0087056D01*
X0155630Y0086969D01*
X0155265Y0086892D01*
X0154899Y0086824D01*
X0154530Y0086765D01*
X0154161Y0086714D01*
X0153790Y0086673D01*
X0153418Y0086641D01*
X0153046Y0086618D01*
X0152673Y0086605D01*
X0152300Y0086600D01*
X0151927Y0086605D01*
X0151554Y0086618D01*
X0151182Y0086641D01*
X0150810Y0086673D01*
X0150439Y0086714D01*
X0150070Y0086765D01*
X0149701Y0086824D01*
X0149335Y0086892D01*
X0148970Y0086969D01*
X0148607Y0087056D01*
X0148246Y0087151D01*
X0147888Y0087255D01*
X0147532Y0087367D01*
X0147179Y0087489D01*
X0146830Y0087619D01*
X0146483Y0087757D01*
X0146140Y0087904D01*
X0145801Y0088059D01*
X0145466Y0088223D01*
X0145135Y0088395D01*
X0144808Y0088575D01*
X0144486Y0088763D01*
X0144168Y0088958D01*
X0143855Y0089162D01*
X0143548Y0089373D01*
X0143245Y0089591D01*
X0142948Y0089817D01*
X0142657Y0090050D01*
X0142372Y0090290D01*
X0142092Y0090538D01*
X0141819Y0090791D01*
X0141552Y0091052D01*
X0141291Y0091319D01*
X0141038Y0091592D01*
X0140790Y0091872D01*
X0140550Y0092157D01*
X0140317Y0092448D01*
X0140091Y0092745D01*
X0139873Y0093048D01*
X0139662Y0093355D01*
X0139458Y0093668D01*
X0139263Y0093986D01*
X0139075Y0094308D01*
X0138895Y0094635D01*
X0138723Y0094966D01*
X0138559Y0095301D01*
X0138404Y0095640D01*
X0138257Y0095983D01*
X0138119Y0096330D01*
X0137989Y0096679D01*
X0137867Y0097032D01*
X0137755Y0097388D01*
X0137651Y0097746D01*
X0137556Y0098107D01*
X0137469Y0098470D01*
X0137392Y0098835D01*
X0137324Y0099201D01*
X0137265Y0099570D01*
X0137214Y0099939D01*
X0137173Y0100310D01*
X0137141Y0100682D01*
X0137118Y0101054D01*
X0137105Y0101427D01*
X0137100Y0101800D01*
D14*
X0222422Y0031087D02*
X0222422Y0029513D01*
X0225178Y0029513D02*
X0225178Y0031087D01*
X0234922Y0031087D02*
X0234922Y0029513D01*
X0237678Y0029513D02*
X0237678Y0031087D01*
D15*
X0235168Y0030792D03*
X0222668Y0030792D03*
M02*
