G75*
%MOIN*%
%OFA0B0*%
%FSLAX25Y25*%
%IPPOS*%
%LPD*%
%AMOC8*
5,1,8,0,0,1.08239X$1,22.5*
%
%ADD10C,0.00500*%
%ADD11C,0.00800*%
%ADD12C,0.00600*%
%ADD13C,0.00400*%
%ADD14C,0.02200*%
%ADD15C,0.01200*%
%ADD16C,0.01000*%
%ADD17C,0.01600*%
%ADD18C,0.00300*%
D10*
X0101800Y0091300D02*
X0101800Y0136300D01*
X0111800Y0136300D01*
X0111800Y0091300D01*
X0101800Y0091300D01*
X0114300Y0098800D02*
X0114300Y0108800D01*
X0096800Y0126300D01*
X0103046Y0145450D02*
X0103046Y0147702D01*
X0103797Y0148453D01*
X0105298Y0148453D01*
X0106049Y0147702D01*
X0106049Y0145450D01*
X0107550Y0145450D02*
X0103046Y0145450D01*
X0106049Y0146951D02*
X0107550Y0148453D01*
X0106799Y0150054D02*
X0107550Y0150805D01*
X0107550Y0152306D01*
X0106799Y0153056D01*
X0106049Y0153056D01*
X0105298Y0152306D01*
X0105298Y0151555D01*
X0105298Y0152306D02*
X0104547Y0153056D01*
X0103797Y0153056D01*
X0103046Y0152306D01*
X0103046Y0150805D01*
X0103797Y0150054D01*
X0105298Y0154658D02*
X0105298Y0156910D01*
X0106049Y0157660D01*
X0106799Y0157660D01*
X0107550Y0156910D01*
X0107550Y0155408D01*
X0106799Y0154658D01*
X0105298Y0154658D01*
X0103797Y0156159D01*
X0103046Y0157660D01*
X0114950Y0160050D02*
X0114950Y0164554D01*
X0117202Y0164554D01*
X0117953Y0163803D01*
X0117953Y0162302D01*
X0117202Y0161551D01*
X0114950Y0161551D01*
X0116451Y0161551D02*
X0117953Y0160050D01*
X0119554Y0160801D02*
X0120305Y0160050D01*
X0121806Y0160050D01*
X0122556Y0160801D01*
X0122556Y0161551D01*
X0121806Y0162302D01*
X0121055Y0162302D01*
X0121806Y0162302D02*
X0122556Y0163053D01*
X0122556Y0163803D01*
X0121806Y0164554D01*
X0120305Y0164554D01*
X0119554Y0163803D01*
X0124158Y0164554D02*
X0127160Y0164554D01*
X0127160Y0163803D01*
X0124158Y0160801D01*
X0124158Y0160050D01*
X0124908Y0152554D02*
X0126410Y0152554D01*
X0127160Y0151803D01*
X0127160Y0151053D01*
X0126410Y0150302D01*
X0127160Y0149551D01*
X0127160Y0148801D01*
X0126410Y0148050D01*
X0124908Y0148050D01*
X0124158Y0148801D01*
X0122556Y0148801D02*
X0122556Y0149551D01*
X0121806Y0150302D01*
X0121055Y0150302D01*
X0121806Y0150302D02*
X0122556Y0151053D01*
X0122556Y0151803D01*
X0121806Y0152554D01*
X0120305Y0152554D01*
X0119554Y0151803D01*
X0117953Y0151803D02*
X0117953Y0150302D01*
X0117202Y0149551D01*
X0114950Y0149551D01*
X0114950Y0148050D02*
X0114950Y0152554D01*
X0117202Y0152554D01*
X0117953Y0151803D01*
X0116451Y0149551D02*
X0117953Y0148050D01*
X0119554Y0148801D02*
X0120305Y0148050D01*
X0121806Y0148050D01*
X0122556Y0148801D01*
X0125659Y0150302D02*
X0126410Y0150302D01*
X0124158Y0151803D02*
X0124908Y0152554D01*
X0132046Y0156450D02*
X0132046Y0158702D01*
X0132797Y0159453D01*
X0134298Y0159453D01*
X0135049Y0158702D01*
X0135049Y0156450D01*
X0136550Y0156450D02*
X0132046Y0156450D01*
X0135049Y0157951D02*
X0136550Y0159453D01*
X0135799Y0161054D02*
X0136550Y0161805D01*
X0136550Y0163306D01*
X0135799Y0164056D01*
X0135049Y0164056D01*
X0134298Y0163306D01*
X0134298Y0162555D01*
X0134298Y0163306D02*
X0133547Y0164056D01*
X0132797Y0164056D01*
X0132046Y0163306D01*
X0132046Y0161805D01*
X0132797Y0161054D01*
X0134298Y0165658D02*
X0134298Y0168660D01*
X0132046Y0167910D02*
X0134298Y0165658D01*
X0136550Y0167910D02*
X0132046Y0167910D01*
X0127160Y0172801D02*
X0126410Y0172050D01*
X0124908Y0172050D01*
X0124158Y0172801D01*
X0124158Y0174302D02*
X0125659Y0175053D01*
X0126410Y0175053D01*
X0127160Y0174302D01*
X0127160Y0172801D01*
X0124158Y0174302D02*
X0124158Y0176554D01*
X0127160Y0176554D01*
X0122556Y0175803D02*
X0122556Y0175053D01*
X0121806Y0174302D01*
X0122556Y0173551D01*
X0122556Y0172801D01*
X0121806Y0172050D01*
X0120305Y0172050D01*
X0119554Y0172801D01*
X0117953Y0172050D02*
X0116451Y0173551D01*
X0117202Y0173551D02*
X0114950Y0173551D01*
X0114950Y0172050D02*
X0114950Y0176554D01*
X0117202Y0176554D01*
X0117953Y0175803D01*
X0117953Y0174302D01*
X0117202Y0173551D01*
X0119554Y0175803D02*
X0120305Y0176554D01*
X0121806Y0176554D01*
X0122556Y0175803D01*
X0121806Y0174302D02*
X0121055Y0174302D01*
X0121953Y0182550D02*
X0120451Y0184051D01*
X0121202Y0184051D02*
X0118950Y0184051D01*
X0118950Y0182550D02*
X0118950Y0187054D01*
X0121202Y0187054D01*
X0121953Y0186303D01*
X0121953Y0184802D01*
X0121202Y0184051D01*
X0123554Y0183301D02*
X0124305Y0182550D01*
X0125806Y0182550D01*
X0126556Y0183301D01*
X0126556Y0184051D01*
X0125806Y0184802D01*
X0125055Y0184802D01*
X0125806Y0184802D02*
X0126556Y0185553D01*
X0126556Y0186303D01*
X0125806Y0187054D01*
X0124305Y0187054D01*
X0123554Y0186303D01*
X0128158Y0186303D02*
X0128158Y0185553D01*
X0128908Y0184802D01*
X0130410Y0184802D01*
X0131160Y0184051D01*
X0131160Y0183301D01*
X0130410Y0182550D01*
X0128908Y0182550D01*
X0128158Y0183301D01*
X0128158Y0184051D01*
X0128908Y0184802D01*
X0130410Y0184802D02*
X0131160Y0185553D01*
X0131160Y0186303D01*
X0130410Y0187054D01*
X0128908Y0187054D01*
X0128158Y0186303D01*
X0172798Y0146660D02*
X0172798Y0143658D01*
X0170546Y0145910D01*
X0175050Y0145910D01*
X0175050Y0142056D02*
X0175050Y0139054D01*
X0172047Y0142056D01*
X0171297Y0142056D01*
X0170546Y0141306D01*
X0170546Y0139805D01*
X0171297Y0139054D01*
X0171297Y0137453D02*
X0172798Y0137453D01*
X0173549Y0136702D01*
X0173549Y0134450D01*
X0175050Y0134450D02*
X0170546Y0134450D01*
X0170546Y0136702D01*
X0171297Y0137453D01*
X0173549Y0135951D02*
X0175050Y0137453D01*
X0227546Y0133660D02*
X0227546Y0130658D01*
X0229798Y0130658D01*
X0229047Y0132159D01*
X0229047Y0132910D01*
X0229798Y0133660D01*
X0231299Y0133660D01*
X0232050Y0132910D01*
X0232050Y0131408D01*
X0231299Y0130658D01*
X0232050Y0129056D02*
X0232050Y0126054D01*
X0229047Y0129056D01*
X0228297Y0129056D01*
X0227546Y0128306D01*
X0227546Y0126805D01*
X0228297Y0126054D01*
X0228297Y0124453D02*
X0227546Y0123702D01*
X0227546Y0121450D01*
X0232050Y0121450D01*
X0230549Y0121450D02*
X0230549Y0123702D01*
X0229798Y0124453D01*
X0228297Y0124453D01*
X0230549Y0122951D02*
X0232050Y0124453D01*
X0240950Y0122554D02*
X0240950Y0118050D01*
X0240950Y0119551D02*
X0243202Y0119551D01*
X0243953Y0120302D01*
X0243953Y0121803D01*
X0243202Y0122554D01*
X0240950Y0122554D01*
X0245554Y0120302D02*
X0248556Y0120302D01*
X0247806Y0118050D02*
X0247806Y0122554D01*
X0245554Y0120302D01*
X0243953Y0118050D02*
X0242451Y0119551D01*
X0252950Y0111054D02*
X0255202Y0111054D01*
X0255953Y0110303D01*
X0255953Y0108802D01*
X0255202Y0108051D01*
X0252950Y0108051D01*
X0252950Y0106550D02*
X0252950Y0111054D01*
X0254451Y0108051D02*
X0255953Y0106550D01*
X0257554Y0107301D02*
X0258305Y0106550D01*
X0259806Y0106550D01*
X0260556Y0107301D01*
X0260556Y0108051D01*
X0259806Y0108802D01*
X0259055Y0108802D01*
X0259806Y0108802D02*
X0260556Y0109553D01*
X0260556Y0110303D01*
X0259806Y0111054D01*
X0258305Y0111054D01*
X0257554Y0110303D01*
X0253297Y0105056D02*
X0256299Y0102054D01*
X0257050Y0102054D01*
X0257050Y0100453D02*
X0255549Y0098951D01*
X0255549Y0099702D02*
X0255549Y0097450D01*
X0257050Y0097450D02*
X0252546Y0097450D01*
X0252546Y0099702D01*
X0253297Y0100453D01*
X0254798Y0100453D01*
X0255549Y0099702D01*
X0252546Y0102054D02*
X0252546Y0105056D01*
X0253297Y0105056D01*
X0253297Y0093056D02*
X0252546Y0092306D01*
X0252546Y0090805D01*
X0253297Y0090054D01*
X0253297Y0088453D02*
X0254798Y0088453D01*
X0255549Y0087702D01*
X0255549Y0085450D01*
X0257050Y0085450D02*
X0252546Y0085450D01*
X0252546Y0087702D01*
X0253297Y0088453D01*
X0255549Y0086951D02*
X0257050Y0088453D01*
X0257050Y0090054D02*
X0254047Y0093056D01*
X0253297Y0093056D01*
X0257050Y0093056D02*
X0257050Y0090054D01*
X0245056Y0075054D02*
X0243555Y0074303D01*
X0242054Y0072802D01*
X0244306Y0072802D01*
X0245056Y0072051D01*
X0245056Y0071301D01*
X0244306Y0070550D01*
X0242805Y0070550D01*
X0242054Y0071301D01*
X0242054Y0072802D01*
X0240453Y0072802D02*
X0239702Y0072051D01*
X0237450Y0072051D01*
X0237450Y0070550D02*
X0237450Y0075054D01*
X0239702Y0075054D01*
X0240453Y0074303D01*
X0240453Y0072802D01*
X0238951Y0072051D02*
X0240453Y0070550D01*
X0281950Y0105050D02*
X0281950Y0109554D01*
X0284202Y0109554D01*
X0284953Y0108803D01*
X0284953Y0107302D01*
X0284202Y0106551D01*
X0281950Y0106551D01*
X0283451Y0106551D02*
X0284953Y0105050D01*
X0286554Y0105050D02*
X0289556Y0105050D01*
X0288055Y0105050D02*
X0288055Y0109554D01*
X0286554Y0108053D01*
X0291158Y0108803D02*
X0291908Y0109554D01*
X0293410Y0109554D01*
X0294160Y0108803D01*
X0294160Y0108053D01*
X0293410Y0107302D01*
X0294160Y0106551D01*
X0294160Y0105801D01*
X0293410Y0105050D01*
X0291908Y0105050D01*
X0291158Y0105801D01*
X0292659Y0107302D02*
X0293410Y0107302D01*
X0283550Y0113450D02*
X0279046Y0113450D01*
X0279046Y0115702D01*
X0279797Y0116453D01*
X0281298Y0116453D01*
X0282049Y0115702D01*
X0282049Y0113450D01*
X0282049Y0114951D02*
X0283550Y0116453D01*
X0282799Y0118054D02*
X0282049Y0118054D01*
X0281298Y0118805D01*
X0281298Y0120306D01*
X0282049Y0121056D01*
X0282799Y0121056D01*
X0283550Y0120306D01*
X0283550Y0118805D01*
X0282799Y0118054D01*
X0281298Y0118805D02*
X0280547Y0118054D01*
X0279797Y0118054D01*
X0279046Y0118805D01*
X0279046Y0120306D01*
X0279797Y0121056D01*
X0280547Y0121056D01*
X0281298Y0120306D01*
X0225910Y0227550D02*
X0224408Y0227550D01*
X0223658Y0228301D01*
X0223658Y0229802D01*
X0225910Y0229802D01*
X0226660Y0229051D01*
X0226660Y0228301D01*
X0225910Y0227550D01*
X0223658Y0229802D02*
X0225159Y0231303D01*
X0226660Y0232054D01*
X0230250Y0231501D02*
X0231001Y0230750D01*
X0232502Y0230750D01*
X0233253Y0231501D01*
X0233253Y0233002D01*
X0232502Y0233753D01*
X0231751Y0233753D01*
X0230250Y0233002D01*
X0230250Y0235254D01*
X0233253Y0235254D01*
X0234854Y0235254D02*
X0234854Y0232251D01*
X0236355Y0230750D01*
X0237856Y0232251D01*
X0237856Y0235254D01*
X0239458Y0233753D02*
X0240959Y0235254D01*
X0240959Y0230750D01*
X0239458Y0230750D02*
X0242460Y0230750D01*
X0222056Y0230553D02*
X0222056Y0231303D01*
X0221306Y0232054D01*
X0219805Y0232054D01*
X0219054Y0231303D01*
X0217453Y0231303D02*
X0217453Y0229802D01*
X0216702Y0229051D01*
X0214450Y0229051D01*
X0214450Y0227550D02*
X0214450Y0232054D01*
X0216702Y0232054D01*
X0217453Y0231303D01*
X0215951Y0229051D02*
X0217453Y0227550D01*
X0219054Y0227550D02*
X0222056Y0230553D01*
X0222056Y0227550D02*
X0219054Y0227550D01*
D11*
X0222182Y0219851D02*
X0229269Y0219851D01*
X0229269Y0213749D01*
X0222182Y0213749D01*
X0229269Y0213749D02*
X0232418Y0213749D01*
X0232418Y0219851D02*
X0229269Y0219851D01*
X0256300Y0219300D02*
X0256300Y0204300D01*
X0258800Y0201800D01*
X0263800Y0201800D01*
X0266300Y0204300D01*
X0266300Y0219300D01*
X0268800Y0221800D01*
X0273800Y0221800D01*
X0276300Y0219300D01*
X0276300Y0204300D01*
X0278800Y0201800D01*
X0283800Y0201800D01*
X0286300Y0204300D01*
X0286300Y0219300D01*
X0283800Y0221800D01*
X0278800Y0221800D01*
X0276300Y0219300D01*
X0266300Y0219300D02*
X0263800Y0221800D01*
X0258800Y0221800D01*
X0256300Y0219300D01*
X0266300Y0204300D02*
X0268800Y0201800D01*
X0273800Y0201800D01*
X0276300Y0204300D01*
X0263800Y0200481D02*
X0258800Y0200481D01*
X0194387Y0189099D02*
X0194387Y0181225D01*
X0186513Y0181225D01*
X0159463Y0161394D02*
X0159463Y0122600D01*
X0159462Y0122600D02*
X0159471Y0122530D01*
X0159476Y0122458D01*
X0159477Y0122387D01*
X0159474Y0122316D01*
X0159467Y0122245D01*
X0159457Y0122174D01*
X0159443Y0122104D01*
X0159425Y0122035D01*
X0159403Y0121967D01*
X0159377Y0121900D01*
X0159348Y0121835D01*
X0159316Y0121772D01*
X0159280Y0121710D01*
X0159241Y0121650D01*
X0159198Y0121593D01*
X0159153Y0121538D01*
X0159105Y0121485D01*
X0159053Y0121435D01*
X0159000Y0121388D01*
X0158944Y0121344D01*
X0158885Y0121304D01*
X0158824Y0121266D01*
X0158762Y0121232D01*
X0158698Y0121201D01*
X0158632Y0121173D01*
X0158564Y0121150D01*
X0158496Y0121130D01*
X0158426Y0121113D01*
X0158356Y0121101D01*
X0158356Y0121100D02*
X0154400Y0121100D01*
X0154400Y0121300D02*
X0154398Y0121398D01*
X0154392Y0121496D01*
X0154383Y0121594D01*
X0154369Y0121691D01*
X0154352Y0121788D01*
X0154331Y0121884D01*
X0154306Y0121979D01*
X0154278Y0122073D01*
X0154245Y0122165D01*
X0154210Y0122257D01*
X0154170Y0122347D01*
X0154128Y0122435D01*
X0154081Y0122522D01*
X0154032Y0122606D01*
X0153979Y0122689D01*
X0153923Y0122769D01*
X0153863Y0122848D01*
X0153801Y0122924D01*
X0153736Y0122997D01*
X0153668Y0123068D01*
X0153597Y0123136D01*
X0153524Y0123201D01*
X0153448Y0123263D01*
X0153369Y0123323D01*
X0153289Y0123379D01*
X0153206Y0123432D01*
X0153122Y0123481D01*
X0153035Y0123528D01*
X0152947Y0123570D01*
X0152857Y0123610D01*
X0152765Y0123645D01*
X0152673Y0123678D01*
X0152579Y0123706D01*
X0152484Y0123731D01*
X0152388Y0123752D01*
X0152291Y0123769D01*
X0152194Y0123783D01*
X0152096Y0123792D01*
X0151998Y0123798D01*
X0151900Y0123800D01*
X0151802Y0123798D01*
X0151704Y0123792D01*
X0151606Y0123783D01*
X0151509Y0123769D01*
X0151412Y0123752D01*
X0151316Y0123731D01*
X0151221Y0123706D01*
X0151127Y0123678D01*
X0151035Y0123645D01*
X0150943Y0123610D01*
X0150853Y0123570D01*
X0150765Y0123528D01*
X0150678Y0123481D01*
X0150594Y0123432D01*
X0150511Y0123379D01*
X0150431Y0123323D01*
X0150352Y0123263D01*
X0150276Y0123201D01*
X0150203Y0123136D01*
X0150132Y0123068D01*
X0150064Y0122997D01*
X0149999Y0122924D01*
X0149937Y0122848D01*
X0149877Y0122769D01*
X0149821Y0122689D01*
X0149768Y0122606D01*
X0149719Y0122522D01*
X0149672Y0122435D01*
X0149630Y0122347D01*
X0149590Y0122257D01*
X0149555Y0122165D01*
X0149522Y0122073D01*
X0149494Y0121979D01*
X0149469Y0121884D01*
X0149448Y0121788D01*
X0149431Y0121691D01*
X0149417Y0121594D01*
X0149408Y0121496D01*
X0149402Y0121398D01*
X0149400Y0121300D01*
X0149400Y0121100D02*
X0146081Y0121100D01*
X0146031Y0121099D02*
X0145950Y0121092D01*
X0145869Y0121088D01*
X0145788Y0121089D01*
X0145706Y0121093D01*
X0145626Y0121101D01*
X0145545Y0121113D01*
X0145465Y0121128D01*
X0145386Y0121148D01*
X0145308Y0121171D01*
X0145232Y0121198D01*
X0145156Y0121228D01*
X0145082Y0121262D01*
X0145010Y0121300D01*
X0144940Y0121341D01*
X0144872Y0121385D01*
X0144806Y0121432D01*
X0144742Y0121483D01*
X0144681Y0121536D01*
X0144622Y0121593D01*
X0144566Y0121652D01*
X0144513Y0121713D01*
X0144463Y0121777D01*
X0144416Y0121844D01*
X0144372Y0121912D01*
X0144332Y0121983D01*
X0144295Y0122055D01*
X0144261Y0122129D01*
X0144232Y0122205D01*
X0144205Y0122282D01*
X0144183Y0122360D01*
X0144164Y0122439D01*
X0144149Y0122519D01*
X0144137Y0122600D01*
X0144137Y0161000D01*
X0144139Y0161076D01*
X0144145Y0161151D01*
X0144154Y0161227D01*
X0144168Y0161302D01*
X0144185Y0161376D01*
X0144206Y0161449D01*
X0144230Y0161521D01*
X0144258Y0161591D01*
X0144290Y0161660D01*
X0144325Y0161728D01*
X0144364Y0161793D01*
X0144406Y0161857D01*
X0144451Y0161918D01*
X0144499Y0161977D01*
X0144550Y0162033D01*
X0144604Y0162087D01*
X0144660Y0162138D01*
X0144719Y0162186D01*
X0144780Y0162231D01*
X0144844Y0162273D01*
X0144909Y0162312D01*
X0144977Y0162347D01*
X0145046Y0162379D01*
X0145116Y0162407D01*
X0145188Y0162431D01*
X0145261Y0162452D01*
X0145335Y0162469D01*
X0145410Y0162483D01*
X0145486Y0162492D01*
X0145561Y0162498D01*
X0145637Y0162500D01*
X0157963Y0162500D01*
X0157962Y0162500D02*
X0158033Y0162509D01*
X0158104Y0162514D01*
X0158176Y0162515D01*
X0158247Y0162512D01*
X0158318Y0162505D01*
X0158389Y0162495D01*
X0158458Y0162481D01*
X0158528Y0162462D01*
X0158596Y0162441D01*
X0158662Y0162415D01*
X0158727Y0162386D01*
X0158791Y0162354D01*
X0158853Y0162318D01*
X0158912Y0162279D01*
X0158970Y0162236D01*
X0159025Y0162191D01*
X0159077Y0162142D01*
X0159127Y0162091D01*
X0159174Y0162038D01*
X0159218Y0161981D01*
X0159259Y0161923D01*
X0159297Y0161862D01*
X0159331Y0161800D01*
X0159362Y0161735D01*
X0159389Y0161669D01*
X0159413Y0161602D01*
X0159433Y0161534D01*
X0159450Y0161464D01*
X0159462Y0161394D01*
X0138087Y0181225D02*
X0130213Y0181225D01*
X0130213Y0189099D01*
X0139040Y0191265D02*
X0139042Y0191354D01*
X0139048Y0191443D01*
X0139058Y0191532D01*
X0139072Y0191620D01*
X0139089Y0191707D01*
X0139111Y0191793D01*
X0139137Y0191879D01*
X0139166Y0191963D01*
X0139199Y0192046D01*
X0139235Y0192127D01*
X0139276Y0192207D01*
X0139319Y0192284D01*
X0139366Y0192360D01*
X0139417Y0192433D01*
X0139470Y0192504D01*
X0139527Y0192573D01*
X0139587Y0192639D01*
X0139650Y0192703D01*
X0139715Y0192763D01*
X0139783Y0192821D01*
X0139854Y0192875D01*
X0139927Y0192926D01*
X0140002Y0192974D01*
X0140079Y0193019D01*
X0140158Y0193060D01*
X0140239Y0193097D01*
X0140321Y0193131D01*
X0140405Y0193162D01*
X0140490Y0193188D01*
X0140576Y0193211D01*
X0140663Y0193229D01*
X0140751Y0193244D01*
X0140840Y0193255D01*
X0140929Y0193262D01*
X0141018Y0193265D01*
X0141107Y0193264D01*
X0141196Y0193259D01*
X0141284Y0193250D01*
X0141373Y0193237D01*
X0141460Y0193220D01*
X0141547Y0193200D01*
X0141633Y0193175D01*
X0141717Y0193147D01*
X0141800Y0193115D01*
X0141882Y0193079D01*
X0141962Y0193040D01*
X0142040Y0192997D01*
X0142116Y0192951D01*
X0142190Y0192901D01*
X0142262Y0192848D01*
X0142331Y0192792D01*
X0142398Y0192733D01*
X0142462Y0192671D01*
X0142523Y0192607D01*
X0142582Y0192539D01*
X0142637Y0192469D01*
X0142689Y0192397D01*
X0142738Y0192322D01*
X0142783Y0192246D01*
X0142825Y0192167D01*
X0142863Y0192087D01*
X0142898Y0192005D01*
X0142929Y0191921D01*
X0142957Y0191836D01*
X0142980Y0191750D01*
X0143000Y0191663D01*
X0143016Y0191576D01*
X0143028Y0191487D01*
X0143036Y0191399D01*
X0143040Y0191310D01*
X0143040Y0191220D01*
X0143036Y0191131D01*
X0143028Y0191043D01*
X0143016Y0190954D01*
X0143000Y0190867D01*
X0142980Y0190780D01*
X0142957Y0190694D01*
X0142929Y0190609D01*
X0142898Y0190525D01*
X0142863Y0190443D01*
X0142825Y0190363D01*
X0142783Y0190284D01*
X0142738Y0190208D01*
X0142689Y0190133D01*
X0142637Y0190061D01*
X0142582Y0189991D01*
X0142523Y0189923D01*
X0142462Y0189859D01*
X0142398Y0189797D01*
X0142331Y0189738D01*
X0142262Y0189682D01*
X0142190Y0189629D01*
X0142116Y0189579D01*
X0142040Y0189533D01*
X0141962Y0189490D01*
X0141882Y0189451D01*
X0141800Y0189415D01*
X0141717Y0189383D01*
X0141633Y0189355D01*
X0141547Y0189330D01*
X0141460Y0189310D01*
X0141373Y0189293D01*
X0141284Y0189280D01*
X0141196Y0189271D01*
X0141107Y0189266D01*
X0141018Y0189265D01*
X0140929Y0189268D01*
X0140840Y0189275D01*
X0140751Y0189286D01*
X0140663Y0189301D01*
X0140576Y0189319D01*
X0140490Y0189342D01*
X0140405Y0189368D01*
X0140321Y0189399D01*
X0140239Y0189433D01*
X0140158Y0189470D01*
X0140079Y0189511D01*
X0140002Y0189556D01*
X0139927Y0189604D01*
X0139854Y0189655D01*
X0139783Y0189709D01*
X0139715Y0189767D01*
X0139650Y0189827D01*
X0139587Y0189891D01*
X0139527Y0189957D01*
X0139470Y0190026D01*
X0139417Y0190097D01*
X0139366Y0190170D01*
X0139319Y0190246D01*
X0139276Y0190323D01*
X0139235Y0190403D01*
X0139199Y0190484D01*
X0139166Y0190567D01*
X0139137Y0190651D01*
X0139111Y0190737D01*
X0139089Y0190823D01*
X0139072Y0190910D01*
X0139058Y0190998D01*
X0139048Y0191087D01*
X0139042Y0191176D01*
X0139040Y0191265D01*
X0130213Y0226501D02*
X0130213Y0234375D01*
X0138087Y0234375D01*
X0119005Y0234769D02*
X0096957Y0234769D01*
X0096957Y0230831D01*
X0094595Y0230831D01*
X0096957Y0230831D02*
X0119005Y0230831D01*
X0096957Y0234769D02*
X0094595Y0234769D01*
X0066938Y0215658D02*
X0021662Y0215658D01*
X0021662Y0197942D01*
X0066938Y0197942D01*
X0066938Y0215658D01*
X0063938Y0216942D02*
X0018662Y0216942D01*
X0018662Y0234658D01*
X0063938Y0234658D01*
X0063938Y0216942D01*
X0047398Y0224901D02*
X0046698Y0224200D01*
X0045297Y0224200D01*
X0044596Y0224901D01*
X0044596Y0225601D01*
X0045297Y0226302D01*
X0046698Y0226302D01*
X0047398Y0225601D01*
X0047398Y0224901D01*
X0046698Y0226302D02*
X0047398Y0227002D01*
X0047398Y0227703D01*
X0046698Y0228404D01*
X0045297Y0228404D01*
X0044596Y0227703D01*
X0044596Y0227002D01*
X0045297Y0226302D01*
X0042795Y0227002D02*
X0042795Y0227703D01*
X0042094Y0228404D01*
X0040693Y0228404D01*
X0039992Y0227703D01*
X0038191Y0227703D02*
X0037490Y0228404D01*
X0035388Y0228404D01*
X0035388Y0224200D01*
X0035388Y0225601D02*
X0037490Y0225601D01*
X0038191Y0226302D01*
X0038191Y0227703D01*
X0036789Y0225601D02*
X0038191Y0224200D01*
X0039992Y0224200D02*
X0042795Y0227002D01*
X0042795Y0224200D02*
X0039992Y0224200D01*
X0041497Y0209404D02*
X0041497Y0205200D01*
X0040096Y0205200D02*
X0042898Y0205200D01*
X0040096Y0208002D02*
X0041497Y0209404D01*
X0038295Y0208703D02*
X0038295Y0208002D01*
X0037594Y0207302D01*
X0038295Y0206601D01*
X0038295Y0205901D01*
X0037594Y0205200D01*
X0036193Y0205200D01*
X0035492Y0205901D01*
X0033691Y0205200D02*
X0032289Y0206601D01*
X0032990Y0206601D02*
X0030888Y0206601D01*
X0030888Y0205200D02*
X0030888Y0209404D01*
X0032990Y0209404D01*
X0033691Y0208703D01*
X0033691Y0207302D01*
X0032990Y0206601D01*
X0035492Y0208703D02*
X0036193Y0209404D01*
X0037594Y0209404D01*
X0038295Y0208703D01*
X0037594Y0207302D02*
X0036893Y0207302D01*
X0019162Y0196158D02*
X0064438Y0196158D01*
X0064438Y0178442D01*
X0019162Y0178442D01*
X0019162Y0196158D01*
X0037888Y0189904D02*
X0037888Y0185700D01*
X0037888Y0187101D02*
X0039990Y0187101D01*
X0040691Y0187802D01*
X0040691Y0189203D01*
X0039990Y0189904D01*
X0037888Y0189904D01*
X0039289Y0187101D02*
X0040691Y0185700D01*
X0042492Y0185700D02*
X0045295Y0188502D01*
X0045295Y0189203D01*
X0044594Y0189904D01*
X0043193Y0189904D01*
X0042492Y0189203D01*
X0042492Y0185700D02*
X0045295Y0185700D01*
X0047096Y0186401D02*
X0047797Y0185700D01*
X0049198Y0185700D01*
X0049898Y0186401D01*
X0049898Y0189203D01*
X0049198Y0189904D01*
X0047797Y0189904D01*
X0047096Y0189203D01*
X0047096Y0188502D01*
X0047797Y0187802D01*
X0049898Y0187802D01*
X0100442Y0078438D02*
X0100442Y0033162D01*
X0118158Y0033162D01*
X0118158Y0078438D01*
X0100442Y0078438D01*
X0100897Y0031398D02*
X0100196Y0030698D01*
X0100196Y0029297D01*
X0100897Y0028596D01*
X0101598Y0028596D01*
X0102298Y0029297D01*
X0102298Y0031398D01*
X0103699Y0031398D02*
X0100897Y0031398D01*
X0103699Y0031398D02*
X0104400Y0030698D01*
X0104400Y0029297D01*
X0103699Y0028596D01*
X0103699Y0026795D02*
X0104400Y0026094D01*
X0104400Y0024693D01*
X0103699Y0023992D01*
X0104400Y0022191D02*
X0102999Y0020789D01*
X0102999Y0021490D02*
X0102999Y0019388D01*
X0104400Y0019388D02*
X0100196Y0019388D01*
X0100196Y0021490D01*
X0100897Y0022191D01*
X0102298Y0022191D01*
X0102999Y0021490D01*
X0100897Y0023992D02*
X0100196Y0024693D01*
X0100196Y0026094D01*
X0100897Y0026795D01*
X0101598Y0026795D01*
X0102298Y0026094D01*
X0102999Y0026795D01*
X0103699Y0026795D01*
X0102298Y0026094D02*
X0102298Y0025393D01*
X0190292Y0012753D02*
X0190292Y0008816D01*
X0194229Y0008816D01*
X0190292Y0056847D02*
X0190292Y0060784D01*
X0194229Y0060784D01*
X0260765Y0060784D02*
X0267457Y0060784D01*
X0287930Y0060784D02*
X0291867Y0060784D01*
X0291867Y0056847D01*
X0291867Y0012753D02*
X0291867Y0008816D01*
X0287930Y0008816D01*
X0267457Y0008816D02*
X0260765Y0008816D01*
X0194387Y0226501D02*
X0194387Y0234375D01*
X0186513Y0234375D01*
D12*
X0223501Y0196702D02*
X0224898Y0198099D01*
X0251099Y0198099D01*
X0251099Y0170501D01*
X0223501Y0170501D01*
X0223501Y0196702D01*
X0225086Y0195100D02*
X0225088Y0195175D01*
X0225094Y0195249D01*
X0225104Y0195323D01*
X0225117Y0195396D01*
X0225135Y0195469D01*
X0225156Y0195540D01*
X0225181Y0195611D01*
X0225210Y0195680D01*
X0225243Y0195747D01*
X0225279Y0195812D01*
X0225318Y0195876D01*
X0225360Y0195937D01*
X0225406Y0195996D01*
X0225455Y0196053D01*
X0225507Y0196106D01*
X0225561Y0196157D01*
X0225618Y0196206D01*
X0225678Y0196250D01*
X0225740Y0196292D01*
X0225804Y0196331D01*
X0225870Y0196366D01*
X0225937Y0196397D01*
X0226007Y0196425D01*
X0226077Y0196449D01*
X0226149Y0196470D01*
X0226222Y0196486D01*
X0226295Y0196499D01*
X0226370Y0196508D01*
X0226444Y0196513D01*
X0226519Y0196514D01*
X0226593Y0196511D01*
X0226668Y0196504D01*
X0226741Y0196493D01*
X0226815Y0196479D01*
X0226887Y0196460D01*
X0226958Y0196438D01*
X0227028Y0196412D01*
X0227097Y0196382D01*
X0227163Y0196349D01*
X0227228Y0196312D01*
X0227291Y0196272D01*
X0227352Y0196228D01*
X0227410Y0196182D01*
X0227466Y0196132D01*
X0227519Y0196080D01*
X0227570Y0196025D01*
X0227617Y0195967D01*
X0227661Y0195907D01*
X0227702Y0195844D01*
X0227740Y0195780D01*
X0227774Y0195714D01*
X0227805Y0195645D01*
X0227832Y0195576D01*
X0227855Y0195505D01*
X0227874Y0195433D01*
X0227890Y0195360D01*
X0227902Y0195286D01*
X0227910Y0195212D01*
X0227914Y0195137D01*
X0227914Y0195063D01*
X0227910Y0194988D01*
X0227902Y0194914D01*
X0227890Y0194840D01*
X0227874Y0194767D01*
X0227855Y0194695D01*
X0227832Y0194624D01*
X0227805Y0194555D01*
X0227774Y0194486D01*
X0227740Y0194420D01*
X0227702Y0194356D01*
X0227661Y0194293D01*
X0227617Y0194233D01*
X0227570Y0194175D01*
X0227519Y0194120D01*
X0227466Y0194068D01*
X0227410Y0194018D01*
X0227352Y0193972D01*
X0227291Y0193928D01*
X0227228Y0193888D01*
X0227163Y0193851D01*
X0227097Y0193818D01*
X0227028Y0193788D01*
X0226958Y0193762D01*
X0226887Y0193740D01*
X0226815Y0193721D01*
X0226741Y0193707D01*
X0226668Y0193696D01*
X0226593Y0193689D01*
X0226519Y0193686D01*
X0226444Y0193687D01*
X0226370Y0193692D01*
X0226295Y0193701D01*
X0226222Y0193714D01*
X0226149Y0193730D01*
X0226077Y0193751D01*
X0226007Y0193775D01*
X0225937Y0193803D01*
X0225870Y0193834D01*
X0225804Y0193869D01*
X0225740Y0193908D01*
X0225678Y0193950D01*
X0225618Y0193994D01*
X0225561Y0194043D01*
X0225507Y0194094D01*
X0225455Y0194147D01*
X0225406Y0194204D01*
X0225360Y0194263D01*
X0225318Y0194324D01*
X0225279Y0194388D01*
X0225243Y0194453D01*
X0225210Y0194520D01*
X0225181Y0194589D01*
X0225156Y0194660D01*
X0225135Y0194731D01*
X0225117Y0194804D01*
X0225104Y0194877D01*
X0225094Y0194951D01*
X0225088Y0195025D01*
X0225086Y0195100D01*
X0169300Y0178800D02*
X0169300Y0172800D01*
X0169298Y0172740D01*
X0169293Y0172679D01*
X0169284Y0172620D01*
X0169271Y0172561D01*
X0169255Y0172502D01*
X0169235Y0172445D01*
X0169212Y0172390D01*
X0169185Y0172335D01*
X0169156Y0172283D01*
X0169123Y0172232D01*
X0169087Y0172183D01*
X0169049Y0172137D01*
X0169007Y0172093D01*
X0168963Y0172051D01*
X0168917Y0172013D01*
X0168868Y0171977D01*
X0168817Y0171944D01*
X0168765Y0171915D01*
X0168710Y0171888D01*
X0168655Y0171865D01*
X0168598Y0171845D01*
X0168539Y0171829D01*
X0168480Y0171816D01*
X0168421Y0171807D01*
X0168360Y0171802D01*
X0168300Y0171800D01*
X0158300Y0171800D01*
X0158240Y0171802D01*
X0158179Y0171807D01*
X0158120Y0171816D01*
X0158061Y0171829D01*
X0158002Y0171845D01*
X0157945Y0171865D01*
X0157890Y0171888D01*
X0157835Y0171915D01*
X0157783Y0171944D01*
X0157732Y0171977D01*
X0157683Y0172013D01*
X0157637Y0172051D01*
X0157593Y0172093D01*
X0157551Y0172137D01*
X0157513Y0172183D01*
X0157477Y0172232D01*
X0157444Y0172283D01*
X0157415Y0172335D01*
X0157388Y0172390D01*
X0157365Y0172445D01*
X0157345Y0172502D01*
X0157329Y0172561D01*
X0157316Y0172620D01*
X0157307Y0172679D01*
X0157302Y0172740D01*
X0157300Y0172800D01*
X0157300Y0178800D01*
X0157302Y0178860D01*
X0157307Y0178921D01*
X0157316Y0178980D01*
X0157329Y0179039D01*
X0157345Y0179098D01*
X0157365Y0179155D01*
X0157388Y0179210D01*
X0157415Y0179265D01*
X0157444Y0179317D01*
X0157477Y0179368D01*
X0157513Y0179417D01*
X0157551Y0179463D01*
X0157593Y0179507D01*
X0157637Y0179549D01*
X0157683Y0179587D01*
X0157732Y0179623D01*
X0157783Y0179656D01*
X0157835Y0179685D01*
X0157890Y0179712D01*
X0157945Y0179735D01*
X0158002Y0179755D01*
X0158061Y0179771D01*
X0158120Y0179784D01*
X0158179Y0179793D01*
X0158240Y0179798D01*
X0158300Y0179800D01*
X0168300Y0179800D01*
X0168360Y0179798D01*
X0168421Y0179793D01*
X0168480Y0179784D01*
X0168539Y0179771D01*
X0168598Y0179755D01*
X0168655Y0179735D01*
X0168710Y0179712D01*
X0168765Y0179685D01*
X0168817Y0179656D01*
X0168868Y0179623D01*
X0168917Y0179587D01*
X0168963Y0179549D01*
X0169007Y0179507D01*
X0169049Y0179463D01*
X0169087Y0179417D01*
X0169123Y0179368D01*
X0169156Y0179317D01*
X0169185Y0179265D01*
X0169212Y0179210D01*
X0169235Y0179155D01*
X0169255Y0179098D01*
X0169271Y0179039D01*
X0169284Y0178980D01*
X0169293Y0178921D01*
X0169298Y0178860D01*
X0169300Y0178800D01*
X0175938Y0124981D02*
X0175938Y0122619D01*
X0180662Y0122619D02*
X0180662Y0124981D01*
X0234438Y0088981D02*
X0234438Y0086619D01*
X0239162Y0086619D02*
X0239162Y0088981D01*
X0245619Y0093938D02*
X0247981Y0093938D01*
X0247981Y0098662D02*
X0245619Y0098662D01*
X0242481Y0106938D02*
X0240119Y0106938D01*
X0240119Y0111662D02*
X0242481Y0111662D01*
X0256619Y0117938D02*
X0258981Y0117938D01*
X0258981Y0122662D02*
X0256619Y0122662D01*
X0264938Y0115981D02*
X0264938Y0113619D01*
X0269662Y0113619D02*
X0269662Y0115981D01*
X0284438Y0121119D02*
X0284438Y0123481D01*
X0289162Y0123481D02*
X0289162Y0121119D01*
X0281500Y0105300D02*
X0277300Y0105300D01*
X0273300Y0105300D01*
X0269100Y0105300D01*
X0269000Y0105300D02*
X0269000Y0070300D01*
X0269100Y0070300D02*
X0281500Y0070300D01*
X0281576Y0070302D01*
X0281652Y0070308D01*
X0281727Y0070317D01*
X0281802Y0070331D01*
X0281876Y0070348D01*
X0281949Y0070369D01*
X0282021Y0070393D01*
X0282092Y0070422D01*
X0282161Y0070453D01*
X0282228Y0070488D01*
X0282293Y0070527D01*
X0282357Y0070569D01*
X0282418Y0070614D01*
X0282477Y0070662D01*
X0282533Y0070713D01*
X0282587Y0070767D01*
X0282638Y0070823D01*
X0282686Y0070882D01*
X0282731Y0070943D01*
X0282773Y0071007D01*
X0282812Y0071072D01*
X0282847Y0071139D01*
X0282878Y0071208D01*
X0282907Y0071279D01*
X0282931Y0071351D01*
X0282952Y0071424D01*
X0282969Y0071498D01*
X0282983Y0071573D01*
X0282992Y0071648D01*
X0282998Y0071724D01*
X0283000Y0071800D01*
X0283000Y0103800D01*
X0282998Y0103876D01*
X0282992Y0103952D01*
X0282983Y0104027D01*
X0282969Y0104102D01*
X0282952Y0104176D01*
X0282931Y0104249D01*
X0282907Y0104321D01*
X0282878Y0104392D01*
X0282847Y0104461D01*
X0282812Y0104528D01*
X0282773Y0104593D01*
X0282731Y0104657D01*
X0282686Y0104718D01*
X0282638Y0104777D01*
X0282587Y0104833D01*
X0282533Y0104887D01*
X0282477Y0104938D01*
X0282418Y0104986D01*
X0282357Y0105031D01*
X0282293Y0105073D01*
X0282228Y0105112D01*
X0282161Y0105147D01*
X0282092Y0105178D01*
X0282021Y0105207D01*
X0281949Y0105231D01*
X0281876Y0105252D01*
X0281802Y0105269D01*
X0281727Y0105283D01*
X0281652Y0105292D01*
X0281576Y0105298D01*
X0281500Y0105300D01*
X0277300Y0105300D02*
X0277298Y0105212D01*
X0277292Y0105123D01*
X0277282Y0105035D01*
X0277269Y0104948D01*
X0277251Y0104861D01*
X0277230Y0104775D01*
X0277205Y0104690D01*
X0277176Y0104607D01*
X0277143Y0104524D01*
X0277107Y0104444D01*
X0277068Y0104365D01*
X0277025Y0104287D01*
X0276978Y0104212D01*
X0276928Y0104139D01*
X0276875Y0104068D01*
X0276819Y0103999D01*
X0276760Y0103933D01*
X0276698Y0103870D01*
X0276634Y0103810D01*
X0276567Y0103752D01*
X0276497Y0103698D01*
X0276425Y0103646D01*
X0276351Y0103598D01*
X0276274Y0103553D01*
X0276196Y0103512D01*
X0276116Y0103474D01*
X0276035Y0103440D01*
X0275952Y0103409D01*
X0275867Y0103382D01*
X0275782Y0103359D01*
X0275696Y0103340D01*
X0275608Y0103324D01*
X0275521Y0103312D01*
X0275433Y0103304D01*
X0275344Y0103300D01*
X0275256Y0103300D01*
X0275167Y0103304D01*
X0275079Y0103312D01*
X0274992Y0103324D01*
X0274904Y0103340D01*
X0274818Y0103359D01*
X0274733Y0103382D01*
X0274648Y0103409D01*
X0274565Y0103440D01*
X0274484Y0103474D01*
X0274404Y0103512D01*
X0274326Y0103553D01*
X0274249Y0103598D01*
X0274175Y0103646D01*
X0274103Y0103698D01*
X0274033Y0103752D01*
X0273966Y0103810D01*
X0273902Y0103870D01*
X0273840Y0103933D01*
X0273781Y0103999D01*
X0273725Y0104068D01*
X0273672Y0104139D01*
X0273622Y0104212D01*
X0273575Y0104287D01*
X0273532Y0104365D01*
X0273493Y0104444D01*
X0273457Y0104524D01*
X0273424Y0104607D01*
X0273395Y0104690D01*
X0273370Y0104775D01*
X0273349Y0104861D01*
X0273331Y0104948D01*
X0273318Y0105035D01*
X0273308Y0105123D01*
X0273302Y0105212D01*
X0273300Y0105300D01*
X0269100Y0105300D02*
X0269024Y0105298D01*
X0268948Y0105292D01*
X0268873Y0105283D01*
X0268798Y0105269D01*
X0268724Y0105252D01*
X0268651Y0105231D01*
X0268579Y0105207D01*
X0268508Y0105178D01*
X0268439Y0105147D01*
X0268372Y0105112D01*
X0268307Y0105073D01*
X0268243Y0105031D01*
X0268182Y0104986D01*
X0268123Y0104938D01*
X0268067Y0104887D01*
X0268013Y0104833D01*
X0267962Y0104777D01*
X0267914Y0104718D01*
X0267869Y0104657D01*
X0267827Y0104593D01*
X0267788Y0104528D01*
X0267753Y0104461D01*
X0267722Y0104392D01*
X0267693Y0104321D01*
X0267669Y0104249D01*
X0267648Y0104176D01*
X0267631Y0104102D01*
X0267617Y0104027D01*
X0267608Y0103952D01*
X0267602Y0103876D01*
X0267600Y0103800D01*
X0267600Y0071800D01*
X0267602Y0071724D01*
X0267608Y0071648D01*
X0267617Y0071573D01*
X0267631Y0071498D01*
X0267648Y0071424D01*
X0267669Y0071351D01*
X0267693Y0071279D01*
X0267722Y0071208D01*
X0267753Y0071139D01*
X0267788Y0071072D01*
X0267827Y0071007D01*
X0267869Y0070943D01*
X0267914Y0070882D01*
X0267962Y0070823D01*
X0268013Y0070767D01*
X0268067Y0070713D01*
X0268123Y0070662D01*
X0268182Y0070614D01*
X0268243Y0070569D01*
X0268307Y0070527D01*
X0268372Y0070488D01*
X0268439Y0070453D01*
X0268508Y0070422D01*
X0268579Y0070393D01*
X0268651Y0070369D01*
X0268724Y0070348D01*
X0268798Y0070331D01*
X0268873Y0070317D01*
X0268948Y0070308D01*
X0269024Y0070302D01*
X0269100Y0070300D01*
X0251162Y0079119D02*
X0251162Y0081481D01*
X0246438Y0081481D02*
X0246438Y0079119D01*
X0182552Y0043300D02*
X0182552Y0009548D01*
X0182552Y0005800D01*
X0178800Y0003300D01*
X0143800Y0003300D01*
X0140048Y0005800D01*
X0140048Y0009548D01*
X0141316Y0010800D01*
X0141316Y0043300D01*
X0140048Y0043300D01*
X0140048Y0009548D01*
X0182552Y0009548D01*
X0181316Y0010800D01*
X0181316Y0043300D01*
X0141316Y0043300D01*
X0181316Y0043300D02*
X0182552Y0043300D01*
X0181316Y0010800D02*
X0141316Y0010800D01*
D13*
X0017456Y0007394D02*
X0016688Y0008161D01*
X0016688Y0011230D01*
X0017456Y0011998D01*
X0018990Y0011998D01*
X0019757Y0011230D01*
X0021292Y0011230D02*
X0022059Y0011998D01*
X0023594Y0011998D01*
X0024361Y0011230D01*
X0024361Y0010463D01*
X0021292Y0007394D01*
X0024361Y0007394D01*
X0025896Y0008161D02*
X0026663Y0007394D01*
X0028198Y0007394D01*
X0028965Y0008161D01*
X0028965Y0011230D01*
X0028198Y0011998D01*
X0026663Y0011998D01*
X0025896Y0011230D01*
X0025896Y0010463D01*
X0026663Y0009696D01*
X0028965Y0009696D01*
X0019757Y0008161D02*
X0018990Y0007394D01*
X0017456Y0007394D01*
X0069496Y0053000D02*
X0069496Y0054535D01*
X0069496Y0053767D02*
X0074100Y0053767D01*
X0074100Y0053000D02*
X0074100Y0054535D01*
X0074100Y0056069D02*
X0074100Y0058371D01*
X0073333Y0059139D01*
X0072565Y0058371D01*
X0072565Y0056837D01*
X0071798Y0056069D01*
X0071031Y0056837D01*
X0071031Y0059139D01*
X0071798Y0060673D02*
X0073333Y0060673D01*
X0074100Y0061441D01*
X0074100Y0062975D01*
X0073333Y0063742D01*
X0071798Y0063742D01*
X0071031Y0062975D01*
X0071031Y0061441D01*
X0071798Y0060673D01*
X0069496Y0065277D02*
X0069496Y0066044D01*
X0074100Y0066044D01*
X0074100Y0065277D02*
X0074100Y0066812D01*
X0073333Y0068346D02*
X0072565Y0069114D01*
X0072565Y0071416D01*
X0071798Y0071416D02*
X0074100Y0071416D01*
X0074100Y0069114D01*
X0073333Y0068346D01*
X0071031Y0069114D02*
X0071031Y0070648D01*
X0071798Y0071416D01*
X0071031Y0072950D02*
X0071031Y0074485D01*
X0070263Y0073718D02*
X0073333Y0073718D01*
X0074100Y0074485D01*
X0073333Y0076020D02*
X0071798Y0076020D01*
X0071031Y0076787D01*
X0071031Y0078322D01*
X0071798Y0079089D01*
X0072565Y0079089D01*
X0072565Y0076020D01*
X0073333Y0076020D02*
X0074100Y0076787D01*
X0074100Y0078322D01*
X0132688Y0058837D02*
X0132688Y0055767D01*
X0133456Y0055000D01*
X0134990Y0055000D01*
X0135757Y0055767D01*
X0137292Y0055767D02*
X0138059Y0055000D01*
X0139594Y0055000D01*
X0140361Y0055767D01*
X0140361Y0056535D01*
X0139594Y0057302D01*
X0138827Y0057302D01*
X0139594Y0057302D02*
X0140361Y0058069D01*
X0140361Y0058837D01*
X0139594Y0059604D01*
X0138059Y0059604D01*
X0137292Y0058837D01*
X0135757Y0058837D02*
X0134990Y0059604D01*
X0133456Y0059604D01*
X0132688Y0058837D01*
X0141896Y0058837D02*
X0141896Y0055767D01*
X0144965Y0058837D01*
X0144965Y0055767D01*
X0144198Y0055000D01*
X0142663Y0055000D01*
X0141896Y0055767D01*
X0141896Y0058837D02*
X0142663Y0059604D01*
X0144198Y0059604D01*
X0144965Y0058837D01*
X0207188Y0067767D02*
X0207956Y0067000D01*
X0209490Y0067000D01*
X0210257Y0067767D01*
X0211792Y0067767D02*
X0212559Y0067000D01*
X0214094Y0067000D01*
X0214861Y0067767D01*
X0214861Y0068535D01*
X0214094Y0069302D01*
X0213327Y0069302D01*
X0214094Y0069302D02*
X0214861Y0070069D01*
X0214861Y0070837D01*
X0214094Y0071604D01*
X0212559Y0071604D01*
X0211792Y0070837D01*
X0210257Y0070837D02*
X0209490Y0071604D01*
X0207956Y0071604D01*
X0207188Y0070837D01*
X0207188Y0067767D01*
X0216396Y0067000D02*
X0219465Y0067000D01*
X0217931Y0067000D02*
X0217931Y0071604D01*
X0216396Y0070069D01*
X0225500Y0078517D02*
X0226267Y0077750D01*
X0227802Y0077750D01*
X0228569Y0078517D01*
X0230104Y0078517D02*
X0230104Y0079285D01*
X0230871Y0080052D01*
X0232406Y0080052D01*
X0233173Y0079285D01*
X0233173Y0078517D01*
X0232406Y0077750D01*
X0230871Y0077750D01*
X0230104Y0078517D01*
X0230871Y0080052D02*
X0230104Y0080819D01*
X0230104Y0081587D01*
X0230871Y0082354D01*
X0232406Y0082354D01*
X0233173Y0081587D01*
X0233173Y0080819D01*
X0232406Y0080052D01*
X0228569Y0081587D02*
X0227802Y0082354D01*
X0226267Y0082354D01*
X0225500Y0081587D01*
X0225500Y0078517D01*
X0229456Y0094250D02*
X0230990Y0094250D01*
X0231757Y0095017D01*
X0233292Y0094250D02*
X0236361Y0094250D01*
X0234827Y0094250D02*
X0234827Y0098854D01*
X0233292Y0097319D01*
X0231757Y0098087D02*
X0230990Y0098854D01*
X0229456Y0098854D01*
X0228688Y0098087D01*
X0228688Y0095017D01*
X0229456Y0094250D01*
X0228956Y0101750D02*
X0230490Y0101750D01*
X0231257Y0102517D01*
X0232792Y0101750D02*
X0235861Y0101750D01*
X0234327Y0101750D02*
X0234327Y0106354D01*
X0232792Y0104819D01*
X0231257Y0105587D02*
X0230490Y0106354D01*
X0228956Y0106354D01*
X0228188Y0105587D01*
X0228188Y0102517D01*
X0228956Y0101750D01*
X0229198Y0110000D02*
X0227663Y0110000D01*
X0226896Y0110767D01*
X0229965Y0113837D01*
X0229965Y0110767D01*
X0229198Y0110000D01*
X0226896Y0110767D02*
X0226896Y0113837D01*
X0227663Y0114604D01*
X0229198Y0114604D01*
X0229965Y0113837D01*
X0225361Y0113837D02*
X0224594Y0114604D01*
X0223059Y0114604D01*
X0222292Y0113837D01*
X0220757Y0113837D02*
X0219990Y0114604D01*
X0218456Y0114604D01*
X0217688Y0113837D01*
X0217688Y0110767D01*
X0218456Y0110000D01*
X0219990Y0110000D01*
X0220757Y0110767D01*
X0222292Y0110000D02*
X0225361Y0113069D01*
X0225361Y0113837D01*
X0225361Y0110000D02*
X0222292Y0110000D01*
X0237396Y0106354D02*
X0237396Y0104052D01*
X0238931Y0104819D01*
X0239698Y0104819D01*
X0240465Y0104052D01*
X0240465Y0102517D01*
X0239698Y0101750D01*
X0238163Y0101750D01*
X0237396Y0102517D01*
X0239431Y0098854D02*
X0239431Y0094250D01*
X0240965Y0094250D02*
X0237896Y0094250D01*
X0237896Y0097319D02*
X0239431Y0098854D01*
X0240465Y0106354D02*
X0237396Y0106354D01*
X0252767Y0124250D02*
X0254302Y0124250D01*
X0255069Y0125017D01*
X0256604Y0124250D02*
X0259673Y0124250D01*
X0258139Y0124250D02*
X0258139Y0128854D01*
X0256604Y0127319D01*
X0255069Y0128087D02*
X0254302Y0128854D01*
X0252767Y0128854D01*
X0252000Y0128087D01*
X0252000Y0125017D01*
X0252767Y0124250D01*
X0261208Y0124250D02*
X0264277Y0127319D01*
X0264277Y0128087D01*
X0263510Y0128854D01*
X0261975Y0128854D01*
X0261208Y0128087D01*
X0261208Y0124250D02*
X0264277Y0124250D01*
X0269746Y0118698D02*
X0270513Y0119465D01*
X0271281Y0119465D01*
X0272048Y0118698D01*
X0272815Y0119465D01*
X0273583Y0119465D01*
X0274350Y0118698D01*
X0274350Y0117163D01*
X0273583Y0116396D01*
X0274350Y0114861D02*
X0274350Y0111792D01*
X0274350Y0113327D02*
X0269746Y0113327D01*
X0271281Y0111792D01*
X0270513Y0110257D02*
X0269746Y0109490D01*
X0269746Y0107956D01*
X0270513Y0107188D01*
X0273583Y0107188D01*
X0274350Y0107956D01*
X0274350Y0109490D01*
X0273583Y0110257D01*
X0270513Y0116396D02*
X0269746Y0117163D01*
X0269746Y0118698D01*
X0272048Y0118698D02*
X0272048Y0117931D01*
X0290246Y0117490D02*
X0290246Y0115956D01*
X0291013Y0115188D01*
X0294083Y0115188D01*
X0294850Y0115956D01*
X0294850Y0117490D01*
X0294083Y0118257D01*
X0294850Y0119792D02*
X0294850Y0122861D01*
X0294850Y0121327D02*
X0290246Y0121327D01*
X0291781Y0119792D01*
X0291013Y0118257D02*
X0290246Y0117490D01*
X0292548Y0124396D02*
X0292548Y0127465D01*
X0290246Y0126698D02*
X0292548Y0124396D01*
X0294850Y0126698D02*
X0290246Y0126698D01*
X0246277Y0135500D02*
X0243208Y0135500D01*
X0244742Y0135500D02*
X0244742Y0140104D01*
X0243208Y0138569D01*
X0241673Y0138569D02*
X0241673Y0139337D01*
X0240906Y0140104D01*
X0239371Y0140104D01*
X0238604Y0139337D01*
X0237069Y0139337D02*
X0236302Y0140104D01*
X0234767Y0140104D01*
X0234000Y0139337D01*
X0234000Y0136267D01*
X0234767Y0135500D01*
X0236302Y0135500D01*
X0237069Y0136267D01*
X0238604Y0135500D02*
X0241673Y0138569D01*
X0241673Y0135500D02*
X0238604Y0135500D01*
X0214777Y0169500D02*
X0211708Y0169500D01*
X0214777Y0172569D01*
X0214777Y0173337D01*
X0214010Y0174104D01*
X0212475Y0174104D01*
X0211708Y0173337D01*
X0210173Y0173337D02*
X0209406Y0174104D01*
X0207871Y0174104D01*
X0207104Y0173337D01*
X0205569Y0173337D02*
X0204802Y0174104D01*
X0203267Y0174104D01*
X0202500Y0173337D01*
X0202500Y0170267D01*
X0203267Y0169500D01*
X0204802Y0169500D01*
X0205569Y0170267D01*
X0207104Y0169500D02*
X0210173Y0172569D01*
X0210173Y0173337D01*
X0210173Y0169500D02*
X0207104Y0169500D01*
X0180083Y0140965D02*
X0179315Y0140965D01*
X0178548Y0140198D01*
X0178548Y0137896D01*
X0180083Y0137896D01*
X0180850Y0138663D01*
X0180850Y0140198D01*
X0180083Y0140965D01*
X0177013Y0139431D02*
X0178548Y0137896D01*
X0177013Y0139431D02*
X0176246Y0140965D01*
X0176246Y0134827D02*
X0180850Y0134827D01*
X0180850Y0136361D02*
X0180850Y0133292D01*
X0180083Y0131757D02*
X0180850Y0130990D01*
X0180850Y0129456D01*
X0180083Y0128688D01*
X0177013Y0128688D01*
X0176246Y0129456D01*
X0176246Y0130990D01*
X0177013Y0131757D01*
X0177781Y0133292D02*
X0176246Y0134827D01*
X0166965Y0166000D02*
X0163896Y0166000D01*
X0165431Y0166000D02*
X0165431Y0170604D01*
X0163896Y0169069D01*
X0162361Y0170604D02*
X0160827Y0170604D01*
X0161594Y0170604D02*
X0161594Y0166767D01*
X0160827Y0166000D01*
X0160059Y0166000D01*
X0159292Y0166767D01*
X0157757Y0166767D02*
X0156990Y0166000D01*
X0155456Y0166000D01*
X0154688Y0166767D01*
X0155456Y0168302D02*
X0156990Y0168302D01*
X0157757Y0167535D01*
X0157757Y0166767D01*
X0155456Y0168302D02*
X0154688Y0169069D01*
X0154688Y0169837D01*
X0155456Y0170604D01*
X0156990Y0170604D01*
X0157757Y0169837D01*
X0118208Y0200500D02*
X0118208Y0201267D01*
X0121277Y0204337D01*
X0121277Y0205104D01*
X0118208Y0205104D01*
X0115139Y0205104D02*
X0115139Y0200500D01*
X0116673Y0200500D02*
X0113604Y0200500D01*
X0112069Y0201267D02*
X0111302Y0200500D01*
X0109767Y0200500D01*
X0109000Y0201267D01*
X0109000Y0204337D01*
X0109767Y0205104D01*
X0111302Y0205104D01*
X0112069Y0204337D01*
X0113604Y0203569D02*
X0115139Y0205104D01*
X0113698Y0215500D02*
X0114465Y0216267D01*
X0114465Y0219337D01*
X0113698Y0220104D01*
X0112163Y0220104D01*
X0111396Y0219337D01*
X0111396Y0218569D01*
X0112163Y0217802D01*
X0114465Y0217802D01*
X0113698Y0215500D02*
X0112163Y0215500D01*
X0111396Y0216267D01*
X0109861Y0215500D02*
X0106792Y0215500D01*
X0108327Y0215500D02*
X0108327Y0220104D01*
X0106792Y0218569D01*
X0105257Y0219337D02*
X0104490Y0220104D01*
X0102956Y0220104D01*
X0102188Y0219337D01*
X0102188Y0216267D01*
X0102956Y0215500D01*
X0104490Y0215500D01*
X0105257Y0216267D01*
X0085965Y0209500D02*
X0082896Y0209500D01*
X0081361Y0209500D02*
X0078292Y0209500D01*
X0078292Y0214104D01*
X0082896Y0212569D02*
X0084431Y0214104D01*
X0084431Y0209500D01*
X0085198Y0204604D02*
X0083663Y0204604D01*
X0082896Y0203837D01*
X0085198Y0204604D02*
X0085965Y0203837D01*
X0085965Y0203069D01*
X0082896Y0200000D01*
X0085965Y0200000D01*
X0081361Y0200000D02*
X0078292Y0200000D01*
X0078292Y0204604D01*
X0078965Y0198104D02*
X0075896Y0198104D01*
X0074361Y0197337D02*
X0074361Y0194267D01*
X0073594Y0193500D01*
X0072059Y0193500D01*
X0071292Y0194267D01*
X0071292Y0197337D01*
X0072059Y0198104D01*
X0073594Y0198104D01*
X0074361Y0197337D01*
X0072827Y0195035D02*
X0074361Y0193500D01*
X0075896Y0193500D02*
X0075896Y0194267D01*
X0078965Y0197337D01*
X0078965Y0198104D01*
X0097792Y0190837D02*
X0097792Y0187767D01*
X0098559Y0187000D01*
X0100094Y0187000D01*
X0100861Y0187767D01*
X0100861Y0190837D01*
X0100094Y0191604D01*
X0098559Y0191604D01*
X0097792Y0190837D01*
X0099327Y0188535D02*
X0100861Y0187000D01*
X0102396Y0187767D02*
X0103163Y0187000D01*
X0104698Y0187000D01*
X0105465Y0187767D01*
X0105465Y0188535D01*
X0104698Y0189302D01*
X0102396Y0189302D01*
X0102396Y0187767D01*
X0102396Y0189302D02*
X0103931Y0190837D01*
X0105465Y0191604D01*
X0099100Y0166173D02*
X0099100Y0163104D01*
X0096031Y0166173D01*
X0095263Y0166173D01*
X0094496Y0165406D01*
X0094496Y0163871D01*
X0095263Y0163104D01*
X0095263Y0161569D02*
X0098333Y0161569D01*
X0099100Y0160802D01*
X0099100Y0159267D01*
X0098333Y0158500D01*
X0095263Y0158500D01*
X0094496Y0159267D01*
X0094496Y0160802D01*
X0095263Y0161569D01*
X0097565Y0160035D02*
X0099100Y0161569D01*
X0221792Y0208000D02*
X0224094Y0208000D01*
X0224861Y0208767D01*
X0224861Y0211837D01*
X0224094Y0212604D01*
X0221792Y0212604D01*
X0221792Y0208000D01*
X0226396Y0208767D02*
X0227163Y0208000D01*
X0228698Y0208000D01*
X0229465Y0208767D01*
X0229465Y0209535D01*
X0228698Y0210302D01*
X0227931Y0210302D01*
X0228698Y0210302D02*
X0229465Y0211069D01*
X0229465Y0211837D01*
X0228698Y0212604D01*
X0227163Y0212604D01*
X0226396Y0211837D01*
X0261500Y0182837D02*
X0261500Y0179767D01*
X0262267Y0179000D01*
X0263802Y0179000D01*
X0264569Y0179767D01*
X0266104Y0179000D02*
X0269173Y0182069D01*
X0269173Y0182837D01*
X0268406Y0183604D01*
X0266871Y0183604D01*
X0266104Y0182837D01*
X0264569Y0182837D02*
X0263802Y0183604D01*
X0262267Y0183604D01*
X0261500Y0182837D01*
X0266104Y0179000D02*
X0269173Y0179000D01*
X0270708Y0179767D02*
X0271475Y0179000D01*
X0273010Y0179000D01*
X0273777Y0179767D01*
X0273777Y0180535D01*
X0273010Y0181302D01*
X0272242Y0181302D01*
X0273010Y0181302D02*
X0273777Y0182069D01*
X0273777Y0182837D01*
X0273010Y0183604D01*
X0271475Y0183604D01*
X0270708Y0182837D01*
X0255583Y0082173D02*
X0254815Y0082173D01*
X0254048Y0081406D01*
X0254048Y0079104D01*
X0255583Y0079104D01*
X0256350Y0079871D01*
X0256350Y0081406D01*
X0255583Y0082173D01*
X0252513Y0080639D02*
X0254048Y0079104D01*
X0252513Y0080639D02*
X0251746Y0082173D01*
X0252513Y0077569D02*
X0251746Y0076802D01*
X0251746Y0075267D01*
X0252513Y0074500D01*
X0255583Y0074500D01*
X0256350Y0075267D01*
X0256350Y0076802D01*
X0255583Y0077569D01*
D14*
X0114300Y0195680D02*
X0114300Y0195920D01*
X0102420Y0208800D02*
X0102180Y0208800D01*
D15*
X0112800Y0186200D02*
X0114800Y0186200D01*
X0114800Y0182400D02*
X0112800Y0182400D01*
X0118800Y0180700D02*
X0120800Y0180700D01*
X0120800Y0176900D02*
X0118800Y0176900D01*
X0119800Y0169200D02*
X0121800Y0169200D01*
X0121800Y0165400D02*
X0119800Y0165400D01*
X0126900Y0164800D02*
X0126900Y0162800D01*
X0130700Y0162800D02*
X0130700Y0164800D01*
X0119800Y0157700D02*
X0117800Y0157700D01*
X0117800Y0153900D02*
X0119800Y0153900D01*
X0112200Y0153800D02*
X0112200Y0151800D01*
X0108400Y0151800D02*
X0108400Y0153800D01*
X0170900Y0130300D02*
X0170900Y0128300D01*
X0174700Y0128300D02*
X0174700Y0130300D01*
X0222400Y0129300D02*
X0222400Y0127300D01*
X0226200Y0127300D02*
X0226200Y0129300D01*
X0222300Y0134800D02*
X0232300Y0134800D01*
X0232300Y0139800D02*
X0222300Y0139800D01*
X0223800Y0121300D02*
X0233800Y0121300D01*
X0233800Y0116300D02*
X0223800Y0116300D01*
X0245300Y0116700D02*
X0247300Y0116700D01*
X0247300Y0112900D02*
X0245300Y0112900D01*
X0246300Y0103700D02*
X0248300Y0103700D01*
X0248300Y0099900D02*
X0246300Y0099900D01*
X0245800Y0092700D02*
X0247800Y0092700D01*
X0247800Y0088900D02*
X0245800Y0088900D01*
X0244700Y0081800D02*
X0244700Y0079800D01*
X0240900Y0079800D02*
X0240900Y0081800D01*
X0256300Y0111900D02*
X0258300Y0111900D01*
X0258300Y0115700D02*
X0256300Y0115700D01*
X0274400Y0117800D02*
X0274400Y0119800D01*
X0278200Y0119800D02*
X0278200Y0117800D01*
X0288300Y0114700D02*
X0290300Y0114700D01*
X0290300Y0110900D02*
X0288300Y0110900D01*
X0212300Y0177300D02*
X0212300Y0187300D01*
X0207300Y0187300D02*
X0207300Y0177300D01*
X0262800Y0184800D02*
X0272800Y0184800D01*
X0272800Y0189800D02*
X0262800Y0189800D01*
X0224800Y0221900D02*
X0222800Y0221900D01*
X0222800Y0225700D02*
X0224800Y0225700D01*
X0205800Y0072300D02*
X0195800Y0072300D01*
X0195800Y0067300D02*
X0205800Y0067300D01*
X0146300Y0062300D02*
X0146300Y0072300D01*
X0141300Y0072300D02*
X0141300Y0062300D01*
D16*
X0094300Y0082800D02*
X0094300Y0030000D01*
X0064300Y0030000D01*
X0064300Y0082800D01*
X0094300Y0082800D01*
X0094300Y0175600D01*
X0004300Y0175600D01*
X0004300Y0030000D01*
X0064300Y0030000D01*
D17*
X0199300Y0109300D02*
X0219300Y0109300D01*
X0219300Y0111800D02*
X0219300Y0151800D01*
X0219300Y0154300D02*
X0199300Y0154300D01*
X0199300Y0151800D02*
X0199300Y0111800D01*
X0204300Y0126800D02*
X0214300Y0126800D01*
X0214300Y0129300D02*
X0204300Y0129300D01*
X0204300Y0134300D01*
X0214300Y0134300D01*
X0214300Y0129300D01*
X0214300Y0129681D02*
X0204300Y0129681D01*
X0204300Y0131279D02*
X0214300Y0131279D01*
X0214300Y0132878D02*
X0204300Y0132878D01*
X0204300Y0136800D02*
X0214300Y0136800D01*
D18*
X0278248Y0186950D02*
X0278248Y0188401D01*
X0278731Y0188885D01*
X0279699Y0188885D01*
X0280183Y0188401D01*
X0280183Y0186950D01*
X0281150Y0186950D02*
X0278248Y0186950D01*
X0280183Y0187917D02*
X0281150Y0188885D01*
X0281150Y0189897D02*
X0278248Y0189897D01*
X0278248Y0191831D01*
X0278731Y0192843D02*
X0278248Y0193327D01*
X0278248Y0194294D01*
X0278731Y0194778D01*
X0279699Y0194294D02*
X0280183Y0194778D01*
X0280666Y0194778D01*
X0281150Y0194294D01*
X0281150Y0193327D01*
X0280666Y0192843D01*
X0279699Y0193327D02*
X0279699Y0194294D01*
X0279699Y0193327D02*
X0279215Y0192843D01*
X0278731Y0192843D01*
X0279699Y0190864D02*
X0279699Y0189897D01*
X0281150Y0189897D02*
X0281150Y0191831D01*
X0281150Y0195790D02*
X0278248Y0195790D01*
X0278248Y0197725D01*
X0278248Y0198736D02*
X0278248Y0200671D01*
X0278248Y0199704D02*
X0281150Y0199704D01*
X0281150Y0197725D02*
X0281150Y0195790D01*
X0279699Y0195790D02*
X0279699Y0196757D01*
X0271150Y0196348D02*
X0270666Y0196831D01*
X0271150Y0196348D02*
X0271150Y0195380D01*
X0270666Y0194897D01*
X0268731Y0194897D01*
X0268248Y0195380D01*
X0268248Y0196348D01*
X0268731Y0196831D01*
X0268248Y0197843D02*
X0271150Y0197843D01*
X0270183Y0197843D02*
X0268248Y0199778D01*
X0269699Y0198327D02*
X0271150Y0199778D01*
X0270666Y0193885D02*
X0271150Y0193401D01*
X0271150Y0192434D01*
X0270666Y0191950D01*
X0269699Y0192434D02*
X0269699Y0193401D01*
X0270183Y0193885D01*
X0270666Y0193885D01*
X0269699Y0192434D02*
X0269215Y0191950D01*
X0268731Y0191950D01*
X0268248Y0192434D01*
X0268248Y0193401D01*
X0268731Y0193885D01*
X0261150Y0193364D02*
X0261150Y0192397D01*
X0261150Y0192880D02*
X0258248Y0192880D01*
X0258248Y0192397D02*
X0258248Y0193364D01*
X0258731Y0194361D02*
X0259215Y0194361D01*
X0259699Y0194845D01*
X0259699Y0195812D01*
X0260183Y0196296D01*
X0260666Y0196296D01*
X0261150Y0195812D01*
X0261150Y0194845D01*
X0260666Y0194361D01*
X0258731Y0194361D02*
X0258248Y0194845D01*
X0258248Y0195812D01*
X0258731Y0196296D01*
X0258731Y0197307D02*
X0260666Y0197307D01*
X0261150Y0197791D01*
X0261150Y0198759D01*
X0260666Y0199242D01*
X0258731Y0199242D01*
X0258248Y0198759D01*
X0258248Y0197791D01*
X0258731Y0197307D01*
X0258248Y0191385D02*
X0261150Y0191385D01*
X0261150Y0189450D02*
X0258248Y0189450D01*
X0259215Y0190417D01*
X0258248Y0191385D01*
X0259699Y0224450D02*
X0259699Y0226385D01*
X0259699Y0227397D02*
X0259215Y0228364D01*
X0259215Y0228848D01*
X0259699Y0229331D01*
X0260666Y0229331D01*
X0261150Y0228848D01*
X0261150Y0227880D01*
X0260666Y0227397D01*
X0259699Y0227397D02*
X0258248Y0227397D01*
X0258248Y0229331D01*
X0258248Y0230343D02*
X0260183Y0230343D01*
X0261150Y0231311D01*
X0260183Y0232278D01*
X0258248Y0232278D01*
X0258731Y0225417D02*
X0260666Y0225417D01*
X0268248Y0224450D02*
X0269215Y0225417D01*
X0268248Y0226385D01*
X0271150Y0226385D01*
X0270666Y0227397D02*
X0271150Y0227880D01*
X0271150Y0228848D01*
X0270666Y0229331D01*
X0268731Y0229331D01*
X0268248Y0228848D01*
X0268248Y0227880D01*
X0268731Y0227397D01*
X0270666Y0227397D01*
X0270666Y0230343D02*
X0271150Y0230827D01*
X0271150Y0231794D01*
X0270666Y0232278D01*
X0270183Y0232278D01*
X0269699Y0231794D01*
X0269699Y0230827D01*
X0269215Y0230343D01*
X0268731Y0230343D01*
X0268248Y0230827D01*
X0268248Y0231794D01*
X0268731Y0232278D01*
X0268248Y0233290D02*
X0268248Y0234257D01*
X0268248Y0233773D02*
X0271150Y0233773D01*
X0271150Y0233290D02*
X0271150Y0234257D01*
X0278248Y0231794D02*
X0278248Y0230343D01*
X0281150Y0230343D01*
X0281150Y0231794D01*
X0280666Y0232278D01*
X0278731Y0232278D01*
X0278248Y0231794D01*
X0278248Y0229331D02*
X0281150Y0229331D01*
X0278248Y0227397D01*
X0281150Y0227397D01*
X0280666Y0226385D02*
X0279699Y0226385D01*
X0279699Y0225417D01*
X0280666Y0224450D02*
X0281150Y0224934D01*
X0281150Y0225901D01*
X0280666Y0226385D01*
X0278731Y0226385D02*
X0278248Y0225901D01*
X0278248Y0224934D01*
X0278731Y0224450D01*
X0280666Y0224450D01*
X0271150Y0224450D02*
X0268248Y0224450D01*
M02*
