G75*
%MOIN*%
%OFA0B0*%
%FSLAX24Y24*%
%IPPOS*%
%LPD*%
%AMOC8*
5,1,8,0,0,1.08239X$1,22.5*
%
%ADD10C,0.0740*%
%ADD11C,0.0640*%
%ADD12R,0.0712X0.0712*%
%ADD13OC8,0.0660*%
%ADD14R,0.1400X0.1400*%
%ADD15C,0.0640*%
%ADD16C,0.0436*%
%ADD17C,0.0120*%
D10*
X007660Y004650D03*
X011660Y006650D03*
X013660Y006650D03*
X013660Y004650D03*
X002160Y012150D03*
X002160Y013150D03*
X002160Y014150D03*
X002160Y015150D03*
X002160Y016150D03*
X002160Y017150D03*
X002160Y018150D03*
X002160Y019150D03*
X002160Y020150D03*
X009160Y021150D03*
X012160Y021150D03*
X023660Y016650D03*
X023660Y015650D03*
X026160Y014650D03*
X028160Y013150D03*
X030160Y013150D03*
X024160Y017650D03*
X024160Y018650D03*
X026160Y020650D03*
X028160Y019150D03*
X030160Y019150D03*
D11*
X002160Y010650D03*
X002160Y009650D03*
X002160Y008650D03*
D12*
X015160Y007825D03*
X017660Y008150D03*
X021660Y008150D03*
X027660Y008150D03*
X029660Y008150D03*
X029660Y001150D03*
X019660Y001150D03*
X017660Y001150D03*
X015160Y004475D03*
D13*
X007160Y020950D03*
X006160Y020950D03*
X006160Y021950D03*
X007160Y021950D03*
X005160Y021950D03*
X005160Y020950D03*
D14*
X001925Y001650D03*
X004925Y001650D03*
X012390Y001650D03*
X015395Y001650D03*
D15*
X015160Y010455D02*
X015160Y011095D01*
X014160Y011095D02*
X014160Y010455D01*
X016160Y010455D02*
X016160Y011095D01*
D16*
X015260Y012350D03*
X017160Y014150D03*
X018660Y015650D03*
X017160Y017650D03*
X014960Y018650D03*
X013960Y018650D03*
X013785Y019275D03*
X012260Y019550D03*
X010660Y019650D03*
X009860Y018850D03*
X008460Y020350D03*
X007660Y018950D03*
X006660Y017650D03*
X005660Y018400D03*
X004160Y017150D03*
X003160Y015150D03*
X004360Y013050D03*
X006860Y015050D03*
X008660Y013400D03*
X008060Y012650D03*
X009560Y014350D03*
X010660Y013400D03*
X010660Y012650D03*
X010160Y012150D03*
X011460Y013150D03*
X012010Y014400D03*
X011960Y016150D03*
X010910Y016213D03*
X011160Y017150D03*
X014410Y021088D03*
X015160Y021525D03*
X013360Y021250D03*
X013160Y022650D03*
X011260Y021850D03*
X009660Y022650D03*
X004260Y020250D03*
X002160Y022650D03*
X009060Y010850D03*
X008660Y008050D03*
X006160Y008150D03*
X003660Y008150D03*
X018160Y020150D03*
X019660Y018650D03*
X021910Y016900D03*
X023660Y013650D03*
X021660Y012150D03*
X021660Y010150D03*
X019160Y010150D03*
X026160Y007150D03*
X030160Y009650D03*
X029660Y011650D03*
X030160Y015650D03*
X026160Y017150D03*
X026160Y018650D03*
X026960Y020250D03*
X028960Y020250D03*
X030160Y023150D03*
X023660Y020450D03*
X022460Y022750D03*
X019460Y022950D03*
D17*
X015518Y021596D02*
X015464Y021728D01*
X015363Y021829D01*
X015231Y021883D01*
X015089Y021883D01*
X014957Y021829D01*
X014856Y021728D01*
X014802Y021596D01*
X014802Y021454D01*
X014856Y021322D01*
X014957Y021221D01*
X014960Y021220D01*
X014960Y019233D01*
X014760Y019033D01*
X014760Y018955D01*
X014757Y018954D01*
X014660Y018856D01*
X014660Y019058D01*
X014610Y019108D01*
X014610Y020783D01*
X014613Y020784D01*
X014714Y020885D01*
X014768Y021016D01*
X014768Y021159D01*
X014714Y021290D01*
X014613Y021391D01*
X014481Y021446D01*
X014339Y021446D01*
X014207Y021391D01*
X014106Y021290D01*
X014052Y021159D01*
X014052Y021016D01*
X014106Y020885D01*
X014207Y020784D01*
X014210Y020783D01*
X014210Y018942D01*
X014260Y018892D01*
X014260Y018856D01*
X014163Y018954D01*
X014031Y019008D01*
X014025Y019008D01*
X014089Y019072D01*
X014143Y019204D01*
X014143Y019346D01*
X014089Y019478D01*
X013988Y019579D01*
X013856Y019633D01*
X013714Y019633D01*
X013711Y019632D01*
X013610Y019733D01*
X013560Y019783D01*
X013560Y020133D01*
X013443Y020250D01*
X010977Y020250D01*
X010860Y020133D01*
X010734Y020007D01*
X010731Y020008D01*
X010589Y020008D01*
X010457Y019954D01*
X010356Y019853D01*
X010302Y019721D01*
X010302Y019579D01*
X010356Y019447D01*
X010457Y019346D01*
X010589Y019292D01*
X010731Y019292D01*
X010863Y019346D01*
X010964Y019447D01*
X011018Y019579D01*
X011018Y019721D01*
X011017Y019724D01*
X011143Y019850D01*
X012025Y019850D01*
X011939Y019764D01*
X011882Y019625D01*
X011882Y019475D01*
X011939Y019336D01*
X012040Y019235D01*
X012040Y017780D01*
X011630Y017370D01*
X011475Y017370D01*
X011374Y017471D01*
X011235Y017528D01*
X011085Y017528D01*
X010946Y017471D01*
X010839Y017364D01*
X010782Y017225D01*
X010782Y017075D01*
X010839Y016936D01*
X010946Y016829D01*
X011085Y016772D01*
X011235Y016772D01*
X011374Y016829D01*
X011475Y016930D01*
X011657Y016930D01*
X011178Y016451D01*
X011113Y016516D01*
X010981Y016571D01*
X010839Y016571D01*
X010707Y016516D01*
X010606Y016415D01*
X010552Y016284D01*
X010552Y016141D01*
X010606Y016010D01*
X010707Y015909D01*
X010839Y015854D01*
X010981Y015854D01*
X011113Y015909D01*
X011214Y016010D01*
X011215Y016013D01*
X011305Y016013D01*
X011760Y016467D01*
X011760Y016455D01*
X011757Y016454D01*
X011656Y016353D01*
X011602Y016221D01*
X011602Y016079D01*
X011656Y015947D01*
X011757Y015846D01*
X011889Y015792D01*
X012031Y015792D01*
X012163Y015846D01*
X012264Y015947D01*
X012318Y016079D01*
X012318Y016221D01*
X012264Y016353D01*
X012241Y016375D01*
X013568Y016375D01*
X014543Y017350D01*
X014660Y017467D01*
X014660Y018444D01*
X014757Y018346D01*
X014889Y018292D01*
X015031Y018292D01*
X015163Y018346D01*
X015264Y018447D01*
X015318Y018579D01*
X015318Y018721D01*
X015264Y018853D01*
X015205Y018912D01*
X015360Y019067D01*
X015360Y021220D01*
X015363Y021221D01*
X015464Y021322D01*
X015518Y021454D01*
X015518Y021596D01*
X015500Y021639D02*
X030890Y021639D01*
X030890Y021521D02*
X015518Y021521D01*
X015497Y021402D02*
X030890Y021402D01*
X030890Y021284D02*
X015425Y021284D01*
X015360Y021165D02*
X030890Y021165D01*
X030890Y021047D02*
X026485Y021047D01*
X026449Y021082D02*
X026261Y021160D01*
X026059Y021160D01*
X025871Y021082D01*
X025728Y020939D01*
X025650Y020751D01*
X025650Y020549D01*
X025728Y020361D01*
X025871Y020218D01*
X026059Y020140D01*
X026261Y020140D01*
X026449Y020218D01*
X026592Y020361D01*
X026670Y020549D01*
X026670Y020751D01*
X026592Y020939D01*
X026449Y021082D01*
X026597Y020928D02*
X030890Y020928D01*
X030890Y020810D02*
X026646Y020810D01*
X026670Y020691D02*
X030890Y020691D01*
X030890Y020573D02*
X026670Y020573D01*
X026631Y020454D02*
X030890Y020454D01*
X030890Y020336D02*
X026567Y020336D01*
X026447Y020217D02*
X030890Y020217D01*
X030890Y020099D02*
X015360Y020099D01*
X015360Y020217D02*
X025873Y020217D01*
X025753Y020336D02*
X015360Y020336D01*
X015360Y020454D02*
X025689Y020454D01*
X025650Y020573D02*
X015360Y020573D01*
X015360Y020691D02*
X025650Y020691D01*
X025674Y020810D02*
X015360Y020810D01*
X015360Y020928D02*
X025723Y020928D01*
X025835Y021047D02*
X015360Y021047D01*
X014960Y021047D02*
X014768Y021047D01*
X014765Y021165D02*
X014960Y021165D01*
X014895Y021284D02*
X014716Y021284D01*
X014823Y021402D02*
X014586Y021402D01*
X014802Y021521D02*
X012539Y021521D01*
X012609Y021450D02*
X012460Y021599D01*
X012265Y021680D01*
X012055Y021680D01*
X011860Y021599D01*
X011711Y021450D01*
X011630Y021255D01*
X011630Y021045D01*
X011711Y020850D01*
X011860Y020701D01*
X012055Y020620D01*
X012265Y020620D01*
X012460Y020701D01*
X012609Y020850D01*
X012690Y021045D01*
X012690Y021255D01*
X012609Y021450D01*
X012629Y021402D02*
X014234Y021402D01*
X014104Y021284D02*
X012678Y021284D01*
X012690Y021165D02*
X014055Y021165D01*
X014052Y021047D02*
X012690Y021047D01*
X012642Y020928D02*
X014088Y020928D01*
X014182Y020810D02*
X012569Y020810D01*
X012437Y020691D02*
X014210Y020691D01*
X014210Y020573D02*
X010265Y020573D01*
X010384Y020691D02*
X011883Y020691D01*
X011751Y020810D02*
X010502Y020810D01*
X010621Y020928D02*
X011678Y020928D01*
X011630Y021047D02*
X010739Y021047D01*
X010858Y021165D02*
X011630Y021165D01*
X011642Y021284D02*
X010976Y021284D01*
X011095Y021402D02*
X011691Y021402D01*
X011781Y021521D02*
X011400Y021521D01*
X011463Y021546D02*
X011564Y021647D01*
X011618Y021779D01*
X011618Y021921D01*
X011564Y022053D01*
X011463Y022154D01*
X011331Y022208D01*
X011189Y022208D01*
X011057Y022154D01*
X010956Y022053D01*
X010902Y021921D01*
X010902Y021779D01*
X010903Y021776D01*
X009660Y020533D01*
X009660Y019155D01*
X009657Y019154D01*
X009556Y019053D01*
X009502Y018921D01*
X009502Y018779D01*
X009556Y018647D01*
X009657Y018546D01*
X009789Y018492D01*
X009931Y018492D01*
X010063Y018546D01*
X010164Y018647D01*
X010218Y018779D01*
X010218Y018921D01*
X010164Y019053D01*
X010063Y019154D01*
X010060Y019155D01*
X010060Y020367D01*
X011186Y021493D01*
X011189Y021492D01*
X011331Y021492D01*
X011463Y021546D01*
X011555Y021639D02*
X011956Y021639D01*
X011609Y021758D02*
X014886Y021758D01*
X014820Y021639D02*
X012364Y021639D01*
X011618Y021876D02*
X015072Y021876D01*
X015248Y021876D02*
X030890Y021876D01*
X030890Y021758D02*
X015434Y021758D01*
X015160Y021525D02*
X015160Y019150D01*
X014960Y018950D01*
X014960Y018650D01*
X015288Y018795D02*
X023668Y018795D01*
X023650Y018751D02*
X023650Y018549D01*
X023728Y018361D01*
X023871Y018218D01*
X024034Y018150D01*
X023871Y018082D01*
X023728Y017939D01*
X023691Y017850D01*
X022577Y017850D01*
X022460Y017733D01*
X021984Y017257D01*
X021981Y017258D01*
X021839Y017258D01*
X021707Y017204D01*
X021606Y017103D01*
X021552Y016971D01*
X021552Y016829D01*
X021606Y016697D01*
X021707Y016596D01*
X021839Y016542D01*
X021981Y016542D01*
X022113Y016596D01*
X022214Y016697D01*
X022268Y016829D01*
X022268Y016971D01*
X022267Y016974D01*
X022743Y017450D01*
X023691Y017450D01*
X023728Y017361D01*
X023871Y017218D01*
X024059Y017140D01*
X024261Y017140D01*
X024449Y017218D01*
X024592Y017361D01*
X024670Y017549D01*
X024670Y017751D01*
X024592Y017939D01*
X024449Y018082D01*
X024286Y018150D01*
X024449Y018218D01*
X024592Y018361D01*
X024670Y018549D01*
X024670Y018751D01*
X024592Y018939D01*
X024449Y019082D01*
X024261Y019160D01*
X024059Y019160D01*
X023871Y019082D01*
X023728Y018939D01*
X023650Y018751D01*
X023650Y018677D02*
X015318Y018677D01*
X015310Y018558D02*
X023650Y018558D01*
X023695Y018440D02*
X015256Y018440D01*
X015102Y018321D02*
X023768Y018321D01*
X023908Y018203D02*
X014660Y018203D01*
X014660Y018321D02*
X014818Y018321D01*
X014664Y018440D02*
X014660Y018440D01*
X014660Y018084D02*
X023875Y018084D01*
X023754Y017966D02*
X014660Y017966D01*
X014660Y017847D02*
X022574Y017847D01*
X022456Y017729D02*
X014660Y017729D01*
X014660Y017610D02*
X022337Y017610D01*
X022219Y017492D02*
X014660Y017492D01*
X014566Y017373D02*
X022100Y017373D01*
X021830Y017255D02*
X014447Y017255D01*
X014329Y017136D02*
X021640Y017136D01*
X021571Y017018D02*
X014210Y017018D01*
X014092Y016899D02*
X021552Y016899D01*
X021572Y016781D02*
X013973Y016781D01*
X013855Y016662D02*
X021642Y016662D01*
X021835Y016544D02*
X013736Y016544D01*
X013618Y016425D02*
X023201Y016425D01*
X023228Y016361D02*
X023371Y016218D01*
X023534Y016150D01*
X023371Y016082D01*
X023228Y015939D01*
X023150Y015751D01*
X023150Y015549D01*
X023228Y015361D01*
X023371Y015218D01*
X023559Y015140D01*
X023761Y015140D01*
X023949Y015218D01*
X024092Y015361D01*
X024170Y015549D01*
X024170Y015751D01*
X024092Y015939D01*
X023949Y016082D01*
X023786Y016150D01*
X023949Y016218D01*
X024092Y016361D01*
X024170Y016549D01*
X024170Y016751D01*
X024092Y016939D01*
X023949Y017082D01*
X023761Y017160D01*
X023559Y017160D01*
X023371Y017082D01*
X023228Y016939D01*
X023150Y016751D01*
X023150Y016549D01*
X023228Y016361D01*
X023282Y016307D02*
X012283Y016307D01*
X012318Y016188D02*
X023443Y016188D01*
X023358Y016070D02*
X012314Y016070D01*
X012265Y015951D02*
X023240Y015951D01*
X023184Y015833D02*
X012129Y015833D01*
X011791Y015833D02*
X010260Y015833D01*
X010142Y015951D02*
X010665Y015951D01*
X010582Y016070D02*
X010023Y016070D01*
X009905Y016188D02*
X010552Y016188D01*
X010561Y016307D02*
X009786Y016307D01*
X009668Y016425D02*
X010616Y016425D01*
X010773Y016544D02*
X009549Y016544D01*
X009431Y016662D02*
X011389Y016662D01*
X011271Y016544D02*
X011047Y016544D01*
X011064Y016781D02*
X009312Y016781D01*
X009194Y016899D02*
X010876Y016899D01*
X010806Y017018D02*
X009075Y017018D01*
X008957Y017136D02*
X010782Y017136D01*
X010794Y017255D02*
X008838Y017255D01*
X008720Y017373D02*
X010848Y017373D01*
X010997Y017492D02*
X008601Y017492D01*
X008483Y017610D02*
X011870Y017610D01*
X011752Y017492D02*
X011323Y017492D01*
X011472Y017373D02*
X011633Y017373D01*
X011721Y017150D02*
X011160Y017150D01*
X011444Y016899D02*
X011626Y016899D01*
X011508Y016781D02*
X011256Y016781D01*
X011718Y016425D02*
X011729Y016425D01*
X011637Y016307D02*
X011599Y016307D01*
X011602Y016188D02*
X011481Y016188D01*
X011362Y016070D02*
X011606Y016070D01*
X011655Y015951D02*
X011155Y015951D01*
X011223Y016213D02*
X010910Y016213D01*
X011223Y016213D02*
X013660Y018650D01*
X013960Y018650D01*
X014203Y018914D02*
X014239Y018914D01*
X014210Y019032D02*
X014048Y019032D01*
X014121Y019151D02*
X014210Y019151D01*
X014210Y019269D02*
X014143Y019269D01*
X014126Y019388D02*
X014210Y019388D01*
X014210Y019506D02*
X014060Y019506D01*
X014210Y019625D02*
X013877Y019625D01*
X013610Y019733D02*
X013610Y019733D01*
X013600Y019743D02*
X014210Y019743D01*
X014210Y019862D02*
X013560Y019862D01*
X013560Y019980D02*
X014210Y019980D01*
X014210Y020099D02*
X013560Y020099D01*
X013476Y020217D02*
X014210Y020217D01*
X014210Y020336D02*
X010060Y020336D01*
X010060Y020217D02*
X010944Y020217D01*
X010826Y020099D02*
X010060Y020099D01*
X010060Y019980D02*
X010521Y019980D01*
X010365Y019862D02*
X010060Y019862D01*
X010060Y019743D02*
X010311Y019743D01*
X010302Y019625D02*
X010060Y019625D01*
X010060Y019506D02*
X010332Y019506D01*
X010416Y019388D02*
X010060Y019388D01*
X010060Y019269D02*
X012006Y019269D01*
X012040Y019151D02*
X010066Y019151D01*
X010172Y019032D02*
X012040Y019032D01*
X012040Y018914D02*
X010218Y018914D01*
X010218Y018795D02*
X012040Y018795D01*
X012040Y018677D02*
X010176Y018677D01*
X010074Y018558D02*
X012040Y018558D01*
X012040Y018440D02*
X007653Y018440D01*
X007585Y018572D02*
X007735Y018572D01*
X007874Y018629D01*
X007981Y018736D01*
X008038Y018875D01*
X008038Y019025D01*
X007981Y019164D01*
X007880Y019265D01*
X007880Y019459D01*
X008393Y019972D01*
X008535Y019972D01*
X008674Y020029D01*
X008781Y020136D01*
X008838Y020275D01*
X008838Y020425D01*
X008781Y020564D01*
X008674Y020671D01*
X008535Y020728D01*
X008385Y020728D01*
X008246Y020671D01*
X008139Y020564D01*
X008082Y020425D01*
X008082Y020283D01*
X007569Y019770D01*
X007440Y019641D01*
X007440Y019265D01*
X007360Y019185D01*
X007360Y020483D01*
X007359Y020484D01*
X007630Y020755D01*
X007630Y021145D01*
X007355Y021420D01*
X006965Y021420D01*
X006860Y021315D01*
X006860Y021557D01*
X006957Y021460D01*
X007139Y021460D01*
X007139Y021929D01*
X006670Y021929D01*
X006670Y021823D01*
X006630Y021863D01*
X006630Y022145D01*
X006355Y022420D01*
X005965Y022420D01*
X005690Y022145D01*
X005690Y021755D01*
X005965Y021480D01*
X006355Y021480D01*
X006401Y021526D01*
X006460Y021467D01*
X006460Y021315D01*
X006355Y021420D01*
X005965Y021420D01*
X005690Y021145D01*
X005690Y020755D01*
X005960Y020485D01*
X005960Y020233D01*
X005360Y019633D01*
X005360Y020485D01*
X005630Y020755D01*
X005630Y021145D01*
X005355Y021420D01*
X004965Y021420D01*
X004690Y021145D01*
X004690Y020755D01*
X004960Y020485D01*
X004960Y019633D01*
X002960Y017633D01*
X002960Y016733D01*
X002614Y016387D01*
X002592Y016439D01*
X002449Y016582D01*
X002286Y016650D01*
X002449Y016718D01*
X002592Y016861D01*
X002670Y017049D01*
X002670Y017251D01*
X002592Y017439D01*
X002449Y017582D01*
X002286Y017650D01*
X002449Y017718D01*
X002592Y017861D01*
X002670Y018049D01*
X002670Y018251D01*
X002592Y018439D01*
X002449Y018582D01*
X002312Y018639D01*
X002460Y018701D01*
X002609Y018850D01*
X002690Y019045D01*
X002690Y019255D01*
X002609Y019450D01*
X002460Y019599D01*
X002337Y019650D01*
X002363Y019659D01*
X002438Y019697D01*
X002505Y019746D01*
X002564Y019805D01*
X002613Y019872D01*
X002651Y019947D01*
X002677Y020026D01*
X002690Y020108D01*
X002690Y020110D01*
X002200Y020110D01*
X002200Y020190D01*
X002120Y020190D01*
X002120Y020680D01*
X002118Y020680D01*
X002036Y020667D01*
X001957Y020641D01*
X001882Y020603D01*
X001815Y020554D01*
X001756Y020495D01*
X001707Y020428D01*
X001669Y020353D01*
X001643Y020274D01*
X001630Y020192D01*
X001630Y020190D01*
X002120Y020190D01*
X002120Y020110D01*
X001630Y020110D01*
X001630Y020108D01*
X001643Y020026D01*
X001669Y019947D01*
X001707Y019872D01*
X001756Y019805D01*
X001815Y019746D01*
X001882Y019697D01*
X001957Y019659D01*
X001983Y019650D01*
X001860Y019599D01*
X001711Y019450D01*
X001630Y019255D01*
X001630Y019045D01*
X001711Y018850D01*
X001860Y018701D01*
X002008Y018639D01*
X001871Y018582D01*
X001728Y018439D01*
X001650Y018251D01*
X001650Y018049D01*
X001728Y017861D01*
X001871Y017718D01*
X002034Y017650D01*
X001871Y017582D01*
X001728Y017439D01*
X001650Y017251D01*
X001650Y017049D01*
X001728Y016861D01*
X001871Y016718D01*
X002034Y016650D01*
X001871Y016582D01*
X001728Y016439D01*
X001650Y016251D01*
X001650Y016049D01*
X001728Y015861D01*
X001871Y015718D01*
X002034Y015650D01*
X001871Y015582D01*
X001728Y015439D01*
X001650Y015251D01*
X001650Y015049D01*
X001728Y014861D01*
X001871Y014718D01*
X002034Y014650D01*
X001871Y014582D01*
X001728Y014439D01*
X001650Y014251D01*
X001650Y014049D01*
X001728Y013861D01*
X001871Y013718D01*
X002034Y013650D01*
X001871Y013582D01*
X001728Y013439D01*
X001650Y013251D01*
X001650Y013049D01*
X001728Y012861D01*
X001871Y012718D01*
X002034Y012650D01*
X001871Y012582D01*
X001728Y012439D01*
X001650Y012251D01*
X001650Y012049D01*
X001728Y011861D01*
X001871Y011718D01*
X002059Y011640D01*
X002261Y011640D01*
X002449Y011718D01*
X002592Y011861D01*
X002670Y012049D01*
X002670Y012251D01*
X002592Y012439D01*
X002449Y012582D01*
X002286Y012650D01*
X002449Y012718D01*
X002592Y012861D01*
X002629Y012950D01*
X003460Y012950D01*
X003460Y012567D01*
X003960Y012067D01*
X004077Y011950D01*
X009855Y011950D01*
X009856Y011947D01*
X009957Y011846D01*
X010089Y011792D01*
X010231Y011792D01*
X010363Y011846D01*
X010464Y011947D01*
X010518Y012079D01*
X010518Y012221D01*
X010468Y012342D01*
X010589Y012292D01*
X010731Y012292D01*
X010863Y012346D01*
X010964Y012447D01*
X011018Y012579D01*
X011018Y012721D01*
X010964Y012853D01*
X010863Y012954D01*
X010731Y013008D01*
X010589Y013008D01*
X010457Y012954D01*
X010356Y012853D01*
X010355Y012850D01*
X008365Y012850D01*
X008364Y012853D01*
X008263Y012954D01*
X008131Y013008D01*
X007989Y013008D01*
X007857Y012954D01*
X007756Y012853D01*
X007702Y012721D01*
X007702Y012579D01*
X007756Y012447D01*
X007854Y012350D01*
X004243Y012350D01*
X003860Y012733D01*
X003860Y017567D01*
X006243Y019950D01*
X006360Y020067D01*
X006360Y020485D01*
X006460Y020585D01*
X006460Y020367D01*
X006577Y020250D01*
X006960Y020250D01*
X006960Y018567D01*
X007077Y018450D01*
X007077Y018450D01*
X010977Y014550D01*
X009865Y014550D01*
X009864Y014553D01*
X009763Y014654D01*
X009631Y014708D01*
X009489Y014708D01*
X009357Y014654D01*
X009256Y014553D01*
X009202Y014421D01*
X009202Y014279D01*
X009256Y014147D01*
X009357Y014046D01*
X009489Y013992D01*
X009631Y013992D01*
X009763Y014046D01*
X009864Y014147D01*
X009865Y014150D01*
X010877Y014150D01*
X011260Y013767D01*
X011377Y013650D01*
X016943Y013650D01*
X017086Y013793D01*
X017089Y013792D01*
X017231Y013792D01*
X017363Y013846D01*
X017464Y013947D01*
X017518Y014079D01*
X017518Y014221D01*
X017464Y014353D01*
X017363Y014454D01*
X017231Y014508D01*
X017089Y014508D01*
X016957Y014454D01*
X016856Y014353D01*
X016802Y014221D01*
X016802Y014079D01*
X016803Y014076D01*
X016777Y014050D01*
X012101Y014050D01*
X012213Y014096D01*
X012314Y014197D01*
X012368Y014329D01*
X012368Y014471D01*
X012314Y014603D01*
X012213Y014704D01*
X012081Y014758D01*
X011939Y014758D01*
X011807Y014704D01*
X011706Y014603D01*
X011705Y014600D01*
X011493Y014600D01*
X007476Y018617D01*
X007585Y018572D01*
X007535Y018558D02*
X009646Y018558D01*
X009544Y018677D02*
X007921Y018677D01*
X008005Y018795D02*
X009502Y018795D01*
X009502Y018914D02*
X008038Y018914D01*
X008035Y019032D02*
X009548Y019032D01*
X009654Y019151D02*
X007986Y019151D01*
X007880Y019269D02*
X009660Y019269D01*
X009660Y019388D02*
X007880Y019388D01*
X007927Y019506D02*
X009660Y019506D01*
X009660Y019625D02*
X008046Y019625D01*
X008164Y019743D02*
X009660Y019743D01*
X009660Y019862D02*
X008283Y019862D01*
X008555Y019980D02*
X009660Y019980D01*
X009660Y020099D02*
X008743Y020099D01*
X008814Y020217D02*
X009660Y020217D01*
X009660Y020336D02*
X008838Y020336D01*
X008826Y020454D02*
X009660Y020454D01*
X009700Y020573D02*
X008772Y020573D01*
X008871Y020718D02*
X009059Y020640D01*
X009261Y020640D01*
X009449Y020718D01*
X009592Y020861D01*
X009670Y021049D01*
X009670Y021251D01*
X009592Y021439D01*
X009449Y021582D01*
X009261Y021660D01*
X009059Y021660D01*
X008871Y021582D01*
X008728Y021439D01*
X008650Y021251D01*
X008650Y021049D01*
X008728Y020861D01*
X008871Y020718D01*
X008935Y020691D02*
X008625Y020691D01*
X008779Y020810D02*
X007630Y020810D01*
X007630Y020928D02*
X008700Y020928D01*
X008651Y021047D02*
X007630Y021047D01*
X007610Y021165D02*
X008650Y021165D01*
X008663Y021284D02*
X007491Y021284D01*
X007373Y021402D02*
X008712Y021402D01*
X008809Y021521D02*
X007424Y021521D01*
X007363Y021460D02*
X007650Y021747D01*
X007650Y021929D01*
X007181Y021929D01*
X007181Y021971D01*
X007139Y021971D01*
X007139Y021929D01*
X007181Y021929D01*
X007181Y021460D01*
X007363Y021460D01*
X007181Y021521D02*
X007139Y021521D01*
X007139Y021639D02*
X007181Y021639D01*
X007181Y021758D02*
X007139Y021758D01*
X007139Y021876D02*
X007181Y021876D01*
X007181Y021971D02*
X007650Y021971D01*
X007650Y022153D01*
X007363Y022440D01*
X007181Y022440D01*
X007181Y021971D01*
X007181Y021995D02*
X007139Y021995D01*
X007139Y021971D02*
X007139Y022440D01*
X006957Y022440D01*
X006670Y022153D01*
X006670Y021971D01*
X007139Y021971D01*
X007139Y022113D02*
X007181Y022113D01*
X007181Y022232D02*
X007139Y022232D01*
X007139Y022350D02*
X007181Y022350D01*
X007453Y022350D02*
X030890Y022350D01*
X030890Y022232D02*
X007571Y022232D01*
X007650Y022113D02*
X011017Y022113D01*
X010932Y021995D02*
X007650Y021995D01*
X007650Y021876D02*
X010902Y021876D01*
X010885Y021758D02*
X007650Y021758D01*
X007542Y021639D02*
X009008Y021639D01*
X009312Y021639D02*
X010766Y021639D01*
X010648Y021521D02*
X009511Y021521D01*
X009608Y021402D02*
X010529Y021402D01*
X010411Y021284D02*
X009657Y021284D01*
X009670Y021165D02*
X010292Y021165D01*
X010174Y021047D02*
X009669Y021047D01*
X009620Y020928D02*
X010055Y020928D01*
X009937Y020810D02*
X009541Y020810D01*
X009385Y020691D02*
X009818Y020691D01*
X009860Y020450D02*
X011260Y021850D01*
X011588Y021995D02*
X030890Y021995D01*
X030890Y022113D02*
X011503Y022113D01*
X010147Y020454D02*
X014210Y020454D01*
X014610Y020454D02*
X014960Y020454D01*
X014960Y020336D02*
X014610Y020336D01*
X014610Y020217D02*
X014960Y020217D01*
X014960Y020099D02*
X014610Y020099D01*
X014610Y019980D02*
X014960Y019980D01*
X014960Y019862D02*
X014610Y019862D01*
X014610Y019743D02*
X014960Y019743D01*
X014960Y019625D02*
X014610Y019625D01*
X014610Y019506D02*
X014960Y019506D01*
X014960Y019388D02*
X014610Y019388D01*
X014610Y019269D02*
X014960Y019269D01*
X014878Y019151D02*
X014610Y019151D01*
X014660Y019032D02*
X014760Y019032D01*
X014717Y018914D02*
X014660Y018914D01*
X014460Y018975D02*
X014410Y019025D01*
X014410Y021088D01*
X014732Y020928D02*
X014960Y020928D01*
X014960Y020810D02*
X014638Y020810D01*
X014610Y020691D02*
X014960Y020691D01*
X014960Y020573D02*
X014610Y020573D01*
X015360Y019980D02*
X030890Y019980D01*
X030890Y019862D02*
X015360Y019862D01*
X015360Y019743D02*
X030890Y019743D01*
X030890Y019625D02*
X030347Y019625D01*
X030261Y019660D02*
X030059Y019660D01*
X029871Y019582D01*
X029728Y019439D01*
X029650Y019251D01*
X029650Y019049D01*
X029728Y018861D01*
X029871Y018718D01*
X030059Y018640D01*
X030261Y018640D01*
X030449Y018718D01*
X030592Y018861D01*
X030670Y019049D01*
X030670Y019251D01*
X030592Y019439D01*
X030449Y019582D01*
X030261Y019660D01*
X029973Y019625D02*
X028347Y019625D01*
X028261Y019660D02*
X028059Y019660D01*
X027871Y019582D01*
X027728Y019439D01*
X027650Y019251D01*
X027650Y019049D01*
X027728Y018861D01*
X027871Y018718D01*
X028059Y018640D01*
X028261Y018640D01*
X028449Y018718D01*
X028592Y018861D01*
X028670Y019049D01*
X028670Y019251D01*
X028592Y019439D01*
X028449Y019582D01*
X028261Y019660D01*
X027973Y019625D02*
X015360Y019625D01*
X015360Y019506D02*
X027795Y019506D01*
X027706Y019388D02*
X015360Y019388D01*
X015360Y019269D02*
X027657Y019269D01*
X027650Y019151D02*
X024284Y019151D01*
X024499Y019032D02*
X027657Y019032D01*
X027706Y018914D02*
X024603Y018914D01*
X024652Y018795D02*
X027794Y018795D01*
X027970Y018677D02*
X024670Y018677D01*
X024670Y018558D02*
X030890Y018558D01*
X030890Y018440D02*
X024625Y018440D01*
X024552Y018321D02*
X030890Y018321D01*
X030890Y018203D02*
X024412Y018203D01*
X024445Y018084D02*
X030890Y018084D01*
X030890Y017966D02*
X024566Y017966D01*
X024630Y017847D02*
X030890Y017847D01*
X030890Y017729D02*
X024670Y017729D01*
X024670Y017610D02*
X030890Y017610D01*
X030890Y017492D02*
X024646Y017492D01*
X024597Y017373D02*
X030890Y017373D01*
X030890Y017255D02*
X024486Y017255D01*
X024109Y016899D02*
X030890Y016899D01*
X030890Y016781D02*
X024158Y016781D01*
X024170Y016662D02*
X030890Y016662D01*
X030890Y016544D02*
X024168Y016544D01*
X024119Y016425D02*
X030890Y016425D01*
X030890Y016307D02*
X024038Y016307D01*
X023877Y016188D02*
X030890Y016188D01*
X030890Y016070D02*
X023962Y016070D01*
X024080Y015951D02*
X030890Y015951D01*
X030890Y015833D02*
X024136Y015833D01*
X024170Y015714D02*
X030890Y015714D01*
X030890Y015596D02*
X024170Y015596D01*
X024140Y015477D02*
X030890Y015477D01*
X030890Y015359D02*
X024090Y015359D01*
X023971Y015240D02*
X030890Y015240D01*
X030890Y015122D02*
X026354Y015122D01*
X026261Y015160D02*
X026059Y015160D01*
X025871Y015082D01*
X025728Y014939D01*
X025650Y014751D01*
X025650Y014549D01*
X025728Y014361D01*
X025871Y014218D01*
X026059Y014140D01*
X026261Y014140D01*
X026449Y014218D01*
X026592Y014361D01*
X026670Y014549D01*
X026670Y014751D01*
X026592Y014939D01*
X026449Y015082D01*
X026261Y015160D01*
X025966Y015122D02*
X010971Y015122D01*
X010853Y015240D02*
X023349Y015240D01*
X023230Y015359D02*
X010734Y015359D01*
X010616Y015477D02*
X023180Y015477D01*
X023150Y015596D02*
X010497Y015596D01*
X010379Y015714D02*
X023150Y015714D01*
X023152Y016544D02*
X021985Y016544D01*
X022178Y016662D02*
X023150Y016662D01*
X023162Y016781D02*
X022248Y016781D01*
X022268Y016899D02*
X023211Y016899D01*
X023306Y017018D02*
X022310Y017018D01*
X022429Y017136D02*
X023501Y017136D01*
X023819Y017136D02*
X030890Y017136D01*
X030890Y017018D02*
X024014Y017018D01*
X023834Y017255D02*
X022547Y017255D01*
X022666Y017373D02*
X023723Y017373D01*
X024160Y017650D02*
X022660Y017650D01*
X021910Y016900D01*
X023717Y018914D02*
X015206Y018914D01*
X015325Y019032D02*
X023821Y019032D01*
X024036Y019151D02*
X015360Y019151D01*
X014460Y018975D02*
X014460Y017550D01*
X013485Y016575D01*
X011960Y016575D01*
X011960Y016150D01*
X011721Y017150D02*
X012260Y017689D01*
X012260Y019550D01*
X011918Y019388D02*
X010904Y019388D01*
X010988Y019506D02*
X011882Y019506D01*
X011882Y019625D02*
X011018Y019625D01*
X011036Y019743D02*
X011931Y019743D01*
X011060Y020050D02*
X013360Y020050D01*
X013360Y019650D01*
X013410Y019650D01*
X013785Y019275D01*
X012040Y018321D02*
X007772Y018321D01*
X007890Y018203D02*
X012040Y018203D01*
X012040Y018084D02*
X008009Y018084D01*
X008127Y017966D02*
X012040Y017966D01*
X012040Y017847D02*
X008246Y017847D01*
X008364Y017729D02*
X011989Y017729D01*
X009860Y018850D02*
X009860Y020450D01*
X010660Y019650D02*
X011060Y020050D01*
X008460Y020350D02*
X007660Y019550D01*
X007660Y018950D01*
X007440Y019269D02*
X007360Y019269D01*
X007360Y019388D02*
X007440Y019388D01*
X007440Y019506D02*
X007360Y019506D01*
X007360Y019625D02*
X007440Y019625D01*
X007360Y019743D02*
X007542Y019743D01*
X007660Y019862D02*
X007360Y019862D01*
X007360Y019980D02*
X007779Y019980D01*
X007897Y020099D02*
X007360Y020099D01*
X007360Y020217D02*
X008016Y020217D01*
X008082Y020336D02*
X007360Y020336D01*
X007360Y020454D02*
X008094Y020454D01*
X008148Y020573D02*
X007447Y020573D01*
X007566Y020691D02*
X008295Y020691D01*
X007160Y020400D02*
X007110Y020450D01*
X006660Y020450D01*
X006660Y021550D01*
X006260Y021950D01*
X006160Y021950D01*
X006630Y021995D02*
X006670Y021995D01*
X006670Y022113D02*
X006630Y022113D01*
X006543Y022232D02*
X006749Y022232D01*
X006867Y022350D02*
X006425Y022350D01*
X005895Y022350D02*
X005453Y022350D01*
X005363Y022440D02*
X004957Y022440D01*
X004670Y022153D01*
X004670Y021747D01*
X004957Y021460D01*
X005363Y021460D01*
X005650Y021747D01*
X005650Y022153D01*
X005363Y022440D01*
X005571Y022232D02*
X005777Y022232D01*
X005690Y022113D02*
X005650Y022113D01*
X005650Y021995D02*
X005690Y021995D01*
X005690Y021876D02*
X005650Y021876D01*
X005650Y021758D02*
X005690Y021758D01*
X005806Y021639D02*
X005542Y021639D01*
X005424Y021521D02*
X005925Y021521D01*
X005947Y021402D02*
X005373Y021402D01*
X005491Y021284D02*
X005829Y021284D01*
X005710Y021165D02*
X005610Y021165D01*
X005630Y021047D02*
X005690Y021047D01*
X005690Y020928D02*
X005630Y020928D01*
X005630Y020810D02*
X005690Y020810D01*
X005754Y020691D02*
X005566Y020691D01*
X005447Y020573D02*
X005873Y020573D01*
X005960Y020454D02*
X005360Y020454D01*
X005360Y020336D02*
X005960Y020336D01*
X005944Y020217D02*
X005360Y020217D01*
X005360Y020099D02*
X005826Y020099D01*
X005707Y019980D02*
X005360Y019980D01*
X005360Y019862D02*
X005589Y019862D01*
X005470Y019743D02*
X005360Y019743D01*
X005160Y019550D02*
X005160Y020950D01*
X004829Y021284D02*
X001050Y021284D01*
X001050Y021402D02*
X004947Y021402D01*
X004896Y021521D02*
X001050Y021521D01*
X001050Y021639D02*
X004778Y021639D01*
X004670Y021758D02*
X001050Y021758D01*
X001050Y021876D02*
X004670Y021876D01*
X004670Y021995D02*
X001050Y021995D01*
X001050Y022113D02*
X004670Y022113D01*
X004749Y022232D02*
X001050Y022232D01*
X001050Y022350D02*
X004867Y022350D01*
X004710Y021165D02*
X001050Y021165D01*
X001050Y021047D02*
X004690Y021047D01*
X004690Y020928D02*
X001050Y020928D01*
X001050Y020810D02*
X004690Y020810D01*
X004754Y020691D02*
X001050Y020691D01*
X001050Y020573D02*
X001840Y020573D01*
X001726Y020454D02*
X001050Y020454D01*
X001050Y020336D02*
X001663Y020336D01*
X001634Y020217D02*
X001050Y020217D01*
X001050Y020099D02*
X001632Y020099D01*
X001658Y019980D02*
X001050Y019980D01*
X001050Y019862D02*
X001714Y019862D01*
X001818Y019743D02*
X001050Y019743D01*
X001050Y019625D02*
X001921Y019625D01*
X001767Y019506D02*
X001050Y019506D01*
X001050Y019388D02*
X001685Y019388D01*
X001636Y019269D02*
X001050Y019269D01*
X001050Y019151D02*
X001630Y019151D01*
X001635Y019032D02*
X001050Y019032D01*
X001050Y018914D02*
X001684Y018914D01*
X001765Y018795D02*
X001050Y018795D01*
X001050Y018677D02*
X001918Y018677D01*
X001847Y018558D02*
X001050Y018558D01*
X001050Y018440D02*
X001728Y018440D01*
X001679Y018321D02*
X001050Y018321D01*
X001050Y018203D02*
X001650Y018203D01*
X001650Y018084D02*
X001050Y018084D01*
X001050Y017966D02*
X001684Y017966D01*
X001742Y017847D02*
X001050Y017847D01*
X001050Y017729D02*
X001860Y017729D01*
X001938Y017610D02*
X001050Y017610D01*
X001050Y017492D02*
X001780Y017492D01*
X001700Y017373D02*
X001050Y017373D01*
X001050Y017255D02*
X001651Y017255D01*
X001650Y017136D02*
X001050Y017136D01*
X001050Y017018D02*
X001663Y017018D01*
X001712Y016899D02*
X001050Y016899D01*
X001050Y016781D02*
X001808Y016781D01*
X002005Y016662D02*
X001050Y016662D01*
X001050Y016544D02*
X001832Y016544D01*
X001722Y016425D02*
X001050Y016425D01*
X001050Y016307D02*
X001673Y016307D01*
X001650Y016188D02*
X001050Y016188D01*
X001050Y016070D02*
X001650Y016070D01*
X001690Y015951D02*
X001050Y015951D01*
X001050Y015833D02*
X001756Y015833D01*
X001880Y015714D02*
X001050Y015714D01*
X001050Y015596D02*
X001903Y015596D01*
X001766Y015477D02*
X001050Y015477D01*
X001050Y015359D02*
X001694Y015359D01*
X001650Y015240D02*
X001050Y015240D01*
X001050Y015122D02*
X001650Y015122D01*
X001669Y015003D02*
X001050Y015003D01*
X001050Y014885D02*
X001718Y014885D01*
X001823Y014766D02*
X001050Y014766D01*
X001050Y014648D02*
X002028Y014648D01*
X001818Y014529D02*
X001050Y014529D01*
X001050Y014411D02*
X001716Y014411D01*
X001667Y014292D02*
X001050Y014292D01*
X001050Y014174D02*
X001650Y014174D01*
X001650Y014055D02*
X001050Y014055D01*
X001050Y013937D02*
X001696Y013937D01*
X001771Y013818D02*
X001050Y013818D01*
X001050Y013700D02*
X001915Y013700D01*
X001870Y013581D02*
X001050Y013581D01*
X001050Y013463D02*
X001751Y013463D01*
X001688Y013344D02*
X001050Y013344D01*
X001050Y013226D02*
X001650Y013226D01*
X001650Y013107D02*
X001050Y013107D01*
X001050Y012989D02*
X001675Y012989D01*
X001724Y012870D02*
X001050Y012870D01*
X001050Y012752D02*
X001837Y012752D01*
X001993Y012633D02*
X001050Y012633D01*
X001050Y012515D02*
X001803Y012515D01*
X001710Y012396D02*
X001050Y012396D01*
X001050Y012278D02*
X001661Y012278D01*
X001650Y012159D02*
X001050Y012159D01*
X001050Y012041D02*
X001653Y012041D01*
X001702Y011922D02*
X001050Y011922D01*
X001050Y011804D02*
X001785Y011804D01*
X001950Y011685D02*
X001050Y011685D01*
X001050Y011567D02*
X014044Y011567D01*
X014065Y011575D02*
X013888Y011502D01*
X013753Y011367D01*
X013680Y011190D01*
X013680Y010360D01*
X013753Y010183D01*
X013888Y010048D01*
X014065Y009975D01*
X014255Y009975D01*
X014432Y010048D01*
X014567Y010183D01*
X014640Y010360D01*
X014640Y011190D01*
X014567Y011367D01*
X014432Y011502D01*
X014255Y011575D01*
X014065Y011575D01*
X014276Y011567D02*
X015069Y011567D01*
X015048Y011563D02*
X014976Y011540D01*
X014908Y011506D01*
X014847Y011461D01*
X014794Y011408D01*
X014749Y011347D01*
X014715Y011279D01*
X014692Y011207D01*
X014680Y011133D01*
X014680Y010815D01*
X015120Y010815D01*
X015120Y011575D01*
X015048Y011563D01*
X015120Y011567D02*
X015200Y011567D01*
X015200Y011575D02*
X015200Y010815D01*
X015640Y010815D01*
X015640Y011133D01*
X015628Y011207D01*
X015605Y011279D01*
X015571Y011347D01*
X015526Y011408D01*
X015473Y011461D01*
X015412Y011506D01*
X015344Y011540D01*
X015272Y011563D01*
X015200Y011575D01*
X015251Y011567D02*
X030890Y011567D01*
X030890Y011685D02*
X002370Y011685D01*
X002535Y011804D02*
X010061Y011804D01*
X010259Y011804D02*
X030890Y011804D01*
X030890Y011922D02*
X010438Y011922D01*
X010502Y012041D02*
X030890Y012041D01*
X030890Y012159D02*
X010518Y012159D01*
X010495Y012278D02*
X030890Y012278D01*
X030890Y012396D02*
X010912Y012396D01*
X010991Y012515D02*
X030890Y012515D01*
X030890Y012633D02*
X011018Y012633D01*
X011006Y012752D02*
X027837Y012752D01*
X027871Y012718D02*
X028059Y012640D01*
X028261Y012640D01*
X028449Y012718D01*
X028592Y012861D01*
X028670Y013049D01*
X028670Y013251D01*
X028592Y013439D01*
X028449Y013582D01*
X028261Y013660D01*
X028059Y013660D01*
X027871Y013582D01*
X027728Y013439D01*
X027650Y013251D01*
X027650Y013049D01*
X027728Y012861D01*
X027871Y012718D01*
X027724Y012870D02*
X010946Y012870D01*
X010779Y012989D02*
X027675Y012989D01*
X027650Y013107D02*
X010873Y013107D01*
X010863Y013096D02*
X010964Y013197D01*
X011018Y013329D01*
X011018Y013471D01*
X010964Y013603D01*
X010863Y013704D01*
X010731Y013758D01*
X010589Y013758D01*
X010457Y013704D01*
X010356Y013603D01*
X010355Y013600D01*
X008965Y013600D01*
X008964Y013603D01*
X008863Y013704D01*
X008731Y013758D01*
X008589Y013758D01*
X008457Y013704D01*
X008356Y013603D01*
X008302Y013471D01*
X008302Y013329D01*
X008356Y013197D01*
X008457Y013096D01*
X008589Y013042D01*
X008731Y013042D01*
X008863Y013096D01*
X008964Y013197D01*
X008965Y013200D01*
X010355Y013200D01*
X010356Y013197D01*
X010457Y013096D01*
X010589Y013042D01*
X010731Y013042D01*
X010863Y013096D01*
X010975Y013226D02*
X027650Y013226D01*
X027688Y013344D02*
X011018Y013344D01*
X011018Y013463D02*
X027751Y013463D01*
X027870Y013581D02*
X010973Y013581D01*
X010867Y013700D02*
X011328Y013700D01*
X011209Y013818D02*
X003860Y013818D01*
X003860Y013700D02*
X008453Y013700D01*
X008347Y013581D02*
X003860Y013581D01*
X003860Y013463D02*
X008302Y013463D01*
X008302Y013344D02*
X003860Y013344D01*
X003860Y013226D02*
X008345Y013226D01*
X008447Y013107D02*
X003860Y013107D01*
X003860Y012989D02*
X007941Y012989D01*
X007774Y012870D02*
X003860Y012870D01*
X003860Y012752D02*
X007714Y012752D01*
X007702Y012633D02*
X003960Y012633D01*
X004078Y012515D02*
X007728Y012515D01*
X007808Y012396D02*
X004197Y012396D01*
X004160Y012150D02*
X003660Y012650D01*
X003660Y013150D01*
X002160Y013150D01*
X002483Y012752D02*
X003460Y012752D01*
X003460Y012870D02*
X002596Y012870D01*
X002327Y012633D02*
X003460Y012633D01*
X003513Y012515D02*
X002517Y012515D01*
X002610Y012396D02*
X003631Y012396D01*
X003750Y012278D02*
X002659Y012278D01*
X002670Y012159D02*
X003868Y012159D01*
X003987Y012041D02*
X002667Y012041D01*
X002618Y011922D02*
X009882Y011922D01*
X010160Y012150D02*
X005160Y012150D01*
X004660Y012150D01*
X004160Y012150D01*
X003660Y013150D02*
X003660Y017650D01*
X006160Y020150D01*
X006160Y020950D01*
X006373Y021402D02*
X006460Y021402D01*
X006407Y021521D02*
X006395Y021521D01*
X006630Y021876D02*
X006670Y021876D01*
X006860Y021521D02*
X006896Y021521D01*
X006860Y021402D02*
X006947Y021402D01*
X006460Y020573D02*
X006447Y020573D01*
X006460Y020454D02*
X006360Y020454D01*
X006360Y020336D02*
X006492Y020336D01*
X006360Y020217D02*
X006960Y020217D01*
X006960Y020099D02*
X006360Y020099D01*
X006273Y019980D02*
X006960Y019980D01*
X006960Y019862D02*
X006154Y019862D01*
X006036Y019743D02*
X006960Y019743D01*
X006960Y019625D02*
X005917Y019625D01*
X005799Y019506D02*
X006960Y019506D01*
X006960Y019388D02*
X005680Y019388D01*
X005562Y019269D02*
X006960Y019269D01*
X006960Y019151D02*
X005443Y019151D01*
X005325Y019032D02*
X006960Y019032D01*
X006960Y018914D02*
X005206Y018914D01*
X005088Y018795D02*
X006960Y018795D01*
X006960Y018677D02*
X004969Y018677D01*
X004851Y018558D02*
X006969Y018558D01*
X007088Y018440D02*
X004732Y018440D01*
X004614Y018321D02*
X007206Y018321D01*
X007325Y018203D02*
X004495Y018203D01*
X004377Y018084D02*
X007443Y018084D01*
X007562Y017966D02*
X004258Y017966D01*
X004140Y017847D02*
X007680Y017847D01*
X007799Y017729D02*
X004021Y017729D01*
X003903Y017610D02*
X007917Y017610D01*
X008036Y017492D02*
X003860Y017492D01*
X003860Y017373D02*
X008154Y017373D01*
X008273Y017255D02*
X003860Y017255D01*
X003860Y017136D02*
X008391Y017136D01*
X008510Y017018D02*
X003860Y017018D01*
X003860Y016899D02*
X008628Y016899D01*
X008747Y016781D02*
X003860Y016781D01*
X003860Y016662D02*
X008865Y016662D01*
X008984Y016544D02*
X003860Y016544D01*
X003860Y016425D02*
X009102Y016425D01*
X009221Y016307D02*
X003860Y016307D01*
X003860Y016188D02*
X009339Y016188D01*
X009458Y016070D02*
X003860Y016070D01*
X003860Y015951D02*
X009576Y015951D01*
X009695Y015833D02*
X003860Y015833D01*
X003860Y015714D02*
X009813Y015714D01*
X009932Y015596D02*
X003860Y015596D01*
X003860Y015477D02*
X010050Y015477D01*
X010169Y015359D02*
X003860Y015359D01*
X003860Y015240D02*
X010287Y015240D01*
X010406Y015122D02*
X003860Y015122D01*
X003860Y015003D02*
X010524Y015003D01*
X010643Y014885D02*
X003860Y014885D01*
X003860Y014766D02*
X010761Y014766D01*
X010880Y014648D02*
X009769Y014648D01*
X009560Y014350D02*
X010960Y014350D01*
X011460Y013850D01*
X016860Y013850D01*
X017160Y014150D01*
X017294Y013818D02*
X030890Y013818D01*
X030890Y013700D02*
X016992Y013700D01*
X016782Y014055D02*
X012113Y014055D01*
X012290Y014174D02*
X016802Y014174D01*
X016831Y014292D02*
X012353Y014292D01*
X012368Y014411D02*
X016914Y014411D01*
X017406Y014411D02*
X025707Y014411D01*
X025658Y014529D02*
X012344Y014529D01*
X012269Y014648D02*
X025650Y014648D01*
X025656Y014766D02*
X011327Y014766D01*
X011445Y014648D02*
X011751Y014648D01*
X012010Y014400D02*
X011410Y014400D01*
X007160Y018650D01*
X007160Y020400D01*
X005160Y019550D02*
X003160Y017550D01*
X003160Y016650D01*
X002660Y016150D01*
X002160Y016150D01*
X002488Y016544D02*
X002771Y016544D01*
X002889Y016662D02*
X002315Y016662D01*
X002512Y016781D02*
X002960Y016781D01*
X002960Y016899D02*
X002608Y016899D01*
X002657Y017018D02*
X002960Y017018D01*
X002960Y017136D02*
X002670Y017136D01*
X002669Y017255D02*
X002960Y017255D01*
X002960Y017373D02*
X002620Y017373D01*
X002540Y017492D02*
X002960Y017492D01*
X002960Y017610D02*
X002382Y017610D01*
X002460Y017729D02*
X003056Y017729D01*
X003174Y017847D02*
X002578Y017847D01*
X002636Y017966D02*
X003293Y017966D01*
X003411Y018084D02*
X002670Y018084D01*
X002670Y018203D02*
X003530Y018203D01*
X003648Y018321D02*
X002641Y018321D01*
X002592Y018440D02*
X003767Y018440D01*
X003885Y018558D02*
X002473Y018558D01*
X002402Y018677D02*
X004004Y018677D01*
X004122Y018795D02*
X002555Y018795D01*
X002636Y018914D02*
X004241Y018914D01*
X004359Y019032D02*
X002685Y019032D01*
X002690Y019151D02*
X004478Y019151D01*
X004596Y019269D02*
X002684Y019269D01*
X002635Y019388D02*
X004715Y019388D01*
X004833Y019506D02*
X002553Y019506D01*
X002399Y019625D02*
X004952Y019625D01*
X004960Y019743D02*
X002502Y019743D01*
X002606Y019862D02*
X004960Y019862D01*
X004960Y019980D02*
X002662Y019980D01*
X002688Y020099D02*
X004960Y020099D01*
X004960Y020217D02*
X002686Y020217D01*
X002690Y020192D02*
X002677Y020274D01*
X002651Y020353D01*
X002613Y020428D01*
X002564Y020495D01*
X002505Y020554D01*
X002438Y020603D01*
X002363Y020641D01*
X002284Y020667D01*
X002202Y020680D01*
X002200Y020680D01*
X002200Y020190D01*
X002690Y020190D01*
X002690Y020192D01*
X002657Y020336D02*
X004960Y020336D01*
X004960Y020454D02*
X002594Y020454D01*
X002480Y020573D02*
X004873Y020573D01*
X002200Y020573D02*
X002120Y020573D01*
X002120Y020454D02*
X002200Y020454D01*
X002200Y020336D02*
X002120Y020336D01*
X002120Y020217D02*
X002200Y020217D01*
X001050Y022469D02*
X030890Y022469D01*
X030890Y022587D02*
X001050Y022587D01*
X001050Y022706D02*
X030890Y022706D01*
X030890Y022824D02*
X001050Y022824D01*
X001050Y022943D02*
X030890Y022943D01*
X030890Y023061D02*
X001050Y023061D01*
X001050Y023180D02*
X030890Y023180D01*
X030890Y023298D02*
X001050Y023298D01*
X001050Y023417D02*
X030890Y023417D01*
X030890Y023506D02*
X030890Y006650D01*
X025660Y006650D01*
X025660Y009150D01*
X010660Y009150D01*
X010660Y007650D01*
X001050Y007650D01*
X001050Y023506D01*
X030890Y023506D01*
X030890Y019506D02*
X030525Y019506D01*
X030614Y019388D02*
X030890Y019388D01*
X030890Y019269D02*
X030663Y019269D01*
X030670Y019151D02*
X030890Y019151D01*
X030890Y019032D02*
X030663Y019032D01*
X030614Y018914D02*
X030890Y018914D01*
X030890Y018795D02*
X030526Y018795D01*
X030350Y018677D02*
X030890Y018677D01*
X029970Y018677D02*
X028350Y018677D01*
X028526Y018795D02*
X029794Y018795D01*
X029706Y018914D02*
X028614Y018914D01*
X028663Y019032D02*
X029657Y019032D01*
X029650Y019151D02*
X028670Y019151D01*
X028663Y019269D02*
X029657Y019269D01*
X029706Y019388D02*
X028614Y019388D01*
X028525Y019506D02*
X029795Y019506D01*
X030890Y015003D02*
X026528Y015003D01*
X026615Y014885D02*
X030890Y014885D01*
X030890Y014766D02*
X026664Y014766D01*
X026670Y014648D02*
X030890Y014648D01*
X030890Y014529D02*
X026662Y014529D01*
X026613Y014411D02*
X030890Y014411D01*
X030890Y014292D02*
X026523Y014292D01*
X026342Y014174D02*
X030890Y014174D01*
X030890Y014055D02*
X017508Y014055D01*
X017518Y014174D02*
X025978Y014174D01*
X025797Y014292D02*
X017489Y014292D01*
X017453Y013937D02*
X030890Y013937D01*
X030890Y013581D02*
X030450Y013581D01*
X030449Y013582D02*
X030261Y013660D01*
X030059Y013660D01*
X029871Y013582D01*
X029728Y013439D01*
X029650Y013251D01*
X029650Y013049D01*
X029728Y012861D01*
X029871Y012718D01*
X030059Y012640D01*
X030261Y012640D01*
X030449Y012718D01*
X030592Y012861D01*
X030670Y013049D01*
X030670Y013251D01*
X030592Y013439D01*
X030449Y013582D01*
X030569Y013463D02*
X030890Y013463D01*
X030890Y013344D02*
X030632Y013344D01*
X030670Y013226D02*
X030890Y013226D01*
X030890Y013107D02*
X030670Y013107D01*
X030645Y012989D02*
X030890Y012989D01*
X030890Y012870D02*
X030596Y012870D01*
X030483Y012752D02*
X030890Y012752D01*
X029837Y012752D02*
X028483Y012752D01*
X028596Y012870D02*
X029724Y012870D01*
X029675Y012989D02*
X028645Y012989D01*
X028670Y013107D02*
X029650Y013107D01*
X029650Y013226D02*
X028670Y013226D01*
X028632Y013344D02*
X029688Y013344D01*
X029751Y013463D02*
X028569Y013463D01*
X028450Y013581D02*
X029870Y013581D01*
X030890Y011448D02*
X016458Y011448D01*
X016421Y011485D02*
X016251Y011555D01*
X016068Y011555D01*
X015899Y011485D01*
X015770Y011356D01*
X015700Y011186D01*
X015700Y010363D01*
X015770Y010194D01*
X015899Y010065D01*
X016068Y009995D01*
X016251Y009995D01*
X016421Y010065D01*
X016550Y010194D01*
X016620Y010363D01*
X016620Y011186D01*
X016550Y011356D01*
X016421Y011485D01*
X016561Y011330D02*
X030890Y011330D01*
X030890Y011211D02*
X016610Y011211D01*
X016620Y011093D02*
X030890Y011093D01*
X030890Y010974D02*
X016620Y010974D01*
X016620Y010856D02*
X030890Y010856D01*
X030890Y010737D02*
X016620Y010737D01*
X016620Y010619D02*
X030890Y010619D01*
X030890Y010500D02*
X016620Y010500D01*
X016620Y010382D02*
X030890Y010382D01*
X030890Y010263D02*
X016578Y010263D01*
X016500Y010145D02*
X030890Y010145D01*
X030890Y010026D02*
X016326Y010026D01*
X015994Y010026D02*
X015375Y010026D01*
X015344Y010010D02*
X015412Y010044D01*
X015473Y010089D01*
X015526Y010142D01*
X015571Y010203D01*
X015605Y010271D01*
X015628Y010343D01*
X015640Y010417D01*
X015640Y010735D01*
X015200Y010735D01*
X015200Y010815D01*
X015120Y010815D01*
X015120Y010735D01*
X015200Y010735D01*
X015200Y009975D01*
X015272Y009987D01*
X015344Y010010D01*
X015200Y010026D02*
X015120Y010026D01*
X015120Y009975D02*
X015120Y010735D01*
X014680Y010735D01*
X014680Y010417D01*
X014692Y010343D01*
X014715Y010271D01*
X014749Y010203D01*
X014794Y010142D01*
X014847Y010089D01*
X014908Y010044D01*
X014976Y010010D01*
X015048Y009987D01*
X015120Y009975D01*
X015120Y010145D02*
X015200Y010145D01*
X015200Y010263D02*
X015120Y010263D01*
X015120Y010382D02*
X015200Y010382D01*
X015200Y010500D02*
X015120Y010500D01*
X015120Y010619D02*
X015200Y010619D01*
X015200Y010737D02*
X015700Y010737D01*
X015700Y010619D02*
X015640Y010619D01*
X015640Y010500D02*
X015700Y010500D01*
X015700Y010382D02*
X015634Y010382D01*
X015601Y010263D02*
X015742Y010263D01*
X015820Y010145D02*
X015528Y010145D01*
X014945Y010026D02*
X014379Y010026D01*
X014528Y010145D02*
X014792Y010145D01*
X014719Y010263D02*
X014600Y010263D01*
X014640Y010382D02*
X014686Y010382D01*
X014680Y010500D02*
X014640Y010500D01*
X014640Y010619D02*
X014680Y010619D01*
X014640Y010737D02*
X015120Y010737D01*
X015120Y010856D02*
X015200Y010856D01*
X015200Y010974D02*
X015120Y010974D01*
X015120Y011093D02*
X015200Y011093D01*
X015200Y011211D02*
X015120Y011211D01*
X015120Y011330D02*
X015200Y011330D01*
X015200Y011448D02*
X015120Y011448D01*
X014834Y011448D02*
X014486Y011448D01*
X014582Y011330D02*
X014741Y011330D01*
X014693Y011211D02*
X014631Y011211D01*
X014640Y011093D02*
X014680Y011093D01*
X014680Y010974D02*
X014640Y010974D01*
X014640Y010856D02*
X014680Y010856D01*
X015486Y011448D02*
X015862Y011448D01*
X015759Y011330D02*
X015579Y011330D01*
X015627Y011211D02*
X015710Y011211D01*
X015700Y011093D02*
X015640Y011093D01*
X015640Y010974D02*
X015700Y010974D01*
X015700Y010856D02*
X015640Y010856D01*
X013941Y010026D02*
X002459Y010026D01*
X002473Y010016D02*
X002412Y010061D01*
X002344Y010095D01*
X002272Y010118D01*
X002200Y010130D01*
X002200Y009690D01*
X002640Y009690D01*
X002628Y009762D01*
X002605Y009834D01*
X002571Y009902D01*
X002526Y009963D01*
X002473Y010016D01*
X002566Y009908D02*
X030890Y009908D01*
X030890Y009789D02*
X002620Y009789D01*
X002640Y009610D02*
X002200Y009610D01*
X002200Y009690D01*
X002120Y009690D01*
X002120Y010130D01*
X002048Y010118D01*
X001976Y010095D01*
X001908Y010061D01*
X001847Y010016D01*
X001794Y009963D01*
X001749Y009902D01*
X001715Y009834D01*
X001692Y009762D01*
X001680Y009690D01*
X002120Y009690D01*
X002120Y009610D01*
X002200Y009610D01*
X002200Y009170D01*
X002272Y009182D01*
X002344Y009205D01*
X002412Y009239D01*
X002473Y009284D01*
X002526Y009337D01*
X002571Y009398D01*
X002605Y009466D01*
X002628Y009538D01*
X002640Y009610D01*
X002630Y009552D02*
X030890Y009552D01*
X030890Y009434D02*
X002588Y009434D01*
X002504Y009315D02*
X030890Y009315D01*
X030890Y009197D02*
X002318Y009197D01*
X002255Y009130D02*
X002432Y009057D01*
X002567Y008922D01*
X002640Y008745D01*
X002640Y008555D01*
X002567Y008378D01*
X002432Y008243D01*
X002255Y008170D01*
X002065Y008170D01*
X001888Y008243D01*
X001753Y008378D01*
X001680Y008555D01*
X001680Y008745D01*
X001753Y008922D01*
X001888Y009057D01*
X002065Y009130D01*
X002255Y009130D01*
X002200Y009197D02*
X002120Y009197D01*
X002120Y009170D02*
X002120Y009610D01*
X001680Y009610D01*
X001692Y009538D01*
X001715Y009466D01*
X001749Y009398D01*
X001794Y009337D01*
X001847Y009284D01*
X001908Y009239D01*
X001976Y009205D01*
X002048Y009182D01*
X002120Y009170D01*
X002002Y009197D02*
X001050Y009197D01*
X001050Y009315D02*
X001816Y009315D01*
X001732Y009434D02*
X001050Y009434D01*
X001050Y009552D02*
X001690Y009552D01*
X001700Y009789D02*
X001050Y009789D01*
X001050Y009671D02*
X002120Y009671D01*
X002200Y009671D02*
X030890Y009671D01*
X030890Y009078D02*
X025660Y009078D01*
X025660Y008960D02*
X030890Y008960D01*
X030890Y008841D02*
X025660Y008841D01*
X025660Y008723D02*
X030890Y008723D01*
X030890Y008604D02*
X030145Y008604D01*
X030144Y008604D02*
X030114Y008634D01*
X030078Y008655D01*
X030037Y008666D01*
X029718Y008666D01*
X029718Y008208D01*
X030176Y008208D01*
X030176Y008527D01*
X030165Y008568D01*
X030144Y008604D01*
X030176Y008486D02*
X030890Y008486D01*
X030890Y008367D02*
X030176Y008367D01*
X030176Y008249D02*
X030890Y008249D01*
X030890Y008130D02*
X029718Y008130D01*
X029718Y008092D02*
X029718Y008208D01*
X029602Y008208D01*
X029602Y008092D01*
X029718Y008092D01*
X030176Y008092D01*
X030176Y007773D01*
X030165Y007732D01*
X030144Y007696D01*
X030114Y007666D01*
X030078Y007645D01*
X030037Y007634D01*
X029718Y007634D01*
X029718Y008092D01*
X029718Y008012D02*
X029602Y008012D01*
X029602Y008092D02*
X029602Y007634D01*
X029283Y007634D01*
X029242Y007645D01*
X029206Y007666D01*
X029176Y007696D01*
X029155Y007732D01*
X029144Y007773D01*
X029144Y008092D01*
X029602Y008092D01*
X029602Y008130D02*
X028176Y008130D01*
X028176Y008012D02*
X029144Y008012D01*
X029144Y007893D02*
X028176Y007893D01*
X028176Y007775D02*
X029144Y007775D01*
X029222Y007656D02*
X028105Y007656D01*
X028082Y007634D02*
X028176Y007728D01*
X028176Y008572D01*
X028082Y008666D01*
X027238Y008666D01*
X027144Y008572D01*
X027144Y007728D01*
X027238Y007634D01*
X028082Y007634D01*
X028176Y008249D02*
X029144Y008249D01*
X029144Y008208D02*
X029602Y008208D01*
X029602Y008666D01*
X029283Y008666D01*
X029242Y008655D01*
X029206Y008634D01*
X029176Y008604D01*
X029175Y008604D02*
X028145Y008604D01*
X028176Y008486D02*
X029144Y008486D01*
X029144Y008527D02*
X029144Y008208D01*
X029144Y008367D02*
X028176Y008367D01*
X029144Y008527D02*
X029155Y008568D01*
X029176Y008604D01*
X029602Y008604D02*
X029718Y008604D01*
X029718Y008486D02*
X029602Y008486D01*
X029602Y008367D02*
X029718Y008367D01*
X029718Y008249D02*
X029602Y008249D01*
X029602Y007893D02*
X029718Y007893D01*
X029718Y007775D02*
X029602Y007775D01*
X029602Y007656D02*
X029718Y007656D01*
X030098Y007656D02*
X030890Y007656D01*
X030890Y007538D02*
X025660Y007538D01*
X025660Y007656D02*
X027215Y007656D01*
X027144Y007775D02*
X025660Y007775D01*
X025660Y007893D02*
X027144Y007893D01*
X027144Y008012D02*
X025660Y008012D01*
X025660Y008130D02*
X027144Y008130D01*
X027144Y008249D02*
X025660Y008249D01*
X025660Y008367D02*
X027144Y008367D01*
X027144Y008486D02*
X025660Y008486D01*
X025660Y008604D02*
X027175Y008604D01*
X025660Y007419D02*
X030890Y007419D01*
X030890Y007301D02*
X025660Y007301D01*
X025660Y007182D02*
X030890Y007182D01*
X030890Y007064D02*
X025660Y007064D01*
X025660Y006945D02*
X030890Y006945D01*
X030890Y006827D02*
X025660Y006827D01*
X025660Y006708D02*
X030890Y006708D01*
X030890Y007775D02*
X030176Y007775D01*
X030176Y007893D02*
X030890Y007893D01*
X030890Y008012D02*
X030176Y008012D01*
X025705Y014885D02*
X011208Y014885D01*
X011090Y015003D02*
X025792Y015003D01*
X013834Y011448D02*
X001050Y011448D01*
X001050Y011330D02*
X013738Y011330D01*
X013689Y011211D02*
X001050Y011211D01*
X001050Y011093D02*
X002026Y011093D01*
X002068Y011110D02*
X001899Y011040D01*
X001770Y010911D01*
X001700Y010741D01*
X001700Y010558D01*
X001770Y010389D01*
X001899Y010260D01*
X002068Y010190D01*
X002251Y010190D01*
X002421Y010260D01*
X002550Y010389D01*
X002620Y010558D01*
X002620Y010741D01*
X002550Y010911D01*
X002421Y011040D01*
X002251Y011110D01*
X002068Y011110D01*
X002294Y011093D02*
X013680Y011093D01*
X013680Y010974D02*
X002487Y010974D01*
X002573Y010856D02*
X013680Y010856D01*
X013680Y010737D02*
X002620Y010737D01*
X002620Y010619D02*
X013680Y010619D01*
X013680Y010500D02*
X002596Y010500D01*
X002542Y010382D02*
X013680Y010382D01*
X013720Y010263D02*
X002424Y010263D01*
X002200Y010026D02*
X002120Y010026D01*
X002120Y009908D02*
X002200Y009908D01*
X002200Y009789D02*
X002120Y009789D01*
X002120Y009552D02*
X002200Y009552D01*
X002200Y009434D02*
X002120Y009434D01*
X002120Y009315D02*
X002200Y009315D01*
X002381Y009078D02*
X010660Y009078D01*
X010660Y008960D02*
X002529Y008960D01*
X002600Y008841D02*
X010660Y008841D01*
X010660Y008723D02*
X002640Y008723D01*
X002640Y008604D02*
X010660Y008604D01*
X010660Y008486D02*
X002611Y008486D01*
X002556Y008367D02*
X010660Y008367D01*
X010660Y008249D02*
X002437Y008249D01*
X001883Y008249D02*
X001050Y008249D01*
X001050Y008367D02*
X001764Y008367D01*
X001709Y008486D02*
X001050Y008486D01*
X001050Y008604D02*
X001680Y008604D01*
X001680Y008723D02*
X001050Y008723D01*
X001050Y008841D02*
X001720Y008841D01*
X001791Y008960D02*
X001050Y008960D01*
X001050Y009078D02*
X001939Y009078D01*
X001754Y009908D02*
X001050Y009908D01*
X001050Y010026D02*
X001861Y010026D01*
X001896Y010263D02*
X001050Y010263D01*
X001050Y010145D02*
X013792Y010145D01*
X010660Y008130D02*
X001050Y008130D01*
X001050Y008012D02*
X010660Y008012D01*
X010660Y007893D02*
X001050Y007893D01*
X001050Y007775D02*
X010660Y007775D01*
X010660Y007656D02*
X001050Y007656D01*
X001050Y010382D02*
X001778Y010382D01*
X001724Y010500D02*
X001050Y010500D01*
X001050Y010619D02*
X001700Y010619D01*
X001700Y010737D02*
X001050Y010737D01*
X001050Y010856D02*
X001747Y010856D01*
X001833Y010974D02*
X001050Y010974D01*
X003860Y013937D02*
X011091Y013937D01*
X010972Y014055D02*
X009771Y014055D01*
X009349Y014055D02*
X003860Y014055D01*
X003860Y014174D02*
X009245Y014174D01*
X009202Y014292D02*
X003860Y014292D01*
X003860Y014411D02*
X009202Y014411D01*
X009247Y014529D02*
X003860Y014529D01*
X003860Y014648D02*
X009351Y014648D01*
X008867Y013700D02*
X010453Y013700D01*
X010660Y013400D02*
X008660Y013400D01*
X008873Y013107D02*
X010447Y013107D01*
X010541Y012989D02*
X008179Y012989D01*
X008346Y012870D02*
X010374Y012870D01*
X010660Y012650D02*
X008060Y012650D01*
X003160Y015150D02*
X002160Y014150D01*
X002598Y016425D02*
X002652Y016425D01*
M02*
