G75*
%MOIN*%
%OFA0B0*%
%FSLAX24Y24*%
%IPPOS*%
%LPD*%
%AMOC8*
5,1,8,0,0,1.08239X$1,22.5*
%
%ADD10C,0.0500*%
%ADD11R,0.0433X0.0394*%
%ADD12R,0.0394X0.0433*%
%ADD13C,0.0118*%
%ADD14R,0.0551X0.0394*%
%ADD15R,0.0394X0.0551*%
%ADD16R,0.0370X0.0300*%
%ADD17R,0.0300X0.0370*%
%ADD18R,0.2200X0.0830*%
%ADD19R,0.0430X0.0590*%
%ADD20R,0.0790X0.0430*%
%ADD21R,0.0790X0.0590*%
%ADD22R,0.0430X0.0430*%
%ADD23R,0.0630X0.0315*%
%ADD24R,0.0315X0.0630*%
%ADD25R,0.0492X0.0197*%
%ADD26R,0.0197X0.0492*%
%ADD27R,0.0315X0.0945*%
D10*
X007760Y017950D03*
D11*
X006395Y012750D03*
X005725Y012750D03*
X013825Y012150D03*
X014495Y012150D03*
X019325Y008150D03*
X019995Y008150D03*
X028325Y010200D03*
X028995Y010200D03*
D12*
X014760Y013315D03*
X014760Y013985D03*
X014535Y015815D03*
X014535Y016485D03*
X005660Y016815D03*
X005660Y017485D03*
D13*
X011897Y010943D02*
X012173Y010943D01*
X012173Y010667D01*
X011897Y010667D01*
X011897Y010943D01*
X011897Y010784D02*
X012173Y010784D01*
X012173Y010901D02*
X011897Y010901D01*
X011897Y011633D02*
X012173Y011633D01*
X012173Y011357D01*
X011897Y011357D01*
X011897Y011633D01*
X011897Y011474D02*
X012173Y011474D01*
X012173Y011591D02*
X011897Y011591D01*
D14*
X014218Y019776D03*
X013352Y020150D03*
X014218Y020524D03*
D15*
X024286Y021083D03*
X025034Y021083D03*
X024660Y020217D03*
X027286Y021083D03*
X028034Y021083D03*
X027660Y020217D03*
X029486Y021083D03*
X030234Y021083D03*
X029860Y020217D03*
D16*
X022160Y013980D03*
X022160Y013320D03*
X015160Y019820D03*
X015160Y020480D03*
D17*
X012590Y020350D03*
X011930Y020350D03*
X009365Y018650D03*
X008705Y018650D03*
X005490Y013550D03*
X004830Y013550D03*
X010330Y010850D03*
X010990Y010850D03*
X022330Y015150D03*
X022990Y015150D03*
X022990Y018150D03*
X022330Y018150D03*
X022330Y019650D03*
X022990Y019650D03*
X022490Y020650D03*
X021830Y020650D03*
X025830Y021650D03*
X026490Y021650D03*
X028830Y022150D03*
X029490Y022150D03*
D18*
X008730Y015150D03*
X004990Y015150D03*
D19*
X025980Y013300D03*
X025980Y012000D03*
D20*
X026160Y012650D03*
D21*
X026720Y013300D03*
X026720Y012000D03*
D22*
X026910Y012650D03*
D23*
X021258Y014052D03*
X021258Y014524D03*
X021258Y014996D03*
X021258Y015469D03*
X021258Y015941D03*
X021258Y016414D03*
X021258Y016886D03*
X021258Y017359D03*
X021258Y017831D03*
X021258Y018304D03*
X021258Y018776D03*
X021258Y019248D03*
X016062Y019248D03*
X016062Y018776D03*
X016062Y018304D03*
X016062Y017831D03*
X016062Y017359D03*
X016062Y016886D03*
X016062Y016414D03*
X016062Y015941D03*
X016062Y015469D03*
X016062Y014996D03*
X016062Y014524D03*
X016062Y014052D03*
D24*
X017037Y012949D03*
X017440Y012949D03*
X017912Y012949D03*
X018384Y012949D03*
X018936Y012949D03*
X019408Y012949D03*
X019880Y012949D03*
X020283Y012949D03*
X020550Y020351D03*
X019920Y020351D03*
X019290Y020351D03*
D25*
X013350Y018252D03*
X013350Y017937D03*
X013350Y017622D03*
X013350Y017307D03*
X013350Y016993D03*
X013350Y016678D03*
X013350Y016363D03*
X013350Y016048D03*
X009970Y016048D03*
X009970Y016363D03*
X009970Y016678D03*
X009970Y016993D03*
X009970Y017307D03*
X009970Y017622D03*
X009970Y017937D03*
X009970Y018252D03*
D26*
X010558Y018840D03*
X010873Y018840D03*
X011188Y018840D03*
X011503Y018840D03*
X011817Y018840D03*
X012132Y018840D03*
X012447Y018840D03*
X012762Y018840D03*
X012762Y015460D03*
X012447Y015460D03*
X012132Y015460D03*
X011817Y015460D03*
X011503Y015460D03*
X011188Y015460D03*
X010873Y015460D03*
X010558Y015460D03*
D27*
X023860Y011777D03*
X023860Y010123D03*
M02*
