%
M48
M72
T01C0.0236
T02C0.0320
T03C0.0325
T04C0.0354
T05C0.0400
T06C0.0472
T07C0.1000
%
T01
X3660Y8150
X6160Y8150
X8660Y8050
X9060Y10850
X10160Y12150
X10660Y12650
X10660Y13400
X11460Y13150
X12010Y14400
X11960Y16150
X10910Y16213
X11160Y17150
X9860Y18850
X10660Y19650
X12260Y19550
X13785Y19275
X13960Y18650
X14960Y18650
X17160Y17650
X19660Y18650
X18160Y20150
X19460Y22950
X22460Y22750
X23660Y20450
X26160Y18650
X26160Y17150
X26960Y20250
X28960Y20250
X30160Y23150
X21910Y16900
X18660Y15650
X17160Y14150
X15260Y12350
X19160Y10150
X21660Y10150
X21660Y12150
X23660Y13650
X29660Y11650
X30160Y9650
X26160Y7150
X30160Y15650
X15160Y21525
X14410Y21088
X13360Y21250
X13160Y22650
X11260Y21850
X9660Y22650
X8460Y20350
X7660Y18950
X6660Y17650
X5660Y18400
X4160Y17150
X3160Y15150
X4360Y13050
X6860Y15050
X8660Y13400
X8060Y12650
X9560Y14350
X4260Y20250
X2160Y22650
T02
X23660Y16650
X23660Y15650
X24160Y17650
X24160Y18650
T03
X7160Y20950
X6160Y20950
X6160Y21950
X7160Y21950
X5160Y21950
X5160Y20950
T04
X9160Y21150
X12160Y21150
T05
X2160Y20150
X2160Y19150
X2160Y18150
X2160Y17150
X2160Y16150
X2160Y15150
X2160Y14150
X2160Y13150
X2160Y12150
X2160Y10650
X2160Y9650
X2160Y8650
X11660Y6650
X13660Y6650
X14160Y10775
X15160Y10775
X16160Y10775
T06
X17660Y8150
X15160Y7825
X13660Y4650
X15160Y4475
X17660Y1150
X19660Y1150
X21660Y8150
X27660Y8150
X29660Y8150
X30160Y13150
X28160Y13150
X26160Y14650
X28160Y19150
X30160Y19150
X26160Y20650
X7660Y4650
X29660Y1150
T07
X1925Y1650
X4925Y1650
X12390Y1650
X15395Y1650
M30
