%
M48
M72
T01C0.02362
T02C0.03200
T03C0.03250
T04C0.03543
T05C0.04000
T06C0.04724
T07C0.07874
%
T01
X142300Y101800
X176300Y113800
X177300Y104300
X177300Y91300
X186800Y78300
X161300Y72800
X154300Y72800
X192300Y106800
X192300Y121800
X222300Y106800
X222300Y91800
X255300Y68800
X252300Y46800
X224300Y22300
X236300Y19800
X244300Y18300
X207300Y41800
X162300Y26800
X162300Y16800
X147300Y16800
X147300Y26800
X242300Y126800
X251800Y131800
X277300Y136800
X287300Y151800
X262300Y151800
X253800Y166800
X261800Y169800
X270300Y179300
X287300Y181800
X244800Y178300
X239800Y182300
X234800Y175800
X229800Y161300
X223800Y150300
X195300Y158300
X172300Y175800
X176800Y178800
X182800Y177800
X169300Y191800
X184800Y196300
X184300Y203800
X185300Y210800
X184300Y220300
X174800Y224800
X150300Y225300
X141300Y224300
X125300Y213300
X117300Y213300
X110300Y213300
X100300Y198300
X90800Y184300
X97800Y170800
X92300Y151800
X72300Y151800
X73300Y168300
X47300Y151800
X32300Y166800
X47300Y206800
X58300Y228300
X73300Y233300
X125300Y189800
X140800Y178800
X131800Y173300
X136300Y164324
X133800Y156300
X124800Y146300
X129300Y141800
X148800Y134300
X152800Y150300
X156800Y160300
X154800Y170800
X148800Y171800
X155300Y178800
X140300Y207800
X202300Y226800
X211800Y210800
X212300Y196800
X208300Y191800
X235300Y192300
X240800Y208300
T02
X152300Y111800
X162300Y101800
X152300Y91800
T03
X261300Y206800
X271300Y206800
X281300Y206800
X281300Y216800
X271300Y216800
X261300Y216800
T04
X15457Y17300
X35143Y17300
T05
X92800Y11800
X117300Y11800
T06
X109300Y25800
X84300Y42800
X84300Y62800
X109300Y85800
X106800Y97050
X106800Y130550
X84300Y162800
X71800Y187300
X74300Y206800
X71300Y225800
X14300Y206800
X11300Y225800
X11800Y187300
X14300Y162800
X14300Y142800
X14300Y82800
X14300Y42800
T07
X53800Y18300
X79300Y18300
M30
