G75*
%MOIN*%
%OFA0B0*%
%FSLAX25Y25*%
%IPPOS*%
%LPD*%
%AMOC8*
5,1,8,0,0,1.08239X$1,22.5*
%
%ADD10C,0.00000*%
%ADD11C,0.05000*%
%ADD12R,0.03937X0.05906*%
%ADD13R,0.03150X0.04724*%
%ADD14R,0.04724X0.03150*%
%ADD15R,0.04331X0.03937*%
%ADD16R,0.03937X0.04331*%
%ADD17C,0.07400*%
%ADD18R,0.03543X0.03740*%
%ADD19C,0.13000*%
%ADD20R,0.05512X0.03937*%
%ADD21R,0.03000X0.03700*%
%ADD22R,0.03700X0.03000*%
%ADD23R,0.02500X0.05000*%
%ADD24OC8,0.05600*%
%ADD25R,0.07124X0.07124*%
%ADD26R,0.08300X0.22000*%
%ADD27OC8,0.06600*%
%ADD28R,0.03150X0.06299*%
%ADD29R,0.06299X0.03150*%
%ADD30R,0.04724X0.02362*%
%ADD31R,0.02756X0.04724*%
%ADD32R,0.04724X0.02756*%
%ADD33R,0.07480X0.09449*%
%ADD34R,0.04724X0.04724*%
%ADD35R,0.04921X0.01969*%
%ADD36R,0.01969X0.04921*%
%ADD37R,0.05000X0.20000*%
%ADD38R,0.08000X0.02600*%
%ADD39C,0.01600*%
%ADD40C,0.04362*%
%ADD41C,0.02400*%
%ADD42C,0.01200*%
%ADD43C,0.03200*%
%ADD44R,0.04362X0.04362*%
D10*
X0002300Y0001800D02*
X0002300Y0237761D01*
X0296001Y0237761D01*
X0296001Y0001800D01*
X0002300Y0001800D01*
D11*
X0233300Y0226800D03*
D12*
X0122548Y0232800D03*
X0091052Y0232800D03*
D13*
X0237757Y0109300D03*
X0244843Y0109300D03*
X0243257Y0096300D03*
X0250343Y0096300D03*
X0254257Y0120300D03*
X0261343Y0120300D03*
D14*
X0267300Y0118343D03*
X0267300Y0111257D03*
X0286800Y0118757D03*
X0286800Y0125843D03*
X0236800Y0091343D03*
X0236800Y0084257D03*
X0248800Y0083843D03*
X0248800Y0076757D03*
X0178300Y0120257D03*
X0178300Y0127343D03*
D15*
X0223954Y0137300D03*
X0230646Y0137300D03*
X0232146Y0118800D03*
X0225454Y0118800D03*
X0204146Y0069800D03*
X0197454Y0069800D03*
X0264454Y0187300D03*
X0271146Y0187300D03*
X0117646Y0195800D03*
X0110954Y0195800D03*
X0095146Y0205300D03*
X0088454Y0205300D03*
X0088454Y0213800D03*
X0095146Y0213800D03*
D16*
X0102300Y0212146D03*
X0102300Y0205454D03*
X0209800Y0185646D03*
X0209800Y0178954D03*
X0143800Y0070646D03*
X0143800Y0063954D03*
D17*
X0109300Y0085800D03*
X0109300Y0025800D03*
X0117300Y0011800D03*
X0092800Y0011800D03*
X0035143Y0017300D03*
X0015457Y0017300D03*
X0011800Y0187300D03*
X0014300Y0206800D03*
X0011300Y0225800D03*
X0071300Y0225800D03*
X0074300Y0206800D03*
X0071800Y0187300D03*
D18*
X0221099Y0216800D03*
X0233501Y0216800D03*
D19*
X0079300Y0018300D03*
X0053800Y0018300D03*
D20*
X0111631Y0161060D03*
X0111631Y0168540D03*
X0102969Y0164800D03*
X0104131Y0175560D03*
X0104131Y0183040D03*
X0095469Y0179300D03*
X0091131Y0190060D03*
X0091131Y0197540D03*
X0082469Y0193800D03*
D21*
X0110500Y0184300D03*
X0116500Y0178800D03*
X0117100Y0184300D03*
X0123100Y0178800D03*
X0124100Y0167300D03*
X0117500Y0167300D03*
X0115500Y0155800D03*
X0122100Y0155800D03*
X0220500Y0223800D03*
X0227100Y0223800D03*
X0243000Y0114800D03*
X0249600Y0114800D03*
X0254000Y0113800D03*
X0260600Y0113800D03*
X0250600Y0101800D03*
X0244000Y0101800D03*
X0243500Y0090800D03*
X0250100Y0090800D03*
X0286000Y0112800D03*
X0292600Y0112800D03*
D22*
X0276300Y0115500D03*
X0276300Y0122100D03*
X0242800Y0084100D03*
X0242800Y0077500D03*
X0224300Y0125000D03*
X0224300Y0131600D03*
X0172800Y0132600D03*
X0172800Y0126000D03*
X0128800Y0160500D03*
X0128800Y0167100D03*
X0110300Y0156100D03*
X0110300Y0149500D03*
D23*
X0160100Y0175800D03*
X0163300Y0175800D03*
X0166500Y0175800D03*
D24*
X0152300Y0111800D03*
X0162300Y0101800D03*
X0152300Y0091800D03*
D25*
X0106800Y0097050D03*
X0106800Y0130550D03*
X0084300Y0162800D03*
X0014300Y0162800D03*
X0014300Y0142800D03*
X0014300Y0082800D03*
X0014300Y0042800D03*
X0084300Y0042800D03*
X0084300Y0062800D03*
D26*
X0209300Y0113100D03*
X0209300Y0150500D03*
D27*
X0261300Y0206800D03*
X0271300Y0206800D03*
X0281300Y0206800D03*
X0281300Y0216800D03*
X0271300Y0216800D03*
X0261300Y0216800D03*
D28*
X0253284Y0060784D03*
X0248560Y0060784D03*
X0243835Y0060784D03*
X0239111Y0060784D03*
X0234387Y0060784D03*
X0229662Y0060784D03*
X0224938Y0060784D03*
X0220213Y0060784D03*
X0215489Y0060784D03*
X0210765Y0060784D03*
X0206040Y0060784D03*
X0201316Y0060784D03*
X0201316Y0008816D03*
X0206040Y0008816D03*
X0210765Y0008816D03*
X0215489Y0008816D03*
X0220213Y0008816D03*
X0224938Y0008816D03*
X0229662Y0008816D03*
X0234387Y0008816D03*
X0239111Y0008816D03*
X0243835Y0008816D03*
X0248560Y0008816D03*
X0253284Y0008816D03*
D29*
X0264308Y0015902D03*
X0264308Y0022202D03*
X0264308Y0028501D03*
X0190292Y0027320D03*
X0190292Y0032044D03*
X0190292Y0037556D03*
X0190292Y0042280D03*
X0190292Y0047005D03*
X0190292Y0051029D03*
X0190292Y0022595D03*
X0190292Y0018571D03*
D30*
X0162824Y0124300D03*
X0162824Y0129300D03*
X0162824Y0134300D03*
X0162824Y0139300D03*
X0162824Y0144300D03*
X0162824Y0149300D03*
X0162824Y0154300D03*
X0162824Y0159300D03*
X0140776Y0159300D03*
X0140776Y0154300D03*
X0140776Y0149300D03*
X0140776Y0144300D03*
X0140776Y0139300D03*
X0140776Y0134300D03*
X0140776Y0129300D03*
X0140776Y0124300D03*
D31*
X0141040Y0184769D03*
X0145765Y0184769D03*
X0150489Y0184769D03*
X0155213Y0184769D03*
X0159938Y0184769D03*
X0164662Y0184769D03*
X0169387Y0184769D03*
X0174111Y0184769D03*
X0178835Y0184769D03*
X0183560Y0184769D03*
X0183560Y0230831D03*
X0178835Y0230831D03*
X0174111Y0230831D03*
X0169387Y0230831D03*
X0164662Y0230831D03*
X0159938Y0230831D03*
X0155213Y0230831D03*
X0150489Y0230831D03*
X0145765Y0230831D03*
X0141040Y0230831D03*
D32*
X0133757Y0224335D03*
X0133757Y0219611D03*
X0133757Y0214887D03*
X0133757Y0210162D03*
X0133757Y0205438D03*
X0133757Y0200713D03*
X0133757Y0195989D03*
X0133757Y0191265D03*
X0190843Y0191265D03*
X0190843Y0195989D03*
X0190843Y0200713D03*
X0190843Y0205438D03*
X0190843Y0210162D03*
X0190843Y0214887D03*
X0190843Y0219611D03*
X0190843Y0224335D03*
D33*
X0176473Y0216265D03*
X0162300Y0216265D03*
X0148127Y0216265D03*
X0148127Y0199335D03*
X0162300Y0199335D03*
X0176473Y0199335D03*
D34*
X0190843Y0184769D03*
X0133757Y0184769D03*
X0133757Y0230831D03*
X0190843Y0230831D03*
D35*
X0220400Y0195324D03*
X0220400Y0192174D03*
X0220400Y0189024D03*
X0220400Y0185875D03*
X0220400Y0182725D03*
X0220400Y0179576D03*
X0220400Y0176426D03*
X0220400Y0173276D03*
X0254200Y0173276D03*
X0254200Y0176426D03*
X0254200Y0179576D03*
X0254200Y0182725D03*
X0254200Y0185875D03*
X0254200Y0189024D03*
X0254200Y0192174D03*
X0254200Y0195324D03*
D36*
X0248324Y0201200D03*
X0245174Y0201200D03*
X0242024Y0201200D03*
X0238875Y0201200D03*
X0235725Y0201200D03*
X0232576Y0201200D03*
X0229426Y0201200D03*
X0226276Y0201200D03*
X0226276Y0167400D03*
X0229426Y0167400D03*
X0232576Y0167400D03*
X0235725Y0167400D03*
X0238875Y0167400D03*
X0242024Y0167400D03*
X0245174Y0167400D03*
X0248324Y0167400D03*
D37*
X0171300Y0057050D03*
X0161300Y0057050D03*
X0151300Y0057050D03*
D38*
X0263200Y0072800D03*
X0263200Y0077800D03*
X0263200Y0082800D03*
X0263200Y0087800D03*
X0263200Y0092800D03*
X0263200Y0097800D03*
X0263200Y0102800D03*
X0287400Y0102800D03*
X0287400Y0097800D03*
X0287400Y0092800D03*
X0287400Y0087800D03*
X0287400Y0082800D03*
X0287400Y0077800D03*
X0287400Y0072800D03*
D39*
X0281300Y0072800D01*
X0281300Y0095300D01*
X0278300Y0098800D01*
X0278300Y0113500D01*
X0276300Y0115500D01*
X0280150Y0115610D02*
X0280674Y0115086D01*
X0281100Y0114057D01*
X0281100Y0108560D01*
X0281214Y0108674D01*
X0282243Y0109100D01*
X0283522Y0109100D01*
X0282500Y0110122D01*
X0282500Y0115478D01*
X0282906Y0115885D01*
X0282438Y0116353D01*
X0282438Y0121160D01*
X0283609Y0122331D01*
X0289991Y0122331D01*
X0290208Y0122114D01*
X0290238Y0122811D01*
X0289857Y0122591D01*
X0289399Y0122469D01*
X0286800Y0122469D01*
X0286800Y0125843D01*
X0286800Y0125843D01*
X0286800Y0122468D01*
X0284201Y0122469D01*
X0283743Y0122591D01*
X0283333Y0122828D01*
X0282997Y0123163D01*
X0282760Y0123574D01*
X0282638Y0124032D01*
X0282638Y0125843D01*
X0286800Y0125843D01*
X0286800Y0125843D01*
X0282638Y0125843D01*
X0282638Y0127655D01*
X0282760Y0128113D01*
X0282997Y0128523D01*
X0283333Y0128858D01*
X0283743Y0129095D01*
X0284201Y0129218D01*
X0286800Y0129218D01*
X0286800Y0125843D01*
X0286800Y0129218D01*
X0289399Y0129218D01*
X0289857Y0129095D01*
X0290267Y0128858D01*
X0290495Y0128631D01*
X0290748Y0134392D01*
X0265714Y0159426D01*
X0264926Y0160214D01*
X0264500Y0161243D01*
X0264500Y0165619D01*
X0258790Y0165619D01*
X0257981Y0166428D01*
X0257981Y0165968D01*
X0257345Y0164432D01*
X0256168Y0163255D01*
X0254632Y0162619D01*
X0252968Y0162619D01*
X0251432Y0163255D01*
X0250942Y0163745D01*
X0250136Y0162939D01*
X0238970Y0162939D01*
X0250285Y0152059D01*
X0250311Y0152049D01*
X0250686Y0151674D01*
X0251067Y0151307D01*
X0251079Y0151281D01*
X0276760Y0125600D01*
X0278978Y0125600D01*
X0280150Y0124428D01*
X0280150Y0119772D01*
X0279178Y0118800D01*
X0280150Y0117828D01*
X0280150Y0115610D01*
X0280465Y0115294D02*
X0282500Y0115294D01*
X0282500Y0113696D02*
X0281100Y0113696D01*
X0281100Y0112097D02*
X0282500Y0112097D01*
X0282500Y0110499D02*
X0281100Y0110499D01*
X0281100Y0108900D02*
X0281761Y0108900D01*
X0282800Y0106300D02*
X0286800Y0106300D01*
X0287300Y0106800D01*
X0287300Y0112000D01*
X0286000Y0112800D01*
X0287000Y0118643D01*
X0286800Y0118757D01*
X0282438Y0118491D02*
X0279487Y0118491D01*
X0280150Y0116893D02*
X0282438Y0116893D01*
X0282438Y0120090D02*
X0280150Y0120090D01*
X0280150Y0121688D02*
X0282966Y0121688D01*
X0282926Y0123287D02*
X0280150Y0123287D01*
X0279693Y0124885D02*
X0282638Y0124885D01*
X0282638Y0126484D02*
X0275876Y0126484D01*
X0274277Y0128082D02*
X0282752Y0128082D01*
X0286800Y0128082D02*
X0286800Y0128082D01*
X0286800Y0126484D02*
X0286800Y0126484D01*
X0286800Y0125843D02*
X0286800Y0125843D01*
X0286800Y0124885D02*
X0286800Y0124885D01*
X0286800Y0123287D02*
X0286800Y0123287D01*
X0290541Y0129681D02*
X0272679Y0129681D01*
X0271080Y0131279D02*
X0290611Y0131279D01*
X0290682Y0132878D02*
X0269482Y0132878D01*
X0267883Y0134476D02*
X0290664Y0134476D01*
X0289065Y0136075D02*
X0266285Y0136075D01*
X0264686Y0137673D02*
X0287467Y0137673D01*
X0285868Y0139272D02*
X0263088Y0139272D01*
X0261489Y0140870D02*
X0284270Y0140870D01*
X0282671Y0142469D02*
X0259891Y0142469D01*
X0258292Y0144068D02*
X0281073Y0144068D01*
X0279474Y0145666D02*
X0256694Y0145666D01*
X0255095Y0147265D02*
X0277876Y0147265D01*
X0276277Y0148863D02*
X0253497Y0148863D01*
X0251898Y0150462D02*
X0274679Y0150462D01*
X0273080Y0152060D02*
X0250284Y0152060D01*
X0248622Y0153659D02*
X0271482Y0153659D01*
X0269883Y0155257D02*
X0246959Y0155257D01*
X0245297Y0156856D02*
X0268285Y0156856D01*
X0266686Y0158454D02*
X0243634Y0158454D01*
X0241972Y0160053D02*
X0265088Y0160053D01*
X0264500Y0161651D02*
X0240310Y0161651D01*
X0235725Y0162175D02*
X0235725Y0167400D01*
X0238875Y0167400D02*
X0238875Y0175725D01*
X0234800Y0175800D01*
X0232800Y0182300D02*
X0226276Y0173776D01*
X0226276Y0167400D01*
X0229426Y0167400D02*
X0229426Y0161674D01*
X0229800Y0161300D01*
X0233832Y0160108D02*
X0233345Y0158932D01*
X0232168Y0157755D01*
X0230632Y0157119D01*
X0230441Y0157119D01*
X0238174Y0149386D01*
X0238600Y0148357D01*
X0238600Y0127943D01*
X0238174Y0126914D01*
X0233886Y0122626D01*
X0233747Y0122568D01*
X0234549Y0122568D01*
X0235007Y0122446D01*
X0235417Y0122209D01*
X0235752Y0121874D01*
X0235989Y0121463D01*
X0236112Y0121005D01*
X0236112Y0118984D01*
X0232331Y0118984D01*
X0232331Y0118616D01*
X0236112Y0118616D01*
X0236112Y0116595D01*
X0235989Y0116137D01*
X0235752Y0115726D01*
X0235417Y0115391D01*
X0235007Y0115154D01*
X0234549Y0115031D01*
X0232331Y0115031D01*
X0232331Y0118616D01*
X0231962Y0118616D01*
X0231962Y0115031D01*
X0229744Y0115031D01*
X0229286Y0115154D01*
X0228959Y0115343D01*
X0228447Y0114831D01*
X0225445Y0114831D01*
X0221340Y0110726D01*
X0220310Y0110300D01*
X0215450Y0110300D01*
X0215450Y0101272D01*
X0214278Y0100100D01*
X0204322Y0100100D01*
X0203150Y0101272D01*
X0203150Y0124928D01*
X0204322Y0126100D01*
X0214278Y0126100D01*
X0215450Y0124928D01*
X0215450Y0115900D01*
X0218594Y0115900D01*
X0221288Y0118594D01*
X0221288Y0121597D01*
X0221406Y0121715D01*
X0220450Y0122672D01*
X0220450Y0127328D01*
X0221422Y0128300D01*
X0220450Y0129272D01*
X0220450Y0133841D01*
X0219788Y0134503D01*
X0219788Y0140097D01*
X0220462Y0140770D01*
X0220184Y0142457D01*
X0215450Y0147190D01*
X0215450Y0138672D01*
X0214278Y0137500D01*
X0204322Y0137500D01*
X0203150Y0138672D01*
X0203150Y0162328D01*
X0204322Y0163500D01*
X0212500Y0163500D01*
X0212500Y0175074D01*
X0212532Y0175150D01*
X0212463Y0175111D01*
X0212005Y0174988D01*
X0209984Y0174988D01*
X0209984Y0178769D01*
X0209616Y0178769D01*
X0209616Y0174988D01*
X0207595Y0174988D01*
X0207137Y0175111D01*
X0206726Y0175348D01*
X0206391Y0175683D01*
X0206154Y0176093D01*
X0206031Y0176551D01*
X0206031Y0178769D01*
X0209616Y0178769D01*
X0209616Y0179138D01*
X0206031Y0179138D01*
X0206031Y0181356D01*
X0206154Y0181814D01*
X0206343Y0182141D01*
X0205884Y0182600D01*
X0200000Y0182600D01*
X0200000Y0178163D01*
X0199513Y0176987D01*
X0198013Y0175487D01*
X0197113Y0174587D01*
X0195937Y0174100D01*
X0190625Y0174100D01*
X0186500Y0169975D01*
X0186500Y0109663D01*
X0186013Y0108487D01*
X0181481Y0103956D01*
X0181481Y0103468D01*
X0180845Y0101932D01*
X0179668Y0100755D01*
X0178797Y0100394D01*
X0180352Y0098839D01*
X0180900Y0097516D01*
X0180900Y0094891D01*
X0181481Y0094310D01*
X0181481Y0089600D01*
X0202357Y0089600D01*
X0203386Y0089174D01*
X0216460Y0076100D01*
X0237440Y0076100D01*
X0238950Y0077610D01*
X0238950Y0079828D01*
X0240121Y0081000D01*
X0239985Y0081079D01*
X0239857Y0081005D01*
X0239399Y0080882D01*
X0236800Y0080882D01*
X0236800Y0084257D01*
X0236800Y0084257D01*
X0236800Y0087631D01*
X0234201Y0087631D01*
X0233743Y0087509D01*
X0233333Y0087272D01*
X0232997Y0086937D01*
X0232760Y0086526D01*
X0232638Y0086068D01*
X0232638Y0084257D01*
X0236800Y0084257D01*
X0236800Y0087631D01*
X0239399Y0087631D01*
X0239857Y0087509D01*
X0240257Y0087278D01*
X0240713Y0087400D01*
X0240722Y0087400D01*
X0240172Y0087950D01*
X0239991Y0087769D01*
X0233609Y0087769D01*
X0232438Y0088940D01*
X0232438Y0093747D01*
X0233609Y0094918D01*
X0236000Y0094918D01*
X0236000Y0099357D01*
X0236426Y0100386D01*
X0237214Y0101174D01*
X0238000Y0101960D01*
X0238000Y0104938D01*
X0235353Y0104938D01*
X0234182Y0106109D01*
X0234182Y0112491D01*
X0235353Y0113662D01*
X0236507Y0113662D01*
X0239500Y0116084D01*
X0239500Y0117478D01*
X0240672Y0118650D01*
X0245328Y0118650D01*
X0246300Y0117678D01*
X0247272Y0118650D01*
X0250682Y0118650D01*
X0250682Y0123491D01*
X0251853Y0124662D01*
X0256660Y0124662D01*
X0257800Y0123522D01*
X0258940Y0124662D01*
X0263747Y0124662D01*
X0264918Y0123491D01*
X0264918Y0121718D01*
X0267300Y0121718D01*
X0267300Y0118343D01*
X0267300Y0114969D01*
X0269899Y0114969D01*
X0270357Y0115091D01*
X0270767Y0115328D01*
X0271103Y0115663D01*
X0271340Y0116074D01*
X0271462Y0116532D01*
X0271462Y0118343D01*
X0267300Y0118343D01*
X0267300Y0118343D01*
X0267300Y0114968D01*
X0264701Y0114969D01*
X0264572Y0115003D01*
X0264547Y0114831D01*
X0270491Y0114831D01*
X0271662Y0113660D01*
X0271662Y0108853D01*
X0270491Y0107682D01*
X0270378Y0107682D01*
X0271174Y0106886D01*
X0271600Y0105857D01*
X0271600Y0077243D01*
X0271174Y0076214D01*
X0270386Y0075426D01*
X0269357Y0075000D01*
X0268759Y0075000D01*
X0268877Y0074795D01*
X0269000Y0074337D01*
X0269000Y0072800D01*
X0263200Y0072800D01*
X0263200Y0072800D01*
X0269000Y0072800D01*
X0269000Y0071263D01*
X0268877Y0070805D01*
X0268640Y0070395D01*
X0268305Y0070060D01*
X0267895Y0069823D01*
X0267437Y0069700D01*
X0263200Y0069700D01*
X0263200Y0072800D01*
X0263200Y0072800D01*
X0263200Y0072800D01*
X0257400Y0072800D01*
X0257400Y0074337D01*
X0257438Y0074478D01*
X0253886Y0070926D01*
X0252857Y0070500D01*
X0244460Y0070500D01*
X0242386Y0068426D01*
X0241357Y0068000D01*
X0212743Y0068000D01*
X0211714Y0068426D01*
X0210926Y0069214D01*
X0208312Y0071828D01*
X0208312Y0070829D01*
X0208406Y0070620D01*
X0208558Y0070425D01*
X0208664Y0070045D01*
X0208826Y0069685D01*
X0208833Y0069438D01*
X0208900Y0069199D01*
X0208852Y0068807D01*
X0208938Y0065934D01*
X0250963Y0065934D01*
X0251228Y0065668D01*
X0251472Y0065734D01*
X0253284Y0065734D01*
X0253284Y0060784D01*
X0253284Y0060784D01*
X0253284Y0055835D01*
X0251472Y0055835D01*
X0251228Y0055900D01*
X0250963Y0055635D01*
X0203637Y0055635D01*
X0203372Y0055900D01*
X0203128Y0055835D01*
X0201316Y0055835D01*
X0201316Y0060784D01*
X0201316Y0060784D01*
X0201316Y0055835D01*
X0199504Y0055835D01*
X0199046Y0055957D01*
X0198636Y0056194D01*
X0198301Y0056529D01*
X0198064Y0056940D01*
X0197941Y0057398D01*
X0197941Y0060784D01*
X0201316Y0060784D01*
X0201316Y0060784D01*
X0201316Y0060784D01*
X0201316Y0065734D01*
X0202541Y0065734D01*
X0202538Y0065831D01*
X0201153Y0065831D01*
X0200641Y0066343D01*
X0200314Y0066154D01*
X0199856Y0066031D01*
X0197638Y0066031D01*
X0197638Y0069616D01*
X0197269Y0069616D01*
X0193488Y0069616D01*
X0193488Y0067595D01*
X0193611Y0067137D01*
X0193848Y0066726D01*
X0194183Y0066391D01*
X0194593Y0066154D01*
X0195051Y0066031D01*
X0197269Y0066031D01*
X0197269Y0069616D01*
X0197269Y0069984D01*
X0193488Y0069984D01*
X0193488Y0072005D01*
X0193611Y0072463D01*
X0193848Y0072874D01*
X0194183Y0073209D01*
X0194593Y0073446D01*
X0195051Y0073568D01*
X0196982Y0073568D01*
X0195637Y0075231D01*
X0189553Y0075141D01*
X0189168Y0074755D01*
X0187632Y0074119D01*
X0185968Y0074119D01*
X0184645Y0074667D01*
X0185091Y0018917D01*
X0185143Y0018862D01*
X0185143Y0020974D01*
X0185343Y0021174D01*
X0185343Y0022595D01*
X0190292Y0022595D01*
X0190292Y0022595D01*
X0190292Y0022595D01*
X0195242Y0022595D01*
X0195242Y0021174D01*
X0195442Y0020974D01*
X0195442Y0016168D01*
X0194270Y0014996D01*
X0188767Y0014996D01*
X0191013Y0012600D01*
X0197741Y0012600D01*
X0197741Y0012794D01*
X0198913Y0013965D01*
X0226062Y0013965D01*
X0226062Y0015447D01*
X0223390Y0018119D01*
X0221290Y0018119D01*
X0220119Y0019290D01*
X0220119Y0025310D01*
X0221290Y0026481D01*
X0227310Y0026481D01*
X0228481Y0025310D01*
X0228481Y0023210D01*
X0232119Y0019572D01*
X0232119Y0022810D01*
X0233290Y0023981D01*
X0239310Y0023981D01*
X0240481Y0022810D01*
X0240481Y0021672D01*
X0241290Y0022481D01*
X0247310Y0022481D01*
X0248481Y0021310D01*
X0248481Y0015290D01*
X0247435Y0014245D01*
X0247435Y0013965D01*
X0255687Y0013965D01*
X0256859Y0012794D01*
X0256859Y0004838D01*
X0255821Y0003800D01*
X0262300Y0003800D01*
X0262300Y0012528D01*
X0260921Y0012528D01*
X0260463Y0012650D01*
X0260053Y0012887D01*
X0259718Y0013222D01*
X0259481Y0013633D01*
X0259358Y0014091D01*
X0259358Y0015902D01*
X0262300Y0015902D01*
X0262300Y0015902D01*
X0259358Y0015902D01*
X0259358Y0017714D01*
X0259481Y0018172D01*
X0259718Y0018582D01*
X0260046Y0018911D01*
X0259158Y0019798D01*
X0259158Y0024605D01*
X0260046Y0025493D01*
X0259718Y0025821D01*
X0259481Y0026231D01*
X0259358Y0026689D01*
X0259358Y0028501D01*
X0262300Y0028501D01*
X0262300Y0028501D01*
X0259358Y0028501D01*
X0259358Y0030313D01*
X0259481Y0030770D01*
X0259718Y0031181D01*
X0260053Y0031516D01*
X0260463Y0031753D01*
X0260921Y0031876D01*
X0262300Y0031876D01*
X0262300Y0068800D01*
X0294001Y0068800D01*
X0294001Y0081541D01*
X0293400Y0080940D01*
X0293400Y0080672D01*
X0293028Y0080300D01*
X0293400Y0079928D01*
X0293400Y0075672D01*
X0293028Y0075300D01*
X0293400Y0074928D01*
X0293400Y0070672D01*
X0292228Y0069500D01*
X0282572Y0069500D01*
X0282072Y0070000D01*
X0280743Y0070000D01*
X0279714Y0070426D01*
X0278926Y0071214D01*
X0278500Y0072243D01*
X0278500Y0094264D01*
X0276244Y0096896D01*
X0275926Y0097214D01*
X0275884Y0097316D01*
X0275812Y0097401D01*
X0275672Y0097828D01*
X0275500Y0098243D01*
X0275500Y0098354D01*
X0275466Y0098459D01*
X0275500Y0098908D01*
X0275500Y0112000D01*
X0273622Y0112000D01*
X0272450Y0113172D01*
X0272450Y0117828D01*
X0273422Y0118800D01*
X0272450Y0119772D01*
X0272450Y0121990D01*
X0246765Y0147676D01*
X0234165Y0159790D01*
X0234139Y0159801D01*
X0233832Y0160108D01*
X0233809Y0160053D02*
X0233888Y0160053D01*
X0232867Y0158454D02*
X0235555Y0158454D01*
X0237217Y0156856D02*
X0230704Y0156856D01*
X0232303Y0155257D02*
X0238880Y0155257D01*
X0240542Y0153659D02*
X0233901Y0153659D01*
X0235500Y0152060D02*
X0242205Y0152060D01*
X0243867Y0150462D02*
X0237098Y0150462D01*
X0238390Y0148863D02*
X0245530Y0148863D01*
X0247176Y0147265D02*
X0238600Y0147265D01*
X0238600Y0145666D02*
X0248774Y0145666D01*
X0250373Y0144068D02*
X0238600Y0144068D01*
X0238600Y0142469D02*
X0251971Y0142469D01*
X0253570Y0140870D02*
X0238600Y0140870D01*
X0238600Y0139272D02*
X0255168Y0139272D01*
X0256767Y0137673D02*
X0238600Y0137673D01*
X0238600Y0136075D02*
X0258365Y0136075D01*
X0259964Y0134476D02*
X0238600Y0134476D01*
X0238600Y0132878D02*
X0261562Y0132878D01*
X0263161Y0131279D02*
X0238600Y0131279D01*
X0238600Y0129681D02*
X0264759Y0129681D01*
X0266358Y0128082D02*
X0238600Y0128082D01*
X0237744Y0126484D02*
X0267956Y0126484D01*
X0269555Y0124885D02*
X0236145Y0124885D01*
X0234547Y0123287D02*
X0250682Y0123287D01*
X0250682Y0121688D02*
X0235859Y0121688D01*
X0236112Y0120090D02*
X0250682Y0120090D01*
X0247113Y0118491D02*
X0245487Y0118491D01*
X0240513Y0118491D02*
X0236112Y0118491D01*
X0236112Y0116893D02*
X0239500Y0116893D01*
X0238524Y0115294D02*
X0235249Y0115294D01*
X0236549Y0113696D02*
X0224309Y0113696D01*
X0222711Y0112097D02*
X0234182Y0112097D01*
X0234182Y0110499D02*
X0220790Y0110499D01*
X0219754Y0113100D02*
X0224754Y0118100D01*
X0225454Y0118800D01*
X0224300Y0119954D01*
X0224300Y0125000D01*
X0232300Y0125000D01*
X0235800Y0128500D01*
X0235800Y0147800D01*
X0223300Y0160300D01*
X0223300Y0170376D01*
X0220400Y0173276D01*
X0220400Y0176426D02*
X0217209Y0176426D01*
X0215300Y0174517D01*
X0215300Y0151300D01*
X0222800Y0143800D01*
X0223954Y0136800D01*
X0219788Y0136075D02*
X0186500Y0136075D01*
X0186500Y0137673D02*
X0204148Y0137673D01*
X0203150Y0139272D02*
X0186500Y0139272D01*
X0186500Y0140870D02*
X0203150Y0140870D01*
X0203150Y0142469D02*
X0186500Y0142469D01*
X0186500Y0144068D02*
X0203150Y0144068D01*
X0203150Y0145666D02*
X0186500Y0145666D01*
X0186500Y0147265D02*
X0203150Y0147265D01*
X0203150Y0148863D02*
X0186500Y0148863D01*
X0186500Y0150462D02*
X0203150Y0150462D01*
X0203150Y0152060D02*
X0186500Y0152060D01*
X0186500Y0153659D02*
X0203150Y0153659D01*
X0203150Y0155257D02*
X0186500Y0155257D01*
X0186500Y0156856D02*
X0203150Y0156856D01*
X0203150Y0158454D02*
X0186500Y0158454D01*
X0186500Y0160053D02*
X0203150Y0160053D01*
X0203150Y0161651D02*
X0186500Y0161651D01*
X0186500Y0163250D02*
X0204071Y0163250D01*
X0212500Y0164848D02*
X0186500Y0164848D01*
X0186500Y0166447D02*
X0212500Y0166447D01*
X0212500Y0168045D02*
X0186500Y0168045D01*
X0186500Y0169644D02*
X0212500Y0169644D01*
X0212500Y0171242D02*
X0187768Y0171242D01*
X0189366Y0172841D02*
X0212500Y0172841D01*
X0212500Y0174439D02*
X0196755Y0174439D01*
X0198563Y0176038D02*
X0206186Y0176038D01*
X0206031Y0177636D02*
X0199782Y0177636D01*
X0200000Y0179235D02*
X0206031Y0179235D01*
X0206031Y0180833D02*
X0200000Y0180833D01*
X0200000Y0182432D02*
X0206052Y0182432D01*
X0209800Y0185646D02*
X0220400Y0185646D01*
X0220400Y0185875D01*
X0220400Y0185800D01*
X0225576Y0185800D01*
X0225800Y0179576D01*
X0225800Y0186300D01*
X0249300Y0186300D01*
X0249300Y0196300D01*
X0246500Y0196739D02*
X0246500Y0189100D01*
X0225841Y0189100D01*
X0225325Y0189115D01*
X0225285Y0189100D01*
X0225243Y0189100D01*
X0224766Y0188902D01*
X0224661Y0188862D01*
X0224661Y0189024D01*
X0220400Y0189024D01*
X0220400Y0189024D01*
X0216139Y0189024D01*
X0216139Y0188446D01*
X0213768Y0188446D01*
X0213768Y0188640D01*
X0213035Y0189374D01*
X0216139Y0189374D01*
X0216139Y0189024D01*
X0220400Y0189024D01*
X0220400Y0189024D01*
X0220624Y0188800D01*
X0223300Y0188800D01*
X0226800Y0192300D01*
X0235300Y0192300D01*
X0235725Y0201200D02*
X0235725Y0208675D01*
X0235600Y0208800D01*
X0228800Y0208800D01*
X0221000Y0216600D01*
X0220800Y0216600D01*
X0217328Y0216001D02*
X0195005Y0216001D01*
X0195005Y0216502D02*
X0195005Y0214887D01*
X0190843Y0214887D01*
X0190843Y0214887D01*
X0186681Y0214887D01*
X0186681Y0216502D01*
X0186779Y0216866D01*
X0186668Y0216755D01*
X0185132Y0216119D01*
X0183468Y0216119D01*
X0181932Y0216755D01*
X0181622Y0217065D01*
X0177273Y0217065D01*
X0177273Y0215465D01*
X0182013Y0215465D01*
X0182013Y0213426D01*
X0182932Y0214345D01*
X0184468Y0214981D01*
X0186132Y0214981D01*
X0186681Y0214754D01*
X0186681Y0214887D01*
X0190843Y0214887D01*
X0190843Y0214887D01*
X0195005Y0214887D01*
X0195005Y0213272D01*
X0194883Y0212814D01*
X0194838Y0212736D01*
X0195205Y0212369D01*
X0195205Y0207956D01*
X0195050Y0207800D01*
X0195205Y0207644D01*
X0195205Y0203231D01*
X0195050Y0203076D01*
X0195205Y0202920D01*
X0195205Y0198507D01*
X0195050Y0198351D01*
X0195205Y0198195D01*
X0195205Y0193783D01*
X0194838Y0193415D01*
X0194883Y0193337D01*
X0195005Y0192879D01*
X0195005Y0191265D01*
X0190843Y0191265D01*
X0190843Y0191264D01*
X0190843Y0191264D01*
X0190843Y0188087D01*
X0190462Y0188087D01*
X0190462Y0185150D01*
X0191224Y0185150D01*
X0191224Y0188087D01*
X0190843Y0188087D01*
X0190843Y0191264D01*
X0186681Y0191264D01*
X0186681Y0189650D01*
X0186804Y0189192D01*
X0187041Y0188781D01*
X0187313Y0188509D01*
X0187041Y0188236D01*
X0186804Y0187825D01*
X0186709Y0187473D01*
X0186615Y0187825D01*
X0186378Y0188236D01*
X0186043Y0188571D01*
X0185633Y0188808D01*
X0185175Y0188931D01*
X0183560Y0188931D01*
X0183560Y0184769D01*
X0183560Y0184769D01*
X0183560Y0188931D01*
X0181945Y0188931D01*
X0181487Y0188808D01*
X0181198Y0188641D01*
X0180908Y0188808D01*
X0180450Y0188931D01*
X0178835Y0188931D01*
X0177220Y0188931D01*
X0176763Y0188808D01*
X0176685Y0188763D01*
X0176317Y0189131D01*
X0171905Y0189131D01*
X0171749Y0188975D01*
X0171593Y0189131D01*
X0167180Y0189131D01*
X0167024Y0188975D01*
X0166869Y0189131D01*
X0162456Y0189131D01*
X0162300Y0188975D01*
X0162144Y0189131D01*
X0157731Y0189131D01*
X0157576Y0188975D01*
X0157420Y0189131D01*
X0153007Y0189131D01*
X0152851Y0188975D01*
X0152695Y0189131D01*
X0148283Y0189131D01*
X0148127Y0188975D01*
X0147971Y0189131D01*
X0143558Y0189131D01*
X0143191Y0188763D01*
X0143113Y0188808D01*
X0142655Y0188931D01*
X0141040Y0188931D01*
X0139425Y0188931D01*
X0138967Y0188808D01*
X0138557Y0188571D01*
X0138222Y0188236D01*
X0137985Y0187825D01*
X0137891Y0187473D01*
X0137796Y0187825D01*
X0137559Y0188236D01*
X0137287Y0188509D01*
X0137559Y0188781D01*
X0137796Y0189192D01*
X0137919Y0189650D01*
X0137919Y0191264D01*
X0133757Y0191264D01*
X0133757Y0188087D01*
X0134138Y0188087D01*
X0134138Y0185150D01*
X0133376Y0185150D01*
X0133376Y0188087D01*
X0133757Y0188087D01*
X0133757Y0191264D01*
X0133757Y0191264D01*
X0133757Y0191265D01*
X0137919Y0191265D01*
X0137919Y0192879D01*
X0137796Y0193337D01*
X0137751Y0193415D01*
X0138119Y0193783D01*
X0138119Y0198195D01*
X0137751Y0198563D01*
X0137796Y0198641D01*
X0137919Y0199098D01*
X0137919Y0200713D01*
X0133757Y0200713D01*
X0133757Y0200713D01*
X0137919Y0200713D01*
X0137919Y0202328D01*
X0137796Y0202786D01*
X0137629Y0203076D01*
X0137796Y0203365D01*
X0137919Y0203823D01*
X0137919Y0205438D01*
X0137919Y0207053D01*
X0137796Y0207511D01*
X0137629Y0207800D01*
X0137796Y0208089D01*
X0137919Y0208547D01*
X0137919Y0210162D01*
X0133757Y0210162D01*
X0133757Y0210162D01*
X0133757Y0205438D01*
X0137919Y0205438D01*
X0133757Y0205438D01*
X0133757Y0205438D01*
X0133757Y0205438D01*
X0133757Y0208616D01*
X0133757Y0210162D01*
X0133757Y0210162D01*
X0137919Y0210162D01*
X0137919Y0211777D01*
X0137796Y0212235D01*
X0137629Y0212524D01*
X0137796Y0212814D01*
X0137919Y0213272D01*
X0137919Y0214887D01*
X0137919Y0216502D01*
X0137796Y0216959D01*
X0137751Y0217037D01*
X0138119Y0217405D01*
X0138119Y0221817D01*
X0137963Y0221973D01*
X0138119Y0222129D01*
X0138119Y0226542D01*
X0137428Y0227233D01*
X0137559Y0227364D01*
X0137698Y0227605D01*
X0138834Y0226469D01*
X0143247Y0226469D01*
X0143402Y0226625D01*
X0143558Y0226469D01*
X0146259Y0226469D01*
X0146119Y0226132D01*
X0146119Y0224468D01*
X0146755Y0222932D01*
X0146898Y0222789D01*
X0144150Y0222789D01*
X0143692Y0222666D01*
X0143281Y0222429D01*
X0142946Y0222094D01*
X0142709Y0221684D01*
X0142587Y0221226D01*
X0142587Y0217065D01*
X0147327Y0217065D01*
X0147327Y0215465D01*
X0142587Y0215465D01*
X0142587Y0211303D01*
X0142709Y0210845D01*
X0142946Y0210435D01*
X0143281Y0210100D01*
X0143692Y0209863D01*
X0144150Y0209740D01*
X0147327Y0209740D01*
X0147327Y0215465D01*
X0148927Y0215465D01*
X0148927Y0217065D01*
X0153667Y0217065D01*
X0153667Y0221226D01*
X0153544Y0221684D01*
X0153307Y0222094D01*
X0153157Y0222244D01*
X0153845Y0222932D01*
X0154481Y0224468D01*
X0154481Y0226132D01*
X0154258Y0226669D01*
X0155213Y0226669D01*
X0155213Y0230831D01*
X0155213Y0230831D01*
X0155213Y0226669D01*
X0156828Y0226669D01*
X0157286Y0226792D01*
X0157364Y0226837D01*
X0157731Y0226469D01*
X0161462Y0226469D01*
X0161462Y0224965D01*
X0161452Y0224356D01*
X0161462Y0224329D01*
X0161462Y0224301D01*
X0161695Y0223738D01*
X0161919Y0223171D01*
X0161939Y0223151D01*
X0161949Y0223125D01*
X0162380Y0222694D01*
X0162804Y0222256D01*
X0162830Y0222245D01*
X0162850Y0222225D01*
X0163100Y0222121D01*
X0163100Y0217065D01*
X0161500Y0217065D01*
X0161500Y0222789D01*
X0158323Y0222789D01*
X0157865Y0222666D01*
X0157455Y0222429D01*
X0157119Y0222094D01*
X0156883Y0221684D01*
X0156760Y0221226D01*
X0156760Y0217065D01*
X0161500Y0217065D01*
X0161500Y0215465D01*
X0156760Y0215465D01*
X0156760Y0211303D01*
X0156883Y0210845D01*
X0157119Y0210435D01*
X0157455Y0210100D01*
X0157865Y0209863D01*
X0158323Y0209740D01*
X0161500Y0209740D01*
X0161500Y0215465D01*
X0163100Y0215465D01*
X0163100Y0217065D01*
X0167840Y0217065D01*
X0167840Y0221226D01*
X0167717Y0221684D01*
X0167716Y0221686D01*
X0171041Y0221629D01*
X0170933Y0221226D01*
X0170933Y0217065D01*
X0175673Y0217065D01*
X0175673Y0215465D01*
X0170933Y0215465D01*
X0170933Y0211303D01*
X0171056Y0210845D01*
X0171293Y0210435D01*
X0171628Y0210100D01*
X0172038Y0209863D01*
X0172496Y0209740D01*
X0175673Y0209740D01*
X0175673Y0215465D01*
X0177273Y0215465D01*
X0177273Y0209740D01*
X0180450Y0209740D01*
X0180908Y0209863D01*
X0181119Y0209984D01*
X0181119Y0209968D01*
X0181755Y0208432D01*
X0182932Y0207255D01*
X0184468Y0206619D01*
X0186132Y0206619D01*
X0186481Y0206764D01*
X0186481Y0203231D01*
X0186637Y0203076D01*
X0186481Y0202920D01*
X0186481Y0200129D01*
X0185632Y0200481D01*
X0183968Y0200481D01*
X0182432Y0199845D01*
X0181255Y0198668D01*
X0181200Y0198535D01*
X0177273Y0198535D01*
X0177273Y0192811D01*
X0180450Y0192811D01*
X0180908Y0192934D01*
X0181319Y0193171D01*
X0181654Y0193506D01*
X0181664Y0193523D01*
X0182432Y0192755D01*
X0183968Y0192119D01*
X0185632Y0192119D01*
X0186681Y0192554D01*
X0186681Y0191265D01*
X0190843Y0191265D01*
X0190843Y0191264D01*
X0195005Y0191264D01*
X0195005Y0189650D01*
X0194883Y0189192D01*
X0194646Y0188781D01*
X0194373Y0188509D01*
X0194646Y0188236D01*
X0194883Y0187825D01*
X0194971Y0187496D01*
X0194987Y0187513D01*
X0195987Y0188513D01*
X0197163Y0189000D01*
X0205187Y0189000D01*
X0204755Y0189432D01*
X0204119Y0190968D01*
X0204119Y0192632D01*
X0204755Y0194168D01*
X0205932Y0195345D01*
X0207468Y0195981D01*
X0208119Y0195981D01*
X0208119Y0197632D01*
X0208755Y0199168D01*
X0209932Y0200345D01*
X0211468Y0200981D01*
X0213132Y0200981D01*
X0214668Y0200345D01*
X0215845Y0199168D01*
X0216277Y0198124D01*
X0216927Y0198124D01*
X0217111Y0198308D01*
X0223292Y0198308D01*
X0223292Y0204489D01*
X0224464Y0205661D01*
X0232925Y0205661D01*
X0232925Y0206000D01*
X0228243Y0206000D01*
X0227214Y0206426D01*
X0226426Y0207214D01*
X0220710Y0212930D01*
X0218499Y0212930D01*
X0217328Y0214101D01*
X0217328Y0219498D01*
X0217470Y0219641D01*
X0217427Y0220695D01*
X0217000Y0221122D01*
X0217000Y0226478D01*
X0218172Y0227650D01*
X0218500Y0227650D01*
X0218500Y0228857D01*
X0218926Y0229886D01*
X0223714Y0234674D01*
X0224743Y0235100D01*
X0286857Y0235100D01*
X0287886Y0234674D01*
X0288674Y0233886D01*
X0293174Y0229386D01*
X0293600Y0228357D01*
X0293600Y0210743D01*
X0293174Y0209714D01*
X0292386Y0208926D01*
X0287886Y0204426D01*
X0286857Y0204000D01*
X0285995Y0204000D01*
X0283495Y0201500D01*
X0279105Y0201500D01*
X0276300Y0204305D01*
X0273495Y0201500D01*
X0269105Y0201500D01*
X0266300Y0204305D01*
X0263495Y0201500D01*
X0259105Y0201500D01*
X0256000Y0204605D01*
X0256000Y0206540D01*
X0255600Y0206140D01*
X0255600Y0199243D01*
X0255213Y0198308D01*
X0257489Y0198308D01*
X0258661Y0197136D01*
X0258661Y0187212D01*
X0258461Y0187012D01*
X0258461Y0185875D01*
X0254200Y0185875D01*
X0254200Y0185875D01*
X0258461Y0185875D01*
X0258461Y0185600D01*
X0260140Y0185600D01*
X0260288Y0185748D01*
X0260288Y0190097D01*
X0261460Y0191268D01*
X0267447Y0191268D01*
X0267959Y0190757D01*
X0268286Y0190946D01*
X0268744Y0191068D01*
X0270962Y0191068D01*
X0270962Y0187484D01*
X0271331Y0187484D01*
X0275112Y0187484D01*
X0275112Y0189505D01*
X0274989Y0189963D01*
X0274752Y0190374D01*
X0274417Y0190709D01*
X0274007Y0190946D01*
X0273549Y0191068D01*
X0271331Y0191068D01*
X0271331Y0187484D01*
X0271331Y0187116D01*
X0275112Y0187116D01*
X0275112Y0185095D01*
X0274989Y0184637D01*
X0274752Y0184226D01*
X0274417Y0183891D01*
X0274007Y0183654D01*
X0273549Y0183531D01*
X0271331Y0183531D01*
X0271331Y0187116D01*
X0270962Y0187116D01*
X0270962Y0183531D01*
X0268744Y0183531D01*
X0268286Y0183654D01*
X0267959Y0183843D01*
X0267447Y0183331D01*
X0265791Y0183331D01*
X0263674Y0181214D01*
X0262886Y0180426D01*
X0261857Y0180000D01*
X0258661Y0180000D01*
X0258661Y0179100D01*
X0262857Y0179100D01*
X0263886Y0178674D01*
X0264674Y0177886D01*
X0269674Y0172886D01*
X0270100Y0171857D01*
X0270100Y0162960D01*
X0294001Y0139059D01*
X0294001Y0235761D01*
X0132800Y0235761D01*
X0132800Y0234994D01*
X0133376Y0234994D01*
X0133376Y0231213D01*
X0134138Y0231213D01*
X0134138Y0234994D01*
X0136356Y0234994D01*
X0136814Y0234871D01*
X0137224Y0234634D01*
X0137559Y0234299D01*
X0137698Y0234058D01*
X0138834Y0235194D01*
X0143247Y0235194D01*
X0143402Y0235038D01*
X0143558Y0235194D01*
X0147971Y0235194D01*
X0148127Y0235038D01*
X0148283Y0235194D01*
X0152695Y0235194D01*
X0153063Y0234826D01*
X0153141Y0234871D01*
X0153598Y0234994D01*
X0155213Y0234994D01*
X0155213Y0230832D01*
X0155213Y0230832D01*
X0155213Y0234994D01*
X0156828Y0234994D01*
X0157286Y0234871D01*
X0157364Y0234826D01*
X0157731Y0235194D01*
X0162144Y0235194D01*
X0162300Y0235038D01*
X0162456Y0235194D01*
X0166869Y0235194D01*
X0167236Y0234826D01*
X0167314Y0234871D01*
X0167772Y0234994D01*
X0169387Y0234994D01*
X0169387Y0230832D01*
X0169387Y0230832D01*
X0174111Y0230832D01*
X0174111Y0234994D01*
X0172496Y0234994D01*
X0172038Y0234871D01*
X0171749Y0234704D01*
X0171459Y0234871D01*
X0171002Y0234994D01*
X0169387Y0234994D01*
X0169387Y0230832D01*
X0169387Y0230831D01*
X0170933Y0230831D01*
X0174111Y0230831D01*
X0174111Y0230832D01*
X0174111Y0230832D01*
X0174111Y0234994D01*
X0175726Y0234994D01*
X0176184Y0234871D01*
X0176473Y0234704D01*
X0176763Y0234871D01*
X0177220Y0234994D01*
X0178835Y0234994D01*
X0178835Y0230832D01*
X0178835Y0230832D01*
X0178835Y0230831D01*
X0175657Y0230831D01*
X0174111Y0230831D01*
X0174111Y0230832D01*
X0178835Y0230832D01*
X0178835Y0234994D01*
X0180450Y0234994D01*
X0180908Y0234871D01*
X0180986Y0234826D01*
X0181353Y0235194D01*
X0185766Y0235194D01*
X0186902Y0234058D01*
X0187041Y0234299D01*
X0187376Y0234634D01*
X0187786Y0234871D01*
X0188244Y0234994D01*
X0190462Y0234994D01*
X0190462Y0231213D01*
X0191224Y0231213D01*
X0191224Y0234994D01*
X0193442Y0234994D01*
X0193900Y0234871D01*
X0194311Y0234634D01*
X0194646Y0234299D01*
X0194883Y0233888D01*
X0195005Y0233431D01*
X0195005Y0231213D01*
X0191224Y0231213D01*
X0191224Y0230450D01*
X0191224Y0227513D01*
X0190843Y0227513D01*
X0190462Y0227513D01*
X0190462Y0230450D01*
X0191224Y0230450D01*
X0195005Y0230450D01*
X0195005Y0228232D01*
X0194883Y0227775D01*
X0194646Y0227364D01*
X0194373Y0227091D01*
X0194646Y0226819D01*
X0194883Y0226408D01*
X0195005Y0225950D01*
X0195005Y0224335D01*
X0190843Y0224335D01*
X0190843Y0224335D01*
X0190843Y0224336D02*
X0190843Y0227513D01*
X0190843Y0224336D01*
X0190843Y0224336D01*
X0190843Y0224335D02*
X0195005Y0224335D01*
X0195005Y0222720D01*
X0194883Y0222263D01*
X0194838Y0222185D01*
X0195205Y0221817D01*
X0195205Y0217405D01*
X0194838Y0217037D01*
X0194883Y0216959D01*
X0195005Y0216502D01*
X0195205Y0217599D02*
X0217328Y0217599D01*
X0217328Y0219198D02*
X0195205Y0219198D01*
X0195205Y0220796D02*
X0217326Y0220796D01*
X0217000Y0222395D02*
X0194918Y0222395D01*
X0195005Y0223993D02*
X0217000Y0223993D01*
X0217000Y0225592D02*
X0195005Y0225592D01*
X0194472Y0227190D02*
X0217712Y0227190D01*
X0218500Y0228789D02*
X0195005Y0228789D01*
X0195005Y0230387D02*
X0219427Y0230387D01*
X0221026Y0231986D02*
X0195005Y0231986D01*
X0194964Y0233584D02*
X0222624Y0233584D01*
X0225300Y0232300D02*
X0221300Y0228300D01*
X0221300Y0224600D01*
X0220500Y0223800D01*
X0223824Y0220898D02*
X0224772Y0219950D01*
X0229428Y0219950D01*
X0230217Y0220738D01*
X0230232Y0220002D01*
X0229729Y0219498D01*
X0229729Y0214101D01*
X0230901Y0212930D01*
X0236101Y0212930D01*
X0236771Y0213600D01*
X0255140Y0213600D01*
X0250426Y0208886D01*
X0250000Y0207857D01*
X0250000Y0205661D01*
X0238525Y0205661D01*
X0238525Y0209232D01*
X0238099Y0210261D01*
X0237311Y0211049D01*
X0237186Y0211174D01*
X0236157Y0211600D01*
X0229960Y0211600D01*
X0224871Y0216689D01*
X0224871Y0219498D01*
X0223839Y0220530D01*
X0223824Y0220898D01*
X0223828Y0220796D02*
X0223926Y0220796D01*
X0224871Y0219198D02*
X0229729Y0219198D01*
X0229729Y0217599D02*
X0224871Y0217599D01*
X0225559Y0216001D02*
X0229729Y0216001D01*
X0229729Y0214402D02*
X0227158Y0214402D01*
X0228756Y0212803D02*
X0254344Y0212803D01*
X0252745Y0211205D02*
X0237111Y0211205D01*
X0237311Y0211049D02*
X0237311Y0211049D01*
X0238370Y0209606D02*
X0251147Y0209606D01*
X0250063Y0208008D02*
X0238525Y0208008D01*
X0238525Y0206409D02*
X0250000Y0206409D01*
X0252800Y0207300D02*
X0261300Y0215800D01*
X0261300Y0216800D01*
X0257801Y0220796D02*
X0236617Y0220796D01*
X0236631Y0220140D02*
X0236556Y0223692D01*
X0237115Y0224251D01*
X0237800Y0225905D01*
X0237800Y0227695D01*
X0237115Y0229349D01*
X0236964Y0229500D01*
X0285140Y0229500D01*
X0288000Y0226640D01*
X0288000Y0212460D01*
X0285568Y0210028D01*
X0283654Y0211941D01*
X0286400Y0214688D01*
X0286400Y0216787D01*
X0281313Y0216787D01*
X0281313Y0216812D01*
X0286400Y0216812D01*
X0286400Y0218912D01*
X0283412Y0221900D01*
X0281313Y0221900D01*
X0281313Y0216813D01*
X0281287Y0216813D01*
X0281287Y0221900D01*
X0279188Y0221900D01*
X0276441Y0219154D01*
X0273495Y0222100D01*
X0269105Y0222100D01*
X0266300Y0219295D01*
X0263495Y0222100D01*
X0259105Y0222100D01*
X0257005Y0220000D01*
X0236771Y0220000D01*
X0236631Y0220140D01*
X0236583Y0222395D02*
X0288000Y0222395D01*
X0288000Y0223993D02*
X0236857Y0223993D01*
X0237670Y0225592D02*
X0288000Y0225592D01*
X0287450Y0227190D02*
X0237800Y0227190D01*
X0237347Y0228789D02*
X0285852Y0228789D01*
X0286300Y0232300D02*
X0225300Y0232300D01*
X0217328Y0214402D02*
X0195005Y0214402D01*
X0194877Y0212803D02*
X0220837Y0212803D01*
X0222435Y0211205D02*
X0195205Y0211205D01*
X0195205Y0209606D02*
X0224034Y0209606D01*
X0225632Y0208008D02*
X0195205Y0208008D01*
X0195205Y0206409D02*
X0227255Y0206409D01*
X0223614Y0204811D02*
X0195205Y0204811D01*
X0195187Y0203212D02*
X0223292Y0203212D01*
X0223292Y0201614D02*
X0195205Y0201614D01*
X0195205Y0200015D02*
X0209602Y0200015D01*
X0208444Y0198417D02*
X0195115Y0198417D01*
X0195205Y0196818D02*
X0208119Y0196818D01*
X0205807Y0195220D02*
X0195205Y0195220D01*
X0195044Y0193621D02*
X0204529Y0193621D01*
X0204119Y0192023D02*
X0195005Y0192023D01*
X0195005Y0190424D02*
X0204344Y0190424D01*
X0208300Y0191800D02*
X0209174Y0192174D01*
X0220400Y0192174D01*
X0220400Y0195324D02*
X0213776Y0195324D01*
X0212300Y0196800D01*
X0216156Y0198417D02*
X0223292Y0198417D01*
X0223292Y0200015D02*
X0214998Y0200015D01*
X0224861Y0196739D02*
X0224861Y0190361D01*
X0224661Y0190161D01*
X0224661Y0189024D01*
X0220400Y0189024D01*
X0216139Y0188826D02*
X0213583Y0188826D01*
X0213768Y0182846D02*
X0216139Y0182846D01*
X0216139Y0182725D01*
X0216139Y0181588D01*
X0215939Y0181388D01*
X0215939Y0178931D01*
X0215623Y0178800D01*
X0213714Y0176891D01*
X0213568Y0176745D01*
X0213568Y0178769D01*
X0209984Y0178769D01*
X0209984Y0179138D01*
X0213568Y0179138D01*
X0213568Y0181356D01*
X0213446Y0181814D01*
X0213257Y0182141D01*
X0213768Y0182653D01*
X0213768Y0182846D01*
X0213548Y0182432D02*
X0216139Y0182432D01*
X0216139Y0182725D02*
X0220400Y0182725D01*
X0220400Y0182725D01*
X0216139Y0182725D01*
X0215939Y0180833D02*
X0213568Y0180833D01*
X0213568Y0179235D02*
X0215939Y0179235D01*
X0214459Y0177636D02*
X0213568Y0177636D01*
X0209984Y0177636D02*
X0209616Y0177636D01*
X0209616Y0176038D02*
X0209984Y0176038D01*
X0218100Y0170292D02*
X0218100Y0152460D01*
X0224618Y0145942D01*
X0224884Y0145751D01*
X0225008Y0145552D01*
X0225174Y0145386D01*
X0225299Y0145083D01*
X0225472Y0144805D01*
X0225510Y0144574D01*
X0225600Y0144357D01*
X0225600Y0144029D01*
X0226055Y0141268D01*
X0226947Y0141268D01*
X0227459Y0140757D01*
X0227786Y0140946D01*
X0228244Y0141068D01*
X0230462Y0141068D01*
X0230462Y0137484D01*
X0230831Y0137484D01*
X0230831Y0141068D01*
X0233000Y0141068D01*
X0233000Y0146640D01*
X0220926Y0158714D01*
X0220500Y0159743D01*
X0220500Y0169217D01*
X0219424Y0170292D01*
X0218100Y0170292D01*
X0218100Y0169644D02*
X0220073Y0169644D01*
X0220500Y0168045D02*
X0218100Y0168045D01*
X0218100Y0166447D02*
X0220500Y0166447D01*
X0220500Y0164848D02*
X0218100Y0164848D01*
X0218100Y0163250D02*
X0220500Y0163250D01*
X0220500Y0161651D02*
X0218100Y0161651D01*
X0218100Y0160053D02*
X0220500Y0160053D01*
X0221186Y0158454D02*
X0218100Y0158454D01*
X0218100Y0156856D02*
X0222785Y0156856D01*
X0224383Y0155257D02*
X0218100Y0155257D01*
X0218100Y0153659D02*
X0225982Y0153659D01*
X0227580Y0152060D02*
X0218500Y0152060D01*
X0220098Y0150462D02*
X0229179Y0150462D01*
X0230777Y0148863D02*
X0221697Y0148863D01*
X0223295Y0147265D02*
X0232376Y0147265D01*
X0233000Y0145666D02*
X0224937Y0145666D01*
X0225600Y0144068D02*
X0233000Y0144068D01*
X0233000Y0142469D02*
X0225857Y0142469D01*
X0227345Y0140870D02*
X0227656Y0140870D01*
X0230462Y0140870D02*
X0230831Y0140870D01*
X0230831Y0139272D02*
X0230462Y0139272D01*
X0230462Y0137673D02*
X0230831Y0137673D01*
X0230831Y0137116D02*
X0230831Y0133531D01*
X0233000Y0133531D01*
X0233000Y0129660D01*
X0231140Y0127800D01*
X0227678Y0127800D01*
X0227178Y0128300D01*
X0228150Y0129272D01*
X0228150Y0133557D01*
X0228244Y0133531D01*
X0230462Y0133531D01*
X0230462Y0137116D01*
X0230831Y0137116D01*
X0230831Y0136075D02*
X0230462Y0136075D01*
X0230462Y0134476D02*
X0230831Y0134476D01*
X0233000Y0132878D02*
X0228150Y0132878D01*
X0228150Y0131279D02*
X0233000Y0131279D01*
X0233000Y0129681D02*
X0228150Y0129681D01*
X0227396Y0128082D02*
X0231423Y0128082D01*
X0231962Y0118491D02*
X0232331Y0118491D01*
X0232331Y0116893D02*
X0231962Y0116893D01*
X0231962Y0115294D02*
X0232331Y0115294D01*
X0229044Y0115294D02*
X0228910Y0115294D01*
X0234182Y0108900D02*
X0215450Y0108900D01*
X0215450Y0107302D02*
X0234182Y0107302D01*
X0234588Y0105703D02*
X0215450Y0105703D01*
X0215450Y0104105D02*
X0238000Y0104105D01*
X0238000Y0102506D02*
X0215450Y0102506D01*
X0215086Y0100908D02*
X0236948Y0100908D01*
X0236000Y0099309D02*
X0179882Y0099309D01*
X0179821Y0100908D02*
X0203514Y0100908D01*
X0203150Y0102506D02*
X0181083Y0102506D01*
X0181630Y0104105D02*
X0203150Y0104105D01*
X0203150Y0105703D02*
X0183229Y0105703D01*
X0184827Y0107302D02*
X0203150Y0107302D01*
X0203150Y0108900D02*
X0186184Y0108900D01*
X0186500Y0110499D02*
X0203150Y0110499D01*
X0203150Y0112097D02*
X0186500Y0112097D01*
X0186500Y0113696D02*
X0203150Y0113696D01*
X0203150Y0115294D02*
X0186500Y0115294D01*
X0186500Y0116893D02*
X0203150Y0116893D01*
X0203150Y0118491D02*
X0186500Y0118491D01*
X0186500Y0120090D02*
X0203150Y0120090D01*
X0203150Y0121688D02*
X0186500Y0121688D01*
X0186500Y0123287D02*
X0203150Y0123287D01*
X0203150Y0124885D02*
X0186500Y0124885D01*
X0186500Y0126484D02*
X0220450Y0126484D01*
X0220450Y0124885D02*
X0215450Y0124885D01*
X0215450Y0123287D02*
X0220450Y0123287D01*
X0221380Y0121688D02*
X0215450Y0121688D01*
X0215450Y0120090D02*
X0221288Y0120090D01*
X0221185Y0118491D02*
X0215450Y0118491D01*
X0215450Y0116893D02*
X0219587Y0116893D01*
X0219754Y0113100D02*
X0209300Y0113100D01*
X0221204Y0128082D02*
X0186500Y0128082D01*
X0186500Y0129681D02*
X0220450Y0129681D01*
X0220450Y0131279D02*
X0186500Y0131279D01*
X0186500Y0132878D02*
X0220450Y0132878D01*
X0219815Y0134476D02*
X0186500Y0134476D01*
X0176800Y0137300D02*
X0172600Y0132100D01*
X0172800Y0132600D01*
X0172300Y0132600D01*
X0167300Y0133300D02*
X0172300Y0138300D01*
X0172300Y0175800D01*
X0169500Y0172222D02*
X0169500Y0139460D01*
X0166768Y0136728D01*
X0166695Y0136800D01*
X0167186Y0137290D01*
X0167186Y0141310D01*
X0166695Y0141800D01*
X0167186Y0142290D01*
X0167186Y0146310D01*
X0166695Y0146800D01*
X0167186Y0147290D01*
X0167186Y0151310D01*
X0166695Y0151800D01*
X0167186Y0152290D01*
X0167186Y0156310D01*
X0166554Y0156941D01*
X0166626Y0157014D01*
X0166863Y0157424D01*
X0166986Y0157882D01*
X0166986Y0159300D01*
X0166986Y0160718D01*
X0166863Y0161176D01*
X0166626Y0161586D01*
X0166291Y0161921D01*
X0165881Y0162158D01*
X0165423Y0162281D01*
X0162824Y0162281D01*
X0162824Y0159300D01*
X0166986Y0159300D01*
X0162824Y0159300D01*
X0162824Y0159300D01*
X0162824Y0159300D01*
X0160100Y0162024D01*
X0160100Y0175800D01*
X0163300Y0175800D02*
X0163300Y0179300D01*
X0159938Y0182662D01*
X0159938Y0184769D01*
X0155300Y0178800D02*
X0149300Y0178800D01*
X0144800Y0174300D01*
X0144800Y0147300D01*
X0142800Y0144300D01*
X0140776Y0144300D01*
X0144648Y0141800D02*
X0145139Y0141310D01*
X0145139Y0137290D01*
X0144948Y0137100D01*
X0145687Y0137100D01*
X0146432Y0137845D01*
X0147968Y0138481D01*
X0149632Y0138481D01*
X0151168Y0137845D01*
X0152345Y0136668D01*
X0152981Y0135132D01*
X0152981Y0133468D01*
X0152345Y0131932D01*
X0151168Y0130755D01*
X0149632Y0130119D01*
X0147968Y0130119D01*
X0146432Y0130755D01*
X0145687Y0131500D01*
X0144948Y0131500D01*
X0145139Y0131310D01*
X0145139Y0127290D01*
X0144648Y0126800D01*
X0145139Y0126310D01*
X0145139Y0122290D01*
X0143967Y0121119D01*
X0139100Y0121119D01*
X0139100Y0094460D01*
X0150460Y0083100D01*
X0152540Y0083100D01*
X0149926Y0085714D01*
X0149500Y0086743D01*
X0149500Y0087812D01*
X0147500Y0089812D01*
X0147500Y0093788D01*
X0150312Y0096600D01*
X0154288Y0096600D01*
X0157100Y0093788D01*
X0157100Y0089812D01*
X0155424Y0088136D01*
X0156960Y0086600D01*
X0159500Y0086600D01*
X0159500Y0097812D01*
X0157500Y0099812D01*
X0157500Y0103788D01*
X0160312Y0106600D01*
X0164288Y0106600D01*
X0167100Y0103788D01*
X0167100Y0099812D01*
X0165100Y0097812D01*
X0165100Y0089600D01*
X0173119Y0089600D01*
X0173119Y0094310D01*
X0173700Y0094891D01*
X0173700Y0095309D01*
X0168761Y0100248D01*
X0167748Y0101261D01*
X0167200Y0102584D01*
X0167200Y0121000D01*
X0162767Y0121000D01*
X0162525Y0121100D01*
X0162187Y0121100D01*
X0162141Y0121119D01*
X0159633Y0121119D01*
X0158461Y0122290D01*
X0158461Y0126310D01*
X0158952Y0126800D01*
X0158461Y0127290D01*
X0158461Y0131310D01*
X0158952Y0131800D01*
X0158461Y0132290D01*
X0158461Y0136310D01*
X0158652Y0136500D01*
X0153743Y0136500D01*
X0152714Y0136926D01*
X0151926Y0137714D01*
X0146426Y0143214D01*
X0146049Y0144125D01*
X0145282Y0142975D01*
X0145174Y0142714D01*
X0145139Y0142679D01*
X0145139Y0142290D01*
X0144648Y0141800D01*
X0145139Y0142469D02*
X0147171Y0142469D01*
X0146073Y0144068D02*
X0146010Y0144068D01*
X0148800Y0144800D02*
X0154300Y0139300D01*
X0162824Y0139300D01*
X0167186Y0139272D02*
X0169312Y0139272D01*
X0169500Y0140870D02*
X0167186Y0140870D01*
X0167186Y0142469D02*
X0169500Y0142469D01*
X0169500Y0144068D02*
X0167186Y0144068D01*
X0167186Y0145666D02*
X0169500Y0145666D01*
X0169500Y0147265D02*
X0167160Y0147265D01*
X0167186Y0148863D02*
X0169500Y0148863D01*
X0169500Y0150462D02*
X0167186Y0150462D01*
X0166955Y0152060D02*
X0169500Y0152060D01*
X0169500Y0153659D02*
X0167186Y0153659D01*
X0167186Y0155257D02*
X0169500Y0155257D01*
X0169500Y0156856D02*
X0166640Y0156856D01*
X0166986Y0158454D02*
X0169500Y0158454D01*
X0169500Y0160053D02*
X0166986Y0160053D01*
X0166561Y0161651D02*
X0169500Y0161651D01*
X0169500Y0163250D02*
X0155100Y0163250D01*
X0155100Y0164848D02*
X0169500Y0164848D01*
X0169500Y0166447D02*
X0155100Y0166447D01*
X0155100Y0166619D02*
X0155632Y0166619D01*
X0157168Y0167255D01*
X0158345Y0168432D01*
X0158981Y0169968D01*
X0158981Y0171500D01*
X0160100Y0171500D01*
X0161022Y0171500D01*
X0161222Y0171300D01*
X0168578Y0171300D01*
X0169500Y0172222D01*
X0169500Y0171242D02*
X0158981Y0171242D01*
X0160100Y0171500D02*
X0160100Y0172422D01*
X0160100Y0172422D01*
X0160100Y0171500D01*
X0158847Y0169644D02*
X0169500Y0169644D01*
X0169500Y0168045D02*
X0157958Y0168045D01*
X0155100Y0166619D02*
X0155100Y0160329D01*
X0158491Y0156339D01*
X0159093Y0156941D01*
X0159021Y0157014D01*
X0158784Y0157424D01*
X0158661Y0157882D01*
X0158661Y0159300D01*
X0162823Y0159300D01*
X0162823Y0159300D01*
X0158661Y0159300D01*
X0158661Y0160718D01*
X0158784Y0161176D01*
X0159021Y0161586D01*
X0159356Y0161921D01*
X0159767Y0162158D01*
X0160224Y0162281D01*
X0162824Y0162281D01*
X0162824Y0159300D01*
X0162824Y0160053D02*
X0162824Y0160053D01*
X0162824Y0161651D02*
X0162824Y0161651D01*
X0159086Y0161651D02*
X0155100Y0161651D01*
X0155335Y0160053D02*
X0158661Y0160053D01*
X0158661Y0158454D02*
X0156694Y0158454D01*
X0158053Y0156856D02*
X0159008Y0156856D01*
X0154779Y0152060D02*
X0151600Y0152060D01*
X0151600Y0150462D02*
X0156138Y0150462D01*
X0157497Y0148863D02*
X0151600Y0148863D01*
X0151600Y0147265D02*
X0158487Y0147265D01*
X0158461Y0147290D02*
X0158461Y0147679D01*
X0158426Y0147714D01*
X0158382Y0147822D01*
X0151600Y0155800D01*
X0151600Y0145960D01*
X0155460Y0142100D01*
X0158652Y0142100D01*
X0158461Y0142290D01*
X0158461Y0146310D01*
X0158952Y0146800D01*
X0158461Y0147290D01*
X0158461Y0145666D02*
X0151894Y0145666D01*
X0153492Y0144068D02*
X0158461Y0144068D01*
X0158461Y0142469D02*
X0155091Y0142469D01*
X0150368Y0139272D02*
X0145139Y0139272D01*
X0145139Y0140870D02*
X0148770Y0140870D01*
X0146260Y0137673D02*
X0145139Y0137673D01*
X0148800Y0134300D02*
X0140776Y0134300D01*
X0135300Y0130800D02*
X0135300Y0151300D01*
X0138300Y0154300D01*
X0140776Y0154300D01*
X0136905Y0156800D02*
X0136824Y0156719D01*
X0136714Y0156674D01*
X0135926Y0155886D01*
X0132926Y0152886D01*
X0132500Y0151857D01*
X0132500Y0146800D01*
X0131600Y0146800D01*
X0131600Y0157122D01*
X0132650Y0158172D01*
X0132650Y0162210D01*
X0132755Y0161955D01*
X0133932Y0160779D01*
X0135468Y0160143D01*
X0136275Y0160143D01*
X0136414Y0159987D01*
X0136414Y0157290D01*
X0136905Y0156800D01*
X0136849Y0156856D02*
X0131600Y0156856D01*
X0131600Y0155257D02*
X0135297Y0155257D01*
X0135926Y0155886D02*
X0135926Y0155886D01*
X0136414Y0158454D02*
X0132650Y0158454D01*
X0132650Y0160053D02*
X0136355Y0160053D01*
X0133060Y0161651D02*
X0132650Y0161651D01*
X0136300Y0164324D02*
X0140776Y0159300D01*
X0141692Y0162481D02*
X0142000Y0162481D01*
X0142000Y0174771D01*
X0141632Y0174619D01*
X0139968Y0174619D01*
X0138432Y0175255D01*
X0137687Y0176000D01*
X0126478Y0176000D01*
X0125428Y0174950D01*
X0124675Y0174950D01*
X0125613Y0174013D01*
X0126513Y0173113D01*
X0127000Y0171937D01*
X0127000Y0170600D01*
X0131478Y0170600D01*
X0132650Y0169428D01*
X0132650Y0166437D01*
X0132755Y0166692D01*
X0133932Y0167868D01*
X0135468Y0168505D01*
X0137132Y0168505D01*
X0138668Y0167868D01*
X0139845Y0166692D01*
X0140481Y0165155D01*
X0140481Y0163840D01*
X0141692Y0162481D01*
X0142000Y0163250D02*
X0141007Y0163250D01*
X0140481Y0164848D02*
X0142000Y0164848D01*
X0142000Y0166447D02*
X0139946Y0166447D01*
X0138241Y0168045D02*
X0142000Y0168045D01*
X0142000Y0169644D02*
X0132435Y0169644D01*
X0132650Y0168045D02*
X0134359Y0168045D01*
X0132654Y0166447D02*
X0132650Y0166447D01*
X0128800Y0161300D02*
X0128800Y0160500D01*
X0128800Y0142300D01*
X0129300Y0141800D01*
X0131600Y0147265D02*
X0132500Y0147265D01*
X0132500Y0148863D02*
X0131600Y0148863D01*
X0131600Y0150462D02*
X0132500Y0150462D01*
X0132584Y0152060D02*
X0131600Y0152060D01*
X0131600Y0153659D02*
X0133699Y0153659D01*
X0124950Y0159128D02*
X0124428Y0159650D01*
X0119772Y0159650D01*
X0118800Y0158678D01*
X0117828Y0159650D01*
X0116387Y0159650D01*
X0116387Y0163650D01*
X0117500Y0163650D01*
X0119237Y0163650D01*
X0119695Y0163773D01*
X0120105Y0164010D01*
X0120440Y0164345D01*
X0120600Y0164621D01*
X0121772Y0163450D01*
X0125572Y0163450D01*
X0124950Y0162828D01*
X0124950Y0159128D01*
X0124950Y0160053D02*
X0116387Y0160053D01*
X0116387Y0161651D02*
X0124950Y0161651D01*
X0125371Y0163250D02*
X0116387Y0163250D01*
X0117500Y0163650D02*
X0117500Y0167300D01*
X0117500Y0163650D01*
X0117500Y0164848D02*
X0117500Y0164848D01*
X0117500Y0166447D02*
X0117500Y0166447D01*
X0117500Y0167300D02*
X0117500Y0167300D01*
X0111815Y0168045D02*
X0111446Y0168045D01*
X0111446Y0168356D02*
X0111446Y0165028D01*
X0111815Y0165028D01*
X0111815Y0168356D01*
X0111446Y0168356D01*
X0107075Y0168356D01*
X0107075Y0168247D01*
X0106554Y0168768D01*
X0099385Y0168768D01*
X0098616Y0168000D01*
X0096625Y0168000D01*
X0088525Y0176100D01*
X0091116Y0176100D01*
X0091885Y0175331D01*
X0099054Y0175331D01*
X0099375Y0175653D01*
X0099375Y0172763D01*
X0100546Y0171591D01*
X0107421Y0171591D01*
X0107197Y0171203D01*
X0107075Y0170746D01*
X0107075Y0168724D01*
X0111446Y0168724D01*
X0111446Y0168356D01*
X0111446Y0166447D02*
X0111815Y0166447D01*
X0107075Y0169644D02*
X0094982Y0169644D01*
X0093383Y0171242D02*
X0107220Y0171242D01*
X0099375Y0172841D02*
X0091785Y0172841D01*
X0090186Y0174439D02*
X0099375Y0174439D01*
X0107751Y0179492D02*
X0108484Y0178760D01*
X0110881Y0178760D01*
X0111356Y0178807D01*
X0111513Y0178760D01*
X0111677Y0178760D01*
X0112118Y0178577D01*
X0112575Y0178439D01*
X0112702Y0178335D01*
X0112853Y0178273D01*
X0113000Y0178125D01*
X0113000Y0180949D01*
X0112695Y0180773D01*
X0112237Y0180650D01*
X0110500Y0180650D01*
X0110500Y0184300D01*
X0110500Y0184300D01*
X0110500Y0180650D01*
X0108763Y0180650D01*
X0108646Y0180681D01*
X0108564Y0180377D01*
X0108327Y0179966D01*
X0107992Y0179631D01*
X0107751Y0179492D01*
X0108009Y0179235D02*
X0113000Y0179235D01*
X0113000Y0180833D02*
X0112800Y0180833D01*
X0110500Y0180833D02*
X0110500Y0180833D01*
X0110500Y0182432D02*
X0110500Y0182432D01*
X0110500Y0184030D02*
X0110500Y0184030D01*
X0107300Y0186761D02*
X0107124Y0186809D01*
X0104315Y0186809D01*
X0104315Y0183224D01*
X0103946Y0183224D01*
X0103946Y0182856D01*
X0099575Y0182856D01*
X0099575Y0182747D01*
X0099054Y0183268D01*
X0091885Y0183268D01*
X0091116Y0182500D01*
X0090125Y0182500D01*
X0082794Y0189831D01*
X0086054Y0189831D01*
X0086375Y0190153D01*
X0086375Y0187263D01*
X0087546Y0186091D01*
X0094715Y0186091D01*
X0095887Y0187263D01*
X0095887Y0187360D01*
X0107664Y0187360D01*
X0107560Y0187255D01*
X0107323Y0186845D01*
X0107300Y0186761D01*
X0107544Y0187227D02*
X0095851Y0187227D01*
X0099697Y0185703D02*
X0099575Y0185246D01*
X0099575Y0183224D01*
X0103946Y0183224D01*
X0103946Y0186809D01*
X0101138Y0186809D01*
X0100680Y0186686D01*
X0100270Y0186449D01*
X0099934Y0186114D01*
X0099697Y0185703D01*
X0099677Y0185629D02*
X0086997Y0185629D01*
X0086410Y0187227D02*
X0085398Y0187227D01*
X0086375Y0188826D02*
X0083800Y0188826D01*
X0088595Y0184030D02*
X0099575Y0184030D01*
X0103946Y0184030D02*
X0104315Y0184030D01*
X0104315Y0185629D02*
X0103946Y0185629D01*
X0106788Y0193760D02*
X0094984Y0193760D01*
X0094751Y0193992D01*
X0094992Y0194131D01*
X0095327Y0194466D01*
X0095564Y0194877D01*
X0095687Y0195335D01*
X0095687Y0197356D01*
X0091315Y0197356D01*
X0091315Y0197724D01*
X0095687Y0197724D01*
X0095687Y0199746D01*
X0095564Y0200203D01*
X0095327Y0200614D01*
X0094992Y0200949D01*
X0094581Y0201186D01*
X0094124Y0201309D01*
X0091315Y0201309D01*
X0091315Y0197724D01*
X0090946Y0197724D01*
X0090946Y0197356D01*
X0086575Y0197356D01*
X0086575Y0197247D01*
X0086054Y0197768D01*
X0085669Y0197768D01*
X0085669Y0201634D01*
X0086051Y0201531D01*
X0088269Y0201531D01*
X0088269Y0205116D01*
X0088638Y0205116D01*
X0088638Y0201531D01*
X0090856Y0201531D01*
X0091314Y0201654D01*
X0091641Y0201843D01*
X0092153Y0201331D01*
X0098140Y0201331D01*
X0098800Y0201991D01*
X0099503Y0201288D01*
X0102190Y0201288D01*
X0102435Y0201015D01*
X0102442Y0201012D01*
X0106788Y0196223D01*
X0106788Y0193760D01*
X0106788Y0195220D02*
X0095656Y0195220D01*
X0095687Y0196818D02*
X0106248Y0196818D01*
X0104797Y0198417D02*
X0095687Y0198417D01*
X0095614Y0200015D02*
X0103346Y0200015D01*
X0104146Y0203300D02*
X0102800Y0204800D01*
X0102300Y0205454D01*
X0096107Y0205646D01*
X0095146Y0205300D01*
X0091641Y0208757D02*
X0091314Y0208946D01*
X0090856Y0209068D01*
X0088638Y0209068D01*
X0088638Y0205484D01*
X0088269Y0205484D01*
X0088269Y0209068D01*
X0086051Y0209068D01*
X0085669Y0208966D01*
X0085669Y0210134D01*
X0086051Y0210031D01*
X0088269Y0210031D01*
X0088269Y0213616D01*
X0088638Y0213616D01*
X0088638Y0210031D01*
X0090856Y0210031D01*
X0091314Y0210154D01*
X0091641Y0210343D01*
X0092153Y0209831D01*
X0098140Y0209831D01*
X0098331Y0210023D01*
X0098331Y0209153D01*
X0098684Y0208800D01*
X0098646Y0208762D01*
X0098140Y0209268D01*
X0092153Y0209268D01*
X0091641Y0208757D01*
X0088638Y0208008D02*
X0088269Y0208008D01*
X0088269Y0206409D02*
X0088638Y0206409D01*
X0088638Y0204811D02*
X0088269Y0204811D01*
X0088269Y0203212D02*
X0088638Y0203212D01*
X0088638Y0201614D02*
X0088269Y0201614D01*
X0088138Y0201309D02*
X0087680Y0201186D01*
X0087270Y0200949D01*
X0086934Y0200614D01*
X0086697Y0200203D01*
X0086575Y0199746D01*
X0086575Y0197724D01*
X0090946Y0197724D01*
X0090946Y0201309D01*
X0088138Y0201309D01*
X0086647Y0200015D02*
X0085669Y0200015D01*
X0085669Y0198417D02*
X0086575Y0198417D01*
X0085744Y0201614D02*
X0085669Y0201614D01*
X0091163Y0201614D02*
X0091870Y0201614D01*
X0091315Y0200015D02*
X0090946Y0200015D01*
X0090946Y0198417D02*
X0091315Y0198417D01*
X0098423Y0201614D02*
X0099177Y0201614D01*
X0104146Y0203300D02*
X0110954Y0195800D01*
X0111133Y0199768D02*
X0106268Y0205128D01*
X0106268Y0208447D01*
X0105916Y0208800D01*
X0106268Y0209153D01*
X0106268Y0215140D01*
X0105097Y0216312D01*
X0102479Y0216312D01*
X0100411Y0218800D01*
X0129394Y0218800D01*
X0129394Y0217405D01*
X0129762Y0217037D01*
X0129717Y0216959D01*
X0129594Y0216502D01*
X0129594Y0214887D01*
X0133757Y0214887D01*
X0137919Y0214887D01*
X0133757Y0214887D01*
X0133757Y0214887D01*
X0133757Y0214887D01*
X0133757Y0214886D02*
X0133757Y0210162D01*
X0133757Y0210162D01*
X0129594Y0210162D01*
X0129594Y0208547D01*
X0129717Y0208089D01*
X0129884Y0207800D01*
X0129717Y0207511D01*
X0129594Y0207053D01*
X0129594Y0205438D01*
X0133757Y0205438D01*
X0133757Y0200714D01*
X0133757Y0200714D01*
X0133757Y0203891D01*
X0133757Y0205438D01*
X0133757Y0205438D01*
X0133757Y0205438D01*
X0129594Y0205438D01*
X0129594Y0203823D01*
X0129717Y0203365D01*
X0129884Y0203076D01*
X0129717Y0202786D01*
X0129594Y0202328D01*
X0129594Y0200713D01*
X0129594Y0199098D01*
X0129677Y0198789D01*
X0121620Y0198789D01*
X0120640Y0199768D01*
X0114653Y0199768D01*
X0114300Y0199416D01*
X0113947Y0199768D01*
X0111133Y0199768D01*
X0110909Y0200015D02*
X0129594Y0200015D01*
X0129594Y0200713D02*
X0133757Y0200713D01*
X0133757Y0200713D01*
X0129594Y0200713D01*
X0129594Y0201614D02*
X0109458Y0201614D01*
X0108007Y0203212D02*
X0129805Y0203212D01*
X0129594Y0204811D02*
X0106556Y0204811D01*
X0106268Y0206409D02*
X0129594Y0206409D01*
X0129764Y0208008D02*
X0106268Y0208008D01*
X0106268Y0209606D02*
X0129594Y0209606D01*
X0129594Y0210162D02*
X0133757Y0210162D01*
X0133757Y0210162D01*
X0133757Y0213340D01*
X0133757Y0214886D01*
X0133757Y0214886D01*
X0133757Y0214887D02*
X0129594Y0214887D01*
X0129594Y0213272D01*
X0129717Y0212814D01*
X0129884Y0212524D01*
X0129717Y0212235D01*
X0129594Y0211777D01*
X0129594Y0210162D01*
X0129594Y0211205D02*
X0106268Y0211205D01*
X0106268Y0212803D02*
X0129723Y0212803D01*
X0129594Y0214402D02*
X0106268Y0214402D01*
X0105408Y0216001D02*
X0129594Y0216001D01*
X0129394Y0217599D02*
X0101409Y0217599D01*
X0100646Y0213800D02*
X0102300Y0212146D01*
X0090954Y0225800D01*
X0091052Y0232800D01*
X0093130Y0218800D02*
X0082825Y0218800D01*
X0084813Y0216813D01*
X0084848Y0216874D01*
X0085183Y0217209D01*
X0085593Y0217446D01*
X0086051Y0217568D01*
X0088269Y0217568D01*
X0088269Y0213984D01*
X0088638Y0213984D01*
X0088638Y0217568D01*
X0090856Y0217568D01*
X0091314Y0217446D01*
X0091641Y0217257D01*
X0092153Y0217768D01*
X0093987Y0217768D01*
X0093130Y0218800D01*
X0091983Y0217599D02*
X0084026Y0217599D01*
X0088269Y0216001D02*
X0088638Y0216001D01*
X0088638Y0214402D02*
X0088269Y0214402D01*
X0088269Y0212803D02*
X0088638Y0212803D01*
X0088638Y0211205D02*
X0088269Y0211205D01*
X0085669Y0209606D02*
X0098331Y0209606D01*
X0100646Y0213800D02*
X0095146Y0213800D01*
X0079269Y0213305D02*
X0079269Y0209698D01*
X0079132Y0210029D01*
X0077529Y0211632D01*
X0075434Y0212500D01*
X0073166Y0212500D01*
X0071071Y0211632D01*
X0069468Y0210029D01*
X0068600Y0207934D01*
X0068600Y0205666D01*
X0069468Y0203571D01*
X0071071Y0201968D01*
X0071100Y0201956D01*
X0071100Y0193163D01*
X0071168Y0193000D01*
X0070666Y0193000D01*
X0068571Y0192132D01*
X0066968Y0190529D01*
X0066100Y0188434D01*
X0066100Y0186166D01*
X0066968Y0184071D01*
X0068571Y0182468D01*
X0070666Y0181600D01*
X0072934Y0181600D01*
X0073670Y0181905D01*
X0087212Y0168362D01*
X0079909Y0168362D01*
X0078738Y0167191D01*
X0078738Y0158409D01*
X0079909Y0157238D01*
X0088691Y0157238D01*
X0089862Y0158409D01*
X0089862Y0165712D01*
X0092587Y0162987D01*
X0093487Y0162087D01*
X0094663Y0161600D01*
X0098616Y0161600D01*
X0099385Y0160831D01*
X0106554Y0160831D01*
X0106875Y0161153D01*
X0106875Y0159017D01*
X0106859Y0158969D01*
X0106869Y0158847D01*
X0106450Y0158428D01*
X0106450Y0153772D01*
X0107621Y0152600D01*
X0107345Y0152440D01*
X0107010Y0152105D01*
X0106773Y0151695D01*
X0106650Y0151237D01*
X0106650Y0149500D01*
X0110300Y0149500D01*
X0113950Y0149500D01*
X0113950Y0151237D01*
X0113827Y0151695D01*
X0113680Y0151950D01*
X0117828Y0151950D01*
X0118800Y0152922D01*
X0119300Y0152422D01*
X0119300Y0148443D01*
X0119726Y0147414D01*
X0120340Y0146800D01*
X0113496Y0146800D01*
X0113590Y0146895D01*
X0113827Y0147305D01*
X0113950Y0147763D01*
X0113950Y0149500D01*
X0110300Y0149500D01*
X0110300Y0149500D01*
X0110300Y0149500D01*
X0106650Y0149500D01*
X0106650Y0147763D01*
X0106773Y0147305D01*
X0107010Y0146895D01*
X0107104Y0146800D01*
X0019862Y0146800D01*
X0019862Y0147191D01*
X0018691Y0148362D01*
X0009909Y0148362D01*
X0008738Y0147191D01*
X0008738Y0146800D01*
X0004300Y0146800D01*
X0004300Y0235761D01*
X0076800Y0235761D01*
X0076800Y0227417D01*
X0076132Y0229029D01*
X0074529Y0230632D01*
X0072434Y0231500D01*
X0070166Y0231500D01*
X0068071Y0230632D01*
X0066468Y0229029D01*
X0065600Y0226934D01*
X0065600Y0224666D01*
X0066468Y0222571D01*
X0068071Y0220968D01*
X0070166Y0220100D01*
X0072434Y0220100D01*
X0072463Y0220112D01*
X0079269Y0213305D01*
X0079269Y0212803D02*
X0004300Y0212803D01*
X0004300Y0211205D02*
X0010644Y0211205D01*
X0011071Y0211632D02*
X0009468Y0210029D01*
X0008600Y0207934D01*
X0008600Y0205666D01*
X0009468Y0203571D01*
X0011071Y0201968D01*
X0013166Y0201100D01*
X0015434Y0201100D01*
X0017529Y0201968D01*
X0019132Y0203571D01*
X0020000Y0205666D01*
X0020000Y0207934D01*
X0019132Y0210029D01*
X0017529Y0211632D01*
X0015434Y0212500D01*
X0013166Y0212500D01*
X0011071Y0211632D01*
X0009293Y0209606D02*
X0004300Y0209606D01*
X0004300Y0208008D02*
X0008631Y0208008D01*
X0008600Y0206409D02*
X0004300Y0206409D01*
X0004300Y0204811D02*
X0008954Y0204811D01*
X0009827Y0203212D02*
X0004300Y0203212D01*
X0004300Y0201614D02*
X0011925Y0201614D01*
X0016675Y0201614D02*
X0071100Y0201614D01*
X0071100Y0200015D02*
X0004300Y0200015D01*
X0004300Y0198417D02*
X0071100Y0198417D01*
X0071100Y0196818D02*
X0004300Y0196818D01*
X0004300Y0195220D02*
X0071100Y0195220D01*
X0071100Y0193621D02*
X0004300Y0193621D01*
X0004300Y0192023D02*
X0008462Y0192023D01*
X0008571Y0192132D02*
X0006968Y0190529D01*
X0006100Y0188434D01*
X0006100Y0186166D01*
X0006968Y0184071D01*
X0008571Y0182468D01*
X0010666Y0181600D01*
X0012934Y0181600D01*
X0015029Y0182468D01*
X0016632Y0184071D01*
X0017500Y0186166D01*
X0017500Y0188434D01*
X0016632Y0190529D01*
X0015029Y0192132D01*
X0012934Y0193000D01*
X0010666Y0193000D01*
X0008571Y0192132D01*
X0006925Y0190424D02*
X0004300Y0190424D01*
X0004300Y0188826D02*
X0006262Y0188826D01*
X0006100Y0187227D02*
X0004300Y0187227D01*
X0004300Y0185629D02*
X0006323Y0185629D01*
X0007009Y0184030D02*
X0004300Y0184030D01*
X0004300Y0182432D02*
X0008658Y0182432D01*
X0004300Y0180833D02*
X0074741Y0180833D01*
X0076340Y0179235D02*
X0004300Y0179235D01*
X0004300Y0177636D02*
X0077938Y0177636D01*
X0079537Y0176038D02*
X0004300Y0176038D01*
X0004300Y0174439D02*
X0081135Y0174439D01*
X0082734Y0172841D02*
X0004300Y0172841D01*
X0004300Y0171242D02*
X0084332Y0171242D01*
X0085931Y0169644D02*
X0004300Y0169644D01*
X0004300Y0168045D02*
X0010064Y0168045D01*
X0010043Y0168040D02*
X0009633Y0167803D01*
X0009297Y0167467D01*
X0009060Y0167057D01*
X0008938Y0166599D01*
X0008938Y0163181D01*
X0013919Y0163181D01*
X0013919Y0168162D01*
X0010501Y0168162D01*
X0010043Y0168040D01*
X0008938Y0166447D02*
X0004300Y0166447D01*
X0004300Y0164848D02*
X0008938Y0164848D01*
X0008938Y0163250D02*
X0004300Y0163250D01*
X0004300Y0161651D02*
X0008938Y0161651D01*
X0008938Y0162419D02*
X0008938Y0159001D01*
X0009060Y0158543D01*
X0009297Y0158133D01*
X0009633Y0157797D01*
X0010043Y0157560D01*
X0010501Y0157438D01*
X0013919Y0157438D01*
X0013919Y0162419D01*
X0014681Y0162419D01*
X0014681Y0163181D01*
X0013919Y0163181D01*
X0013919Y0162419D01*
X0008938Y0162419D01*
X0008938Y0160053D02*
X0004300Y0160053D01*
X0004300Y0158454D02*
X0009112Y0158454D01*
X0013919Y0158454D02*
X0014681Y0158454D01*
X0014681Y0157438D02*
X0018099Y0157438D01*
X0018557Y0157560D01*
X0018967Y0157797D01*
X0019303Y0158133D01*
X0019540Y0158543D01*
X0019662Y0159001D01*
X0019662Y0162419D01*
X0014681Y0162419D01*
X0014681Y0157438D01*
X0014681Y0160053D02*
X0013919Y0160053D01*
X0013919Y0161651D02*
X0014681Y0161651D01*
X0014681Y0163181D02*
X0019662Y0163181D01*
X0019662Y0166599D01*
X0019540Y0167057D01*
X0019303Y0167467D01*
X0018967Y0167803D01*
X0018557Y0168040D01*
X0018099Y0168162D01*
X0014681Y0168162D01*
X0014681Y0163181D01*
X0014681Y0163250D02*
X0013919Y0163250D01*
X0013919Y0164848D02*
X0014681Y0164848D01*
X0014681Y0166447D02*
X0013919Y0166447D01*
X0013919Y0168045D02*
X0014681Y0168045D01*
X0018536Y0168045D02*
X0079592Y0168045D01*
X0078738Y0166447D02*
X0019662Y0166447D01*
X0019662Y0164848D02*
X0078738Y0164848D01*
X0078738Y0163250D02*
X0019662Y0163250D01*
X0019662Y0161651D02*
X0078738Y0161651D01*
X0078738Y0160053D02*
X0019662Y0160053D01*
X0019488Y0158454D02*
X0078738Y0158454D01*
X0089862Y0158454D02*
X0106476Y0158454D01*
X0106450Y0156856D02*
X0004300Y0156856D01*
X0004300Y0155257D02*
X0106450Y0155257D01*
X0106563Y0153659D02*
X0004300Y0153659D01*
X0004300Y0152060D02*
X0106984Y0152060D01*
X0106650Y0150462D02*
X0004300Y0150462D01*
X0004300Y0148863D02*
X0106650Y0148863D01*
X0106796Y0147265D02*
X0019788Y0147265D01*
X0008812Y0147265D02*
X0004300Y0147265D01*
X0014942Y0182432D02*
X0068658Y0182432D01*
X0067009Y0184030D02*
X0016591Y0184030D01*
X0017277Y0185629D02*
X0066323Y0185629D01*
X0066100Y0187227D02*
X0017500Y0187227D01*
X0017338Y0188826D02*
X0066262Y0188826D01*
X0066925Y0190424D02*
X0016675Y0190424D01*
X0015138Y0192023D02*
X0068462Y0192023D01*
X0069827Y0203212D02*
X0018773Y0203212D01*
X0019646Y0204811D02*
X0068954Y0204811D01*
X0068600Y0206409D02*
X0020000Y0206409D01*
X0019969Y0208008D02*
X0068631Y0208008D01*
X0069293Y0209606D02*
X0019307Y0209606D01*
X0017956Y0211205D02*
X0070644Y0211205D01*
X0076574Y0216001D02*
X0004300Y0216001D01*
X0004300Y0217599D02*
X0074975Y0217599D01*
X0073377Y0219198D02*
X0004300Y0219198D01*
X0004300Y0220796D02*
X0008486Y0220796D01*
X0008071Y0220968D02*
X0010166Y0220100D01*
X0012434Y0220100D01*
X0014529Y0220968D01*
X0016132Y0222571D01*
X0017000Y0224666D01*
X0017000Y0226934D01*
X0016132Y0229029D01*
X0014529Y0230632D01*
X0012434Y0231500D01*
X0010166Y0231500D01*
X0008071Y0230632D01*
X0006468Y0229029D01*
X0005600Y0226934D01*
X0005600Y0224666D01*
X0006468Y0222571D01*
X0008071Y0220968D01*
X0006644Y0222395D02*
X0004300Y0222395D01*
X0004300Y0223993D02*
X0005879Y0223993D01*
X0005600Y0225592D02*
X0004300Y0225592D01*
X0004300Y0227190D02*
X0005706Y0227190D01*
X0006368Y0228789D02*
X0004300Y0228789D01*
X0004300Y0230387D02*
X0007826Y0230387D01*
X0004300Y0231986D02*
X0076800Y0231986D01*
X0076800Y0233584D02*
X0004300Y0233584D01*
X0004300Y0235183D02*
X0076800Y0235183D01*
X0076800Y0230387D02*
X0074774Y0230387D01*
X0076232Y0228789D02*
X0076800Y0228789D01*
X0067826Y0230387D02*
X0014774Y0230387D01*
X0016232Y0228789D02*
X0066368Y0228789D01*
X0065706Y0227190D02*
X0016894Y0227190D01*
X0017000Y0225592D02*
X0065600Y0225592D01*
X0065879Y0223993D02*
X0016721Y0223993D01*
X0015956Y0222395D02*
X0066644Y0222395D01*
X0068486Y0220796D02*
X0014114Y0220796D01*
X0004300Y0214402D02*
X0078173Y0214402D01*
X0077956Y0211205D02*
X0079269Y0211205D01*
X0116294Y0191831D02*
X0120640Y0191831D01*
X0121812Y0193003D01*
X0121812Y0193189D01*
X0129677Y0193189D01*
X0129594Y0192879D01*
X0129594Y0191265D01*
X0133757Y0191265D01*
X0133757Y0191264D01*
X0129594Y0191264D01*
X0129594Y0189650D01*
X0129717Y0189192D01*
X0129954Y0188781D01*
X0130227Y0188509D01*
X0129954Y0188236D01*
X0129717Y0187825D01*
X0129594Y0187368D01*
X0129594Y0185150D01*
X0133376Y0185150D01*
X0133376Y0184387D01*
X0129594Y0184387D01*
X0129594Y0182169D01*
X0129717Y0181712D01*
X0129782Y0181600D01*
X0126478Y0181600D01*
X0125428Y0182650D01*
X0120772Y0182650D01*
X0120600Y0182478D01*
X0120600Y0186978D01*
X0119428Y0188150D01*
X0119000Y0188150D01*
X0119000Y0188437D01*
X0118513Y0189613D01*
X0117613Y0190513D01*
X0116294Y0191831D01*
X0117701Y0190424D02*
X0129594Y0190424D01*
X0129594Y0192023D02*
X0120832Y0192023D01*
X0118839Y0188826D02*
X0129928Y0188826D01*
X0129594Y0187227D02*
X0120351Y0187227D01*
X0120600Y0185629D02*
X0129594Y0185629D01*
X0129594Y0184030D02*
X0120600Y0184030D01*
X0125647Y0182432D02*
X0129594Y0182432D01*
X0134138Y0184387D02*
X0134138Y0185150D01*
X0137862Y0185150D01*
X0137862Y0184769D01*
X0141040Y0184769D01*
X0141040Y0188931D01*
X0141040Y0184769D01*
X0141040Y0184769D01*
X0141040Y0184768D01*
X0137862Y0184768D01*
X0137862Y0184387D01*
X0134138Y0184387D01*
X0134138Y0185629D02*
X0133376Y0185629D01*
X0133376Y0187227D02*
X0134138Y0187227D01*
X0133757Y0188826D02*
X0133757Y0188826D01*
X0133757Y0190424D02*
X0133757Y0190424D01*
X0137585Y0188826D02*
X0139034Y0188826D01*
X0137919Y0190424D02*
X0186681Y0190424D01*
X0186681Y0192023D02*
X0137919Y0192023D01*
X0137958Y0193621D02*
X0142880Y0193621D01*
X0142946Y0193506D02*
X0143281Y0193171D01*
X0143692Y0192934D01*
X0144150Y0192811D01*
X0147327Y0192811D01*
X0147327Y0198535D01*
X0148927Y0198535D01*
X0148927Y0192811D01*
X0152104Y0192811D01*
X0152562Y0192934D01*
X0152972Y0193171D01*
X0153307Y0193506D01*
X0153544Y0193916D01*
X0153667Y0194374D01*
X0153667Y0198535D01*
X0148927Y0198535D01*
X0148927Y0200135D01*
X0153667Y0200135D01*
X0153667Y0204297D01*
X0153544Y0204755D01*
X0153307Y0205165D01*
X0152972Y0205500D01*
X0152562Y0205737D01*
X0152104Y0205860D01*
X0148927Y0205860D01*
X0148927Y0200135D01*
X0147327Y0200135D01*
X0147327Y0198535D01*
X0142587Y0198535D01*
X0142587Y0194374D01*
X0142709Y0193916D01*
X0142946Y0193506D01*
X0142587Y0195220D02*
X0138119Y0195220D01*
X0138119Y0196818D02*
X0142587Y0196818D01*
X0142587Y0198417D02*
X0137897Y0198417D01*
X0137919Y0200015D02*
X0147327Y0200015D01*
X0147327Y0200135D02*
X0142587Y0200135D01*
X0142587Y0204297D01*
X0142709Y0204755D01*
X0142946Y0205165D01*
X0143281Y0205500D01*
X0143692Y0205737D01*
X0144150Y0205860D01*
X0147327Y0205860D01*
X0147327Y0200135D01*
X0147327Y0201614D02*
X0148927Y0201614D01*
X0148927Y0203212D02*
X0147327Y0203212D01*
X0147327Y0204811D02*
X0148927Y0204811D01*
X0153512Y0204811D02*
X0156915Y0204811D01*
X0156883Y0204755D02*
X0156760Y0204297D01*
X0156760Y0200135D01*
X0161500Y0200135D01*
X0161500Y0198535D01*
X0163100Y0198535D01*
X0163100Y0192811D01*
X0166277Y0192811D01*
X0166735Y0192934D01*
X0167145Y0193171D01*
X0167481Y0193506D01*
X0167717Y0193916D01*
X0167840Y0194374D01*
X0167840Y0198535D01*
X0163100Y0198535D01*
X0163100Y0200135D01*
X0167840Y0200135D01*
X0167840Y0204297D01*
X0167717Y0204755D01*
X0167481Y0205165D01*
X0167145Y0205500D01*
X0166735Y0205737D01*
X0166277Y0205860D01*
X0163100Y0205860D01*
X0163100Y0200135D01*
X0161500Y0200135D01*
X0161500Y0205860D01*
X0158323Y0205860D01*
X0157865Y0205737D01*
X0157455Y0205500D01*
X0157119Y0205165D01*
X0156883Y0204755D01*
X0156760Y0203212D02*
X0153667Y0203212D01*
X0153667Y0201614D02*
X0156760Y0201614D01*
X0156760Y0198535D02*
X0156760Y0194374D01*
X0156883Y0193916D01*
X0157119Y0193506D01*
X0157455Y0193171D01*
X0157865Y0192934D01*
X0158323Y0192811D01*
X0161500Y0192811D01*
X0161500Y0198535D01*
X0156760Y0198535D01*
X0156760Y0198417D02*
X0153667Y0198417D01*
X0153667Y0196818D02*
X0156760Y0196818D01*
X0156760Y0195220D02*
X0153667Y0195220D01*
X0153374Y0193621D02*
X0157053Y0193621D01*
X0161500Y0193621D02*
X0163100Y0193621D01*
X0163100Y0195220D02*
X0161500Y0195220D01*
X0161500Y0196818D02*
X0163100Y0196818D01*
X0163100Y0198417D02*
X0161500Y0198417D01*
X0161500Y0200015D02*
X0148927Y0200015D01*
X0148927Y0198417D02*
X0147327Y0198417D01*
X0147327Y0196818D02*
X0148927Y0196818D01*
X0148927Y0195220D02*
X0147327Y0195220D01*
X0147327Y0193621D02*
X0148927Y0193621D01*
X0143253Y0188826D02*
X0143046Y0188826D01*
X0141040Y0188826D02*
X0141040Y0188826D01*
X0141040Y0187227D02*
X0141040Y0187227D01*
X0141040Y0185629D02*
X0141040Y0185629D01*
X0140800Y0178800D02*
X0123100Y0178800D01*
X0125186Y0174439D02*
X0142000Y0174439D01*
X0142000Y0172841D02*
X0126625Y0172841D01*
X0127000Y0171242D02*
X0142000Y0171242D01*
X0148800Y0171800D02*
X0148800Y0144800D01*
X0151339Y0137673D02*
X0151967Y0137673D01*
X0152590Y0136075D02*
X0158461Y0136075D01*
X0158461Y0134476D02*
X0152981Y0134476D01*
X0152737Y0132878D02*
X0158461Y0132878D01*
X0158461Y0131279D02*
X0151692Y0131279D01*
X0145908Y0131279D02*
X0145139Y0131279D01*
X0145139Y0129681D02*
X0158461Y0129681D01*
X0158461Y0128082D02*
X0145139Y0128082D01*
X0144964Y0126484D02*
X0158636Y0126484D01*
X0158461Y0124885D02*
X0145139Y0124885D01*
X0145139Y0123287D02*
X0158461Y0123287D01*
X0159064Y0121688D02*
X0144536Y0121688D01*
X0139100Y0120090D02*
X0167200Y0120090D01*
X0167200Y0118491D02*
X0139100Y0118491D01*
X0139100Y0116893D02*
X0167200Y0116893D01*
X0167200Y0115294D02*
X0155311Y0115294D01*
X0154205Y0116400D02*
X0152300Y0116400D01*
X0152300Y0111800D01*
X0156900Y0111800D01*
X0156900Y0113705D01*
X0154205Y0116400D01*
X0152300Y0116400D02*
X0150395Y0116400D01*
X0147700Y0113705D01*
X0147700Y0111800D01*
X0152300Y0111800D01*
X0152300Y0111800D01*
X0152300Y0111800D01*
X0156900Y0111800D01*
X0156900Y0109895D01*
X0154205Y0107200D01*
X0152300Y0107200D01*
X0152300Y0111800D01*
X0152300Y0111800D01*
X0152300Y0111800D01*
X0152300Y0116400D01*
X0152300Y0115294D02*
X0152300Y0115294D01*
X0152300Y0113696D02*
X0152300Y0113696D01*
X0152300Y0112097D02*
X0152300Y0112097D01*
X0152300Y0111800D02*
X0147700Y0111800D01*
X0147700Y0109895D01*
X0150395Y0107200D01*
X0152300Y0107200D01*
X0152300Y0111800D01*
X0152300Y0110499D02*
X0152300Y0110499D01*
X0152300Y0108900D02*
X0152300Y0108900D01*
X0152300Y0107302D02*
X0152300Y0107302D01*
X0154307Y0107302D02*
X0167200Y0107302D01*
X0167200Y0108900D02*
X0155906Y0108900D01*
X0156900Y0110499D02*
X0167200Y0110499D01*
X0167200Y0112097D02*
X0156900Y0112097D01*
X0156900Y0113696D02*
X0167200Y0113696D01*
X0174400Y0113696D02*
X0180100Y0113696D01*
X0180100Y0115294D02*
X0174400Y0115294D01*
X0174400Y0116893D02*
X0175660Y0116893D01*
X0175701Y0116882D02*
X0178300Y0116882D01*
X0180100Y0116882D01*
X0180100Y0111625D01*
X0176956Y0108481D01*
X0176468Y0108481D01*
X0174932Y0107845D01*
X0174400Y0107313D01*
X0174400Y0117745D01*
X0174497Y0117577D01*
X0174833Y0117242D01*
X0175243Y0117005D01*
X0175701Y0116882D01*
X0178300Y0116882D02*
X0178300Y0120257D01*
X0178300Y0120257D01*
X0178300Y0123631D01*
X0180100Y0123631D01*
X0180100Y0123769D01*
X0176650Y0123769D01*
X0176650Y0123672D01*
X0176610Y0123631D01*
X0178300Y0123631D01*
X0178300Y0120257D01*
X0178300Y0116882D01*
X0178300Y0116893D02*
X0178300Y0116893D01*
X0178300Y0118491D02*
X0178300Y0118491D01*
X0178300Y0120090D02*
X0178300Y0120090D01*
X0178300Y0120257D02*
X0178300Y0120257D01*
X0178300Y0121688D02*
X0178300Y0121688D01*
X0178300Y0123287D02*
X0178300Y0123287D01*
X0179800Y0126800D02*
X0179800Y0173800D01*
X0182800Y0177800D01*
X0185729Y0180784D02*
X0186043Y0180966D01*
X0186378Y0181301D01*
X0186615Y0181712D01*
X0186709Y0182064D01*
X0186804Y0181712D01*
X0187041Y0181301D01*
X0187376Y0180966D01*
X0187786Y0180729D01*
X0188244Y0180606D01*
X0190462Y0180606D01*
X0190462Y0184387D01*
X0191224Y0184387D01*
X0191224Y0180606D01*
X0193442Y0180606D01*
X0193600Y0180649D01*
X0193600Y0180500D01*
X0188663Y0180500D01*
X0187487Y0180013D01*
X0186725Y0179250D01*
X0186345Y0180168D01*
X0185729Y0180784D01*
X0185813Y0180833D02*
X0187606Y0180833D01*
X0190462Y0180833D02*
X0191224Y0180833D01*
X0191224Y0182432D02*
X0190462Y0182432D01*
X0190462Y0184030D02*
X0191224Y0184030D01*
X0190462Y0184387D02*
X0186738Y0184387D01*
X0186738Y0184768D01*
X0183560Y0184768D01*
X0183560Y0184769D01*
X0186738Y0184769D01*
X0186738Y0185150D01*
X0190462Y0185150D01*
X0190462Y0184387D01*
X0190462Y0185629D02*
X0191224Y0185629D01*
X0191224Y0187227D02*
X0190462Y0187227D01*
X0190843Y0188826D02*
X0190843Y0188826D01*
X0190843Y0190424D02*
X0190843Y0190424D01*
X0187015Y0188826D02*
X0185566Y0188826D01*
X0183560Y0188826D02*
X0183560Y0188826D01*
X0183560Y0187227D02*
X0183560Y0187227D01*
X0183560Y0185629D02*
X0183560Y0185629D01*
X0183560Y0184769D02*
X0183560Y0184768D01*
X0180382Y0184768D01*
X0178836Y0184768D01*
X0178836Y0184769D01*
X0183560Y0184769D01*
X0181554Y0188826D02*
X0180842Y0188826D01*
X0178835Y0188826D02*
X0178835Y0188826D01*
X0178835Y0188931D02*
X0178835Y0184769D01*
X0178835Y0184769D01*
X0178835Y0188931D01*
X0178835Y0187227D02*
X0178835Y0187227D01*
X0178835Y0185629D02*
X0178835Y0185629D01*
X0176829Y0188826D02*
X0176622Y0188826D01*
X0175673Y0192811D02*
X0172496Y0192811D01*
X0172038Y0192934D01*
X0171628Y0193171D01*
X0171293Y0193506D01*
X0171056Y0193916D01*
X0170933Y0194374D01*
X0170933Y0198535D01*
X0175673Y0198535D01*
X0177273Y0198535D01*
X0177273Y0200135D01*
X0182013Y0200135D01*
X0182013Y0204297D01*
X0181891Y0204755D01*
X0181654Y0205165D01*
X0181319Y0205500D01*
X0180908Y0205737D01*
X0180450Y0205860D01*
X0177273Y0205860D01*
X0177273Y0200135D01*
X0175673Y0200135D01*
X0175673Y0198535D01*
X0175673Y0192811D01*
X0175673Y0193621D02*
X0177273Y0193621D01*
X0177273Y0195220D02*
X0175673Y0195220D01*
X0175673Y0196818D02*
X0177273Y0196818D01*
X0177273Y0198417D02*
X0175673Y0198417D01*
X0175673Y0200015D02*
X0163100Y0200015D01*
X0163100Y0201614D02*
X0161500Y0201614D01*
X0161500Y0203212D02*
X0163100Y0203212D01*
X0163100Y0204811D02*
X0161500Y0204811D01*
X0163100Y0209740D02*
X0166277Y0209740D01*
X0166735Y0209863D01*
X0167145Y0210100D01*
X0167481Y0210435D01*
X0167717Y0210845D01*
X0167840Y0211303D01*
X0167840Y0215465D01*
X0163100Y0215465D01*
X0163100Y0209740D01*
X0163100Y0211205D02*
X0161500Y0211205D01*
X0161500Y0212803D02*
X0163100Y0212803D01*
X0163100Y0214402D02*
X0161500Y0214402D01*
X0161500Y0216001D02*
X0148927Y0216001D01*
X0148927Y0215465D02*
X0153667Y0215465D01*
X0153667Y0211303D01*
X0153544Y0210845D01*
X0153307Y0210435D01*
X0152972Y0210100D01*
X0152562Y0209863D01*
X0152104Y0209740D01*
X0148927Y0209740D01*
X0148927Y0215465D01*
X0148927Y0214402D02*
X0147327Y0214402D01*
X0147327Y0216001D02*
X0137919Y0216001D01*
X0137919Y0214402D02*
X0142587Y0214402D01*
X0142587Y0212803D02*
X0137790Y0212803D01*
X0137919Y0211205D02*
X0142613Y0211205D01*
X0137919Y0209606D02*
X0181269Y0209606D01*
X0182179Y0208008D02*
X0137749Y0208008D01*
X0137919Y0206409D02*
X0186481Y0206409D01*
X0186481Y0204811D02*
X0181858Y0204811D01*
X0182013Y0203212D02*
X0186500Y0203212D01*
X0186481Y0201614D02*
X0182013Y0201614D01*
X0182844Y0200015D02*
X0177273Y0200015D01*
X0177273Y0201614D02*
X0175673Y0201614D01*
X0175673Y0200135D02*
X0175673Y0205860D01*
X0172496Y0205860D01*
X0172038Y0205737D01*
X0171628Y0205500D01*
X0171293Y0205165D01*
X0171056Y0204755D01*
X0170933Y0204297D01*
X0170933Y0200135D01*
X0175673Y0200135D01*
X0175673Y0203212D02*
X0177273Y0203212D01*
X0177273Y0204811D02*
X0175673Y0204811D01*
X0171088Y0204811D02*
X0167685Y0204811D01*
X0167840Y0203212D02*
X0170933Y0203212D01*
X0170933Y0201614D02*
X0167840Y0201614D01*
X0167840Y0198417D02*
X0170933Y0198417D01*
X0170933Y0196818D02*
X0167840Y0196818D01*
X0167840Y0195220D02*
X0170933Y0195220D01*
X0171226Y0193621D02*
X0167547Y0193621D01*
X0184800Y0196300D02*
X0190532Y0196300D01*
X0190843Y0195989D01*
X0194672Y0188826D02*
X0196743Y0188826D01*
X0176800Y0178800D02*
X0176800Y0137300D01*
X0167714Y0137673D02*
X0167186Y0137673D01*
X0167300Y0133300D02*
X0167300Y0131300D01*
X0165300Y0129300D01*
X0162824Y0129300D01*
X0162824Y0124300D02*
X0163324Y0123800D01*
X0170800Y0123800D01*
X0172800Y0125800D01*
X0172800Y0126000D01*
X0173600Y0126800D01*
X0179800Y0126800D01*
X0178300Y0127343D01*
X0180100Y0112097D02*
X0174400Y0112097D01*
X0174400Y0110499D02*
X0178973Y0110499D01*
X0177375Y0108900D02*
X0174400Y0108900D01*
X0167200Y0105703D02*
X0165185Y0105703D01*
X0166783Y0104105D02*
X0167200Y0104105D01*
X0167232Y0102506D02*
X0167100Y0102506D01*
X0167100Y0100908D02*
X0168101Y0100908D01*
X0166597Y0099309D02*
X0169700Y0099309D01*
X0171298Y0097711D02*
X0165100Y0097711D01*
X0165100Y0096112D02*
X0172897Y0096112D01*
X0173323Y0094514D02*
X0165100Y0094514D01*
X0165100Y0092915D02*
X0173119Y0092915D01*
X0173119Y0091317D02*
X0165100Y0091317D01*
X0165100Y0089718D02*
X0173119Y0089718D01*
X0181481Y0089718D02*
X0232438Y0089718D01*
X0232438Y0091317D02*
X0181481Y0091317D01*
X0181481Y0092915D02*
X0232438Y0092915D01*
X0233205Y0094514D02*
X0181277Y0094514D01*
X0180900Y0096112D02*
X0236000Y0096112D01*
X0236000Y0097711D02*
X0180819Y0097711D01*
X0162300Y0101800D02*
X0162300Y0086800D01*
X0201800Y0086800D01*
X0215300Y0073300D01*
X0238600Y0073300D01*
X0242800Y0077500D01*
X0248057Y0077500D01*
X0248800Y0076757D01*
X0250257Y0076757D01*
X0256300Y0082800D01*
X0263200Y0082800D01*
X0263200Y0087800D02*
X0256300Y0087800D01*
X0255800Y0087300D01*
X0246000Y0087300D01*
X0243500Y0090800D01*
X0243257Y0092557D01*
X0243257Y0096300D01*
X0243500Y0100057D01*
X0244000Y0101800D01*
X0240800Y0100800D02*
X0238800Y0098800D01*
X0238800Y0093343D01*
X0236800Y0091343D01*
X0233258Y0088120D02*
X0204440Y0088120D01*
X0206039Y0086521D02*
X0232759Y0086521D01*
X0232638Y0084923D02*
X0207637Y0084923D01*
X0209236Y0083324D02*
X0232638Y0083324D01*
X0232638Y0082445D02*
X0232760Y0081987D01*
X0232997Y0081577D01*
X0233333Y0081242D01*
X0233743Y0081005D01*
X0234201Y0080882D01*
X0236800Y0080882D01*
X0236800Y0084257D01*
X0236800Y0084257D01*
X0236957Y0084100D01*
X0242800Y0084100D01*
X0248543Y0084100D01*
X0248800Y0083843D01*
X0248800Y0080469D01*
X0250009Y0080469D01*
X0249872Y0080331D01*
X0246147Y0080331D01*
X0245940Y0080538D01*
X0246201Y0080469D01*
X0248800Y0080468D01*
X0248800Y0083843D01*
X0248800Y0083843D01*
X0248800Y0083843D01*
X0252962Y0083843D01*
X0252962Y0083422D01*
X0254040Y0084500D01*
X0252962Y0084500D01*
X0252962Y0083843D01*
X0248800Y0083843D01*
X0248800Y0083324D02*
X0248800Y0083324D01*
X0248800Y0081726D02*
X0248800Y0081726D01*
X0256300Y0077300D02*
X0252300Y0073300D01*
X0243300Y0073300D01*
X0240800Y0070800D01*
X0213300Y0070800D01*
X0200300Y0083800D01*
X0155800Y0083800D01*
X0152300Y0087300D01*
X0152300Y0091800D01*
X0147500Y0091317D02*
X0142243Y0091317D01*
X0140645Y0092915D02*
X0147500Y0092915D01*
X0148225Y0094514D02*
X0139100Y0094514D01*
X0139100Y0096112D02*
X0149824Y0096112D01*
X0154776Y0096112D02*
X0159500Y0096112D01*
X0159500Y0094514D02*
X0156375Y0094514D01*
X0157100Y0092915D02*
X0159500Y0092915D01*
X0159500Y0091317D02*
X0157100Y0091317D01*
X0157006Y0089718D02*
X0159500Y0089718D01*
X0159500Y0088120D02*
X0155440Y0088120D01*
X0150718Y0084923D02*
X0148637Y0084923D01*
X0149592Y0086521D02*
X0147039Y0086521D01*
X0145440Y0088120D02*
X0149192Y0088120D01*
X0147594Y0089718D02*
X0143842Y0089718D01*
X0136300Y0093300D02*
X0149300Y0080300D01*
X0181800Y0080300D01*
X0182300Y0017800D01*
X0189800Y0009800D01*
X0200331Y0009800D01*
X0201316Y0008816D01*
X0205800Y0008576D02*
X0205300Y0003800D01*
X0188300Y0003800D01*
X0179300Y0012800D01*
X0179300Y0077300D01*
X0147800Y0077300D01*
X0133300Y0091800D01*
X0133300Y0128800D01*
X0135300Y0130800D01*
X0138300Y0129300D02*
X0136300Y0127300D01*
X0136300Y0093300D01*
X0139100Y0097711D02*
X0159500Y0097711D01*
X0158003Y0099309D02*
X0139100Y0099309D01*
X0139100Y0100908D02*
X0157500Y0100908D01*
X0157500Y0102506D02*
X0139100Y0102506D01*
X0139100Y0104105D02*
X0157817Y0104105D01*
X0159415Y0105703D02*
X0139100Y0105703D01*
X0139100Y0107302D02*
X0150293Y0107302D01*
X0148694Y0108900D02*
X0139100Y0108900D01*
X0139100Y0110499D02*
X0147700Y0110499D01*
X0147700Y0112097D02*
X0139100Y0112097D01*
X0139100Y0113696D02*
X0147700Y0113696D01*
X0149289Y0115294D02*
X0139100Y0115294D01*
X0138300Y0129300D02*
X0140776Y0129300D01*
X0124800Y0146300D02*
X0122100Y0149000D01*
X0122100Y0155800D01*
X0119300Y0152060D02*
X0117938Y0152060D01*
X0119300Y0150462D02*
X0113950Y0150462D01*
X0113950Y0148863D02*
X0119300Y0148863D01*
X0119876Y0147265D02*
X0113804Y0147265D01*
X0106875Y0160053D02*
X0089862Y0160053D01*
X0089862Y0161651D02*
X0094540Y0161651D01*
X0092325Y0163250D02*
X0089862Y0163250D01*
X0089862Y0164848D02*
X0090726Y0164848D01*
X0096580Y0168045D02*
X0098662Y0168045D01*
X0091179Y0176038D02*
X0088588Y0176038D01*
X0117646Y0195800D02*
X0119335Y0195989D01*
X0133757Y0195989D01*
X0133757Y0201614D02*
X0133757Y0201614D01*
X0133757Y0203212D02*
X0133757Y0203212D01*
X0133757Y0204811D02*
X0133757Y0204811D01*
X0133757Y0206409D02*
X0133757Y0206409D01*
X0133757Y0208008D02*
X0133757Y0208008D01*
X0133757Y0209606D02*
X0133757Y0209606D01*
X0133757Y0211205D02*
X0133757Y0211205D01*
X0133757Y0212803D02*
X0133757Y0212803D01*
X0133757Y0214402D02*
X0133757Y0214402D01*
X0138119Y0217599D02*
X0142587Y0217599D01*
X0142587Y0219198D02*
X0138119Y0219198D01*
X0138119Y0220796D02*
X0142587Y0220796D01*
X0143247Y0222395D02*
X0138119Y0222395D01*
X0138119Y0223993D02*
X0146316Y0223993D01*
X0146119Y0225592D02*
X0138119Y0225592D01*
X0138113Y0227190D02*
X0137471Y0227190D01*
X0134138Y0231986D02*
X0133376Y0231986D01*
X0133376Y0233584D02*
X0134138Y0233584D01*
X0132800Y0235183D02*
X0138823Y0235183D01*
X0143258Y0235183D02*
X0143547Y0235183D01*
X0147982Y0235183D02*
X0148272Y0235183D01*
X0152706Y0235183D02*
X0157720Y0235183D01*
X0155213Y0233584D02*
X0155213Y0233584D01*
X0155213Y0231986D02*
X0155213Y0231986D01*
X0155213Y0230387D02*
X0155213Y0230387D01*
X0155213Y0228789D02*
X0155213Y0228789D01*
X0155213Y0227190D02*
X0155213Y0227190D01*
X0154481Y0225592D02*
X0161462Y0225592D01*
X0161590Y0223993D02*
X0154284Y0223993D01*
X0153308Y0222395D02*
X0157420Y0222395D01*
X0156760Y0220796D02*
X0153667Y0220796D01*
X0153667Y0219198D02*
X0156760Y0219198D01*
X0156760Y0217599D02*
X0153667Y0217599D01*
X0153667Y0214402D02*
X0156760Y0214402D01*
X0156760Y0212803D02*
X0153667Y0212803D01*
X0153641Y0211205D02*
X0156786Y0211205D01*
X0163100Y0216001D02*
X0175673Y0216001D01*
X0175673Y0214402D02*
X0177273Y0214402D01*
X0177273Y0216001D02*
X0186681Y0216001D01*
X0183070Y0214402D02*
X0182013Y0214402D01*
X0177273Y0212803D02*
X0175673Y0212803D01*
X0175673Y0211205D02*
X0177273Y0211205D01*
X0170959Y0211205D02*
X0167814Y0211205D01*
X0167840Y0212803D02*
X0170933Y0212803D01*
X0170933Y0214402D02*
X0167840Y0214402D01*
X0167840Y0217599D02*
X0170933Y0217599D01*
X0170933Y0219198D02*
X0167840Y0219198D01*
X0167840Y0220796D02*
X0170933Y0220796D01*
X0172334Y0224800D02*
X0172326Y0224808D01*
X0172334Y0224800D02*
X0174800Y0224800D01*
X0174111Y0231986D02*
X0174111Y0231986D01*
X0174111Y0233584D02*
X0174111Y0233584D01*
X0178835Y0233584D02*
X0178835Y0233584D01*
X0179300Y0233800D02*
X0179300Y0231296D01*
X0178835Y0230831D01*
X0178835Y0231986D02*
X0178835Y0231986D01*
X0179300Y0233800D02*
X0180800Y0235300D01*
X0186800Y0235300D01*
X0190843Y0231257D01*
X0190843Y0230831D01*
X0190462Y0230387D02*
X0191224Y0230387D01*
X0191224Y0228789D02*
X0190462Y0228789D01*
X0190843Y0227190D02*
X0190843Y0227190D01*
X0190843Y0225592D02*
X0190843Y0225592D01*
X0190154Y0220300D02*
X0184300Y0220300D01*
X0190154Y0220300D02*
X0190843Y0219611D01*
X0190206Y0210800D02*
X0185300Y0210800D01*
X0190206Y0210800D02*
X0190843Y0210162D01*
X0190462Y0231986D02*
X0191224Y0231986D01*
X0191224Y0233584D02*
X0190462Y0233584D01*
X0185777Y0235183D02*
X0294001Y0235183D01*
X0294001Y0233584D02*
X0288976Y0233584D01*
X0290574Y0231986D02*
X0294001Y0231986D01*
X0294001Y0230387D02*
X0292173Y0230387D01*
X0293421Y0228789D02*
X0294001Y0228789D01*
X0294001Y0227190D02*
X0293600Y0227190D01*
X0293600Y0225592D02*
X0294001Y0225592D01*
X0294001Y0223993D02*
X0293600Y0223993D01*
X0293600Y0222395D02*
X0294001Y0222395D01*
X0294001Y0220796D02*
X0293600Y0220796D01*
X0293600Y0219198D02*
X0294001Y0219198D01*
X0294001Y0217599D02*
X0293600Y0217599D01*
X0293600Y0216001D02*
X0294001Y0216001D01*
X0294001Y0214402D02*
X0293600Y0214402D01*
X0293600Y0212803D02*
X0294001Y0212803D01*
X0294001Y0211205D02*
X0293600Y0211205D01*
X0294001Y0209606D02*
X0293066Y0209606D01*
X0294001Y0208008D02*
X0291468Y0208008D01*
X0289869Y0206409D02*
X0294001Y0206409D01*
X0294001Y0204811D02*
X0288271Y0204811D01*
X0286300Y0206800D02*
X0290800Y0211300D01*
X0290800Y0227800D01*
X0286300Y0232300D01*
X0288000Y0220796D02*
X0284516Y0220796D01*
X0286115Y0219198D02*
X0288000Y0219198D01*
X0288000Y0217599D02*
X0286400Y0217599D01*
X0286400Y0216001D02*
X0288000Y0216001D01*
X0288000Y0214402D02*
X0286114Y0214402D01*
X0284516Y0212803D02*
X0288000Y0212803D01*
X0286745Y0211205D02*
X0284390Y0211205D01*
X0286300Y0206800D02*
X0281300Y0206800D01*
X0285208Y0203212D02*
X0294001Y0203212D01*
X0294001Y0201614D02*
X0283609Y0201614D01*
X0278991Y0201614D02*
X0273609Y0201614D01*
X0275208Y0203212D02*
X0277392Y0203212D01*
X0268991Y0201614D02*
X0263609Y0201614D01*
X0265208Y0203212D02*
X0267392Y0203212D01*
X0258991Y0201614D02*
X0255600Y0201614D01*
X0255600Y0203212D02*
X0257392Y0203212D01*
X0256000Y0204811D02*
X0255600Y0204811D01*
X0255869Y0206409D02*
X0256000Y0206409D01*
X0252800Y0207300D02*
X0252800Y0199800D01*
X0255600Y0200015D02*
X0294001Y0200015D01*
X0294001Y0198417D02*
X0255258Y0198417D01*
X0258661Y0196818D02*
X0294001Y0196818D01*
X0294001Y0195220D02*
X0258661Y0195220D01*
X0258661Y0193621D02*
X0294001Y0193621D01*
X0294001Y0192023D02*
X0258661Y0192023D01*
X0258661Y0190424D02*
X0260616Y0190424D01*
X0260288Y0188826D02*
X0258661Y0188826D01*
X0258661Y0187227D02*
X0260288Y0187227D01*
X0260169Y0185629D02*
X0258461Y0185629D01*
X0261300Y0182800D02*
X0254275Y0182800D01*
X0254200Y0182725D01*
X0249300Y0186300D02*
X0249174Y0176426D01*
X0254200Y0176426D01*
X0254326Y0176300D01*
X0262300Y0176300D01*
X0267300Y0171300D01*
X0267300Y0161800D01*
X0293600Y0135500D01*
X0292600Y0112800D01*
X0293800Y0112600D01*
X0293800Y0092800D01*
X0293800Y0085300D01*
X0291300Y0082800D01*
X0287400Y0082800D01*
X0293201Y0080127D02*
X0294001Y0080127D01*
X0294001Y0078529D02*
X0293400Y0078529D01*
X0293400Y0076930D02*
X0294001Y0076930D01*
X0294001Y0075332D02*
X0293060Y0075332D01*
X0293400Y0073733D02*
X0294001Y0073733D01*
X0294001Y0072134D02*
X0293400Y0072134D01*
X0293264Y0070536D02*
X0294001Y0070536D01*
X0294001Y0068937D02*
X0242897Y0068937D01*
X0251156Y0065740D02*
X0262300Y0065740D01*
X0262300Y0064142D02*
X0256659Y0064142D01*
X0256659Y0064171D02*
X0256536Y0064629D01*
X0256299Y0065039D01*
X0255964Y0065374D01*
X0255554Y0065611D01*
X0255096Y0065734D01*
X0253284Y0065734D01*
X0253284Y0060784D01*
X0253284Y0055835D01*
X0255096Y0055835D01*
X0255554Y0055957D01*
X0255964Y0056194D01*
X0256299Y0056529D01*
X0256536Y0056940D01*
X0256659Y0057398D01*
X0256659Y0060784D01*
X0253284Y0060784D01*
X0253284Y0060784D01*
X0253284Y0060784D01*
X0256659Y0060784D01*
X0256659Y0064171D01*
X0256659Y0062543D02*
X0262300Y0062543D01*
X0262300Y0060945D02*
X0256659Y0060945D01*
X0256659Y0059346D02*
X0262300Y0059346D01*
X0262300Y0057748D02*
X0256659Y0057748D01*
X0255887Y0056149D02*
X0262300Y0056149D01*
X0262300Y0054551D02*
X0194323Y0054551D01*
X0194270Y0054604D02*
X0186314Y0054604D01*
X0185143Y0053432D01*
X0185143Y0048626D01*
X0185343Y0048426D01*
X0185343Y0047005D01*
X0190292Y0047005D01*
X0190292Y0047005D01*
X0195242Y0047005D01*
X0195242Y0048426D01*
X0195442Y0048626D01*
X0195442Y0053432D01*
X0194270Y0054604D01*
X0195442Y0052952D02*
X0262300Y0052952D01*
X0262300Y0051354D02*
X0195442Y0051354D01*
X0195442Y0049755D02*
X0262300Y0049755D01*
X0262300Y0048157D02*
X0195242Y0048157D01*
X0195242Y0047005D02*
X0190292Y0047005D01*
X0190292Y0047005D01*
X0185343Y0047005D01*
X0185343Y0045193D01*
X0185408Y0044949D01*
X0185143Y0044684D01*
X0185143Y0035153D01*
X0185495Y0034800D01*
X0185143Y0034447D01*
X0185143Y0024916D01*
X0185408Y0024651D01*
X0185343Y0024407D01*
X0185343Y0022595D01*
X0190292Y0022595D01*
X0195242Y0022595D01*
X0195242Y0024407D01*
X0195176Y0024651D01*
X0195442Y0024916D01*
X0195442Y0034447D01*
X0195089Y0034800D01*
X0195442Y0035153D01*
X0195442Y0044684D01*
X0195176Y0044949D01*
X0195242Y0045193D01*
X0195242Y0047005D01*
X0195242Y0046558D02*
X0262300Y0046558D01*
X0262300Y0044960D02*
X0195179Y0044960D01*
X0195442Y0043361D02*
X0262300Y0043361D01*
X0262300Y0041763D02*
X0195442Y0041763D01*
X0195442Y0040164D02*
X0262300Y0040164D01*
X0262300Y0038566D02*
X0195442Y0038566D01*
X0195442Y0036967D02*
X0262300Y0036967D01*
X0262300Y0035369D02*
X0195442Y0035369D01*
X0195442Y0033770D02*
X0262300Y0033770D01*
X0262300Y0032172D02*
X0195442Y0032172D01*
X0195442Y0030573D02*
X0259428Y0030573D01*
X0259358Y0028975D02*
X0195442Y0028975D01*
X0195442Y0027376D02*
X0259358Y0027376D01*
X0259761Y0025778D02*
X0228013Y0025778D01*
X0228481Y0024179D02*
X0259158Y0024179D01*
X0259158Y0022581D02*
X0240481Y0022581D01*
X0248481Y0020982D02*
X0259158Y0020982D01*
X0259573Y0019384D02*
X0248481Y0019384D01*
X0248481Y0017785D02*
X0259377Y0017785D01*
X0259358Y0016187D02*
X0248481Y0016187D01*
X0247779Y0014588D02*
X0259358Y0014588D01*
X0259951Y0012990D02*
X0256663Y0012990D01*
X0256859Y0011391D02*
X0262300Y0011391D01*
X0262300Y0009793D02*
X0256859Y0009793D01*
X0256859Y0008194D02*
X0262300Y0008194D01*
X0262300Y0006596D02*
X0256859Y0006596D01*
X0256859Y0004997D02*
X0262300Y0004997D01*
X0232119Y0020982D02*
X0230709Y0020982D01*
X0232119Y0022581D02*
X0229111Y0022581D01*
X0223724Y0017785D02*
X0195442Y0017785D01*
X0195442Y0016187D02*
X0225322Y0016187D01*
X0226062Y0014588D02*
X0189149Y0014588D01*
X0190648Y0012990D02*
X0197937Y0012990D01*
X0205800Y0008576D02*
X0206040Y0008816D01*
X0195442Y0019384D02*
X0220119Y0019384D01*
X0220119Y0020982D02*
X0195434Y0020982D01*
X0195242Y0022581D02*
X0220119Y0022581D01*
X0220119Y0024179D02*
X0195242Y0024179D01*
X0195442Y0025778D02*
X0220587Y0025778D01*
X0185343Y0024179D02*
X0185049Y0024179D01*
X0185062Y0022581D02*
X0185343Y0022581D01*
X0185151Y0020982D02*
X0185075Y0020982D01*
X0185087Y0019384D02*
X0185143Y0019384D01*
X0185036Y0025778D02*
X0185143Y0025778D01*
X0185143Y0027376D02*
X0185023Y0027376D01*
X0185011Y0028975D02*
X0185143Y0028975D01*
X0185143Y0030573D02*
X0184998Y0030573D01*
X0184985Y0032172D02*
X0185143Y0032172D01*
X0185143Y0033770D02*
X0184972Y0033770D01*
X0184960Y0035369D02*
X0185143Y0035369D01*
X0185143Y0036967D02*
X0184947Y0036967D01*
X0184934Y0038566D02*
X0185143Y0038566D01*
X0185143Y0040164D02*
X0184921Y0040164D01*
X0184908Y0041763D02*
X0185143Y0041763D01*
X0185143Y0043361D02*
X0184896Y0043361D01*
X0184883Y0044960D02*
X0185405Y0044960D01*
X0185343Y0046558D02*
X0184870Y0046558D01*
X0184857Y0048157D02*
X0185343Y0048157D01*
X0185143Y0049755D02*
X0184844Y0049755D01*
X0184832Y0051354D02*
X0185143Y0051354D01*
X0185143Y0052952D02*
X0184819Y0052952D01*
X0184806Y0054551D02*
X0186261Y0054551D01*
X0184793Y0056149D02*
X0198713Y0056149D01*
X0197941Y0057748D02*
X0184780Y0057748D01*
X0184768Y0059346D02*
X0197941Y0059346D01*
X0197941Y0060784D02*
X0201316Y0060784D01*
X0201316Y0065734D01*
X0199504Y0065734D01*
X0199046Y0065611D01*
X0198636Y0065374D01*
X0198301Y0065039D01*
X0198064Y0064629D01*
X0197941Y0064171D01*
X0197941Y0060784D01*
X0197941Y0060945D02*
X0184755Y0060945D01*
X0184742Y0062543D02*
X0197941Y0062543D01*
X0197941Y0064142D02*
X0184729Y0064142D01*
X0184717Y0065740D02*
X0202541Y0065740D01*
X0201316Y0064142D02*
X0201316Y0064142D01*
X0201316Y0062543D02*
X0201316Y0062543D01*
X0201316Y0060945D02*
X0201316Y0060945D01*
X0201316Y0059346D02*
X0201316Y0059346D01*
X0201316Y0057748D02*
X0201316Y0057748D01*
X0201316Y0056149D02*
X0201316Y0056149D01*
X0206040Y0060784D02*
X0205800Y0061024D01*
X0205800Y0061800D01*
X0208896Y0067339D02*
X0262300Y0067339D01*
X0263200Y0069700D02*
X0258963Y0069700D01*
X0258505Y0069823D01*
X0258095Y0070060D01*
X0257760Y0070395D01*
X0257523Y0070805D01*
X0257400Y0071263D01*
X0257400Y0072800D01*
X0263200Y0072800D01*
X0263200Y0069700D01*
X0263200Y0070536D02*
X0263200Y0070536D01*
X0263200Y0072134D02*
X0263200Y0072134D01*
X0257678Y0070536D02*
X0252944Y0070536D01*
X0255094Y0072134D02*
X0257400Y0072134D01*
X0257400Y0073733D02*
X0256693Y0073733D01*
X0256300Y0077300D02*
X0262700Y0077300D01*
X0263200Y0077800D01*
X0268800Y0077800D01*
X0268800Y0105300D01*
X0267300Y0106800D01*
X0267300Y0111257D01*
X0268257Y0110843D01*
X0271662Y0110499D02*
X0275500Y0110499D01*
X0275500Y0108900D02*
X0271662Y0108900D01*
X0270758Y0107302D02*
X0275500Y0107302D01*
X0275500Y0105703D02*
X0271600Y0105703D01*
X0271600Y0104105D02*
X0275500Y0104105D01*
X0275500Y0102506D02*
X0271600Y0102506D01*
X0271600Y0100908D02*
X0275500Y0100908D01*
X0275500Y0099309D02*
X0271600Y0099309D01*
X0271600Y0097711D02*
X0275710Y0097711D01*
X0276916Y0096112D02*
X0271600Y0096112D01*
X0271600Y0094514D02*
X0278286Y0094514D01*
X0278500Y0092915D02*
X0271600Y0092915D01*
X0271600Y0091317D02*
X0278500Y0091317D01*
X0278500Y0089718D02*
X0271600Y0089718D01*
X0271600Y0088120D02*
X0278500Y0088120D01*
X0278500Y0086521D02*
X0271600Y0086521D01*
X0271600Y0084923D02*
X0278500Y0084923D01*
X0278500Y0083324D02*
X0271600Y0083324D01*
X0271600Y0081726D02*
X0278500Y0081726D01*
X0278500Y0080127D02*
X0271600Y0080127D01*
X0271600Y0078529D02*
X0278500Y0078529D01*
X0278500Y0076930D02*
X0271470Y0076930D01*
X0270157Y0075332D02*
X0278500Y0075332D01*
X0278500Y0073733D02*
X0269000Y0073733D01*
X0269000Y0072134D02*
X0278545Y0072134D01*
X0279604Y0070536D02*
X0268722Y0070536D01*
X0253284Y0064142D02*
X0253284Y0064142D01*
X0253284Y0062543D02*
X0253284Y0062543D01*
X0253284Y0060945D02*
X0253284Y0060945D01*
X0253284Y0059346D02*
X0253284Y0059346D01*
X0253284Y0057748D02*
X0253284Y0057748D01*
X0253284Y0056149D02*
X0253284Y0056149D01*
X0238270Y0076930D02*
X0215630Y0076930D01*
X0214031Y0078529D02*
X0238950Y0078529D01*
X0239249Y0080127D02*
X0212433Y0080127D01*
X0210834Y0081726D02*
X0232911Y0081726D01*
X0232638Y0082445D02*
X0232638Y0084257D01*
X0236800Y0084257D01*
X0236800Y0084257D01*
X0236800Y0084923D02*
X0236800Y0084923D01*
X0236800Y0086521D02*
X0236800Y0086521D01*
X0236800Y0083324D02*
X0236800Y0083324D01*
X0236800Y0081726D02*
X0236800Y0081726D01*
X0250100Y0090800D02*
X0250100Y0094557D01*
X0250343Y0096300D01*
X0254800Y0096300D01*
X0254300Y0096800D01*
X0254300Y0104800D01*
X0249800Y0109300D01*
X0244843Y0109300D01*
X0247800Y0105300D02*
X0240800Y0105300D01*
X0240800Y0100800D01*
X0247800Y0105300D02*
X0248100Y0105000D01*
X0250600Y0101800D01*
X0256800Y0099800D02*
X0256800Y0107300D01*
X0253300Y0110800D01*
X0253300Y0112000D01*
X0254000Y0113800D01*
X0260300Y0113800D02*
X0260300Y0102300D01*
X0262700Y0102300D01*
X0263200Y0102800D01*
X0263200Y0097800D02*
X0258800Y0097800D01*
X0256800Y0099800D01*
X0254800Y0096300D02*
X0257300Y0092800D01*
X0263200Y0092800D01*
X0280800Y0100800D02*
X0280800Y0104300D01*
X0282800Y0106300D01*
X0287400Y0102800D02*
X0293600Y0109000D01*
X0292600Y0112800D01*
X0280800Y0100800D02*
X0282800Y0098800D01*
X0282800Y0097800D01*
X0287400Y0097800D01*
X0287400Y0092800D02*
X0293800Y0092800D01*
X0273524Y0112097D02*
X0271662Y0112097D01*
X0271626Y0113696D02*
X0272450Y0113696D01*
X0272450Y0115294D02*
X0270709Y0115294D01*
X0271462Y0116893D02*
X0272450Y0116893D01*
X0273113Y0118491D02*
X0271462Y0118491D01*
X0271462Y0118343D02*
X0271462Y0120155D01*
X0271340Y0120613D01*
X0271103Y0121023D01*
X0270767Y0121358D01*
X0270357Y0121595D01*
X0269899Y0121718D01*
X0267300Y0121718D01*
X0267300Y0118343D01*
X0267300Y0118343D01*
X0271462Y0118343D01*
X0271462Y0120090D02*
X0272450Y0120090D01*
X0272450Y0121688D02*
X0270010Y0121688D01*
X0271153Y0123287D02*
X0264918Y0123287D01*
X0267300Y0121688D02*
X0267300Y0121688D01*
X0267300Y0120090D02*
X0267300Y0120090D01*
X0267300Y0118491D02*
X0267300Y0118491D01*
X0267300Y0118343D02*
X0267300Y0118343D01*
X0267300Y0116893D02*
X0267300Y0116893D01*
X0267300Y0115294D02*
X0267300Y0115294D01*
X0260600Y0113800D02*
X0260300Y0113800D01*
X0276300Y0122100D02*
X0248725Y0149675D01*
X0235725Y0162175D01*
X0245174Y0167400D02*
X0245300Y0167526D01*
X0244800Y0178300D01*
X0239800Y0182300D02*
X0232800Y0182300D01*
X0225800Y0179576D02*
X0220400Y0179576D01*
X0225576Y0185800D02*
X0225800Y0186300D01*
X0224861Y0190424D02*
X0246500Y0190424D01*
X0246500Y0192023D02*
X0224861Y0192023D01*
X0224861Y0193621D02*
X0246500Y0193621D01*
X0246500Y0195220D02*
X0224861Y0195220D01*
X0224861Y0196739D02*
X0246500Y0196739D01*
X0261300Y0182800D02*
X0265954Y0187454D01*
X0264454Y0187300D01*
X0270962Y0188826D02*
X0271331Y0188826D01*
X0271331Y0190424D02*
X0270962Y0190424D01*
X0274702Y0190424D02*
X0294001Y0190424D01*
X0294001Y0188826D02*
X0275112Y0188826D01*
X0275112Y0185629D02*
X0294001Y0185629D01*
X0294001Y0187227D02*
X0271331Y0187227D01*
X0271331Y0185629D02*
X0270962Y0185629D01*
X0270962Y0184030D02*
X0271331Y0184030D01*
X0274556Y0184030D02*
X0294001Y0184030D01*
X0294001Y0182432D02*
X0264892Y0182432D01*
X0263293Y0180833D02*
X0294001Y0180833D01*
X0294001Y0179235D02*
X0258661Y0179235D01*
X0257700Y0173400D02*
X0254200Y0173276D01*
X0257700Y0173400D02*
X0261800Y0169800D01*
X0264500Y0164848D02*
X0257517Y0164848D01*
X0256154Y0163250D02*
X0264500Y0163250D01*
X0270100Y0163250D02*
X0294001Y0163250D01*
X0294001Y0164848D02*
X0270100Y0164848D01*
X0270100Y0166447D02*
X0294001Y0166447D01*
X0294001Y0168045D02*
X0270100Y0168045D01*
X0270100Y0169644D02*
X0294001Y0169644D01*
X0294001Y0171242D02*
X0270100Y0171242D01*
X0269693Y0172841D02*
X0294001Y0172841D01*
X0294001Y0174439D02*
X0268121Y0174439D01*
X0266522Y0176038D02*
X0294001Y0176038D01*
X0294001Y0177636D02*
X0264924Y0177636D01*
X0253800Y0166800D02*
X0248800Y0166924D01*
X0248324Y0167400D01*
X0250447Y0163250D02*
X0251446Y0163250D01*
X0271409Y0161651D02*
X0294001Y0161651D01*
X0294001Y0160053D02*
X0273007Y0160053D01*
X0274606Y0158454D02*
X0294001Y0158454D01*
X0294001Y0156856D02*
X0276204Y0156856D01*
X0277803Y0155257D02*
X0294001Y0155257D01*
X0294001Y0153659D02*
X0279401Y0153659D01*
X0281000Y0152060D02*
X0294001Y0152060D01*
X0294001Y0150462D02*
X0282598Y0150462D01*
X0284197Y0148863D02*
X0294001Y0148863D01*
X0294001Y0147265D02*
X0285795Y0147265D01*
X0287394Y0145666D02*
X0294001Y0145666D01*
X0294001Y0144068D02*
X0288992Y0144068D01*
X0290591Y0142469D02*
X0294001Y0142469D01*
X0294001Y0140870D02*
X0292189Y0140870D01*
X0293788Y0139272D02*
X0294001Y0139272D01*
X0220445Y0140870D02*
X0215450Y0140870D01*
X0215450Y0139272D02*
X0219788Y0139272D01*
X0219788Y0137673D02*
X0214452Y0137673D01*
X0215450Y0142469D02*
X0220171Y0142469D01*
X0218573Y0144068D02*
X0215450Y0144068D01*
X0215450Y0145666D02*
X0216974Y0145666D01*
X0215300Y0151300D02*
X0208800Y0150300D01*
X0209300Y0150500D01*
X0162824Y0149300D02*
X0160800Y0149300D01*
X0152300Y0159300D01*
X0152300Y0168300D01*
X0154800Y0170800D01*
X0152062Y0155257D02*
X0151600Y0155257D01*
X0151600Y0153659D02*
X0153420Y0153659D01*
X0142587Y0201614D02*
X0137919Y0201614D01*
X0137708Y0203212D02*
X0142587Y0203212D01*
X0142742Y0204811D02*
X0137919Y0204811D01*
X0147327Y0211205D02*
X0148927Y0211205D01*
X0148927Y0212803D02*
X0147327Y0212803D01*
X0161500Y0217599D02*
X0163100Y0217599D01*
X0163100Y0219198D02*
X0161500Y0219198D01*
X0161500Y0220796D02*
X0163100Y0220796D01*
X0162670Y0222395D02*
X0161500Y0222395D01*
X0150489Y0225300D02*
X0150489Y0230831D01*
X0150489Y0225300D02*
X0150300Y0225300D01*
X0162155Y0235183D02*
X0162445Y0235183D01*
X0166880Y0235183D02*
X0181342Y0235183D01*
X0169387Y0233584D02*
X0169387Y0233584D01*
X0169387Y0231986D02*
X0169387Y0231986D01*
X0264799Y0220796D02*
X0267801Y0220796D01*
X0274799Y0220796D02*
X0278084Y0220796D01*
X0276485Y0219198D02*
X0276398Y0219198D01*
X0281287Y0219198D02*
X0281313Y0219198D01*
X0281287Y0220796D02*
X0281313Y0220796D01*
X0281287Y0217599D02*
X0281313Y0217599D01*
X0152316Y0083324D02*
X0150236Y0083324D01*
X0140100Y0073909D02*
X0139831Y0073640D01*
X0139831Y0067653D01*
X0140343Y0067141D01*
X0140154Y0066814D01*
X0140031Y0066356D01*
X0140031Y0064138D01*
X0143616Y0064138D01*
X0143616Y0063769D01*
X0143984Y0063769D01*
X0143984Y0059988D01*
X0146005Y0059988D01*
X0146463Y0060111D01*
X0146800Y0060305D01*
X0146800Y0046222D01*
X0147972Y0045050D01*
X0154628Y0045050D01*
X0155800Y0046222D01*
X0155800Y0067878D01*
X0155111Y0068567D01*
X0155125Y0068581D01*
X0155144Y0068624D01*
X0156668Y0069255D01*
X0157161Y0069748D01*
X0157915Y0068994D01*
X0156800Y0067878D01*
X0156800Y0046222D01*
X0157972Y0045050D01*
X0164628Y0045050D01*
X0165800Y0046222D01*
X0165800Y0067878D01*
X0164685Y0068994D01*
X0165481Y0069790D01*
X0165481Y0074500D01*
X0176500Y0074500D01*
X0176500Y0012243D01*
X0176926Y0011214D01*
X0177714Y0010426D01*
X0184340Y0003800D01*
X0136800Y0003800D01*
X0136800Y0077209D01*
X0140100Y0073909D01*
X0139924Y0073733D02*
X0136800Y0073733D01*
X0136800Y0072134D02*
X0139831Y0072134D01*
X0139831Y0070536D02*
X0136800Y0070536D01*
X0136800Y0068937D02*
X0139831Y0068937D01*
X0140145Y0067339D02*
X0136800Y0067339D01*
X0136800Y0065740D02*
X0140031Y0065740D01*
X0140031Y0064142D02*
X0136800Y0064142D01*
X0136800Y0062543D02*
X0140031Y0062543D01*
X0140031Y0061551D02*
X0140031Y0063769D01*
X0143616Y0063769D01*
X0143616Y0059988D01*
X0141595Y0059988D01*
X0141137Y0060111D01*
X0140726Y0060348D01*
X0140391Y0060683D01*
X0140154Y0061093D01*
X0140031Y0061551D01*
X0140240Y0060945D02*
X0136800Y0060945D01*
X0136800Y0059346D02*
X0146800Y0059346D01*
X0146800Y0057748D02*
X0136800Y0057748D01*
X0136800Y0056149D02*
X0146800Y0056149D01*
X0146800Y0054551D02*
X0136800Y0054551D01*
X0136800Y0052952D02*
X0146800Y0052952D01*
X0146800Y0051354D02*
X0136800Y0051354D01*
X0136800Y0049755D02*
X0146800Y0049755D01*
X0146800Y0048157D02*
X0136800Y0048157D01*
X0136800Y0046558D02*
X0146800Y0046558D01*
X0136800Y0044960D02*
X0176500Y0044960D01*
X0176500Y0046558D02*
X0175532Y0046558D01*
X0175477Y0046355D02*
X0175600Y0046813D01*
X0175600Y0056600D01*
X0171750Y0056600D01*
X0171750Y0057500D01*
X0170850Y0057500D01*
X0170850Y0068850D01*
X0168563Y0068850D01*
X0168105Y0068727D01*
X0167695Y0068490D01*
X0167360Y0068155D01*
X0167123Y0067745D01*
X0167000Y0067287D01*
X0167000Y0057500D01*
X0170850Y0057500D01*
X0170850Y0056600D01*
X0167000Y0056600D01*
X0167000Y0046813D01*
X0167123Y0046355D01*
X0167360Y0045945D01*
X0167695Y0045610D01*
X0168105Y0045373D01*
X0168563Y0045250D01*
X0170850Y0045250D01*
X0170850Y0056600D01*
X0171750Y0056600D01*
X0171750Y0045250D01*
X0174037Y0045250D01*
X0174495Y0045373D01*
X0174905Y0045610D01*
X0175240Y0045945D01*
X0175477Y0046355D01*
X0175600Y0048157D02*
X0176500Y0048157D01*
X0176500Y0049755D02*
X0175600Y0049755D01*
X0175600Y0051354D02*
X0176500Y0051354D01*
X0176500Y0052952D02*
X0175600Y0052952D01*
X0175600Y0054551D02*
X0176500Y0054551D01*
X0176500Y0056149D02*
X0175600Y0056149D01*
X0175600Y0057500D02*
X0175600Y0067287D01*
X0175477Y0067745D01*
X0175240Y0068155D01*
X0174905Y0068490D01*
X0174495Y0068727D01*
X0174037Y0068850D01*
X0171750Y0068850D01*
X0171750Y0057500D01*
X0175600Y0057500D01*
X0175600Y0057748D02*
X0176500Y0057748D01*
X0176500Y0059346D02*
X0175600Y0059346D01*
X0175600Y0060945D02*
X0176500Y0060945D01*
X0176500Y0062543D02*
X0175600Y0062543D01*
X0175600Y0064142D02*
X0176500Y0064142D01*
X0176500Y0065740D02*
X0175600Y0065740D01*
X0175586Y0067339D02*
X0176500Y0067339D01*
X0176500Y0068937D02*
X0164741Y0068937D01*
X0165481Y0070536D02*
X0176500Y0070536D01*
X0176500Y0072134D02*
X0165481Y0072134D01*
X0165481Y0073733D02*
X0176500Y0073733D01*
X0171750Y0067339D02*
X0170850Y0067339D01*
X0170850Y0065740D02*
X0171750Y0065740D01*
X0171750Y0064142D02*
X0170850Y0064142D01*
X0170850Y0062543D02*
X0171750Y0062543D01*
X0171750Y0060945D02*
X0170850Y0060945D01*
X0170850Y0059346D02*
X0171750Y0059346D01*
X0171750Y0057748D02*
X0170850Y0057748D01*
X0170850Y0056149D02*
X0171750Y0056149D01*
X0171750Y0054551D02*
X0170850Y0054551D01*
X0170850Y0052952D02*
X0171750Y0052952D01*
X0171750Y0051354D02*
X0170850Y0051354D01*
X0170850Y0049755D02*
X0171750Y0049755D01*
X0171750Y0048157D02*
X0170850Y0048157D01*
X0170850Y0046558D02*
X0171750Y0046558D01*
X0176500Y0043361D02*
X0136800Y0043361D01*
X0136800Y0041763D02*
X0176500Y0041763D01*
X0176500Y0040164D02*
X0136800Y0040164D01*
X0136800Y0038566D02*
X0176500Y0038566D01*
X0176500Y0036967D02*
X0136800Y0036967D01*
X0136800Y0035369D02*
X0176500Y0035369D01*
X0176500Y0033770D02*
X0136800Y0033770D01*
X0136800Y0032172D02*
X0176500Y0032172D01*
X0176500Y0030573D02*
X0136800Y0030573D01*
X0136800Y0028975D02*
X0176500Y0028975D01*
X0176500Y0027376D02*
X0136800Y0027376D01*
X0136800Y0025778D02*
X0176500Y0025778D01*
X0176500Y0024179D02*
X0136800Y0024179D01*
X0136800Y0022581D02*
X0176500Y0022581D01*
X0176500Y0020982D02*
X0136800Y0020982D01*
X0136800Y0019384D02*
X0176500Y0019384D01*
X0176500Y0017785D02*
X0136800Y0017785D01*
X0136800Y0016187D02*
X0176500Y0016187D01*
X0176500Y0014588D02*
X0136800Y0014588D01*
X0136800Y0012990D02*
X0176500Y0012990D01*
X0176853Y0011391D02*
X0136800Y0011391D01*
X0136800Y0009793D02*
X0178348Y0009793D01*
X0179946Y0008194D02*
X0136800Y0008194D01*
X0136800Y0006596D02*
X0181545Y0006596D01*
X0183143Y0004997D02*
X0136800Y0004997D01*
X0155800Y0046558D02*
X0156800Y0046558D01*
X0156800Y0048157D02*
X0155800Y0048157D01*
X0155800Y0049755D02*
X0156800Y0049755D01*
X0156800Y0051354D02*
X0155800Y0051354D01*
X0155800Y0052952D02*
X0156800Y0052952D01*
X0156800Y0054551D02*
X0155800Y0054551D01*
X0155800Y0056149D02*
X0156800Y0056149D01*
X0156800Y0057748D02*
X0155800Y0057748D01*
X0155800Y0059346D02*
X0156800Y0059346D01*
X0156800Y0060945D02*
X0155800Y0060945D01*
X0155800Y0062543D02*
X0156800Y0062543D01*
X0156800Y0064142D02*
X0155800Y0064142D01*
X0155800Y0065740D02*
X0156800Y0065740D01*
X0156800Y0067339D02*
X0155800Y0067339D01*
X0155901Y0068937D02*
X0157859Y0068937D01*
X0165800Y0067339D02*
X0167014Y0067339D01*
X0167000Y0065740D02*
X0165800Y0065740D01*
X0165800Y0064142D02*
X0167000Y0064142D01*
X0167000Y0062543D02*
X0165800Y0062543D01*
X0165800Y0060945D02*
X0167000Y0060945D01*
X0167000Y0059346D02*
X0165800Y0059346D01*
X0165800Y0057748D02*
X0167000Y0057748D01*
X0167000Y0056149D02*
X0165800Y0056149D01*
X0165800Y0054551D02*
X0167000Y0054551D01*
X0167000Y0052952D02*
X0165800Y0052952D01*
X0165800Y0051354D02*
X0167000Y0051354D01*
X0167000Y0049755D02*
X0165800Y0049755D01*
X0165800Y0048157D02*
X0167000Y0048157D01*
X0167068Y0046558D02*
X0165800Y0046558D01*
X0143984Y0060945D02*
X0143616Y0060945D01*
X0143616Y0062543D02*
X0143984Y0062543D01*
X0138677Y0075332D02*
X0136800Y0075332D01*
X0136800Y0076930D02*
X0137079Y0076930D01*
X0184653Y0073733D02*
X0196849Y0073733D01*
X0193523Y0072134D02*
X0184665Y0072134D01*
X0184678Y0070536D02*
X0193488Y0070536D01*
X0193488Y0068937D02*
X0184691Y0068937D01*
X0184704Y0067339D02*
X0193557Y0067339D01*
X0197269Y0067339D02*
X0197638Y0067339D01*
X0197638Y0068937D02*
X0197269Y0068937D01*
X0208472Y0070536D02*
X0209604Y0070536D01*
X0208868Y0068937D02*
X0211203Y0068937D01*
D40*
X0186800Y0078300D03*
X0177300Y0104300D03*
X0176300Y0113800D03*
X0192300Y0106800D03*
X0192300Y0121800D03*
X0222300Y0106800D03*
X0222300Y0091800D03*
X0255300Y0068800D03*
X0252300Y0046800D03*
X0207300Y0041800D03*
X0162300Y0026800D03*
X0162300Y0016800D03*
X0147300Y0016800D03*
X0147300Y0026800D03*
X0154300Y0072800D03*
X0142300Y0101800D03*
X0148800Y0134300D03*
X0129300Y0141800D03*
X0124800Y0146300D03*
X0133800Y0156300D03*
X0136300Y0164324D03*
X0131800Y0173300D03*
X0140800Y0178800D03*
X0148800Y0171800D03*
X0154800Y0170800D03*
X0155300Y0178800D03*
X0169300Y0191800D03*
X0176800Y0178800D03*
X0172300Y0175800D03*
X0182800Y0177800D03*
X0184800Y0196300D03*
X0184300Y0203800D03*
X0185300Y0210800D03*
X0184300Y0220300D03*
X0174800Y0224800D03*
X0150300Y0225300D03*
X0141300Y0224300D03*
X0125300Y0213300D03*
X0117300Y0213300D03*
X0110300Y0213300D03*
X0100300Y0198300D03*
X0090800Y0184300D03*
X0097800Y0170800D03*
X0092300Y0151800D03*
X0072300Y0151800D03*
X0073300Y0168300D03*
X0047300Y0151800D03*
X0032300Y0166800D03*
X0047300Y0206800D03*
X0058300Y0228300D03*
X0073300Y0233300D03*
X0125300Y0189800D03*
X0140300Y0207800D03*
X0156800Y0160300D03*
X0152800Y0150300D03*
X0195300Y0158300D03*
X0223800Y0150300D03*
X0229800Y0161300D03*
X0234800Y0175800D03*
X0239800Y0182300D03*
X0244800Y0178300D03*
X0253800Y0166800D03*
X0262300Y0151800D03*
X0277300Y0136800D03*
X0287300Y0151800D03*
X0270300Y0179300D03*
X0287300Y0181800D03*
X0240800Y0208300D03*
X0235300Y0192300D03*
X0212300Y0196800D03*
X0208300Y0191800D03*
X0211800Y0210800D03*
X0202300Y0226800D03*
X0251800Y0131800D03*
X0242300Y0126800D03*
D41*
X0254257Y0120300D02*
X0254057Y0119257D01*
X0254000Y0113800D01*
X0249600Y0114800D01*
X0243000Y0114800D02*
X0237757Y0110557D01*
X0237757Y0109300D01*
X0260600Y0113800D02*
X0261343Y0115043D01*
X0261343Y0120300D01*
X0224300Y0131600D02*
X0224300Y0136800D01*
X0223954Y0136800D01*
X0223954Y0137300D01*
X0183300Y0110300D02*
X0177300Y0104300D01*
X0183300Y0110300D02*
X0183300Y0171300D01*
X0189300Y0177300D01*
X0195300Y0177300D01*
X0196800Y0178800D01*
X0196800Y0184800D01*
X0197800Y0185800D01*
X0209646Y0185800D01*
X0209800Y0185646D01*
X0220800Y0216600D02*
X0220500Y0223800D01*
X0227100Y0223800D02*
X0227000Y0226800D01*
X0233300Y0226800D01*
X0233300Y0226300D01*
X0233501Y0216800D01*
X0261300Y0216800D01*
X0221099Y0216800D02*
X0220800Y0216600D01*
X0183800Y0224800D02*
X0183800Y0226072D01*
X0183560Y0230831D01*
X0183800Y0224800D02*
X0174800Y0224800D01*
X0172800Y0224800D01*
X0172326Y0224808D01*
X0164662Y0224938D01*
X0164662Y0230831D01*
X0145765Y0230831D02*
X0141040Y0230831D01*
X0133757Y0224335D02*
X0133757Y0219611D01*
X0113040Y0190560D02*
X0115800Y0187800D01*
X0115800Y0184600D01*
X0117100Y0184300D01*
X0117100Y0179400D01*
X0116500Y0178800D01*
X0113800Y0173300D02*
X0111040Y0175560D01*
X0104131Y0175560D01*
X0104131Y0183040D02*
X0103740Y0184040D01*
X0110500Y0184300D01*
X0113040Y0190560D02*
X0092040Y0190560D01*
X0091131Y0190060D01*
X0082469Y0193800D02*
X0082469Y0214631D01*
X0071300Y0225800D01*
X0074300Y0206800D02*
X0074300Y0193800D01*
X0088800Y0179300D01*
X0095469Y0179300D01*
X0095300Y0164800D02*
X0102969Y0164800D01*
X0111631Y0161060D02*
X0110100Y0158591D01*
X0110300Y0156100D01*
X0115500Y0155800D01*
X0117500Y0167300D02*
X0116800Y0168000D01*
X0111800Y0168300D01*
X0111560Y0168540D01*
X0111631Y0168540D01*
X0113800Y0173300D02*
X0121800Y0173300D01*
X0123800Y0171300D01*
X0123800Y0167600D01*
X0124100Y0167300D01*
X0128800Y0167100D01*
X0095300Y0164800D02*
X0072800Y0187300D01*
X0071800Y0187300D01*
X0162824Y0124300D02*
X0169824Y0124300D01*
X0186800Y0078300D02*
X0197146Y0078454D01*
X0204146Y0069800D01*
X0205646Y0068954D01*
X0205800Y0063800D01*
X0205800Y0061800D01*
X0205800Y0061524D01*
X0161300Y0057050D02*
X0161300Y0072800D01*
X0154300Y0072800D02*
X0152454Y0070454D01*
X0143800Y0070646D01*
X0151300Y0070454D01*
X0151300Y0057050D01*
X0166500Y0175800D02*
X0169387Y0179687D01*
X0169387Y0184769D01*
D42*
X0249300Y0196300D02*
X0252800Y0199800D01*
D43*
X0170800Y0123800D02*
X0170800Y0103300D01*
X0177300Y0096800D01*
X0177300Y0091300D01*
X0143800Y0075300D02*
X0143800Y0070646D01*
X0143800Y0075300D02*
X0129300Y0089800D01*
X0129300Y0133800D01*
X0120300Y0142800D01*
X0014300Y0142800D01*
X0224300Y0022300D02*
X0229662Y0016938D01*
X0229662Y0008816D01*
X0239111Y0008816D02*
X0239111Y0015989D01*
X0236300Y0019800D01*
X0244300Y0018300D02*
X0243835Y0015300D01*
X0243835Y0008816D01*
D44*
X0244300Y0018300D03*
X0236300Y0019800D03*
X0224300Y0022300D03*
X0161300Y0072800D03*
X0177300Y0091300D03*
X0261800Y0169800D03*
M02*
