G75*
%MOIN*%
%OFA0B0*%
%FSLAX24Y24*%
%IPPOS*%
%LPD*%
%AMOC8*
5,1,8,0,0,1.08239X$1,22.5*
%
%ADD10C,0.0080*%
%ADD11C,0.0060*%
%ADD12C,0.0050*%
%ADD13C,0.0120*%
%ADD14C,0.0040*%
%ADD15C,0.0010*%
%ADD16C,0.0100*%
%ADD17C,0.0030*%
%ADD18C,0.0160*%
%ADD19C,0.0200*%
%ADD20R,0.4200X0.0300*%
%ADD21R,0.0750X0.0200*%
%ADD22R,0.0300X0.0200*%
%ADD23R,0.2541X0.0403*%
D10*
X001353Y005190D02*
X001200Y005343D01*
X001814Y005957D01*
X001814Y005343D01*
X001660Y005190D01*
X001353Y005190D01*
X001200Y005343D02*
X001200Y005957D01*
X001353Y006111D01*
X001660Y006111D01*
X001814Y005957D01*
X002121Y005957D02*
X002274Y006111D01*
X002581Y006111D01*
X002735Y005957D01*
X002735Y005804D01*
X002121Y005190D01*
X002735Y005190D01*
X003042Y005343D02*
X003655Y005957D01*
X003655Y005343D01*
X003502Y005190D01*
X003195Y005190D01*
X003042Y005343D01*
X003042Y005957D01*
X003195Y006111D01*
X003502Y006111D01*
X003655Y005957D01*
X003962Y005957D02*
X004116Y006111D01*
X004423Y006111D01*
X004576Y005957D01*
X004576Y005804D01*
X004423Y005650D01*
X004576Y005497D01*
X004576Y005343D01*
X004423Y005190D01*
X004116Y005190D01*
X003962Y005343D01*
X004269Y005650D02*
X004423Y005650D01*
X004883Y005957D02*
X005037Y006111D01*
X005344Y006111D01*
X005497Y005957D01*
X005497Y005804D01*
X004883Y005190D01*
X005497Y005190D01*
X005804Y005343D02*
X006418Y005957D01*
X006418Y005343D01*
X006264Y005190D01*
X005957Y005190D01*
X005804Y005343D01*
X005804Y005957D01*
X005957Y006111D01*
X006264Y006111D01*
X006418Y005957D01*
X006725Y005804D02*
X007032Y006111D01*
X007032Y005190D01*
X006725Y005190D02*
X007339Y005190D01*
X007646Y005343D02*
X007799Y005190D01*
X008106Y005190D01*
X008259Y005343D01*
X008259Y005650D01*
X008106Y005804D01*
X007952Y005804D01*
X007646Y005650D01*
X007646Y006111D01*
X008259Y006111D01*
X008396Y005536D02*
X012924Y005536D01*
X012924Y003764D01*
X008396Y003764D01*
X008396Y005536D01*
X008413Y006690D02*
X008106Y006690D01*
X007952Y006843D01*
X007952Y007150D01*
X008106Y007304D01*
X008413Y007304D01*
X008566Y007150D01*
X008566Y006997D01*
X007952Y006997D01*
X007646Y007150D02*
X007646Y007457D01*
X007492Y007611D01*
X007032Y007611D01*
X007032Y006690D01*
X007032Y006997D02*
X007492Y006997D01*
X007646Y007150D01*
X007339Y006997D02*
X007646Y006690D01*
X008873Y007304D02*
X009180Y006690D01*
X009487Y007304D01*
X009794Y007304D02*
X010101Y007611D01*
X010101Y006690D01*
X009794Y006690D02*
X010408Y006690D01*
X010239Y004860D02*
X010309Y004790D01*
X010309Y004650D01*
X010239Y004580D01*
X010029Y004580D01*
X010029Y004440D02*
X010029Y004860D01*
X010239Y004860D01*
X010490Y004720D02*
X010630Y004860D01*
X010630Y004440D01*
X010490Y004440D02*
X010770Y004440D01*
X010309Y004440D02*
X010169Y004580D01*
X005804Y006843D02*
X005650Y006690D01*
X005344Y006690D01*
X005190Y006843D01*
X005190Y007150D01*
X005344Y007304D01*
X005650Y007304D01*
X005804Y007150D01*
X005804Y006843D01*
X004883Y006690D02*
X004730Y006843D01*
X004730Y007457D01*
X004883Y007304D02*
X004576Y007304D01*
X004116Y007304D02*
X004116Y006690D01*
X004269Y006690D02*
X003962Y006690D01*
X003655Y006690D02*
X003655Y007150D01*
X003502Y007304D01*
X003042Y007304D01*
X003042Y006690D01*
X002735Y006690D02*
X002274Y006690D01*
X002121Y006843D01*
X002274Y006997D01*
X002735Y006997D01*
X002735Y007150D02*
X002735Y006690D01*
X002735Y007150D02*
X002581Y007304D01*
X002274Y007304D01*
X001814Y007611D02*
X001814Y006690D01*
X001200Y006690D02*
X001200Y007611D01*
X001507Y007304D01*
X001814Y007611D01*
X003962Y007304D02*
X004116Y007304D01*
X004116Y007611D02*
X004116Y007764D01*
X002410Y011650D02*
X001910Y011650D01*
X001660Y011900D01*
X001660Y012400D01*
X001910Y012650D01*
X001660Y012900D01*
X001660Y013400D01*
X001910Y013650D01*
X001660Y013900D01*
X001660Y014400D01*
X001910Y014650D01*
X001660Y014900D01*
X001660Y015400D01*
X001910Y015650D01*
X001660Y015900D01*
X001660Y016400D01*
X001910Y016650D01*
X001660Y016900D01*
X001660Y017400D01*
X001910Y017650D01*
X001660Y017900D01*
X001660Y018400D01*
X001910Y018650D01*
X001660Y018900D01*
X001660Y019400D01*
X001910Y019650D01*
X001660Y019900D01*
X001660Y020400D01*
X001910Y020650D01*
X002410Y020650D01*
X002660Y020400D01*
X002660Y019900D01*
X002410Y019650D01*
X002660Y019400D01*
X002660Y018900D01*
X002410Y018650D01*
X002660Y018400D01*
X002660Y017900D01*
X002410Y017650D01*
X002660Y017400D01*
X002660Y016900D01*
X002410Y016650D01*
X002660Y016400D01*
X002660Y015900D01*
X002410Y015650D01*
X002660Y015400D01*
X002660Y014900D01*
X002410Y014650D01*
X002660Y014400D01*
X002660Y013900D01*
X002410Y013650D01*
X002660Y013400D01*
X002660Y012900D01*
X002410Y012650D01*
X002660Y012400D01*
X002660Y011900D01*
X002410Y011650D01*
X011854Y011083D02*
X012035Y011083D01*
X011943Y011205D01*
X012035Y011083D02*
X012216Y011083D01*
X012121Y011205D02*
X012045Y011089D01*
X016062Y012949D02*
X016062Y013343D01*
X016062Y012949D02*
X016455Y012949D01*
X020865Y012949D02*
X021258Y012949D01*
X021258Y013343D01*
X025274Y015386D02*
X025274Y019914D01*
X027046Y019914D01*
X027046Y015386D01*
X025274Y015386D01*
X027274Y013886D02*
X027274Y018414D01*
X029046Y018414D01*
X029046Y013886D01*
X027274Y013886D01*
X029274Y013886D02*
X029274Y018414D01*
X031046Y018414D01*
X031046Y013886D01*
X029274Y013886D01*
X021258Y019996D02*
X021258Y020666D01*
X021258Y022713D02*
X021258Y023107D01*
X020865Y023107D01*
X016455Y023107D02*
X016062Y023107D01*
X016062Y022713D01*
X016062Y020666D02*
X016062Y019996D01*
X011760Y021150D02*
X011660Y021150D01*
X011660Y020850D01*
X009660Y020850D01*
X009660Y021150D01*
X009560Y021150D01*
X009660Y021150D02*
X009660Y021450D01*
X011660Y021450D01*
X011660Y021150D01*
X011410Y021400D02*
X011410Y020900D01*
X007660Y020700D02*
X007660Y022200D01*
X007410Y022450D01*
X006910Y022450D01*
X006660Y022200D01*
X006660Y020700D01*
X006910Y020450D01*
X007410Y020450D01*
X007660Y020700D01*
X006660Y020700D02*
X006410Y020450D01*
X005910Y020450D01*
X005660Y020700D01*
X005660Y022200D01*
X005910Y022450D01*
X006410Y022450D01*
X006660Y022200D01*
X005660Y022200D02*
X005410Y022450D01*
X004910Y022450D01*
X004660Y022200D01*
X004660Y020700D01*
X004910Y020450D01*
X005410Y020450D01*
X005660Y020700D01*
X005410Y020318D02*
X004910Y020318D01*
D11*
X010280Y018390D02*
X010420Y018530D01*
X013040Y018530D01*
X013040Y015770D01*
X010280Y015770D01*
X010280Y018390D01*
X010439Y018230D02*
X010441Y018253D01*
X010447Y018276D01*
X010456Y018297D01*
X010469Y018317D01*
X010485Y018334D01*
X010503Y018348D01*
X010523Y018359D01*
X010545Y018367D01*
X010568Y018371D01*
X010592Y018371D01*
X010615Y018367D01*
X010637Y018359D01*
X010657Y018348D01*
X010675Y018334D01*
X010691Y018317D01*
X010704Y018297D01*
X010713Y018276D01*
X010719Y018253D01*
X010721Y018230D01*
X010719Y018207D01*
X010713Y018184D01*
X010704Y018163D01*
X010691Y018143D01*
X010675Y018126D01*
X010657Y018112D01*
X010637Y018101D01*
X010615Y018093D01*
X010592Y018089D01*
X010568Y018089D01*
X010545Y018093D01*
X010523Y018101D01*
X010503Y018112D01*
X010485Y018126D01*
X010469Y018143D01*
X010456Y018163D01*
X010447Y018184D01*
X010441Y018207D01*
X010439Y018230D01*
X013160Y011325D02*
X013210Y010175D01*
X013310Y010075D01*
X017010Y010075D01*
X017110Y010175D01*
X017160Y011325D01*
X013817Y008021D02*
X013817Y007380D01*
X013390Y008021D01*
X013390Y007380D01*
X011917Y007380D02*
X011917Y008021D01*
X011490Y008021D02*
X011490Y007380D01*
X011490Y007700D02*
X011917Y007700D01*
X002660Y008400D02*
X002410Y008150D01*
X001910Y008150D01*
X001660Y008400D01*
X001660Y008900D01*
X001910Y009150D01*
X001660Y009400D01*
X001660Y009900D01*
X001910Y010150D01*
X001660Y010400D01*
X001660Y010900D01*
X001910Y011150D01*
X002410Y011150D01*
X002660Y010900D01*
X002660Y010400D01*
X002410Y010150D01*
X002660Y009900D01*
X002660Y009400D01*
X002410Y009150D01*
X002660Y008900D01*
X002660Y008400D01*
X002410Y009150D02*
X001910Y009150D01*
X001910Y010150D02*
X002410Y010150D01*
D12*
X001660Y003150D02*
X001660Y000150D01*
X005160Y000150D01*
X012160Y000150D01*
X012160Y003150D01*
X005160Y003150D01*
X005160Y000150D01*
X005660Y001650D02*
X007160Y001650D01*
X007162Y001704D01*
X007168Y001757D01*
X007177Y001809D01*
X007190Y001861D01*
X007207Y001912D01*
X007228Y001962D01*
X007252Y002009D01*
X007279Y002055D01*
X007310Y002099D01*
X007343Y002141D01*
X007380Y002180D01*
X007419Y002217D01*
X007461Y002250D01*
X007505Y002281D01*
X007551Y002308D01*
X007598Y002332D01*
X007648Y002353D01*
X007699Y002370D01*
X007751Y002383D01*
X007803Y002392D01*
X007856Y002398D01*
X007910Y002400D01*
X007964Y002398D01*
X008017Y002392D01*
X008069Y002383D01*
X008121Y002370D01*
X008172Y002353D01*
X008222Y002332D01*
X008269Y002308D01*
X008315Y002281D01*
X008359Y002250D01*
X008401Y002217D01*
X008440Y002180D01*
X008477Y002141D01*
X008510Y002099D01*
X008541Y002055D01*
X008568Y002009D01*
X008592Y001962D01*
X008613Y001912D01*
X008630Y001861D01*
X008643Y001809D01*
X008652Y001757D01*
X008658Y001704D01*
X008660Y001650D01*
X008662Y001596D01*
X008668Y001543D01*
X008677Y001491D01*
X008690Y001439D01*
X008707Y001388D01*
X008728Y001338D01*
X008752Y001291D01*
X008779Y001245D01*
X008810Y001201D01*
X008843Y001159D01*
X008880Y001120D01*
X008919Y001083D01*
X008961Y001050D01*
X009005Y001019D01*
X009051Y000992D01*
X009098Y000968D01*
X009148Y000947D01*
X009199Y000930D01*
X009251Y000917D01*
X009303Y000908D01*
X009356Y000902D01*
X009410Y000900D01*
X009464Y000902D01*
X009517Y000908D01*
X009569Y000917D01*
X009621Y000930D01*
X009672Y000947D01*
X009722Y000968D01*
X009769Y000992D01*
X009815Y001019D01*
X009859Y001050D01*
X009901Y001083D01*
X009940Y001120D01*
X009977Y001159D01*
X010010Y001201D01*
X010041Y001245D01*
X010068Y001291D01*
X010092Y001338D01*
X010113Y001388D01*
X010130Y001439D01*
X010143Y001491D01*
X010152Y001543D01*
X010158Y001596D01*
X010160Y001650D01*
X011660Y001650D01*
X012160Y000150D02*
X015660Y000150D01*
X015660Y003150D01*
X012160Y003150D01*
X014660Y003900D02*
X014660Y008400D01*
X015660Y008400D01*
X015660Y003900D01*
X014660Y003900D01*
X015910Y004650D02*
X015910Y005650D01*
X014160Y007400D01*
X014660Y009270D02*
X014810Y009270D01*
X014885Y009345D01*
X014885Y009720D01*
X015045Y009645D02*
X015120Y009720D01*
X015271Y009720D01*
X015346Y009645D01*
X015271Y009495D02*
X015120Y009495D01*
X015045Y009570D01*
X015045Y009645D01*
X015196Y009795D02*
X015196Y009195D01*
X015271Y009270D02*
X015346Y009345D01*
X015346Y009420D01*
X015271Y009495D01*
X015271Y009270D02*
X015120Y009270D01*
X015045Y009345D01*
X014660Y009270D02*
X014585Y009345D01*
X014585Y009720D01*
X015506Y009495D02*
X015731Y009495D01*
X015806Y009420D01*
X015806Y009345D01*
X015731Y009270D01*
X015581Y009270D01*
X015506Y009345D01*
X015506Y009495D01*
X015656Y009645D01*
X015806Y009720D01*
X011246Y010075D02*
X010946Y010075D01*
X011246Y010375D01*
X011246Y010450D01*
X011171Y010525D01*
X011021Y010525D01*
X010946Y010450D01*
X010786Y010450D02*
X010786Y010375D01*
X010711Y010300D01*
X010786Y010225D01*
X010786Y010150D01*
X010711Y010075D01*
X010560Y010075D01*
X010485Y010150D01*
X010325Y010075D02*
X010175Y010225D01*
X010250Y010225D02*
X010025Y010225D01*
X010025Y010075D02*
X010025Y010525D01*
X010250Y010525D01*
X010325Y010450D01*
X010325Y010300D01*
X010250Y010225D01*
X010485Y010450D02*
X010560Y010525D01*
X010711Y010525D01*
X010786Y010450D01*
X010711Y010300D02*
X010636Y010300D01*
X004546Y013575D02*
X004246Y013575D01*
X004546Y013875D01*
X004546Y013950D01*
X004471Y014025D01*
X004321Y014025D01*
X004246Y013950D01*
X003936Y014025D02*
X003936Y013575D01*
X004086Y013575D02*
X003785Y013575D01*
X003625Y013575D02*
X003475Y013725D01*
X003550Y013725D02*
X003325Y013725D01*
X003325Y013575D02*
X003325Y014025D01*
X003550Y014025D01*
X003625Y013950D01*
X003625Y013800D01*
X003550Y013725D01*
X003785Y013875D02*
X003936Y014025D01*
X007255Y017170D02*
X007330Y017095D01*
X007480Y017095D01*
X007555Y017170D01*
X007555Y017320D01*
X007480Y017395D01*
X007405Y017395D01*
X007255Y017320D01*
X007255Y017545D01*
X007555Y017545D01*
X007715Y017545D02*
X007715Y017245D01*
X007866Y017095D01*
X008016Y017245D01*
X008016Y017545D01*
X008700Y018975D02*
X008700Y019425D01*
X008925Y019425D01*
X009000Y019350D01*
X009000Y019200D01*
X008925Y019125D01*
X008700Y019125D01*
X008850Y019125D02*
X009000Y018975D01*
X009160Y019050D02*
X009235Y018975D01*
X009386Y018975D01*
X009461Y019050D01*
X009461Y019350D01*
X009386Y019425D01*
X009235Y019425D01*
X009160Y019350D01*
X009160Y019275D01*
X009235Y019200D01*
X009461Y019200D01*
X010425Y020075D02*
X010425Y020525D01*
X010650Y020525D01*
X010725Y020450D01*
X010725Y020300D01*
X010650Y020225D01*
X010425Y020225D01*
X010575Y020225D02*
X010725Y020075D01*
X010885Y020150D02*
X010960Y020075D01*
X011111Y020075D01*
X011186Y020150D01*
X011186Y020225D01*
X011111Y020300D01*
X011036Y020300D01*
X011111Y020300D02*
X011186Y020375D01*
X011186Y020450D01*
X011111Y020525D01*
X010960Y020525D01*
X010885Y020450D01*
X011346Y020450D02*
X011346Y020150D01*
X011646Y020450D01*
X011646Y020150D01*
X011571Y020075D01*
X011421Y020075D01*
X011346Y020150D01*
X011346Y020450D02*
X011421Y020525D01*
X011571Y020525D01*
X011646Y020450D01*
X014825Y020775D02*
X014825Y021225D01*
X015050Y021225D01*
X015125Y021150D01*
X015125Y021000D01*
X015050Y020925D01*
X014825Y020925D01*
X014975Y020925D02*
X015125Y020775D01*
X015285Y020775D02*
X015586Y020775D01*
X015436Y020775D02*
X015436Y021225D01*
X015285Y021075D01*
X015746Y021075D02*
X015896Y021225D01*
X015896Y020775D01*
X015746Y020775D02*
X016046Y020775D01*
X021925Y021075D02*
X021925Y021525D01*
X022150Y021525D01*
X022225Y021450D01*
X022225Y021300D01*
X022150Y021225D01*
X021925Y021225D01*
X022075Y021225D02*
X022225Y021075D01*
X022385Y021150D02*
X022460Y021075D01*
X022611Y021075D01*
X022686Y021150D01*
X022686Y021225D01*
X022611Y021300D01*
X022536Y021300D01*
X022611Y021300D02*
X022686Y021375D01*
X022686Y021450D01*
X022611Y021525D01*
X022460Y021525D01*
X022385Y021450D01*
X022350Y019225D02*
X022125Y019225D01*
X022125Y018775D01*
X022125Y018925D02*
X022350Y018925D01*
X022425Y019000D01*
X022425Y019150D01*
X022350Y019225D01*
X022585Y019150D02*
X022660Y019225D01*
X022811Y019225D01*
X022886Y019150D01*
X022886Y019075D01*
X022585Y018775D01*
X022886Y018775D01*
X023046Y018850D02*
X023346Y019150D01*
X023346Y018850D01*
X023271Y018775D01*
X023121Y018775D01*
X023046Y018850D01*
X023046Y019150D01*
X023121Y019225D01*
X023271Y019225D01*
X023346Y019150D01*
X022425Y018775D02*
X022275Y018925D01*
X022250Y017825D02*
X022325Y017750D01*
X022325Y017600D01*
X022250Y017525D01*
X022025Y017525D01*
X022025Y017375D02*
X022025Y017825D01*
X022250Y017825D01*
X022485Y017675D02*
X022636Y017825D01*
X022636Y017375D01*
X022786Y017375D02*
X022485Y017375D01*
X022325Y017375D02*
X022175Y017525D01*
X022946Y017450D02*
X023021Y017375D01*
X023171Y017375D01*
X023246Y017450D01*
X023246Y017750D01*
X023171Y017825D01*
X023021Y017825D01*
X022946Y017750D01*
X022946Y017675D01*
X023021Y017600D01*
X023246Y017600D01*
X024675Y017375D02*
X024675Y016925D01*
X024900Y016925D01*
X024975Y017000D01*
X024975Y017075D01*
X024900Y017150D01*
X024675Y017150D01*
X024900Y017150D02*
X024975Y017225D01*
X024975Y017300D01*
X024900Y017375D01*
X024675Y017375D01*
X024735Y016475D02*
X024960Y016475D01*
X025035Y016400D01*
X025035Y016250D01*
X024960Y016175D01*
X024735Y016175D01*
X024735Y016025D02*
X024735Y016475D01*
X024885Y016175D02*
X025035Y016025D01*
X023771Y014725D02*
X023846Y014650D01*
X023846Y014575D01*
X023771Y014500D01*
X023621Y014500D01*
X023546Y014575D01*
X023546Y014650D01*
X023621Y014725D01*
X023771Y014725D01*
X023771Y014500D02*
X023846Y014425D01*
X023846Y014350D01*
X023771Y014275D01*
X023621Y014275D01*
X023546Y014350D01*
X023546Y014425D01*
X023621Y014500D01*
X023386Y014275D02*
X023085Y014275D01*
X023236Y014275D02*
X023236Y014725D01*
X023085Y014575D01*
X022925Y014500D02*
X022850Y014425D01*
X022625Y014425D01*
X022625Y014275D02*
X022625Y014725D01*
X022850Y014725D01*
X022925Y014650D01*
X022925Y014500D01*
X022775Y014425D02*
X022925Y014275D01*
X023146Y013025D02*
X022996Y012950D01*
X022846Y012800D01*
X023071Y012800D01*
X023146Y012725D01*
X023146Y012650D01*
X023071Y012575D01*
X022921Y012575D01*
X022846Y012650D01*
X022846Y012800D01*
X022686Y012575D02*
X022385Y012575D01*
X022536Y012575D02*
X022536Y013025D01*
X022385Y012875D01*
X022225Y012950D02*
X022225Y012800D01*
X022150Y012725D01*
X021925Y012725D01*
X021925Y012575D02*
X021925Y013025D01*
X022150Y013025D01*
X022225Y012950D01*
X022075Y012725D02*
X022225Y012575D01*
X025660Y011650D02*
X025660Y013650D01*
X027260Y013650D01*
X027260Y011650D01*
X025660Y011650D01*
X027835Y017725D02*
X027835Y017995D01*
X027970Y017995D01*
X028015Y017950D01*
X028015Y017860D01*
X027970Y017815D01*
X027835Y017815D01*
X027925Y017815D02*
X028015Y017725D01*
X028130Y017725D02*
X028310Y017725D01*
X028220Y017725D02*
X028220Y017995D01*
X028130Y017905D01*
X028424Y017860D02*
X028604Y017860D01*
X028559Y017725D02*
X028559Y017995D01*
X028424Y017860D01*
X029835Y017815D02*
X029970Y017815D01*
X030015Y017860D01*
X030015Y017950D01*
X029970Y017995D01*
X029835Y017995D01*
X029835Y017725D01*
X029925Y017815D02*
X030015Y017725D01*
X030130Y017725D02*
X030310Y017725D01*
X030220Y017725D02*
X030220Y017995D01*
X030130Y017905D01*
X030424Y017995D02*
X030604Y017995D01*
X030604Y017950D01*
X030424Y017770D01*
X030424Y017725D01*
X026504Y019170D02*
X026459Y019125D01*
X026369Y019125D01*
X026324Y019170D01*
X026324Y019260D02*
X026414Y019305D01*
X026459Y019305D01*
X026504Y019260D01*
X026504Y019170D01*
X026324Y019260D02*
X026324Y019395D01*
X026504Y019395D01*
X026210Y019125D02*
X026030Y019125D01*
X026120Y019125D02*
X026120Y019395D01*
X026030Y019305D01*
X025915Y019260D02*
X025870Y019215D01*
X025735Y019215D01*
X025735Y019125D02*
X025735Y019395D01*
X025870Y019395D01*
X025915Y019350D01*
X025915Y019260D01*
X025825Y019215D02*
X025915Y019125D01*
X025785Y022175D02*
X026086Y022475D01*
X026086Y022550D01*
X026011Y022625D01*
X025860Y022625D01*
X025785Y022550D01*
X025625Y022550D02*
X025625Y022400D01*
X025550Y022325D01*
X025325Y022325D01*
X025325Y022175D02*
X025325Y022625D01*
X025550Y022625D01*
X025625Y022550D01*
X025475Y022325D02*
X025625Y022175D01*
X025785Y022175D02*
X026086Y022175D01*
X028325Y022675D02*
X028325Y023125D01*
X028550Y023125D01*
X028625Y023050D01*
X028625Y022900D01*
X028550Y022825D01*
X028325Y022825D01*
X028475Y022825D02*
X028625Y022675D01*
X028785Y022900D02*
X029086Y022900D01*
X029011Y022675D02*
X029011Y023125D01*
X028785Y022900D01*
X004226Y010345D02*
X004226Y009895D01*
X004076Y009895D02*
X004376Y009895D01*
X004076Y010195D02*
X004226Y010345D01*
X003916Y010345D02*
X003916Y010045D01*
X003766Y009895D01*
X003615Y010045D01*
X003615Y010345D01*
X003455Y010270D02*
X003380Y010345D01*
X003230Y010345D01*
X003155Y010270D01*
X003155Y010195D01*
X003230Y010120D01*
X003380Y010120D01*
X003455Y010045D01*
X003455Y009970D01*
X003380Y009895D01*
X003230Y009895D01*
X003155Y009970D01*
X001660Y003150D02*
X005160Y003150D01*
X002876Y020895D02*
X002576Y020895D01*
X002726Y020895D02*
X002726Y021345D01*
X002576Y021195D01*
X002416Y021270D02*
X002416Y021120D01*
X002341Y021045D01*
X002115Y021045D01*
X002115Y020895D02*
X002115Y021345D01*
X002341Y021345D01*
X002416Y021270D01*
X001955Y021345D02*
X001805Y021345D01*
X001880Y021345D02*
X001880Y020970D01*
X001805Y020895D01*
X001730Y020895D01*
X001655Y020970D01*
D13*
X005410Y017650D02*
X005410Y016650D01*
X005910Y016650D02*
X005910Y017650D01*
X008935Y018460D02*
X009135Y018460D01*
X009135Y018840D02*
X008935Y018840D01*
X012160Y020160D02*
X012360Y020160D01*
X012360Y020540D02*
X012160Y020540D01*
X014970Y020250D02*
X014970Y020050D01*
X015350Y020050D02*
X015350Y020250D01*
X014785Y016650D02*
X014785Y015650D01*
X014285Y015650D02*
X014285Y016650D01*
X014510Y014150D02*
X014510Y013150D01*
X015010Y013150D02*
X015010Y014150D01*
X014660Y012400D02*
X013660Y012400D01*
X013660Y011900D02*
X014660Y011900D01*
X010760Y011040D02*
X010560Y011040D01*
X010560Y010660D02*
X010760Y010660D01*
X006560Y012500D02*
X005560Y012500D01*
X005560Y013000D02*
X006560Y013000D01*
X005260Y013360D02*
X005060Y013360D01*
X005060Y013740D02*
X005260Y013740D01*
X019160Y008400D02*
X020160Y008400D01*
X020160Y007900D02*
X019160Y007900D01*
X022561Y009651D02*
X025159Y009651D01*
X025159Y011826D01*
X024736Y012249D01*
X022984Y012249D01*
X022561Y011826D01*
X022561Y009651D01*
X022350Y013550D02*
X022350Y013750D01*
X021970Y013750D02*
X021970Y013550D01*
X022560Y014960D02*
X022760Y014960D01*
X022760Y015340D02*
X022560Y015340D01*
X022560Y017960D02*
X022760Y017960D01*
X022760Y018340D02*
X022560Y018340D01*
X022560Y019460D02*
X022760Y019460D01*
X022760Y019840D02*
X022560Y019840D01*
X022260Y020460D02*
X022060Y020460D01*
X022060Y020840D02*
X022260Y020840D01*
X026060Y021460D02*
X026260Y021460D01*
X026260Y021840D02*
X026060Y021840D01*
X029060Y021960D02*
X029260Y021960D01*
X029260Y022340D02*
X029060Y022340D01*
X029160Y010450D02*
X028160Y010450D01*
X028160Y009950D02*
X029160Y009950D01*
D14*
X028770Y010620D02*
X028770Y010697D01*
X029077Y011004D01*
X029077Y011080D01*
X028770Y011080D01*
X028616Y011004D02*
X028539Y011080D01*
X028386Y011080D01*
X028309Y011004D01*
X028309Y010697D01*
X028386Y010620D01*
X028539Y010620D01*
X028616Y010697D01*
X026708Y010354D02*
X026708Y010047D01*
X026631Y009970D01*
X026478Y009970D01*
X026401Y010047D01*
X026708Y010354D01*
X026631Y010430D01*
X026478Y010430D01*
X026401Y010354D01*
X026401Y010047D01*
X026247Y009970D02*
X025940Y009970D01*
X026094Y009970D02*
X026094Y010430D01*
X025940Y010277D01*
X025787Y010354D02*
X025710Y010430D01*
X025557Y010430D01*
X025480Y010354D01*
X025480Y010047D01*
X025557Y009970D01*
X025710Y009970D01*
X025787Y010047D01*
X025350Y012770D02*
X025196Y012770D01*
X025120Y012847D01*
X025120Y013000D02*
X025273Y013077D01*
X025350Y013077D01*
X025427Y013000D01*
X025427Y012847D01*
X025350Y012770D01*
X025120Y013000D02*
X025120Y013230D01*
X025427Y013230D01*
X024966Y013154D02*
X024889Y013230D01*
X024736Y013230D01*
X024659Y013154D01*
X024659Y013077D01*
X024736Y013000D01*
X024889Y013000D01*
X024966Y012923D01*
X024966Y012847D01*
X024889Y012770D01*
X024736Y012770D01*
X024659Y012847D01*
X024506Y012847D02*
X024506Y013230D01*
X024199Y013230D02*
X024199Y012847D01*
X024276Y012770D01*
X024429Y012770D01*
X024506Y012847D01*
X024813Y012693D02*
X024813Y013307D01*
X020021Y008930D02*
X019790Y008700D01*
X020097Y008700D01*
X020021Y008470D02*
X020021Y008930D01*
X019637Y008854D02*
X019560Y008930D01*
X019407Y008930D01*
X019330Y008854D01*
X019330Y008547D01*
X019407Y008470D01*
X019560Y008470D01*
X019637Y008547D01*
X014597Y012647D02*
X014521Y012570D01*
X014367Y012570D01*
X014290Y012647D01*
X014137Y012647D02*
X014060Y012570D01*
X013907Y012570D01*
X013830Y012647D01*
X013830Y012954D01*
X013907Y013030D01*
X014060Y013030D01*
X014137Y012954D01*
X014290Y012954D02*
X014367Y013030D01*
X014521Y013030D01*
X014597Y012954D01*
X014597Y012877D01*
X014521Y012800D01*
X014597Y012723D01*
X014597Y012647D01*
X014521Y012800D02*
X014444Y012800D01*
X014300Y013470D02*
X014146Y013470D01*
X014070Y013547D01*
X013916Y013547D02*
X013839Y013470D01*
X013686Y013470D01*
X013609Y013547D01*
X013609Y013854D01*
X013686Y013930D01*
X013839Y013930D01*
X013916Y013854D01*
X014070Y013854D02*
X014070Y013777D01*
X014146Y013700D01*
X014377Y013700D01*
X014377Y013547D02*
X014377Y013854D01*
X014300Y013930D01*
X014146Y013930D01*
X014070Y013854D01*
X014377Y013547D02*
X014300Y013470D01*
X014407Y014945D02*
X014560Y014945D01*
X014637Y015022D01*
X014790Y015022D02*
X014867Y014945D01*
X015021Y014945D01*
X015097Y015022D01*
X015097Y015175D01*
X015021Y015252D01*
X014944Y015252D01*
X014790Y015175D01*
X014790Y015405D01*
X015097Y015405D01*
X014637Y015329D02*
X014560Y015405D01*
X014407Y015405D01*
X014330Y015329D01*
X014330Y015022D01*
X014407Y014945D01*
X012397Y012380D02*
X012244Y012304D01*
X012090Y012150D01*
X012321Y012150D01*
X012397Y012073D01*
X012397Y011997D01*
X012321Y011920D01*
X012167Y011920D01*
X012090Y011997D01*
X012090Y012150D01*
X011937Y011997D02*
X011937Y012304D01*
X011860Y012380D01*
X011630Y012380D01*
X011630Y011920D01*
X011860Y011920D01*
X011937Y011997D01*
X007508Y013700D02*
X007201Y013700D01*
X007431Y013930D01*
X007431Y013470D01*
X007047Y013547D02*
X007047Y013623D01*
X006971Y013700D01*
X006817Y013700D01*
X006740Y013777D01*
X006740Y013854D01*
X006817Y013930D01*
X006971Y013930D01*
X007047Y013854D01*
X006894Y014007D02*
X006894Y013393D01*
X006971Y013470D02*
X007047Y013547D01*
X006971Y013470D02*
X006817Y013470D01*
X006740Y013547D01*
X006587Y013547D02*
X006587Y013930D01*
X006280Y013930D02*
X006280Y013547D01*
X006357Y013470D01*
X006510Y013470D01*
X006587Y013547D01*
X006244Y012330D02*
X006090Y012177D01*
X005937Y012254D02*
X005860Y012330D01*
X005707Y012330D01*
X005630Y012254D01*
X005630Y011947D01*
X005707Y011870D01*
X005860Y011870D01*
X005937Y011947D01*
X006090Y011870D02*
X006397Y011870D01*
X006244Y011870D02*
X006244Y012330D01*
X005177Y017570D02*
X004870Y017570D01*
X005177Y017877D01*
X005177Y017954D01*
X005100Y018030D01*
X004946Y018030D01*
X004870Y017954D01*
X004716Y017954D02*
X004639Y018030D01*
X004486Y018030D01*
X004409Y017954D01*
X004409Y017647D01*
X004486Y017570D01*
X004639Y017570D01*
X004716Y017647D01*
X010180Y021670D02*
X010180Y022130D01*
X010410Y022130D01*
X010487Y022054D01*
X010487Y021747D01*
X010410Y021670D01*
X010180Y021670D01*
X010640Y021670D02*
X010947Y021670D01*
X010794Y021670D02*
X010794Y022130D01*
X010640Y021977D01*
X012786Y019805D02*
X012939Y019805D01*
X013016Y019729D01*
X013016Y019422D01*
X012939Y019345D01*
X012786Y019345D01*
X012709Y019422D01*
X012709Y019729D01*
X012786Y019805D01*
X012863Y019498D02*
X013016Y019345D01*
X013170Y019345D02*
X013477Y019345D01*
X013323Y019345D02*
X013323Y019805D01*
X013170Y019652D01*
X012621Y018130D02*
X012467Y018130D01*
X012390Y018054D01*
X012237Y018130D02*
X012237Y017747D01*
X012160Y017670D01*
X012007Y017670D01*
X011930Y017747D01*
X011930Y018130D01*
X012390Y017670D02*
X012697Y017977D01*
X012697Y018054D01*
X012621Y018130D01*
X012697Y017670D02*
X012390Y017670D01*
X024259Y021747D02*
X024336Y021670D01*
X024489Y021670D01*
X024566Y021747D01*
X024566Y022054D01*
X024489Y022130D01*
X024336Y022130D01*
X024259Y022054D01*
X024259Y021747D01*
X024413Y021823D02*
X024566Y021670D01*
X024720Y021900D02*
X025027Y021900D01*
X024950Y021670D02*
X024950Y022130D01*
X024720Y021900D01*
X027159Y021854D02*
X027159Y021547D01*
X027236Y021470D01*
X027389Y021470D01*
X027466Y021547D01*
X027466Y021854D01*
X027389Y021930D01*
X027236Y021930D01*
X027159Y021854D01*
X027313Y021623D02*
X027466Y021470D01*
X027620Y021547D02*
X027696Y021470D01*
X027850Y021470D01*
X027927Y021547D01*
X027927Y021623D01*
X027850Y021700D01*
X027773Y021700D01*
X027850Y021700D02*
X027927Y021777D01*
X027927Y021854D01*
X027850Y021930D01*
X027696Y021930D01*
X027620Y021854D01*
X029809Y021697D02*
X029809Y022004D01*
X029886Y022080D01*
X030039Y022080D01*
X030116Y022004D01*
X030116Y021697D01*
X030039Y021620D01*
X029886Y021620D01*
X029809Y021697D01*
X029963Y021773D02*
X030116Y021620D01*
X030270Y021697D02*
X030346Y021620D01*
X030500Y021620D01*
X030577Y021697D01*
X030577Y021850D01*
X030500Y021927D01*
X030423Y021927D01*
X030270Y021850D01*
X030270Y022080D01*
X030577Y022080D01*
X014408Y006154D02*
X014331Y006230D01*
X014178Y006230D01*
X014101Y006154D01*
X013947Y006154D02*
X013871Y006230D01*
X013717Y006230D01*
X013640Y006154D01*
X013640Y006077D01*
X013717Y006000D01*
X013871Y006000D01*
X013947Y005923D01*
X013947Y005847D01*
X013871Y005770D01*
X013717Y005770D01*
X013640Y005847D01*
X013487Y005847D02*
X013487Y006230D01*
X013180Y006230D02*
X013180Y005847D01*
X013257Y005770D01*
X013410Y005770D01*
X013487Y005847D01*
X013794Y005693D02*
X013794Y006307D01*
X014254Y006000D02*
X014331Y006000D01*
X014408Y005923D01*
X014408Y005847D01*
X014331Y005770D01*
X014178Y005770D01*
X014101Y005847D01*
X014331Y006000D02*
X014408Y006077D01*
X014408Y006154D01*
X018680Y002630D02*
X018833Y002630D01*
X018757Y002630D02*
X018757Y002170D01*
X018833Y002170D02*
X018680Y002170D01*
X018987Y002170D02*
X019217Y002170D01*
X019294Y002247D01*
X019217Y002323D01*
X019064Y002323D01*
X018987Y002400D01*
X019064Y002477D01*
X019294Y002477D01*
X019447Y002400D02*
X019447Y002247D01*
X019524Y002170D01*
X019678Y002170D01*
X019754Y002247D01*
X019754Y002400D01*
X019678Y002477D01*
X019524Y002477D01*
X019447Y002400D01*
X019908Y002170D02*
X020061Y002170D01*
X019984Y002170D02*
X019984Y002630D01*
X019908Y002630D01*
X020291Y002477D02*
X020445Y002477D01*
X020522Y002400D01*
X020522Y002170D01*
X020291Y002170D01*
X020215Y002247D01*
X020291Y002323D01*
X020522Y002323D01*
X020675Y002477D02*
X020828Y002477D01*
X020752Y002554D02*
X020752Y002247D01*
X020828Y002170D01*
X020982Y002247D02*
X020982Y002400D01*
X021059Y002477D01*
X021212Y002477D01*
X021289Y002400D01*
X021289Y002323D01*
X020982Y002323D01*
X020982Y002247D02*
X021059Y002170D01*
X021212Y002170D01*
X024680Y005247D02*
X024757Y005170D01*
X024910Y005170D01*
X024987Y005247D01*
X024987Y005630D01*
X025140Y005554D02*
X025217Y005630D01*
X025371Y005630D01*
X025447Y005554D01*
X025371Y005400D02*
X025217Y005400D01*
X025140Y005477D01*
X025140Y005554D01*
X025294Y005707D02*
X025294Y005093D01*
X025371Y005170D02*
X025447Y005247D01*
X025447Y005323D01*
X025371Y005400D01*
X025371Y005170D02*
X025217Y005170D01*
X025140Y005247D01*
X024680Y005247D02*
X024680Y005630D01*
X025601Y005477D02*
X025754Y005630D01*
X025754Y005170D01*
X025601Y005170D02*
X025908Y005170D01*
X008828Y004630D02*
X008522Y004630D01*
X008522Y004170D01*
X008828Y004170D01*
X008675Y004400D02*
X008522Y004400D01*
X008368Y004630D02*
X008368Y004170D01*
X008061Y004170D02*
X008061Y004630D01*
X008215Y004477D01*
X008368Y004630D01*
X007908Y004477D02*
X007908Y004170D01*
X007908Y004400D02*
X007601Y004400D01*
X007601Y004477D02*
X007754Y004630D01*
X007908Y004477D01*
X007601Y004477D02*
X007601Y004170D01*
X007447Y004170D02*
X007447Y004630D01*
X007140Y004630D02*
X007140Y004170D01*
X006987Y004400D02*
X006680Y004170D01*
X006987Y004400D02*
X006680Y004630D01*
X007140Y004630D02*
X007447Y004170D01*
D15*
X024504Y016155D02*
X024414Y016155D01*
X024415Y016155D02*
X024413Y016209D01*
X024407Y016262D01*
X024397Y016315D01*
X024383Y016367D01*
X024366Y016418D01*
X024345Y016467D01*
X024321Y016515D01*
X024293Y016561D01*
X024262Y016605D01*
X024228Y016647D01*
X024192Y016686D01*
X024152Y016723D01*
X024110Y016756D01*
X024066Y016787D01*
X024020Y016814D01*
X024062Y016893D01*
X024111Y016865D01*
X024157Y016833D01*
X024202Y016798D01*
X024244Y016761D01*
X024284Y016720D01*
X024320Y016677D01*
X024354Y016632D01*
X024385Y016585D01*
X024412Y016535D01*
X024436Y016484D01*
X024457Y016432D01*
X024474Y016378D01*
X024487Y016323D01*
X024497Y016268D01*
X024503Y016211D01*
X024505Y016155D01*
X024496Y016155D01*
X024494Y016211D01*
X024488Y016266D01*
X024478Y016321D01*
X024465Y016376D01*
X024448Y016429D01*
X024428Y016481D01*
X024404Y016531D01*
X024377Y016580D01*
X024347Y016627D01*
X024313Y016672D01*
X024277Y016714D01*
X024238Y016754D01*
X024196Y016791D01*
X024152Y016826D01*
X024106Y016857D01*
X024058Y016885D01*
X024054Y016877D01*
X024101Y016849D01*
X024147Y016818D01*
X024190Y016784D01*
X024232Y016748D01*
X024270Y016708D01*
X024306Y016666D01*
X024339Y016622D01*
X024369Y016576D01*
X024396Y016527D01*
X024419Y016477D01*
X024440Y016426D01*
X024456Y016373D01*
X024469Y016320D01*
X024479Y016265D01*
X024485Y016210D01*
X024487Y016155D01*
X024478Y016155D01*
X024476Y016210D01*
X024470Y016264D01*
X024461Y016318D01*
X024448Y016371D01*
X024431Y016423D01*
X024411Y016474D01*
X024388Y016523D01*
X024361Y016571D01*
X024332Y016617D01*
X024299Y016661D01*
X024264Y016702D01*
X024225Y016741D01*
X024185Y016778D01*
X024142Y016811D01*
X024096Y016842D01*
X024049Y016869D01*
X024045Y016861D01*
X024092Y016834D01*
X024136Y016804D01*
X024179Y016771D01*
X024219Y016735D01*
X024257Y016696D01*
X024292Y016655D01*
X024324Y016612D01*
X024354Y016566D01*
X024380Y016519D01*
X024403Y016470D01*
X024423Y016420D01*
X024439Y016368D01*
X024452Y016316D01*
X024461Y016263D01*
X024467Y016209D01*
X024469Y016155D01*
X024460Y016155D01*
X024458Y016208D01*
X024452Y016261D01*
X024443Y016314D01*
X024430Y016366D01*
X024414Y016417D01*
X024395Y016467D01*
X024372Y016515D01*
X024346Y016562D01*
X024317Y016606D01*
X024285Y016649D01*
X024250Y016690D01*
X024213Y016728D01*
X024173Y016764D01*
X024131Y016797D01*
X024087Y016827D01*
X024041Y016854D01*
X024037Y016846D01*
X024082Y016819D01*
X024126Y016789D01*
X024167Y016757D01*
X024207Y016722D01*
X024244Y016684D01*
X024278Y016644D01*
X024310Y016601D01*
X024338Y016557D01*
X024364Y016511D01*
X024386Y016463D01*
X024406Y016414D01*
X024422Y016364D01*
X024434Y016312D01*
X024443Y016260D01*
X024449Y016208D01*
X024451Y016155D01*
X024442Y016155D01*
X024440Y016211D01*
X024433Y016266D01*
X024423Y016321D01*
X024409Y016375D01*
X024391Y016427D01*
X024370Y016479D01*
X024344Y016528D01*
X024316Y016576D01*
X024284Y016622D01*
X024249Y016665D01*
X024211Y016705D01*
X024170Y016743D01*
X024126Y016778D01*
X024080Y016809D01*
X024032Y016838D01*
X024028Y016830D01*
X024076Y016802D01*
X024121Y016771D01*
X024164Y016736D01*
X024204Y016699D01*
X024242Y016659D01*
X024277Y016616D01*
X024308Y016571D01*
X024337Y016524D01*
X024361Y016475D01*
X024383Y016424D01*
X024400Y016372D01*
X024414Y016319D01*
X024424Y016265D01*
X024431Y016210D01*
X024433Y016155D01*
X024424Y016155D01*
X024422Y016209D01*
X024416Y016263D01*
X024406Y016317D01*
X024392Y016369D01*
X024374Y016421D01*
X024353Y016471D01*
X024329Y016520D01*
X024301Y016566D01*
X024269Y016611D01*
X024235Y016653D01*
X024198Y016692D01*
X024158Y016729D01*
X024116Y016763D01*
X024071Y016794D01*
X024024Y016822D01*
X023237Y016881D02*
X023282Y016803D01*
X023281Y016803D02*
X023237Y016775D01*
X023195Y016744D01*
X023155Y016711D01*
X023117Y016675D01*
X023082Y016636D01*
X023050Y016595D01*
X023020Y016551D01*
X022994Y016506D01*
X022971Y016459D01*
X022951Y016411D01*
X022935Y016361D01*
X022922Y016311D01*
X022913Y016259D01*
X022907Y016207D01*
X022905Y016155D01*
X022816Y016154D01*
X022815Y016155D01*
X022817Y016210D01*
X022823Y016264D01*
X022832Y016319D01*
X022845Y016372D01*
X022861Y016424D01*
X022880Y016476D01*
X022903Y016526D01*
X022929Y016574D01*
X022958Y016621D01*
X022990Y016665D01*
X023025Y016708D01*
X023063Y016748D01*
X023103Y016785D01*
X023145Y016820D01*
X023190Y016852D01*
X023236Y016881D01*
X023241Y016873D01*
X023195Y016845D01*
X023151Y016813D01*
X023109Y016778D01*
X023069Y016741D01*
X023032Y016702D01*
X022997Y016660D01*
X022966Y016616D01*
X022937Y016570D01*
X022911Y016522D01*
X022889Y016472D01*
X022869Y016422D01*
X022853Y016370D01*
X022841Y016317D01*
X022832Y016263D01*
X022826Y016209D01*
X022824Y016155D01*
X022833Y016155D01*
X022835Y016209D01*
X022841Y016262D01*
X022850Y016315D01*
X022862Y016367D01*
X022878Y016419D01*
X022897Y016469D01*
X022919Y016518D01*
X022945Y016565D01*
X022973Y016611D01*
X023005Y016654D01*
X023039Y016696D01*
X023075Y016735D01*
X023115Y016772D01*
X023156Y016806D01*
X023200Y016837D01*
X023245Y016866D01*
X023250Y016858D01*
X023202Y016828D01*
X023156Y016794D01*
X023113Y016758D01*
X023072Y016718D01*
X023034Y016676D01*
X022999Y016632D01*
X022967Y016585D01*
X022939Y016536D01*
X022914Y016485D01*
X022892Y016432D01*
X022875Y016379D01*
X022861Y016324D01*
X022851Y016268D01*
X022844Y016212D01*
X022842Y016155D01*
X022851Y016155D01*
X022853Y016211D01*
X022859Y016267D01*
X022869Y016322D01*
X022883Y016376D01*
X022901Y016429D01*
X022922Y016481D01*
X022947Y016532D01*
X022975Y016580D01*
X023006Y016626D01*
X023041Y016671D01*
X023078Y016712D01*
X023119Y016751D01*
X023161Y016787D01*
X023207Y016820D01*
X023254Y016850D01*
X023259Y016842D01*
X023212Y016813D01*
X023167Y016780D01*
X023125Y016744D01*
X023085Y016706D01*
X023048Y016665D01*
X023013Y016621D01*
X022982Y016575D01*
X022955Y016527D01*
X022930Y016478D01*
X022909Y016426D01*
X022892Y016374D01*
X022878Y016320D01*
X022868Y016265D01*
X022862Y016210D01*
X022860Y016155D01*
X022869Y016155D01*
X022871Y016210D01*
X022877Y016264D01*
X022887Y016318D01*
X022901Y016371D01*
X022918Y016423D01*
X022938Y016474D01*
X022963Y016523D01*
X022990Y016570D01*
X023021Y016616D01*
X023054Y016659D01*
X023091Y016700D01*
X023131Y016738D01*
X023173Y016773D01*
X023217Y016805D01*
X023263Y016834D01*
X023268Y016826D01*
X023222Y016798D01*
X023178Y016766D01*
X023137Y016731D01*
X023098Y016693D01*
X023061Y016653D01*
X023028Y016611D01*
X022998Y016566D01*
X022970Y016519D01*
X022947Y016470D01*
X022926Y016420D01*
X022909Y016369D01*
X022896Y016316D01*
X022886Y016263D01*
X022880Y016209D01*
X022878Y016155D01*
X022887Y016155D01*
X022889Y016208D01*
X022895Y016262D01*
X022905Y016314D01*
X022918Y016366D01*
X022935Y016417D01*
X022955Y016467D01*
X022978Y016515D01*
X023005Y016561D01*
X023035Y016605D01*
X023068Y016647D01*
X023104Y016687D01*
X023143Y016724D01*
X023184Y016759D01*
X023227Y016790D01*
X023272Y016819D01*
X023277Y016811D01*
X023232Y016783D01*
X023189Y016752D01*
X023149Y016718D01*
X023111Y016681D01*
X023075Y016642D01*
X023043Y016600D01*
X023013Y016556D01*
X022986Y016510D01*
X022963Y016463D01*
X022943Y016414D01*
X022926Y016364D01*
X022913Y016312D01*
X022904Y016260D01*
X022898Y016208D01*
X022896Y016155D01*
X022816Y016146D02*
X022906Y016146D01*
X022905Y016145D02*
X022907Y016091D01*
X022913Y016038D01*
X022923Y015985D01*
X022937Y015933D01*
X022954Y015882D01*
X022975Y015832D01*
X022999Y015784D01*
X023027Y015738D01*
X023058Y015694D01*
X023092Y015653D01*
X023129Y015613D01*
X023168Y015577D01*
X023111Y015509D01*
X023110Y015508D01*
X023069Y015546D01*
X023031Y015586D01*
X022995Y015629D01*
X022962Y015674D01*
X022932Y015721D01*
X022906Y015769D01*
X022882Y015820D01*
X022862Y015872D01*
X022846Y015925D01*
X022832Y015979D01*
X022823Y016034D01*
X022817Y016089D01*
X022815Y016145D01*
X022824Y016145D01*
X022826Y016090D01*
X022832Y016035D01*
X022841Y015981D01*
X022854Y015927D01*
X022871Y015875D01*
X022890Y015823D01*
X022914Y015773D01*
X022940Y015725D01*
X022970Y015679D01*
X023002Y015634D01*
X023037Y015592D01*
X023076Y015552D01*
X023116Y015515D01*
X023122Y015522D01*
X023082Y015559D01*
X023044Y015598D01*
X023009Y015640D01*
X022977Y015684D01*
X022948Y015730D01*
X022922Y015778D01*
X022899Y015827D01*
X022879Y015878D01*
X022863Y015930D01*
X022850Y015983D01*
X022841Y016036D01*
X022835Y016091D01*
X022833Y016145D01*
X022842Y016145D01*
X022844Y016091D01*
X022850Y016038D01*
X022859Y015985D01*
X022872Y015932D01*
X022888Y015881D01*
X022907Y015830D01*
X022930Y015782D01*
X022955Y015734D01*
X022984Y015689D01*
X023016Y015645D01*
X023051Y015604D01*
X023088Y015565D01*
X023128Y015529D01*
X023134Y015536D01*
X023094Y015572D01*
X023057Y015610D01*
X023023Y015651D01*
X022992Y015694D01*
X022963Y015739D01*
X022938Y015786D01*
X022915Y015834D01*
X022896Y015884D01*
X022880Y015935D01*
X022868Y015986D01*
X022859Y016039D01*
X022853Y016092D01*
X022851Y016145D01*
X022860Y016145D01*
X022862Y016092D01*
X022868Y016040D01*
X022877Y015988D01*
X022889Y015937D01*
X022905Y015887D01*
X022924Y015837D01*
X022946Y015790D01*
X022971Y015743D01*
X022999Y015699D01*
X023030Y015657D01*
X023064Y015616D01*
X023101Y015578D01*
X023139Y015543D01*
X023145Y015549D01*
X023107Y015585D01*
X023071Y015622D01*
X023037Y015662D01*
X023007Y015704D01*
X022979Y015748D01*
X022954Y015794D01*
X022932Y015841D01*
X022913Y015890D01*
X022898Y015939D01*
X022885Y015990D01*
X022877Y016041D01*
X022871Y016093D01*
X022869Y016145D01*
X022878Y016145D01*
X022880Y016089D01*
X022887Y016034D01*
X022897Y015979D01*
X022911Y015925D01*
X022929Y015872D01*
X022951Y015821D01*
X022976Y015771D01*
X023005Y015723D01*
X023037Y015678D01*
X023072Y015635D01*
X023110Y015594D01*
X023151Y015556D01*
X023157Y015563D01*
X023116Y015600D01*
X023079Y015641D01*
X023044Y015683D01*
X023012Y015728D01*
X022984Y015776D01*
X022959Y015825D01*
X022937Y015876D01*
X022920Y015928D01*
X022906Y015981D01*
X022896Y016035D01*
X022889Y016090D01*
X022887Y016145D01*
X022896Y016145D01*
X022898Y016091D01*
X022904Y016037D01*
X022914Y015983D01*
X022928Y015930D01*
X022946Y015879D01*
X022967Y015829D01*
X022992Y015780D01*
X023020Y015733D01*
X023051Y015689D01*
X023085Y015647D01*
X023123Y015607D01*
X023163Y015570D01*
X024204Y015505D02*
X024147Y015574D01*
X024147Y015573D02*
X024187Y015610D01*
X024225Y015649D01*
X024259Y015691D01*
X024291Y015735D01*
X024319Y015781D01*
X024344Y015830D01*
X024365Y015880D01*
X024383Y015931D01*
X024396Y015984D01*
X024406Y016037D01*
X024413Y016091D01*
X024415Y016145D01*
X024504Y016146D01*
X024505Y016145D01*
X024503Y016089D01*
X024497Y016033D01*
X024487Y015978D01*
X024474Y015923D01*
X024457Y015870D01*
X024437Y015817D01*
X024413Y015766D01*
X024386Y015717D01*
X024355Y015670D01*
X024322Y015625D01*
X024286Y015582D01*
X024247Y015542D01*
X024205Y015504D01*
X024199Y015511D01*
X024240Y015548D01*
X024279Y015588D01*
X024315Y015630D01*
X024348Y015675D01*
X024378Y015722D01*
X024405Y015770D01*
X024428Y015821D01*
X024449Y015873D01*
X024465Y015926D01*
X024478Y015980D01*
X024488Y016034D01*
X024494Y016089D01*
X024496Y016145D01*
X024487Y016145D01*
X024485Y016090D01*
X024479Y016035D01*
X024470Y015981D01*
X024457Y015928D01*
X024440Y015876D01*
X024420Y015824D01*
X024397Y015775D01*
X024370Y015726D01*
X024341Y015680D01*
X024308Y015636D01*
X024272Y015594D01*
X024234Y015555D01*
X024193Y015518D01*
X024188Y015525D01*
X024228Y015561D01*
X024266Y015600D01*
X024301Y015642D01*
X024333Y015685D01*
X024363Y015731D01*
X024389Y015779D01*
X024412Y015828D01*
X024432Y015878D01*
X024448Y015930D01*
X024461Y015983D01*
X024470Y016037D01*
X024476Y016091D01*
X024478Y016145D01*
X024469Y016145D01*
X024467Y016091D01*
X024461Y016038D01*
X024452Y015985D01*
X024439Y015933D01*
X024423Y015881D01*
X024404Y015831D01*
X024381Y015783D01*
X024355Y015736D01*
X024326Y015690D01*
X024294Y015647D01*
X024259Y015606D01*
X024222Y015568D01*
X024182Y015532D01*
X024176Y015539D01*
X024215Y015574D01*
X024252Y015612D01*
X024287Y015653D01*
X024318Y015696D01*
X024347Y015740D01*
X024373Y015787D01*
X024395Y015835D01*
X024415Y015884D01*
X024431Y015935D01*
X024443Y015987D01*
X024452Y016039D01*
X024458Y016092D01*
X024460Y016145D01*
X024451Y016145D01*
X024449Y016093D01*
X024443Y016040D01*
X024434Y015989D01*
X024422Y015938D01*
X024406Y015887D01*
X024387Y015838D01*
X024365Y015791D01*
X024339Y015745D01*
X024311Y015701D01*
X024280Y015659D01*
X024246Y015618D01*
X024209Y015581D01*
X024170Y015546D01*
X024164Y015552D01*
X024203Y015587D01*
X024239Y015625D01*
X024273Y015664D01*
X024304Y015706D01*
X024332Y015750D01*
X024357Y015795D01*
X024379Y015842D01*
X024398Y015890D01*
X024413Y015940D01*
X024426Y015990D01*
X024434Y016042D01*
X024440Y016093D01*
X024442Y016145D01*
X024433Y016145D01*
X024431Y016094D01*
X024426Y016043D01*
X024417Y015992D01*
X024405Y015942D01*
X024389Y015893D01*
X024371Y015846D01*
X024349Y015799D01*
X024324Y015754D01*
X024296Y015711D01*
X024266Y015670D01*
X024233Y015631D01*
X024197Y015594D01*
X024159Y015559D01*
X024153Y015566D01*
X024194Y015603D01*
X024232Y015643D01*
X024266Y015685D01*
X024298Y015730D01*
X024327Y015777D01*
X024352Y015826D01*
X024373Y015877D01*
X024391Y015928D01*
X024405Y015982D01*
X024415Y016036D01*
X024422Y016090D01*
X024424Y016145D01*
X024583Y017419D02*
X024538Y017497D01*
X024539Y017497D02*
X024583Y017525D01*
X024625Y017556D01*
X024665Y017589D01*
X024703Y017625D01*
X024738Y017664D01*
X024770Y017705D01*
X024800Y017749D01*
X024826Y017794D01*
X024849Y017841D01*
X024869Y017889D01*
X024885Y017939D01*
X024898Y017989D01*
X024907Y018041D01*
X024913Y018093D01*
X024915Y018145D01*
X025004Y018146D01*
X025005Y018145D01*
X025003Y018090D01*
X024997Y018036D01*
X024988Y017981D01*
X024975Y017928D01*
X024959Y017876D01*
X024940Y017824D01*
X024917Y017774D01*
X024891Y017726D01*
X024862Y017679D01*
X024830Y017635D01*
X024795Y017592D01*
X024757Y017552D01*
X024717Y017515D01*
X024675Y017480D01*
X024630Y017448D01*
X024584Y017419D01*
X024579Y017427D01*
X024625Y017455D01*
X024669Y017487D01*
X024711Y017522D01*
X024751Y017559D01*
X024788Y017598D01*
X024823Y017640D01*
X024854Y017684D01*
X024883Y017730D01*
X024909Y017778D01*
X024931Y017828D01*
X024951Y017878D01*
X024967Y017930D01*
X024979Y017983D01*
X024988Y018037D01*
X024994Y018091D01*
X024996Y018145D01*
X024987Y018145D01*
X024985Y018091D01*
X024979Y018038D01*
X024970Y017985D01*
X024958Y017933D01*
X024942Y017881D01*
X024923Y017831D01*
X024901Y017782D01*
X024875Y017735D01*
X024847Y017689D01*
X024815Y017646D01*
X024781Y017604D01*
X024745Y017565D01*
X024705Y017528D01*
X024664Y017494D01*
X024620Y017463D01*
X024575Y017434D01*
X024570Y017442D01*
X024618Y017472D01*
X024664Y017506D01*
X024707Y017542D01*
X024748Y017582D01*
X024786Y017624D01*
X024821Y017668D01*
X024853Y017715D01*
X024881Y017764D01*
X024906Y017815D01*
X024928Y017868D01*
X024945Y017921D01*
X024959Y017976D01*
X024969Y018032D01*
X024976Y018088D01*
X024978Y018145D01*
X024969Y018145D01*
X024967Y018089D01*
X024961Y018033D01*
X024951Y017978D01*
X024937Y017924D01*
X024919Y017871D01*
X024898Y017819D01*
X024873Y017768D01*
X024845Y017720D01*
X024814Y017674D01*
X024779Y017629D01*
X024742Y017588D01*
X024701Y017549D01*
X024659Y017513D01*
X024613Y017480D01*
X024566Y017450D01*
X024561Y017458D01*
X024608Y017487D01*
X024653Y017520D01*
X024695Y017556D01*
X024735Y017594D01*
X024772Y017635D01*
X024807Y017679D01*
X024838Y017725D01*
X024865Y017773D01*
X024890Y017822D01*
X024911Y017874D01*
X024928Y017926D01*
X024942Y017980D01*
X024952Y018035D01*
X024958Y018090D01*
X024960Y018145D01*
X024951Y018145D01*
X024949Y018090D01*
X024943Y018036D01*
X024933Y017982D01*
X024919Y017929D01*
X024902Y017877D01*
X024882Y017826D01*
X024857Y017777D01*
X024830Y017730D01*
X024799Y017684D01*
X024766Y017641D01*
X024729Y017600D01*
X024689Y017562D01*
X024647Y017527D01*
X024603Y017495D01*
X024557Y017466D01*
X024552Y017474D01*
X024598Y017502D01*
X024642Y017534D01*
X024683Y017569D01*
X024722Y017607D01*
X024759Y017647D01*
X024792Y017689D01*
X024822Y017734D01*
X024850Y017781D01*
X024873Y017830D01*
X024894Y017880D01*
X024911Y017931D01*
X024924Y017984D01*
X024934Y018037D01*
X024940Y018091D01*
X024942Y018145D01*
X024933Y018145D01*
X024931Y018092D01*
X024925Y018038D01*
X024915Y017986D01*
X024902Y017934D01*
X024885Y017883D01*
X024865Y017833D01*
X024842Y017785D01*
X024815Y017739D01*
X024785Y017695D01*
X024752Y017653D01*
X024716Y017613D01*
X024677Y017576D01*
X024636Y017541D01*
X024593Y017510D01*
X024548Y017481D01*
X024543Y017489D01*
X024588Y017517D01*
X024631Y017548D01*
X024671Y017582D01*
X024709Y017619D01*
X024745Y017658D01*
X024777Y017700D01*
X024807Y017744D01*
X024834Y017790D01*
X024857Y017837D01*
X024877Y017886D01*
X024894Y017936D01*
X024907Y017988D01*
X024916Y018040D01*
X024922Y018092D01*
X024924Y018145D01*
X023316Y018145D02*
X023406Y018145D01*
X023405Y018145D02*
X023407Y018091D01*
X023413Y018038D01*
X023423Y017985D01*
X023437Y017933D01*
X023454Y017882D01*
X023475Y017833D01*
X023499Y017785D01*
X023527Y017739D01*
X023558Y017695D01*
X023592Y017653D01*
X023628Y017614D01*
X023668Y017577D01*
X023710Y017544D01*
X023754Y017513D01*
X023800Y017486D01*
X023758Y017407D01*
X023709Y017435D01*
X023663Y017467D01*
X023618Y017502D01*
X023576Y017539D01*
X023536Y017580D01*
X023500Y017623D01*
X023466Y017668D01*
X023435Y017715D01*
X023408Y017765D01*
X023384Y017816D01*
X023363Y017868D01*
X023346Y017922D01*
X023333Y017977D01*
X023323Y018032D01*
X023317Y018089D01*
X023315Y018145D01*
X023324Y018145D01*
X023326Y018089D01*
X023332Y018034D01*
X023342Y017979D01*
X023355Y017924D01*
X023372Y017871D01*
X023392Y017819D01*
X023416Y017769D01*
X023443Y017720D01*
X023473Y017673D01*
X023507Y017628D01*
X023543Y017586D01*
X023582Y017546D01*
X023624Y017509D01*
X023668Y017474D01*
X023714Y017443D01*
X023762Y017415D01*
X023766Y017423D01*
X023719Y017451D01*
X023673Y017482D01*
X023630Y017516D01*
X023588Y017552D01*
X023550Y017592D01*
X023514Y017634D01*
X023481Y017678D01*
X023451Y017724D01*
X023424Y017773D01*
X023401Y017823D01*
X023380Y017874D01*
X023364Y017927D01*
X023351Y017980D01*
X023341Y018035D01*
X023335Y018090D01*
X023333Y018145D01*
X023342Y018145D01*
X023344Y018090D01*
X023350Y018036D01*
X023359Y017982D01*
X023372Y017929D01*
X023389Y017877D01*
X023409Y017826D01*
X023432Y017777D01*
X023459Y017729D01*
X023488Y017683D01*
X023521Y017639D01*
X023556Y017598D01*
X023595Y017559D01*
X023635Y017522D01*
X023678Y017489D01*
X023724Y017458D01*
X023771Y017431D01*
X023775Y017439D01*
X023728Y017466D01*
X023684Y017496D01*
X023641Y017529D01*
X023601Y017565D01*
X023563Y017604D01*
X023528Y017645D01*
X023496Y017688D01*
X023466Y017734D01*
X023440Y017781D01*
X023417Y017830D01*
X023397Y017880D01*
X023381Y017932D01*
X023368Y017984D01*
X023359Y018037D01*
X023353Y018091D01*
X023351Y018145D01*
X023360Y018145D01*
X023362Y018092D01*
X023368Y018039D01*
X023377Y017986D01*
X023390Y017934D01*
X023406Y017883D01*
X023425Y017833D01*
X023448Y017785D01*
X023474Y017738D01*
X023503Y017694D01*
X023535Y017651D01*
X023570Y017610D01*
X023607Y017572D01*
X023647Y017536D01*
X023689Y017503D01*
X023733Y017473D01*
X023779Y017446D01*
X023783Y017454D01*
X023738Y017481D01*
X023694Y017511D01*
X023653Y017543D01*
X023613Y017578D01*
X023576Y017616D01*
X023542Y017656D01*
X023510Y017699D01*
X023482Y017743D01*
X023456Y017789D01*
X023434Y017837D01*
X023414Y017886D01*
X023398Y017936D01*
X023386Y017988D01*
X023377Y018040D01*
X023371Y018092D01*
X023369Y018145D01*
X023378Y018145D01*
X023380Y018089D01*
X023387Y018034D01*
X023397Y017979D01*
X023411Y017925D01*
X023429Y017873D01*
X023450Y017821D01*
X023476Y017772D01*
X023504Y017724D01*
X023536Y017678D01*
X023571Y017635D01*
X023609Y017595D01*
X023650Y017557D01*
X023694Y017522D01*
X023740Y017491D01*
X023788Y017462D01*
X023792Y017470D01*
X023744Y017498D01*
X023699Y017529D01*
X023656Y017564D01*
X023616Y017601D01*
X023578Y017641D01*
X023543Y017684D01*
X023512Y017729D01*
X023483Y017776D01*
X023459Y017825D01*
X023437Y017876D01*
X023420Y017928D01*
X023406Y017981D01*
X023396Y018035D01*
X023389Y018090D01*
X023387Y018145D01*
X023396Y018145D01*
X023398Y018091D01*
X023404Y018037D01*
X023414Y017983D01*
X023428Y017931D01*
X023446Y017879D01*
X023467Y017829D01*
X023491Y017780D01*
X023519Y017734D01*
X023551Y017689D01*
X023585Y017647D01*
X023622Y017608D01*
X023662Y017571D01*
X023704Y017537D01*
X023749Y017506D01*
X023796Y017478D01*
X023616Y018795D02*
X023673Y018726D01*
X023673Y018727D02*
X023633Y018690D01*
X023595Y018651D01*
X023561Y018609D01*
X023529Y018565D01*
X023501Y018519D01*
X023476Y018470D01*
X023455Y018420D01*
X023437Y018369D01*
X023424Y018316D01*
X023414Y018263D01*
X023407Y018209D01*
X023405Y018155D01*
X023316Y018154D01*
X023315Y018155D01*
X023317Y018211D01*
X023323Y018267D01*
X023333Y018322D01*
X023346Y018377D01*
X023363Y018430D01*
X023383Y018483D01*
X023407Y018534D01*
X023434Y018583D01*
X023465Y018630D01*
X023498Y018675D01*
X023534Y018718D01*
X023573Y018758D01*
X023615Y018796D01*
X023621Y018789D01*
X023580Y018752D01*
X023541Y018712D01*
X023505Y018670D01*
X023472Y018625D01*
X023442Y018578D01*
X023415Y018530D01*
X023392Y018479D01*
X023371Y018427D01*
X023355Y018374D01*
X023342Y018320D01*
X023332Y018266D01*
X023326Y018211D01*
X023324Y018155D01*
X023333Y018155D01*
X023335Y018210D01*
X023341Y018265D01*
X023350Y018319D01*
X023363Y018372D01*
X023380Y018424D01*
X023400Y018476D01*
X023423Y018525D01*
X023450Y018574D01*
X023479Y018620D01*
X023512Y018664D01*
X023548Y018706D01*
X023586Y018745D01*
X023627Y018782D01*
X023632Y018775D01*
X023592Y018739D01*
X023554Y018700D01*
X023519Y018658D01*
X023487Y018615D01*
X023457Y018569D01*
X023431Y018521D01*
X023408Y018472D01*
X023388Y018422D01*
X023372Y018370D01*
X023359Y018317D01*
X023350Y018263D01*
X023344Y018209D01*
X023342Y018155D01*
X023351Y018155D01*
X023353Y018209D01*
X023359Y018262D01*
X023368Y018315D01*
X023381Y018367D01*
X023397Y018419D01*
X023416Y018469D01*
X023439Y018517D01*
X023465Y018564D01*
X023494Y018610D01*
X023526Y018653D01*
X023561Y018694D01*
X023598Y018732D01*
X023638Y018768D01*
X023644Y018761D01*
X023605Y018726D01*
X023568Y018688D01*
X023533Y018647D01*
X023502Y018604D01*
X023473Y018560D01*
X023447Y018513D01*
X023425Y018465D01*
X023405Y018416D01*
X023389Y018365D01*
X023377Y018313D01*
X023368Y018261D01*
X023362Y018208D01*
X023360Y018155D01*
X023369Y018155D01*
X023371Y018207D01*
X023377Y018260D01*
X023386Y018311D01*
X023398Y018362D01*
X023414Y018413D01*
X023433Y018462D01*
X023455Y018509D01*
X023481Y018555D01*
X023509Y018599D01*
X023540Y018641D01*
X023574Y018682D01*
X023611Y018719D01*
X023650Y018754D01*
X023656Y018748D01*
X023617Y018713D01*
X023581Y018675D01*
X023547Y018636D01*
X023516Y018594D01*
X023488Y018550D01*
X023463Y018505D01*
X023441Y018458D01*
X023422Y018410D01*
X023407Y018360D01*
X023394Y018310D01*
X023386Y018258D01*
X023380Y018207D01*
X023378Y018155D01*
X023387Y018155D01*
X023389Y018206D01*
X023394Y018257D01*
X023403Y018308D01*
X023415Y018358D01*
X023431Y018407D01*
X023449Y018454D01*
X023471Y018501D01*
X023496Y018546D01*
X023524Y018589D01*
X023554Y018630D01*
X023587Y018669D01*
X023623Y018706D01*
X023661Y018741D01*
X023667Y018734D01*
X023626Y018697D01*
X023588Y018657D01*
X023554Y018615D01*
X023522Y018570D01*
X023493Y018523D01*
X023468Y018474D01*
X023447Y018423D01*
X023429Y018372D01*
X023415Y018318D01*
X023405Y018264D01*
X023398Y018210D01*
X023396Y018155D01*
X025004Y018154D02*
X024914Y018154D01*
X024915Y018155D02*
X024913Y018209D01*
X024907Y018262D01*
X024897Y018315D01*
X024883Y018367D01*
X024866Y018418D01*
X024845Y018468D01*
X024821Y018516D01*
X024793Y018562D01*
X024762Y018606D01*
X024728Y018647D01*
X024691Y018687D01*
X024652Y018723D01*
X024709Y018791D01*
X024710Y018792D01*
X024751Y018754D01*
X024789Y018714D01*
X024825Y018671D01*
X024858Y018626D01*
X024888Y018579D01*
X024914Y018531D01*
X024938Y018480D01*
X024958Y018428D01*
X024974Y018375D01*
X024988Y018321D01*
X024997Y018266D01*
X025003Y018211D01*
X025005Y018155D01*
X024996Y018155D01*
X024994Y018210D01*
X024988Y018265D01*
X024979Y018319D01*
X024966Y018373D01*
X024949Y018425D01*
X024930Y018477D01*
X024906Y018527D01*
X024880Y018575D01*
X024850Y018621D01*
X024818Y018666D01*
X024783Y018708D01*
X024744Y018748D01*
X024704Y018785D01*
X024698Y018778D01*
X024738Y018741D01*
X024776Y018702D01*
X024811Y018660D01*
X024843Y018616D01*
X024872Y018570D01*
X024898Y018522D01*
X024921Y018473D01*
X024941Y018422D01*
X024957Y018370D01*
X024970Y018317D01*
X024979Y018264D01*
X024985Y018209D01*
X024987Y018155D01*
X024978Y018155D01*
X024976Y018209D01*
X024970Y018262D01*
X024961Y018315D01*
X024948Y018368D01*
X024932Y018419D01*
X024913Y018470D01*
X024890Y018518D01*
X024865Y018566D01*
X024836Y018611D01*
X024804Y018655D01*
X024769Y018696D01*
X024732Y018735D01*
X024692Y018771D01*
X024686Y018764D01*
X024726Y018728D01*
X024763Y018690D01*
X024797Y018649D01*
X024828Y018606D01*
X024857Y018561D01*
X024882Y018514D01*
X024905Y018466D01*
X024924Y018416D01*
X024940Y018365D01*
X024952Y018314D01*
X024961Y018261D01*
X024967Y018208D01*
X024969Y018155D01*
X024960Y018155D01*
X024958Y018208D01*
X024952Y018260D01*
X024943Y018312D01*
X024931Y018363D01*
X024915Y018413D01*
X024896Y018463D01*
X024874Y018510D01*
X024849Y018557D01*
X024821Y018601D01*
X024790Y018643D01*
X024756Y018684D01*
X024719Y018722D01*
X024681Y018757D01*
X024675Y018751D01*
X024713Y018715D01*
X024749Y018678D01*
X024783Y018638D01*
X024813Y018596D01*
X024841Y018552D01*
X024866Y018506D01*
X024888Y018459D01*
X024907Y018410D01*
X024922Y018361D01*
X024935Y018310D01*
X024943Y018259D01*
X024949Y018207D01*
X024951Y018155D01*
X024942Y018155D01*
X024940Y018211D01*
X024933Y018266D01*
X024923Y018321D01*
X024909Y018375D01*
X024891Y018428D01*
X024869Y018479D01*
X024844Y018529D01*
X024815Y018577D01*
X024783Y018622D01*
X024748Y018665D01*
X024710Y018706D01*
X024669Y018744D01*
X024663Y018737D01*
X024704Y018700D01*
X024741Y018659D01*
X024776Y018617D01*
X024808Y018572D01*
X024836Y018524D01*
X024861Y018475D01*
X024883Y018424D01*
X024900Y018372D01*
X024914Y018319D01*
X024924Y018265D01*
X024931Y018210D01*
X024933Y018155D01*
X024924Y018155D01*
X024922Y018209D01*
X024916Y018263D01*
X024906Y018317D01*
X024892Y018370D01*
X024874Y018421D01*
X024853Y018471D01*
X024828Y018520D01*
X024800Y018567D01*
X024769Y018611D01*
X024735Y018653D01*
X024697Y018693D01*
X024657Y018730D01*
D16*
X024670Y018770D02*
X024490Y018770D01*
X023850Y018770D02*
X023650Y018770D01*
X023330Y015530D02*
X023150Y015530D01*
X023970Y015530D02*
X024170Y015530D01*
X030940Y009150D02*
X016380Y009150D01*
X016380Y003150D01*
X021660Y003150D01*
X021660Y000150D01*
X030940Y000150D01*
X030940Y009150D01*
X021660Y000150D02*
X016380Y000150D01*
X016380Y003150D01*
D17*
X007145Y018965D02*
X006855Y018965D01*
X006855Y019110D01*
X006903Y019158D01*
X007000Y019158D01*
X007048Y019110D01*
X007048Y018965D01*
X007048Y019062D02*
X007145Y019158D01*
X007145Y019260D02*
X007145Y019453D01*
X007097Y019554D02*
X007145Y019603D01*
X007145Y019699D01*
X007097Y019748D01*
X007048Y019748D01*
X007000Y019699D01*
X007000Y019603D01*
X006952Y019554D01*
X006903Y019554D01*
X006855Y019603D01*
X006855Y019699D01*
X006903Y019748D01*
X006855Y019849D02*
X007145Y019849D01*
X007145Y020042D01*
X007000Y019946D02*
X007000Y019849D01*
X006855Y019849D02*
X006855Y020042D01*
X006855Y020144D02*
X006855Y020337D01*
X006855Y020240D02*
X007145Y020240D01*
X006855Y019453D02*
X006855Y019260D01*
X007145Y019260D01*
X007000Y019260D02*
X007000Y019356D01*
X006145Y019513D02*
X006097Y019465D01*
X006145Y019513D02*
X006145Y019610D01*
X006097Y019658D01*
X006048Y019658D01*
X006000Y019610D01*
X006000Y019513D01*
X005952Y019465D01*
X005903Y019465D01*
X005855Y019513D01*
X005855Y019610D01*
X005903Y019658D01*
X005903Y019760D02*
X006097Y019760D01*
X006145Y019808D01*
X006145Y019905D01*
X006097Y019953D01*
X006145Y020054D02*
X005855Y020054D01*
X005903Y019953D02*
X005855Y019905D01*
X005855Y019808D01*
X005903Y019760D01*
X006048Y020054D02*
X005855Y020248D01*
X006000Y020103D02*
X006145Y020248D01*
X005145Y020146D02*
X005145Y020049D01*
X005097Y020001D01*
X004903Y020001D01*
X004855Y020049D01*
X004855Y020146D01*
X004903Y020194D01*
X005097Y020194D01*
X005145Y020146D01*
X005097Y019900D02*
X005145Y019851D01*
X005145Y019754D01*
X005097Y019706D01*
X005000Y019754D02*
X005000Y019851D01*
X005048Y019900D01*
X005097Y019900D01*
X005000Y019754D02*
X004952Y019706D01*
X004903Y019706D01*
X004855Y019754D01*
X004855Y019851D01*
X004903Y019900D01*
X004855Y019606D02*
X004855Y019510D01*
X004855Y019558D02*
X005145Y019558D01*
X005145Y019510D02*
X005145Y019606D01*
X005145Y019408D02*
X004855Y019408D01*
X004952Y019312D01*
X004855Y019215D01*
X005145Y019215D01*
X005000Y022715D02*
X005000Y022908D01*
X005000Y023010D02*
X004952Y023106D01*
X004952Y023155D01*
X005000Y023203D01*
X005097Y023203D01*
X005145Y023155D01*
X005145Y023058D01*
X005097Y023010D01*
X005000Y023010D02*
X004855Y023010D01*
X004855Y023203D01*
X004855Y023304D02*
X005048Y023304D01*
X005145Y023401D01*
X005048Y023498D01*
X004855Y023498D01*
X004903Y022812D02*
X005097Y022812D01*
X005855Y022908D02*
X006145Y022908D01*
X006097Y023010D02*
X006145Y023058D01*
X006145Y023155D01*
X006097Y023203D01*
X005903Y023203D01*
X005855Y023155D01*
X005855Y023058D01*
X005903Y023010D01*
X006097Y023010D01*
X005952Y022812D02*
X005855Y022908D01*
X005952Y022812D02*
X005855Y022715D01*
X006145Y022715D01*
X006097Y023304D02*
X006145Y023353D01*
X006145Y023449D01*
X006097Y023498D01*
X006048Y023498D01*
X006000Y023449D01*
X006000Y023353D01*
X005952Y023304D01*
X005903Y023304D01*
X005855Y023353D01*
X005855Y023449D01*
X005903Y023498D01*
X005855Y023599D02*
X005855Y023696D01*
X005855Y023647D02*
X006145Y023647D01*
X006145Y023599D02*
X006145Y023696D01*
X006855Y023449D02*
X006855Y023304D01*
X007145Y023304D01*
X007145Y023449D01*
X007097Y023498D01*
X006903Y023498D01*
X006855Y023449D01*
X006855Y023203D02*
X007145Y023203D01*
X006855Y023010D01*
X007145Y023010D01*
X007097Y022908D02*
X007000Y022908D01*
X007000Y022812D01*
X007097Y022908D02*
X007145Y022860D01*
X007145Y022763D01*
X007097Y022715D01*
X006903Y022715D01*
X006855Y022763D01*
X006855Y022860D01*
X006903Y022908D01*
D18*
X008860Y016150D02*
X004860Y016150D01*
X004610Y016150D02*
X004610Y014150D01*
X004860Y014150D02*
X008860Y014150D01*
X009110Y014150D02*
X009110Y016150D01*
X007360Y015650D02*
X007360Y014650D01*
X007110Y014650D02*
X006610Y014650D01*
X006610Y015650D01*
X007110Y015650D01*
X007110Y014650D01*
X007110Y014659D02*
X006610Y014659D01*
X006610Y014817D02*
X007110Y014817D01*
X007110Y014976D02*
X006610Y014976D01*
X006610Y015134D02*
X007110Y015134D01*
X007110Y015293D02*
X006610Y015293D01*
X006610Y015451D02*
X007110Y015451D01*
X007110Y015610D02*
X006610Y015610D01*
X006360Y015650D02*
X006360Y014650D01*
D19*
X013390Y010315D03*
D20*
X015160Y011625D03*
D21*
X013435Y011375D03*
X016885Y011375D03*
D22*
X015660Y011375D03*
X014660Y011375D03*
D23*
X023865Y009886D03*
M02*
